<svg id="eYE81up57WJ1" xmlns="http://www.w3.org/2000/svg" xmlns:xlink="http://www.w3.org/1999/xlink" viewBox="0 0 369 203" shape-rendering="geometricPrecision" text-rendering="geometricPrecision">
<style><![CDATA[
#eYE81up57WJ2_to {animation: eYE81up57WJ2_to__to 500ms linear 1 normal forwards}@keyframes eYE81up57WJ2_to__to { 0% {transform: translate(149.833972px,138.439108px)} 80% {transform: translate(191.841467px,106.088495px)} 100% {transform: translate(191.841467px,106.088495px)}} #eYE81up57WJ2_tr {animation: eYE81up57WJ2_tr__tr 500ms linear 1 normal forwards}@keyframes eYE81up57WJ2_tr__tr { 0% {transform: rotate(-12.390363deg)} 80% {transform: rotate(0deg)} 100% {transform: rotate(0deg)}} #eYE81up57WJ2_ts {animation: eYE81up57WJ2_ts__ts 500ms linear 1 normal forwards}@keyframes eYE81up57WJ2_ts__ts { 0% {transform: scale(0.783346,0.601066)} 80% {transform: scale(1,1)} 100% {transform: scale(1,1)}} #eYE81up57WJ2 {animation: eYE81up57WJ2_c_o 500ms linear 1 normal forwards}@keyframes eYE81up57WJ2_c_o { 0% {opacity: 0} 80% {opacity: 1} 100% {opacity: 1}}
]]></style>
<g id="eYE81up57WJ2_to" transform="translate(149.833972,138.439108)"><g id="eYE81up57WJ2_tr" transform="rotate(-12.390363)"><g id="eYE81up57WJ2_ts" transform="scale(0.783346,0.601066)"><g id="eYE81up57WJ2" transform="translate(-161.9405,-110.4975)" opacity="0" clip-rule="evenodd"><g clip-rule="evenodd"><path d="M303.722,18.776L20.158,34.903C9.025,34.903,0,43.927,0,55.062v81.306c0,11.132,9.025,20.158,20.158,20.158l29.78,1.482-21.885,44.211l75.595-42.854l200.074,5.225c11.134,0,20.159-9.026,20.159-20.159v-105.496c0-11.135-9.025-20.159-20.159-20.159ZM163.269,71.545c7.729,0,14.049,2.311,18.963,6.933s7.37,10.643,7.37,18.06c0,8.446-2.905,15.562-8.71,21.344-5.808,5.784-12.959,8.673-21.452,8.673-7.54,0-13.891-2.473-19.051-7.418-5.16-4.946-7.741-10.994-7.741-18.146c0-8.028,3.009-14.943,9.027-20.744c6.015-5.803,13.214-8.702,21.594-8.702Zm118.344-10.34l-2.221,11.196h11.686l-2.107,11.71h-11.628l-3.074,17.203c-.269,1.484-.402,2.854-.402,4.109c0,4.683,1.577,7.022,4.729,7.022c1.899,0,4.934-1.065,9.112-3.197l-2.769,15.108c-4.645,2.248-6.409,2.199-10.824,2.199-5.143,0-9.192-1.627-12.141-4.884-2.952-3.255-4.426-7.472-4.426-12.652c0-1.6.151-3.161.457-4.685l3.713-20.223h-10.74l1.999-11.71h10.74l1.885-11.196h16.011ZM248.654,72.401l-8.263,53.126h-15.807l.97-5.94c-5.521,4.569-11.252,6.855-17.195,6.855-4.951,0-8.776-1.447-11.482-4.341-2.703-2.895-4.056-6.835-4.056-11.825c0-1.294.095-2.685.287-4.172l4.798-33.703h15.751l-3.958,28.215c-.343,2.402-.513,4.477-.513,6.227c0,5.296,1.582,7.944,4.748,7.944c4.084,0,8.529-2.589,13.335-7.768l4.798-34.618h16.587ZM73.475,76.343L71.463,88.826c-2.742-1.37-4.843-2.429-7.815-3.23-2.969-.799-5.236-1.198-6.798-1.198-2.322,0-3.483.777-3.483,2.332c0,1.557,2.094,3.894,6.284,7.013c4.798,3.577,7.892,6.562,9.283,8.959c1.389,2.398,2.083,4.795,2.083,7.189c0,4.795-1.855,8.753-5.569,11.871-3.712,3.119-8.482,4.68-14.309,4.68-6.056,0-12.167-1.6-18.337-4.799l2.171-11.767c6.473,2.476,11.31,3.713,14.508,3.713c3.466,0,5.2-.973,5.2-2.921c0-1.64-2.303-4.199-6.905-7.675-4.604-3.479-7.576-6.253-8.911-8.326-1.339-2.071-2.007-4.058-2.007-5.959c0-5.056,1.856-9.18,5.569-12.374c3.713-3.193,8.484-4.789,14.31-4.789c5.522,0,11.101,1.599,16.738,4.798Zm27.753-30.62L96.543,78.571c5.597-4.685,11.516-7.026,17.76-7.026c4.568,0,8.157,1.356,10.764,4.071c2.609,2.715,3.913,6.502,3.913,11.36c0,1.33-.097,2.717-.287,4.158l-4.79,34.393h-15.806l4.798-33.999c.267-2.015-.048-3.706-.943-5.076-.896-1.37-2.222-2.054-3.974-2.054-3.659,0-8.061,2.227-13.206,6.684l-4.8,34.445h-15.807L85.418,45.723h15.81Zm58.327,67.979c3.998,0,7.274-1.833,9.826-5.502c2.549-3.666,3.825-7.705,3.825-12.116c0-3.496-.971-6.318-2.91-8.465-1.944-2.147-4.515-3.221-7.714-3.221-4.227,0-7.55,1.89-9.969,5.672-2.419,3.783-3.627,7.725-3.627,11.83c0,3.573,1.066,6.433,3.2,8.581c2.133,2.146,4.588,3.221,7.369,3.221Z" clip-rule="evenodd" fill="#fff" stroke-linecap="round" stroke-linejoin="round" stroke-miterlimit="1.5"/></g></g></g></g></g></svg>
