<svg id="epnh0lF7W6e1" xmlns="http://www.w3.org/2000/svg" xmlns:xlink="http://www.w3.org/1999/xlink" viewBox="0 0 694 920" shape-rendering="geometricPrecision" text-rendering="geometricPrecision">
<style><![CDATA[
#epnh0lF7W6e9_to {animation: epnh0lF7W6e9_to__to 10000ms linear infinite normal forwards}@keyframes epnh0lF7W6e9_to__to { 0% {transform: translate(346.700989px,199.999974px)} 70% {transform: translate(346.700989px,199.999974px)} 71% {transform: translate(346.700989px,349.999974px)} 100% {transform: translate(346.700989px,349.999974px)}} #epnh0lF7W6e9_ts {animation: epnh0lF7W6e9_ts__ts 10000ms linear infinite normal forwards}@keyframes epnh0lF7W6e9_ts__ts { 0% {transform: scale(1,0.944809)} 20% {transform: scale(1,0.944809)} 21% {transform: scale(1,1.12)} 41% {transform: scale(1,1.12)} 42% {transform: scale(1,0.9)} 70% {transform: scale(1,0.9)} 71% {transform: scale(1,1.82)} 100% {transform: scale(1,1.82)}} #epnh0lF7W6e19_to {animation: epnh0lF7W6e19_to__to 10000ms linear infinite normal forwards}@keyframes epnh0lF7W6e19_to__to { 0% {offset-distance: 0%} 20% {offset-distance: 0%} 21% {offset-distance: 46.587537%} 41% {offset-distance: 46.587537%} 42% {offset-distance: 100%} 100% {offset-distance: 100%}} #epnh0lF7W6e20 {animation: epnh0lF7W6e20_c_o 10000ms linear infinite normal forwards}@keyframes epnh0lF7W6e20_c_o { 0% {opacity: 0.3} 70% {opacity: 0.3} 71% {opacity: 1} 100% {opacity: 1}} #epnh0lF7W6e35 {animation: epnh0lF7W6e35_f_o 10000ms linear infinite normal forwards}@keyframes epnh0lF7W6e35_f_o { 0% {fill-opacity: 0} 80% {fill-opacity: 0} 81% {fill-opacity: 0.5} 83% {fill-opacity: 0} 84% {fill-opacity: 0.5} 100% {fill-opacity: 0.5}} #epnh0lF7W6e84 {animation: epnh0lF7W6e84_c_o 10000ms linear infinite normal forwards}@keyframes epnh0lF7W6e84_c_o { 0% {opacity: 0.3} 20% {opacity: 0.3} 21% {opacity: 1} 41% {opacity: 1} 42% {opacity: 0.3} 100% {opacity: 0.3}} #epnh0lF7W6e109 {animation: epnh0lF7W6e109_f_o 10000ms linear infinite normal forwards}@keyframes epnh0lF7W6e109_f_o { 0% {fill-opacity: 0.5} 29% {fill-opacity: 0.5} 30% {fill-opacity: 1} 32% {fill-opacity: 0.5} 33% {fill-opacity: 1} 100% {fill-opacity: 1}} #epnh0lF7W6e134 {animation: epnh0lF7W6e134_c_o 10000ms linear infinite normal forwards}@keyframes epnh0lF7W6e134_c_o { 0% {opacity: 0.3} 41% {opacity: 0.3} 42% {opacity: 1} 70% {opacity: 1} 71% {opacity: 0.3} 100% {opacity: 0.3}} #epnh0lF7W6e150_to {animation: epnh0lF7W6e150_to__to 10000ms linear infinite normal forwards}@keyframes epnh0lF7W6e150_to__to { 0% {transform: translate(500.522507px,151.132869px)} 48% {transform: translate(500.522507px,151.132869px)} 48.2% {transform: translate(503.961457px,151.132869px)} 51% {transform: translate(503.961457px,151.132869px)} 51.2% {transform: translate(506.313417px,151.15353px)} 58% {transform: translate(506.350247px,151.162737px)} 58.2% {transform: translate(509.060328px,151.162737px)} 60% {transform: translate(509.060328px,151.162737px)} 60.2% {transform: translate(511.850204px,151.156599px)} 62% {transform: translate(511.850204px,151.168875px)} 62.2% {transform: translate(515.025039px,151.132869px)} 100% {transform: translate(515.025039px,151.132869px)}} #epnh0lF7W6e151_to {animation: epnh0lF7W6e151_to__to 10000ms linear infinite normal forwards}@keyframes epnh0lF7W6e151_to__to { 0% {transform: translate(488.854149px,151.180461px)} 43.8% {transform: translate(488.854149px,151.180461px)} 43.9% {transform: translate(490.807033px,151.180461px)} 48% {transform: translate(490.807033px,151.180461px)} 48.2% {transform: translate(493.520962px,151.180461px)} 51% {transform: translate(493.520962px,151.180461px)} 51.2% {transform: translate(495.864809px,151.180461px)} 58% {transform: translate(495.864809px,151.180461px)} 58.2% {transform: translate(498.455382px,151.180461px)} 60% {transform: translate(498.455382px,151.180461px)} 60.2% {transform: translate(501.200151px,151.180461px)} 62% {transform: translate(501.200151px,151.180461px)} 62.2% {transform: translate(504.006603px,151.180461px)} 100% {transform: translate(504.006603px,151.180461px)}} #epnh0lF7W6e171 {animation: epnh0lF7W6e171_c_o 10000ms linear infinite normal forwards}@keyframes epnh0lF7W6e171_c_o { 0% {opacity: 1} 20% {opacity: 1} 21% {opacity: 0.3} 100% {opacity: 0.3}} #epnh0lF7W6e189 {animation: epnh0lF7W6e189_f_o 10000ms linear infinite normal forwards}@keyframes epnh0lF7W6e189_f_o { 0% {fill-opacity: 0} 10% {fill-opacity: 0} 11% {fill-opacity: 0.2} 13% {fill-opacity: 0} 14% {fill-opacity: 0.2} 100% {fill-opacity: 0.2}} #epnh0lF7W6e191 {animation: epnh0lF7W6e191_c_o 10000ms linear infinite normal forwards}@keyframes epnh0lF7W6e191_c_o { 0% {opacity: 0.5} 10% {opacity: 0.5} 11% {opacity: 1} 13% {opacity: 0.5} 14% {opacity: 1} 100% {opacity: 1}} #epnh0lF7W6e195 {animation: epnh0lF7W6e195_s_w 10000ms linear infinite normal forwards}@keyframes epnh0lF7W6e195_s_w { 0% {stroke-width: 0.28} 9% {stroke-width: 0.28} 10% {stroke-width: 1} 100% {stroke-width: 1}}
]]></style>
<defs><linearGradient id="epnh0lF7W6e111-fill" x1="531.282" y1="495.773" x2="871.984" y2="495.773" spreadMethod="pad" gradientUnits="userSpaceOnUse" gradientTransform="translate(0 0)"><stop id="epnh0lF7W6e111-fill-0" offset="0%" stop-color="#f77e82"/><stop id="epnh0lF7W6e111-fill-1" offset="100%" stop-color="#9bf77e"/></linearGradient><filter id="epnh0lF7W6e192-filter" x="-150%" width="400%" y="-150%" height="400%"><feComponentTransfer id="epnh0lF7W6e192-filter-brightness-0" result="result"><feFuncR id="epnh0lF7W6e192-filter-brightness-0-R" type="linear" slope="1"/><feFuncG id="epnh0lF7W6e192-filter-brightness-0-G" type="linear" slope="1"/><feFuncB id="epnh0lF7W6e192-filter-brightness-0-B" type="linear" slope="1"/></feComponentTransfer></filter></defs><g id="epnh0lF7W6e9_to" transform="translate(346.700989,199.999974)"><g id="epnh0lF7W6e9_ts" transform="scale(1,0.944809)"><g transform="translate(-1128.6427,-436.943698)" clip-rule="evenodd"><g transform="translate(-20.2933 33.8597)" clip-rule="evenodd"><g clip-path="url(#epnh0lF7W6e15)" clip-rule="evenodd"><g><g transform="matrix(.053631 0 0 5.70921 775.867-597.825)" clip-rule="evenodd"><rect width="153.08" height="23.478148" rx="0" ry="0" transform="translate(491.669 175.315)" clip-rule="evenodd" fill="#f74d67" fill-rule="evenodd" stroke-linejoin="round" stroke-miterlimit="2"/></g></g><clipPath id="epnh0lF7W6e15"><rect width="693.402" height="134.043345" rx="0" ry="0" transform="translate(802.235 403.084)" clip-rule="evenodd" fill-rule="evenodd" stroke-linejoin="round" stroke-miterlimit="2"/></clipPath></g><g transform="matrix(1.45883 0 0 1.90148-6130.13-477.194)" clip-rule="evenodd"><rect width="469.687" height="70.494687" rx="0" ry="0" transform="translate(4757.64 462.945)" clip-rule="evenodd" fill="#fff" fill-opacity="0.12" fill-rule="evenodd" stroke-linejoin="round" stroke-miterlimit="2"/></g></g></g></g></g><g id="epnh0lF7W6e19_to" style="offset-path:path('M366.300089,447.445572C366.300089,447.445572,366.300089,447.445572,366.300089,447.445572Q366.300089,342.778905,366.300089,290.445572L366.300089,290.445572Q366.300089,116.604019,366.300089,110.445572');offset-rotate:0deg"><g transform="translate(-366.300089,-447.445572)"><g id="epnh0lF7W6e20" transform="translate(-9.593148-335.401388)" opacity="0.3" clip-rule="evenodd"><g transform="matrix(1 0 0 1.87346-8.46443-468.432)" clip-rule="evenodd"><rect width="693.402" height="136.24" rx="0" ry="0" transform="translate(10.633 785.658)" clip-rule="evenodd" fill="none" fill-rule="evenodd" stroke-linecap="round" stroke-linejoin="round" stroke-miterlimit="1.5"/><g clip-path="url(#epnh0lF7W6e82)" clip-rule="evenodd"><g><g transform="matrix(1.11933 0 0 1.50137-1377.73 168.224)" clip-rule="evenodd"><rect width="619.48" height="87.189" rx="0" ry="0" transform="translate(1240.92 411.482)" clip-rule="evenodd" fill="none" fill-rule="evenodd" stroke-linecap="round" stroke-linejoin="round" stroke-miterlimit="1.5"/><g transform="matrix(1.35082 0 0 0.537555 520.172 326.598)" clip-rule="evenodd"><g transform="matrix(3.07709 0 0 3.07709-936.979-277.817)" clip-rule="evenodd"><text dx="0" dy="0" font-family="&quot;Poppins&quot;" font-size="4.235" font-weight="400" transform="translate(491.717 152.79)" clip-rule="evenodd" fill="#fff" fill-rule="evenodd" stroke-linecap="round" stroke-linejoin="round" stroke-miterlimit="1.5"><![CDATA[
Would you recommend us to a friend?
]]></text></g><g transform="matrix(.68295 0 0 0.670796-2941.3-115.386)" clip-rule="evenodd"><circle r="12.423" transform="translate(5127.18 451.68)" clip-rule="evenodd" fill="none" fill-rule="evenodd" stroke="#fff" stroke-width="0.98" stroke-linecap="round" stroke-linejoin="round" stroke-miterlimit="1.5"/></g><g transform="matrix(.661371 0 0 0.661371-2829.13-106.885)" clip-rule="evenodd"><text dx="0" dy="0" font-family="&quot;Poppins&quot;" font-size="20" font-weight="600" transform="translate(5117.71 452.421)" clip-rule="evenodd" fill="#fff" fill-rule="evenodd" stroke-linecap="round" stroke-linejoin="round" stroke-miterlimit="1.5"><![CDATA[
4
]]></text></g></g></g><g transform="matrix(1.01258 0 0 0.741689-7188.24 329.494)" clip-rule="evenodd"><path id="epnh0lF7W6e35" d="M7333,676.007c0-1.589-1.77-2.879-3.95-2.879h-151.1c-2.18,0-3.95,1.29-3.95,2.879v113.114c0,1.589,1.77,2.879,3.95,2.879h151.1c2.18,0,3.95-1.29,3.95-2.879v-113.114Z" clip-rule="evenodd" fill="#fff" fill-opacity="0" fill-rule="evenodd" stroke-linecap="round" stroke-linejoin="round" stroke-miterlimit="1.5"/><g clip-path="url(#epnh0lF7W6e55)" clip-rule="evenodd"><g><g transform="matrix(5.08082 0 0 3.70251 7221.69 701.781)" clip-rule="evenodd"><path d="M8.43,2.37c.004-.017.005-.034.005-.054v-.17c0-.281-.098-.519-.292-.713l-.572-.572h-.334L3.756,4.367c-.263.263-.392.568-.392.912v5.296c0,.344.129.649.393.913.263.263.568.392.912.392h4.774c.59,0,.984-.267,1.188-.794c0,.001,1.614-3.724,1.614-3.724l.004-.011c.06-.16.09-.32.09-.481v-1.069c0-.346-.13-.648-.396-.903-.262-.252-.566-.377-.909-.377h-3.065L8.43,2.37ZM0.182,11.644l.235.236h2.139l.235-.236v-6.365l-.235-.235h-2.139l-.235.235v6.365ZM7.964,2.295L7.447,4.708l.231.285h3.356c.221,0,.414.083.583.245.166.159.251.346.251.563v1.069c0,.102-.019.204-.056.305-.002.005-1.615,3.729-1.615,3.729l-.004.009c-.128.333-.379.496-.75.496h-4.774c-.219,0-.412-.087-.579-.255-.168-.167-.254-.36-.254-.579v-5.296c0-.219.086-.411.254-.579c0-.001,3.315-3.339,3.315-3.339l.404.405c.104.104.155.231.155.38l.236.236-.236-.231v.144ZM0.653,11.409v-5.894h1.667v5.894h-1.667Z" clip-rule="evenodd" fill="#fff" stroke-linecap="round" stroke-linejoin="round" stroke-miterlimit="1.5"/></g><g transform="matrix(4.59479 0 0 3.34833 4927.74 270.46)" clip-rule="evenodd"><text dx="0" dy="0" font-family="&quot;Poppins&quot;" font-size="4.235" font-weight="400" transform="translate(491.717 152.79)" clip-rule="evenodd" fill="#fff" fill-rule="evenodd" stroke-linecap="round" stroke-linejoin="round" stroke-miterlimit="1.5"><![CDATA[
Yes
]]></text></g><g transform="matrix(4.59479 0 0 3.34833 5047.24 269.027)" clip-rule="evenodd"><text dx="0" dy="0" font-family="&quot;Poppins&quot;" font-size="3.726" font-weight="400" transform="translate(491.717 152.79)" clip-rule="evenodd" fill="#fff" fill-rule="evenodd" stroke-linecap="round" stroke-linejoin="round" stroke-miterlimit="1.5"><![CDATA[
Y
]]></text></g><g transform="matrix(.623915 0 0 0.454662 7311.38 777.175)" clip-rule="evenodd"><g transform="translate(-21.5-20)" clip-rule="evenodd"><g clip-path="url(#epnh0lF7W6e53)" clip-rule="evenodd"><g><g transform="matrix(.834383 0 0 0.834383-871.129-727.108)" clip-rule="evenodd"><g transform="translate(1.37824 4.41033)" clip-rule="evenodd"><path d="M1093.43,879.517c0-6.896-5.6-12.495-12.5-12.495h-25.77c-6.9,0-12.5,5.599-12.5,12.495v22.19c0,6.896,5.6,12.495,12.5,12.495h25.77c6.9,0,12.5-5.599,12.5-12.495v-22.19Zm-2.81,0v22.19c0,5.35-4.34,9.693-9.69,9.693h-25.77c-5.35,0-9.7-4.343-9.7-9.693v-22.19c0-5.35,4.35-9.694,9.7-9.694h25.77c5.35,0,9.69,4.344,9.69,9.694Z" clip-rule="evenodd" fill="#fff" fill-rule="evenodd" stroke-linecap="round" stroke-linejoin="round" stroke-miterlimit="1.5"/></g><g transform="matrix(.764453 0 0 0.764453 255.941 213.314)" clip-rule="evenodd"><path d="M1043.6,913.063l22.3-2.145l14.28-.094c4.73,0,6.21-2.33,6.21-7.062l.1-10.908l2.24-19.048v29.956c0,6.023-2.53,9.4-8.55,9.4l-24.07-.189-12.51.09Z" clip-rule="evenodd" fill="#fff" fill-rule="evenodd" stroke-linecap="round" stroke-linejoin="round" stroke-miterlimit="1.5"/></g></g></g><clipPath id="epnh0lF7W6e53"><rect width="43" height="40" rx="0" ry="0" clip-rule="evenodd" fill-rule="evenodd" stroke-linecap="round" stroke-linejoin="round" stroke-miterlimit="1.5"/></clipPath></g></g></g></g><clipPath id="epnh0lF7W6e55"><path d="M7333,676.007c0-1.589-1.77-2.879-3.95-2.879h-151.1c-2.18,0-3.95,1.29-3.95,2.879v113.114c0,1.589,1.77,2.879,3.95,2.879h151.1c2.18,0,3.95-1.29,3.95-2.879v-113.114Z" clip-rule="evenodd" fill-rule="evenodd" stroke-linecap="round" stroke-linejoin="round" stroke-miterlimit="1.5"/></clipPath></g><path d="M7333,676.007c0-1.589-1.77-2.879-3.95-2.879h-151.1c-2.18,0-3.95,1.29-3.95,2.879v113.114c0,1.589,1.77,2.879,3.95,2.879h151.1c2.18,0,3.95-1.29,3.95-2.879v-113.114Z" clip-rule="evenodd" fill="#fff" fill-opacity="0" fill-rule="evenodd" stroke="#fff" stroke-linecap="round" stroke-linejoin="round" stroke-miterlimit="1.5"/></g><g transform="matrix(1.01258 0 0 0.741689-6997.24 329.494)" clip-rule="evenodd"><path d="M7333,676.007c0-1.589-1.77-2.879-3.95-2.879h-151.1c-2.18,0-3.95,1.29-3.95,2.879v113.114c0,1.589,1.77,2.879,3.95,2.879h151.1c2.18,0,3.95-1.29,3.95-2.879v-113.114Z" clip-rule="evenodd" fill="none" fill-rule="evenodd" stroke-linecap="round" stroke-linejoin="round" stroke-miterlimit="1.5"/><g clip-path="url(#epnh0lF7W6e79)" clip-rule="evenodd"><g><g transform="matrix(4.59479 0 0 3.34833 4927.74 270.467)" clip-rule="evenodd"><text dx="0" dy="0" font-family="&quot;Poppins&quot;" font-size="4.235" font-weight="400" transform="translate(491.717 152.79)" clip-rule="evenodd" fill="#fff" fill-rule="evenodd" stroke-linecap="round" stroke-linejoin="round" stroke-miterlimit="1.5"><![CDATA[
No
]]></text></g><g transform="matrix(-5.08082 0 0-3.70251 7285.31 751.523)" clip-rule="evenodd"><path d="M8.43,2.37c.004-.017.005-.034.005-.054v-.17c0-.281-.098-.519-.292-.713l-.572-.572h-.334L3.756,4.367c-.263.263-.392.568-.392.912v5.296c0,.344.129.649.393.913.263.263.568.392.912.392h4.774c.59,0,.984-.267,1.188-.794c0,.001,1.614-3.724,1.614-3.724l.004-.011c.06-.16.09-.32.09-.481v-1.069c0-.346-.13-.648-.396-.903-.262-.252-.566-.377-.909-.377h-3.065L8.43,2.37ZM0.182,11.644l.235.236h2.139l.235-.236v-6.365l-.235-.235h-2.139l-.235.235v6.365ZM7.964,2.295L7.447,4.708l.231.285h3.356c.221,0,.414.083.583.245.166.159.251.346.251.563v1.069c0,.102-.019.204-.056.305-.002.005-1.615,3.729-1.615,3.729l-.004.009c-.128.333-.379.496-.75.496h-4.774c-.219,0-.412-.087-.579-.255-.168-.167-.254-.36-.254-.579v-5.296c0-.219.086-.411.254-.579c0-.001,3.315-3.339,3.315-3.339l.404.405c.104.104.155.231.155.38l.236.236-.236-.231v.144ZM0.653,11.409v-5.894h1.667v5.894h-1.667Z" clip-rule="evenodd" fill="#fff" stroke-linecap="round" stroke-linejoin="round" stroke-miterlimit="1.5"/></g><g transform="matrix(4.59479 0 0 3.34833 5045.26 269.027)" clip-rule="evenodd"><text dx="0" dy="0" font-family="&quot;Poppins&quot;" font-size="3.726" font-weight="400" transform="translate(491.717 152.79)" clip-rule="evenodd" fill="#fff" fill-rule="evenodd" stroke-linecap="round" stroke-linejoin="round" stroke-miterlimit="1.5"><![CDATA[
N
]]></text></g><g transform="matrix(.623915 0 0 0.454662 7310.39 777.175)" clip-rule="evenodd"><g transform="translate(-21.5-20)" clip-rule="evenodd"><g clip-path="url(#epnh0lF7W6e77)" clip-rule="evenodd"><g><g transform="matrix(.834383 0 0 0.834383-871.129-727.108)" clip-rule="evenodd"><g transform="translate(1.37824 4.41033)" clip-rule="evenodd"><path d="M1093.43,879.517c0-6.896-5.6-12.495-12.5-12.495h-25.77c-6.9,0-12.5,5.599-12.5,12.495v22.19c0,6.896,5.6,12.495,12.5,12.495h25.77c6.9,0,12.5-5.599,12.5-12.495v-22.19Zm-2.81,0v22.19c0,5.35-4.34,9.693-9.69,9.693h-25.77c-5.35,0-9.7-4.343-9.7-9.693v-22.19c0-5.35,4.35-9.694,9.7-9.694h25.77c5.35,0,9.69,4.344,9.69,9.694Z" clip-rule="evenodd" fill="#fff" fill-rule="evenodd" stroke-linecap="round" stroke-linejoin="round" stroke-miterlimit="1.5"/></g><g transform="matrix(.764453 0 0 0.764453 255.941 213.314)" clip-rule="evenodd"><path d="M1043.6,913.063l22.3-2.145l14.28-.094c4.73,0,6.21-2.33,6.21-7.062l.1-10.908l2.24-19.048v29.956c0,6.023-2.53,9.4-8.55,9.4l-24.07-.189-12.51.09Z" clip-rule="evenodd" fill="#fff" fill-rule="evenodd" stroke-linecap="round" stroke-linejoin="round" stroke-miterlimit="1.5"/></g></g></g><clipPath id="epnh0lF7W6e77"><rect width="43" height="40" rx="0" ry="0" clip-rule="evenodd" fill-rule="evenodd" stroke-linecap="round" stroke-linejoin="round" stroke-miterlimit="1.5"/></clipPath></g></g></g></g><clipPath id="epnh0lF7W6e79"><path d="M7333,676.007c0-1.589-1.77-2.879-3.95-2.879h-151.1c-2.18,0-3.95,1.29-3.95,2.879v113.114c0,1.589,1.77,2.879,3.95,2.879h151.1c2.18,0,3.95-1.29,3.95-2.879v-113.114Z" clip-rule="evenodd" fill-rule="evenodd" stroke-linecap="round" stroke-linejoin="round" stroke-miterlimit="1.5"/></clipPath></g><path d="M7333,676.007c0-1.589-1.77-2.879-3.95-2.879h-151.1c-2.18,0-3.95,1.29-3.95,2.879v113.114c0,1.589,1.77,2.879,3.95,2.879h151.1c2.18,0,3.95-1.29,3.95-2.879v-113.114Zm-.99,0v113.114c0,1.192-1.32,2.159-2.96,2.159c0,0-151.1,0-151.1,0-1.63,0-2.96-.967-2.96-2.159c0,0,0-113.114,0-113.114c0-1.191,1.33-2.159,2.96-2.159c0,0,151.1,0,151.1,0c1.64,0,2.96.968,2.96,2.159Z" clip-rule="evenodd" fill="#fff" fill-rule="evenodd" stroke-linecap="round" stroke-linejoin="round" stroke-miterlimit="1.5"/></g></g><clipPath id="epnh0lF7W6e82"><rect width="693.402" height="136.24" rx="0" ry="0" transform="translate(10.633 785.658)" clip-rule="evenodd" fill-rule="evenodd" stroke-linecap="round" stroke-linejoin="round" stroke-miterlimit="1.5"/></clipPath></g></g></g><g id="epnh0lF7W6e84" transform="translate(-774.138223 364.988289)" opacity="0.3" clip-rule="evenodd"><g transform="translate(783.888-521.793)" clip-rule="evenodd"><rect width="693.402" height="184.718" rx="0" ry="0" transform="translate(10.633 521.793)" clip-rule="evenodd" fill="none" fill-rule="evenodd" stroke-linecap="round" stroke-linejoin="round" stroke-miterlimit="1.5"/><g clip-path="url(#epnh0lF7W6e132)" clip-rule="evenodd"><g><g transform="matrix(1.11933 0 0 2.11861-1378.37-349.976)" clip-rule="evenodd"><rect width="619.48" height="87.189" rx="0" ry="0" transform="translate(1240.92 411.482)" clip-rule="evenodd" fill="none" fill-rule="evenodd" stroke-linecap="round" stroke-linejoin="round" stroke-miterlimit="1.5"/><g transform="matrix(1 0 0 0.907079-21.1363 18.1849)" clip-rule="evenodd"><g transform="translate(.893392 6.24433)" clip-rule="evenodd"><g transform="matrix(3.70349 0 0 2.15712-509.271084 160.717)" clip-rule="evenodd"><text dx="0" dy="0" font-family="&quot;Poppins&quot;" font-size="2.584" font-weight="400" transform="translate(491.717 152.79)" clip-rule="evenodd" fill="#fff" fill-rule="evenodd" stroke-linecap="round" stroke-linejoin="round" stroke-miterlimit="1.5"><tspan y="0" font-weight="400"><![CDATA[
Very bad
]]></tspan></text></g><g transform="matrix(3.70349 0 0 2.15712-180.486 160.717)" clip-rule="evenodd"><text dx="0" dy="0" font-family="&quot;Poppins&quot;" font-size="2.584" font-weight="400" transform="translate(494.129296 152.79)" clip-rule="evenodd" fill="#fff" fill-rule="evenodd" stroke-linecap="round" stroke-linejoin="round" stroke-miterlimit="1.5"><tspan y="0" font-weight="400"><![CDATA[
Very good
]]></tspan></text></g></g><g transform="matrix(1 0 0 1.18799-1.78448-86.7575)" clip-rule="evenodd"><g transform="matrix(7.21234 0 0 2.52052-2271.43-27.155)" clip-rule="evenodd"><path d="M505.137,194.508c0-.236-.137-.428-.305-.428h-9.66c-.168,0-.305.192-.305.428v7.703c0,.236.137.428.305.428h9.66c.168,0,.305-.192.305-.428v-7.703Z" opacity="0.5" clip-rule="evenodd" fill="#fafafa" fill-rule="evenodd" stroke-linecap="round" stroke-linejoin="round" stroke-miterlimit="1.5"/></g><g transform="matrix(7.21234 0 0 2.52052-2186.25-27.2209)" clip-rule="evenodd"><path d="M505.137,194.508c0-.236-.137-.428-.305-.428h-9.66c-.168,0-.305.192-.305.428v7.703c0,.236.137.428.305.428h9.66c.168,0,.305-.192.305-.428v-7.703Z" opacity="0.5" clip-rule="evenodd" fill="#fafafa" fill-rule="evenodd" stroke-linecap="round" stroke-linejoin="round" stroke-miterlimit="1.5"/></g><g transform="matrix(7.21234 0 0 2.52052-2101.06-27.2867)" clip-rule="evenodd"><path d="M505.137,194.508c0-.236-.137-.428-.305-.428h-9.66c-.168,0-.305.192-.305.428v7.703c0,.236.137.428.305.428h9.66c.168,0,.305-.192.305-.428v-7.703Z" opacity="0.5" clip-rule="evenodd" fill="#fafafa" fill-rule="evenodd" stroke-linecap="round" stroke-linejoin="round" stroke-miterlimit="1.5"/></g><g transform="matrix(7.21234 0 0 2.52052-2015.88-27.0892)" clip-rule="evenodd"><path d="M505.137,194.508c0-.236-.137-.428-.305-.428h-9.66c-.168,0-.305.192-.305.428v7.703c0,.236.137.428.305.428h9.66c.168,0,.305-.192.305-.428v-7.703Z" opacity="0.5" clip-rule="evenodd" fill="#fafafa" fill-rule="evenodd" stroke-linecap="round" stroke-linejoin="round" stroke-miterlimit="1.5"/></g><g transform="matrix(7.21234 0 0 2.52052-1930.7-27.0892)" clip-rule="evenodd"><path id="epnh0lF7W6e109" d="M505.137,194.508c0-.236-.137-.428-.305-.428h-9.66c-.168,0-.305.192-.305.428v7.703c0,.236.137.428.305.428h9.66c.168,0,.305-.192.305-.428v-7.703Z" clip-rule="evenodd" fill="#fafafa" fill-opacity="0.5" fill-rule="evenodd" stroke-linecap="round" stroke-linejoin="round" stroke-miterlimit="1.5"/></g></g><g transform="matrix(1.21746 0 0 0.336115 649.123 290.395)" clip-rule="evenodd"><path d="M871.984,495.773c0-1.717-.661-3.11-1.474-3.11h-337.754c-.814,0-1.474,1.393-1.474,3.11c0,1.716.66,3.11,1.474,3.11h337.754c.813,0,1.474-1.394,1.474-3.11Z" clip-rule="evenodd" fill="url(#epnh0lF7W6e111-fill)" fill-rule="evenodd" stroke-linecap="round" stroke-linejoin="round" stroke-miterlimit="1.5"/></g></g><g transform="translate(-23.7601-15.1195)" clip-rule="evenodd"><g transform="matrix(3.70349 0 0 1.87154-519.933 100.879)" clip-rule="evenodd"><text dx="0" dy="0" font-family="&quot;Poppins&quot;" font-size="5" font-weight="700" transform="translate(499.647 195.908)" clip-rule="evenodd" fill="#2c2c51" fill-rule="evenodd" stroke-linecap="round" stroke-linejoin="round" stroke-miterlimit="1.5"><![CDATA[
1
]]></text></g><g transform="matrix(3.70349 0 0 1.87154-434.753 100.822)" clip-rule="evenodd"><text dx="0" dy="0" font-family="&quot;Poppins&quot;" font-size="5" font-weight="700" transform="translate(499.647 195.908)" clip-rule="evenodd" fill="#2c2c51" fill-rule="evenodd" stroke-linecap="round" stroke-linejoin="round" stroke-miterlimit="1.5"><![CDATA[
2
]]></text></g><g transform="matrix(3.70349 0 0 1.87154-349.573 100.765)" clip-rule="evenodd"><text dx="0" dy="0" font-family="&quot;Poppins&quot;" font-size="5" font-weight="700" transform="translate(499.647 195.908)" clip-rule="evenodd" fill="#2c2c51" fill-rule="evenodd" stroke-linecap="round" stroke-linejoin="round" stroke-miterlimit="1.5"><![CDATA[
3
]]></text></g><g transform="matrix(3.70349 0 0 1.87154-264.392 100.936)" clip-rule="evenodd"><text dx="0" dy="0" font-family="&quot;Poppins&quot;" font-size="5" font-weight="700" transform="translate(499.647 195.908)" clip-rule="evenodd" fill="#2c2c51" fill-rule="evenodd" stroke-linecap="round" stroke-linejoin="round" stroke-miterlimit="1.5"><![CDATA[
4
]]></text></g><g transform="matrix(3.70349 0 0 1.87154-179.212 100.936)" clip-rule="evenodd"><text dx="0" dy="0" font-family="&quot;Poppins&quot;" font-size="5" font-weight="700" transform="translate(499.647 195.908)" clip-rule="evenodd" fill="#2c2c51" fill-rule="evenodd" stroke-linecap="round" stroke-linejoin="round" stroke-miterlimit="1.5"><![CDATA[
5
]]></text></g></g><g transform="matrix(1.35082 0 0 0.71368 496.411 284.016)" clip-rule="evenodd"><g transform="matrix(3.07709 0 0 3.07709-936.979-277.817)" clip-rule="evenodd"><text dx="0" dy="0" font-family="&quot;Poppins&quot;" font-size="4.235" font-weight="400" transform="translate(491.717 152.79)" clip-rule="evenodd" fill="#fff" fill-rule="evenodd" stroke-linecap="round" stroke-linejoin="round" stroke-miterlimit="1.5"><tspan y="0" font-weight="400"><![CDATA[
How fast was the delivery?
]]></tspan></text></g><g transform="matrix(.68295 0 0 0.670796-2941.3-115.386)" clip-rule="evenodd"><circle r="12.423" transform="translate(5127.18 451.68)" clip-rule="evenodd" fill="none" fill-rule="evenodd" stroke="#fff" stroke-width="0.98" stroke-linecap="round" stroke-linejoin="round" stroke-miterlimit="1.5"/></g><g transform="matrix(.661371 0 0 0.661371-2827.81-106.885)" clip-rule="evenodd"><text dx="0" dy="0" font-family="&quot;Poppins&quot;" font-size="20" font-weight="600" transform="translate(5117.71 452.421)" clip-rule="evenodd" fill="#fff" fill-rule="evenodd" stroke-linecap="round" stroke-linejoin="round" stroke-miterlimit="1.5"><tspan font-family="&quot;Poppins&quot;" font-size="20" font-weight="600" font-style="normal" transform="translate(5117.71 452.421)" clip-rule="evenodd" fill="#fff" fill-rule="evenodd" stroke-linecap="round" stroke-linejoin="round" stroke-miterlimit="1.5"><![CDATA[
2
]]></tspan></text></g></g></g></g><clipPath id="epnh0lF7W6e132"><rect width="693.402" height="184.718" rx="0" ry="0" transform="translate(10.633 521.793)" clip-rule="evenodd" fill-rule="evenodd" stroke-linecap="round" stroke-linejoin="round" stroke-miterlimit="1.5"/></clipPath></g></g></g><g id="epnh0lF7W6e134" transform="translate(20.249246 309.9115)" opacity="0.3" clip-rule="evenodd"><g transform="matrix(1 0 0 0.998849-10.6328-548.746)" clip-rule="evenodd"><rect width="693.402" height="136.24" rx="0" ry="0" transform="translate(10.633 785.658)" clip-rule="evenodd" fill="none" fill-rule="evenodd" stroke-linecap="round" stroke-linejoin="round" stroke-miterlimit="1.5"/><g clip-path="url(#epnh0lF7W6e169)" clip-rule="evenodd"><g><g transform="matrix(1.11933 0 0 1.56439-1379.8 141.699)" clip-rule="evenodd"><rect width="619.48" height="87.189" rx="0" ry="0" transform="translate(1240.92 411.482)" clip-rule="evenodd" fill="none" fill-rule="evenodd" stroke-linecap="round" stroke-linejoin="round" stroke-miterlimit="1.5"/><g transform="matrix(.972047 0 0 0.798645-3244.71-255.01)" clip-rule="evenodd"><path d="M4946.83,870.973c0-.849-.8-1.538-1.77-1.538h-292.49c-.98,0-1.77.689-1.77,1.538v35.382c0,.849.79,1.539,1.77,1.539h292.49c.97,0,1.77-.69,1.77-1.539v-35.382Z" clip-rule="evenodd" fill="#a7a7a7" fill-rule="evenodd" stroke-linecap="round" stroke-linejoin="round" stroke-miterlimit="1.5"/><g clip-path="url(#epnh0lF7W6e157)" clip-rule="evenodd"><g><g transform="matrix(.938497 0 0 0.482999 322.885 454.516)" clip-rule="evenodd"><rect width="234.095" height="79.625" rx="0" ry="0" transform="translate(4650.8 858.917)" clip-rule="evenodd" fill="#fff" fill-rule="evenodd" stroke-linecap="round" stroke-linejoin="round" stroke-miterlimit="1.5"/></g><g transform="matrix(4.27611 0 0 3.72817 2596.36 324.985)" clip-rule="evenodd"><text dx="0" dy="0" font-family="&quot;Poppins&quot;" font-size="4.235" font-weight="400" transform="translate(491.717 152.79)" clip-rule="evenodd" fill="#1d2233" fill-rule="evenodd" stroke-linecap="round" stroke-linejoin="round" stroke-miterlimit="1.5"><tspan y="0" font-weight="400"><![CDATA[
15000
]]></tspan></text><g id="epnh0lF7W6e150_to" transform="translate(500.522507,151.132869)"><rect width="95.052662" height="24.555271" rx="0" ry="0" transform="scale(0.224914,0.327507) translate(-47.526331,-12.277635)" fill="#fff" stroke-width="0"/></g><g id="epnh0lF7W6e151_to" transform="translate(488.854149,151.180461)"><rect width="1.233526" height="28.987841" rx="0" ry="0" transform="scale(0.227702,0.216694) translate(-0.616763,-14.493921)" fill="#a7a7a7" stroke-width="0"/></g></g><g transform="matrix(4.27611 0 0 3.72817 2562.05 324.807)" clip-rule="evenodd"><text dx="0" dy="0" font-family="&quot;Poppins&quot;" font-size="4.235" font-weight="700" transform="translate(491.717 152.79)" clip-rule="evenodd" fill="#fff" fill-rule="evenodd" stroke-linecap="round" stroke-linejoin="round" stroke-miterlimit="1.5"><![CDATA[
£
]]></text></g><g transform="matrix(4.27611 0 0 3.72817 2815.23 324.746)" clip-rule="evenodd"><text dx="0" dy="0" font-family="&quot;Poppins&quot;" font-size="4.235" font-weight="700" transform="translate(491.072198 152.79)" clip-rule="evenodd" fill="#fff" fill-rule="evenodd" stroke-linecap="round" stroke-linejoin="round" stroke-miterlimit="1.5"><tspan font-family="&quot;Poppins&quot;" font-size="4.235" font-weight="700" font-style="normal" transform="translate(491.717 152.79)" clip-rule="evenodd" fill="#fff" fill-rule="evenodd" stroke-linecap="round" stroke-linejoin="round" stroke-miterlimit="1.5"><![CDATA[
00
]]></tspan></text></g></g><clipPath id="epnh0lF7W6e157"><path d="M4946.83,870.973c0-.849-.8-1.538-1.77-1.538h-292.49c-.98,0-1.77.689-1.77,1.538v35.382c0,.849.79,1.539,1.77,1.539h292.49c.97,0,1.77-.69,1.77-1.539v-35.382Z" clip-rule="evenodd" fill-rule="evenodd" stroke-linecap="round" stroke-linejoin="round" stroke-miterlimit="1.5"/></clipPath></g><path d="M4946.83,870.973c0-.849-.8-1.538-1.77-1.538h-292.49c-.98,0-1.77.689-1.77,1.538v35.382c0,.849.79,1.539,1.77,1.539h292.49c.97,0,1.77-.69,1.77-1.539v-35.382Z" clip-rule="evenodd" fill="none" fill-rule="evenodd" stroke="#eee" stroke-width="0.85" stroke-linecap="round" stroke-linejoin="round" stroke-miterlimit="1.5"/></g><g transform="matrix(1.35082 0 0 0.967631 497.694 238.814)" clip-rule="evenodd"><g transform="matrix(3.07709 0 0 3.07709-936.979-277.817)" clip-rule="evenodd"><text dx="0" dy="0" font-family="&quot;Poppins&quot;" font-size="4.235" font-weight="400" transform="translate(491.717 152.79)" clip-rule="evenodd" fill="#fff" fill-rule="evenodd" stroke-linecap="round" stroke-linejoin="round" stroke-miterlimit="1.5"><tspan font-family="&quot;Poppins&quot;" font-size="4.235" font-weight="400" font-style="normal" transform="translate(491.717 152.79)" clip-rule="evenodd" fill="#fff" fill-rule="evenodd" stroke-linecap="round" stroke-linejoin="round" stroke-miterlimit="1.5"><![CDATA[
What is your estimated spend for this project?
]]></tspan></text></g><g transform="matrix(.68295 0 0 0.670796-2941.3-115.386)" clip-rule="evenodd"><circle r="12.423" transform="translate(5127.18 451.68)" clip-rule="evenodd" fill="none" fill-rule="evenodd" stroke="#fff" stroke-width="0.98" stroke-linecap="round" stroke-linejoin="round" stroke-miterlimit="1.5"/></g><g transform="matrix(.661371 0 0 0.661371-2828.47-106.885)" clip-rule="evenodd"><text dx="0" dy="0" font-family="&quot;Poppins&quot;" font-size="20" font-weight="600" transform="translate(5117.71 452.421)" clip-rule="evenodd" fill="#fff" fill-rule="evenodd" stroke-linecap="round" stroke-linejoin="round" stroke-miterlimit="1.5"><tspan font-family="&quot;Poppins&quot;" font-size="20" font-weight="600" font-style="normal" transform="translate(5117.71 452.421)" clip-rule="evenodd" fill="#fff" fill-rule="evenodd" stroke-linecap="round" stroke-linejoin="round" stroke-miterlimit="1.5"><![CDATA[
3
]]></tspan></text></g></g></g></g><clipPath id="epnh0lF7W6e169"><rect width="693.402" height="136.24" rx="0" ry="0" transform="translate(10.633 785.658)" clip-rule="evenodd" fill-rule="evenodd" stroke-linecap="round" stroke-linejoin="round" stroke-miterlimit="1.5"/></clipPath></g></g></g><g id="epnh0lF7W6e171" transform="translate(18.081101 215.074583)" clip-rule="evenodd"><g transform="translate(2.16838 0)" clip-rule="evenodd"><rect width="693.402" height="150.813" rx="0" ry="0" clip-rule="evenodd" fill="none" fill-rule="evenodd" stroke-linecap="round" stroke-linejoin="round" stroke-miterlimit="1.5"/><g clip-path="url(#epnh0lF7W6e213)" clip-rule="evenodd"><g><g transform="matrix(1.11933 0 0 1.72973-1389-711.839)" clip-rule="evenodd"><rect width="619.48" height="87.189" rx="0" ry="0" transform="translate(1240.92 411.482)" clip-rule="evenodd" fill="none" fill-rule="evenodd" stroke-linecap="round" stroke-linejoin="round" stroke-miterlimit="1.5"/><g transform="matrix(1.35082 0 0 0.874128 495.518 254.781)" clip-rule="evenodd"><g transform="translate(473.246-8.68663)" clip-rule="evenodd"><g transform="translate(30.1406-1.18006)" clip-rule="evenodd"><text dx="0" dy="0" font-family="&quot;Poppins&quot;" font-size="12.5" font-weight="400" transform="translate(392.582 236.814)" clip-rule="evenodd" fill="#fff" fill-rule="evenodd" stroke-linecap="round" stroke-linejoin="round" stroke-miterlimit="1.5"><tspan font-family="&quot;Poppins&quot;" font-size="12.5" font-weight="400" font-style="normal" transform="translate(392.582 236.814)" clip-rule="evenodd" fill="#fff" fill-rule="evenodd" stroke-linecap="round" stroke-linejoin="round" stroke-miterlimit="1.5"><![CDATA[
Delivery time
]]></tspan></text></g><g transform="matrix(.661371 0 0 0.661371 77.1365 188.008)" clip-rule="evenodd"><path d="M508.384,43.071h-44.502c-1.72,0-3.117,1.396-3.117,3.117v38.294c0,1.72,1.397,3.117,3.117,3.117h44.502v-44.528ZM476.45,65.584c0-1.902.428-3.613,1.286-5.132.858-1.52,2.028-2.709,3.51-3.567c1.483-.857,3.128-1.286,4.937-1.286c2.126,0,3.981.513,5.566,1.538c1.585,1.026,2.741,2.48,3.468,4.363h-3.048c-.541-1.174-1.32-2.079-2.336-2.713s-2.233-.951-3.65-.951c-1.361,0-2.583.317-3.664.951s-1.93,1.534-2.545,2.699c-.616,1.166-.923,2.532-.923,4.098c0,1.548.307,2.904.923,4.07.615,1.165,1.464,2.065,2.545,2.699s2.303.951,3.664.951c1.417,0,2.634-.313,3.65-.937c1.016-.625,1.795-1.525,2.336-2.699h3.048c-.727,1.864-1.883,3.305-3.468,4.321s-3.44,1.524-5.566,1.524c-1.809,0-3.454-.424-4.937-1.272-1.482-.849-2.652-2.028-3.51-3.539-.858-1.51-1.286-3.216-1.286-5.118Z" clip-rule="evenodd" fill="#eee" fill-opacity="0.5" fill-rule="evenodd" stroke-linecap="round" stroke-linejoin="round" stroke-miterlimit="1.5"/></g><g transform="matrix(1.06034 0 0 1-10.0509-1.37075)" clip-rule="evenodd"><path d="M493.748,219.926c0-1.138-.871-2.062-1.944-2.062h-120.238c-1.073,0-1.945.924-1.945,2.062v25.327c0,1.137.872,2.061,1.945,2.061h120.238c1.073,0,1.944-.924,1.944-2.061v-25.327Z" clip-rule="evenodd" fill="#fff" fill-opacity="0" fill-rule="evenodd" stroke="#c2c2c2" stroke-width="0.27" stroke-linecap="round" stroke-linejoin="round" stroke-miterlimit="1.5"/></g></g><g transform="translate(363.199987-9.825032)" clip-rule="evenodd"><text dx="0" dy="0" font-family="&quot;Poppins&quot;" font-size="12.5" font-weight="400" transform="translate(392.582 236.814)" clip-rule="evenodd" fill="#fff" fill-rule="evenodd" stroke-linecap="round" stroke-linejoin="round" stroke-miterlimit="1.5"><![CDATA[
Quality
]]></text></g><path id="epnh0lF7W6e189" d="M401.238459,217.942107c0,0-.096254,29.385463-.096254,29.385463l91.128362-.01357c.815382,0,1.477433-.924,1.477433-2.061v-25.327c0-1.138-.662051-2.062-1.477433-2.062l-91.032108.078107Z" transform="translate(346.206317-10.05672)" clip-rule="evenodd" fill="#fff" fill-opacity="0" fill-rule="evenodd" stroke="#000" stroke-width="0.28" stroke-opacity="0" stroke-linecap="round" stroke-miterlimit="1.5"/><g transform="translate(334.11-8.68663)" clip-rule="evenodd"><g id="epnh0lF7W6e191" opacity="0.5"><g transform="matrix(.661371 0 0 0.661371 216.272 188.008)" clip-rule="evenodd" filter="url(#epnh0lF7W6e192-filter)"><path d="M298.009,43.071h-44.502c-1.72,0-3.117,1.396-3.117,3.117v38.294c0,1.72,1.397,3.117,3.117,3.117h44.502v-44.528ZM276.787,65.304c.709.112,1.357.401,1.944.867.587.467,1.054,1.045,1.399,1.734.345.69.517,1.427.517,2.21c0,.988-.252,1.879-.755,2.671-.504.793-1.236,1.417-2.196,1.874s-2.093.685-3.398.685h-7.272v-19.494h6.992c1.324,0,2.452.219,3.384.657.933.438,1.632,1.03,2.098,1.776s.699,1.585.699,2.517c0,1.156-.312,2.112-.937,2.867-.624.755-1.449,1.301-2.475,1.636Zm-2.713,7.944c1.268,0,2.256-.299,2.965-.895.708-.597,1.063-1.427,1.063-2.49c0-1.081-.373-1.934-1.119-2.559s-1.744-.937-2.993-.937h-4.419v6.881h4.503Zm-4.503-8.979h4.279c1.194,0,2.117-.279,2.769-.839.653-.559.979-1.333.979-2.321s-.326-1.762-.979-2.322c-.652-.559-1.594-.839-2.825-.839h-4.223v6.321Z" clip-rule="evenodd" fill="#eee" fill-rule="evenodd" stroke-linecap="round" stroke-linejoin="round" stroke-miterlimit="1.5"/></g><g transform="translate(12.252-1.37075)" clip-rule="evenodd"><path id="epnh0lF7W6e195" d="M493.748,219.926c0-1.138-.924-2.062-2.062-2.062h-120.003c-1.138,0-2.062.924-2.062,2.062v25.327c0,1.137.924,2.061,2.062,2.061h120.003c1.138,0,2.062-.924,2.062-2.061v-25.327Z" clip-rule="evenodd" fill="#fff" fill-opacity="0" fill-rule="evenodd" stroke="#fff" stroke-width="0.28" stroke-linecap="round" stroke-linejoin="round" stroke-miterlimit="1.5"/></g></g></g><g transform="translate(195.023-8.68663)" clip-rule="evenodd"><g transform="translate(30.1406-1.18006)" clip-rule="evenodd"><text dx="0" dy="0" font-family="&quot;Poppins&quot;" font-size="12.5" font-weight="400" transform="translate(392.582 236.814)" clip-rule="evenodd" fill="#fff" fill-rule="evenodd" stroke-linecap="round" stroke-linejoin="round" stroke-miterlimit="1.5"><tspan font-family="&quot;Poppins&quot;" font-size="12.5" font-weight="400" font-style="normal" transform="translate(392.582 236.814)" clip-rule="evenodd" fill="#fff" fill-rule="evenodd" stroke-linecap="round" stroke-linejoin="round" stroke-miterlimit="1.5"><![CDATA[
Price
]]></tspan></text></g><g transform="matrix(.661371 0 0 0.661371 355.359 188.008)" clip-rule="evenodd"><path d="M87.709,43.071h-44.502c-1.72,0-3.117,1.396-3.117,3.117v38.294c0,1.72,1.397,3.117,3.117,3.117h44.502v-44.528ZM68.249,71.01h-8.503L58.18,75.345h-2.685l7.048-19.383h2.937l7.021,19.383h-2.685L68.249,71.01Zm-.727-2.07l-3.524-9.845-3.524,9.845h7.048Z" clip-rule="evenodd" fill="#eee" fill-opacity="0.5" fill-rule="evenodd" stroke-linecap="round" stroke-linejoin="round" stroke-miterlimit="1.5"/></g><g transform="translate(12.252-1.37075)" clip-rule="evenodd"><path d="M493.748,219.926c0-1.138-.924-2.062-2.062-2.062h-120.003c-1.138,0-2.062.924-2.062,2.062v25.327c0,1.137.924,2.061,2.062,2.061h120.003c1.138,0,2.062-.924,2.062-2.061v-25.327Z" clip-rule="evenodd" fill="#fff" fill-opacity="0" fill-rule="evenodd" stroke="#c2c2c2" stroke-width="0.28" stroke-linecap="round" stroke-linejoin="round" stroke-miterlimit="1.5"/></g></g><g transform="translate(.661371 0.661371)" clip-rule="evenodd"><g transform="matrix(3.07709 0 0 3.07709-937.137-277.817)" clip-rule="evenodd"><text dx="0" dy="0" font-family="&quot;Poppins&quot;" font-size="4.235" font-weight="400" transform="translate(491.717 152.79)" clip-rule="evenodd" fill="#fff" fill-rule="evenodd" stroke-linecap="round" stroke-linejoin="round" stroke-miterlimit="1.5"><tspan font-family="&quot;Poppins&quot;" font-size="4.235" font-weight="400" font-style="normal" transform="translate(491.717 152.79)" clip-rule="evenodd" fill="#fff" fill-rule="evenodd" stroke-linecap="round" stroke-linejoin="round" stroke-miterlimit="1.5"><![CDATA[
What was the main selling point of our product?
]]></tspan></text></g><g transform="matrix(.68295 0 0 0.670796-2941.3-115.386)" clip-rule="evenodd"><circle r="12.423" transform="translate(5127.18 451.68)" clip-rule="evenodd" fill="none" fill-rule="evenodd" stroke="#fff" stroke-width="0.98" stroke-linecap="round" stroke-linejoin="round" stroke-miterlimit="1.5"/></g><g transform="matrix(.661371 0 0 0.661371-2827.15-106.885)" clip-rule="evenodd"><text dx="0" dy="0" font-family="&quot;SegoeUI-Semibold, Segoe UI, sans-serif&quot;" font-size="20" font-weight="600" transform="translate(5116.710002 452.421)" clip-rule="evenodd" fill="#fff" fill-rule="evenodd" stroke-linecap="round" stroke-linejoin="round" stroke-miterlimit="1.5"><tspan font-family="&quot;SegoeUI-Semibold, Segoe UI, sans-serif&quot;" font-size="20" font-weight="600" font-style="normal" transform="translate(5117.71 452.421)" clip-rule="evenodd" fill="#fff" fill-rule="evenodd" stroke-linecap="round" stroke-linejoin="round" stroke-miterlimit="1.5"><![CDATA[
1
]]></tspan></text></g></g></g></g></g><clipPath id="epnh0lF7W6e213"><rect width="693.402" height="150.813" rx="0" ry="0" clip-rule="evenodd" fill-rule="evenodd" stroke-linecap="round" stroke-linejoin="round" stroke-miterlimit="1.5"/></clipPath></g></g></g></g></g></svg>
