<?xml version="1.0" encoding="UTF-8" standalone="no"?><!DOCTYPE svg PUBLIC "-//W3C//DTD SVG 1.1//EN" "http://www.w3.org/Graphics/SVG/1.1/DTD/svg11.dtd"><svg width="100%" height="100%" viewBox="0 0 369 203" version="1.1" xmlns="http://www.w3.org/2000/svg" xmlns:xlink="http://www.w3.org/1999/xlink" xml:space="preserve" xmlns:serif="http://www.serif.com/" style="fill-rule:evenodd;clip-rule:evenodd;stroke-linecap:round;stroke-linejoin:round;stroke-miterlimit:1.5;"><g><path d="M303.722,18.776l-283.564,16.127c-11.133,0 -20.158,9.024 -20.158,20.159l0,81.306c0,11.132 9.025,20.158 20.158,20.158l29.78,1.482l-21.885,44.211l75.595,-42.854l200.074,5.225c11.134,0 20.159,-9.026 20.159,-20.159l-0,-105.496c-0,-11.135 -9.025,-20.159 -20.159,-20.159" style="fill:#f74d67;fill-rule:nonzero;"/><g><path d="M73.475,76.343l-2.012,12.483c-2.742,-1.37 -4.843,-2.429 -7.815,-3.23c-2.969,-0.799 -5.236,-1.198 -6.798,-1.198c-2.322,-0 -3.483,0.777 -3.483,2.332c-0,1.557 2.094,3.894 6.284,7.013c4.798,3.577 7.892,6.562 9.283,8.959c1.389,2.398 2.083,4.795 2.083,7.189c0,4.795 -1.855,8.753 -5.569,11.871c-3.712,3.119 -8.482,4.68 -14.309,4.68c-6.056,-0 -12.167,-1.6 -18.337,-4.799l2.171,-11.767c6.473,2.476 11.31,3.713 14.508,3.713c3.466,0 5.2,-0.973 5.2,-2.921c0,-1.64 -2.303,-4.199 -6.905,-7.675c-4.604,-3.479 -7.576,-6.253 -8.911,-8.326c-1.339,-2.071 -2.007,-4.058 -2.007,-5.959c-0,-5.056 1.856,-9.18 5.569,-12.374c3.713,-3.193 8.484,-4.789 14.31,-4.789c5.522,-0 11.101,1.599 16.738,4.798" style="fill:#fff;fill-rule:nonzero;"/><path d="M101.228,45.723l-4.685,32.848c5.597,-4.685 11.516,-7.026 17.76,-7.026c4.568,-0 8.157,1.356 10.764,4.071c2.609,2.715 3.913,6.502 3.913,11.36c-0,1.33 -0.097,2.717 -0.287,4.158l-4.79,34.393l-15.806,0l4.798,-33.999c0.267,-2.015 -0.048,-3.706 -0.943,-5.076c-0.896,-1.37 -2.222,-2.054 -3.974,-2.054c-3.659,-0 -8.061,2.227 -13.206,6.684l-4.8,34.445l-15.807,0l11.253,-79.804l15.81,0Z" style="fill:#fff;fill-rule:nonzero;"/><path d="M163.269,71.545c7.729,-0 14.049,2.311 18.963,6.933c4.914,4.622 7.37,10.643 7.37,18.06c0,8.446 -2.905,15.562 -8.71,21.344c-5.808,5.784 -12.959,8.673 -21.452,8.673c-7.54,-0 -13.891,-2.473 -19.051,-7.418c-5.16,-4.946 -7.741,-10.994 -7.741,-18.146c0,-8.028 3.009,-14.943 9.027,-20.744c6.015,-5.803 13.214,-8.702 21.594,-8.702m-3.714,42.157c3.998,0 7.274,-1.833 9.826,-5.502c2.549,-3.666 3.825,-7.705 3.825,-12.116c-0,-3.496 -0.971,-6.318 -2.91,-8.465c-1.944,-2.147 -4.515,-3.221 -7.714,-3.221c-4.227,-0 -7.55,1.89 -9.969,5.672c-2.419,3.783 -3.627,7.725 -3.627,11.83c0,3.573 1.066,6.433 3.2,8.581c2.133,2.146 4.588,3.221 7.369,3.221" style="fill:#fff;fill-rule:nonzero;"/><path d="M248.654,72.401l-8.263,53.126l-15.807,-0l0.97,-5.94c-5.521,4.569 -11.252,6.855 -17.195,6.855c-4.951,0 -8.776,-1.447 -11.482,-4.341c-2.703,-2.895 -4.056,-6.835 -4.056,-11.825c0,-1.294 0.095,-2.685 0.287,-4.172l4.798,-33.703l15.751,0l-3.958,28.215c-0.343,2.402 -0.513,4.477 -0.513,6.227c-0,5.296 1.582,7.944 4.748,7.944c4.084,0 8.529,-2.589 13.335,-7.768l4.798,-34.618l16.587,0Z" style="fill:#fff;fill-rule:nonzero;"/><path d="M281.613,61.205l-2.221,11.196l11.686,-0l-2.107,11.71l-11.628,0l-3.074,17.203c-0.269,1.484 -0.402,2.854 -0.402,4.109c-0,4.683 1.577,7.022 4.729,7.022c1.899,0 4.934,-1.065 9.112,-3.197l-2.769,15.108c-4.645,2.248 -6.409,2.199 -10.824,2.199c-5.143,-0 -9.192,-1.627 -12.141,-4.884c-2.952,-3.255 -4.426,-7.472 -4.426,-12.652c-0,-1.6 0.151,-3.161 0.457,-4.685l3.713,-20.223l-10.74,0l1.999,-11.71l10.74,-0l1.885,-11.196l16.011,-0Z" style="fill:#fff;fill-rule:nonzero;"/></g></g><g transform="matrix(1,0,0,0.971736,0,-3.94257)"><text x="345.885px" y="26.79px" style="font-family:'SegoeUI-Bold', 'Segoe UI', sans-serif;font-weight:700;font-size:22.665px;fill:#f74d67;">R</text></g><circle cx="353.782" cy="14.367" r="12.805" style="fill:none;stroke:#f74d67;stroke-width:3.13px;"/></svg>