<?xml version="1.0" encoding="utf-8"?>
<!-- Generator: Adobe Illustrator 27.8.0, SVG Export Plug-In . SVG Version: 6.00 Build 0)  -->
<svg version="1.1" xmlns="http://www.w3.org/2000/svg" xmlns:xlink="http://www.w3.org/1999/xlink" x="0px" y="0px"
	 viewBox="0 0 551.02 579.63" style="enable-background:new 0 0 551.02 579.63;" xml:space="preserve">
<style type="text/css">
	.st0{fill:#114343;}
</style>
<g id="Layer_1">
</g>
<g id="Layer_2">
	<g>
		<path class="st0" d="M165.5,426.39h39.74l-32.76,138.87c-2.26,9.58-10.92,14.37-26,14.37c-15.78,0-24.8-4.79-27.05-14.37
			l-17.54-71.23l-16.91,71.23c-2.26,9.58-11.27,14.37-27.05,14.37c-14.8,0-23.32-4.79-25.58-14.37L0,426.39h40.58L60.66,532.5
			l23.25-89.62h37.41L145,533.13L165.5,426.39z"/>
		<path class="st0" d="M380.88,426.39h39.74l-32.76,138.87c-2.26,9.58-10.92,14.37-26,14.37c-15.78,0-24.8-4.79-27.05-14.37
			l-17.54-71.23l-16.91,71.23c-2.26,9.58-11.27,14.37-27.05,14.37c-14.8,0-23.32-4.79-25.58-14.37l-32.34-138.87h40.58l20.08,106.11
			l23.25-89.62h37.41l23.67,90.25L380.88,426.39z"/>
		<path class="st0" d="M551.02,426.39v31.92h-40.37v119h-39.53v-119h-40.79v-31.92H551.02z"/>
	</g>
	<path class="st0" d="M509.73,316.78c-1.91-1.28-6.15-2.07-11.38-3.86c-5.47-1.88-10.15-3.85-15.62-6.49
		c-0.39-0.19-0.6-0.04-0.6,0.34c0,2.13,5.32,5.2,5.32,8.31c0,2.6-6,4.13-8.82,4.14c-0.86,0-1.38-0.18-1.38-0.61
		c0-1,2.78-2.1,2.78-5.31c0-8.78-11.03-17.46-23.23-17.46c-14.62,0-15.2,7.94-47.64,7.94c-42.07,0-67.51,4.84-83.08,4.84
		c-20.96,0-56.59-17.62-56.59-44.04c0-37.75,10.52-56.93,10.52-76.07c0-24.19-55.22-77.2-55.22-153.46C224.78,10.13,229.3,0,229.3,0
		c-3.05,0-19.35,14.95-19.35,50.82c0,7.52,0.18,8.89,0.18,8.89s-6.92-10.76-6.92-35.43c0-11.52,3.37-21.19,3.37-21.19
		c-1.31,0-16.05,9.89-16.05,38.92c0,11.81,4.1,26.1,4.1,26.1c-3.92-3.99-14.07-27.53-14.07-44.3c-0.91,0-7.52,7.7-7.52,22.56
		c0,14.36,7.3,35.34,7.3,35.34s-4.74-4.96-14.03-24.87c0,0-2.42,3.68-2.42,13.67c0,14.73,8.15,30.92,8.15,30.92
		s-7.15-7.62-11.09-9.93c-1.31,4.63-1.01,31.46,4.15,39.19c-1.7-1.36-6.87-5.75-8.14-6.16c-1.05,3.42-2.26,30.66,12.17,45.09
		c23.07,23.07,39.52,31.95,47.25,39.68c7.14,7.14,6.86,16.01,8.99,33.29s6.86,40.15,24.77,58.06c13.37,13.37,24.2,16.96,24.2,16.96
		c-1.18,1.18-20.3-0.61-37.02-18.59c-16.83-18.1-20.1-34.88-23.17-54.08c-3.93-24.59-6.16-25.55-20.89-36.89
		c-32.42-24.98-76-63.82-99.79-121.28c-2.72-6.57-3.84-8.35-3.84-8.35s-2,4.63-2,11.41c0,16.2,5.15,30.61,13.51,44.01
		c-5-3.42-14.22-14.79-19.66-23.14C70.9,94.4,64.81,78.39,64.81,78.39c-1.05,0-10.49,32.08,31.47,75.94c0,0-7.14-2.24-25.24-22.9
		c-18.1-20.66-21.33-29.76-21.33-29.76s-11.18,23.51,34.88,66.35c-4.22-1.09-15.15-8.88-25.17-17.6
		c-10.99-9.57-19.02-19.33-19.02-19.33c0,21.98,21.98,44.39,36.99,55.44c-10.56-2.11-34.84-19.85-34.84-19.85
		c0,9.98,15.04,32.51,40.46,47.28c0,0-8.53,0.85-26.31-9.25c0,0,5.26,20.19,37.65,33.97c-5.05,1.03-16.32-2.19-19.33-3.87
		c0,1.71,3.4,16.28,34.53,25.22c0,0-8.99,1.26-21.14-2.66c0,0,6.75,18.96,35.63,26.39c-8.22,0.68-17.68-1.42-17.68-1.42
		s3.46,4.29,6.28,12.69c3.17,9.45,2.46,12.56,5.94,20.92c3.17,7.63,8.97,13.14,8.97,13.14s-4.52-1.09-12.69-1.09
		c-18.93,0-25.57,4.1-25.57,4.1c9.59,1.85,12.06,5.21,12.06,5.21s-1.67-0.14-3.31-0.14c-24.66,0-30.71,10.5-30.71,10.5
		c10.86,0,13.83,1.53,14.69,2.52c-5.85,0-20.13,2.86-27.49,13.13c-5.5,7.66-10.26,18.98-11.14,21.59
		c11.14-9.59,22.05-22.49,40.45-22.49c10.57,0,16.58,2.56,29.42,2.56c2.19,0,4.29-0.29,6.23-0.74c-3.11,2.26-8.08,4.04-14.74,4.04
		c-9.72,0-12.46-1.06-18.58-1.06c-19.25,0-31.74,16.73-35.64,21.19c24.4-6.56,46.76-2.98,57.75-9.27
		c7.42-4.25,12.31-6.96,15.81-6.96c5.85,0,24.75,8.82,56.22,8.82c97.47,0,103.78-57.48,231.56-57.48c23.88,0,29.21,5.64,44.44,5.64
		c8.52,0,22.28-3.72,34.22-6.31c9.44-2.05,18.87-3.22,19.87-3.8C511.19,318.62,510.77,317.48,509.73,316.78z M211.3,102.53
		c-10.79,10.79-12.67,26.99-12.67,37.35c0,4.84,0.52,9.14,0.52,9.14c-2.34-2.34-6.69-32.18,8.66-47.53
		c8.24-8.24,17.07-7.89,17.76-7.2C225.58,94.29,218.89,94.94,211.3,102.53z M462.22,308.12c-1.99,0-3.63-0.96-3.63-2.26
		c0-1.3,1.6-2.45,3.59-2.45c1.99,0,3.51,1.34,3.51,2.65C465.68,307.21,464.21,308.12,462.22,308.12z"/>
</g>
</svg>
