<?xml version="1.0" encoding="UTF-8" standalone="no"?>
<!DOCTYPE svg PUBLIC "-//W3C//DTD SVG 1.1//EN" "http://www.w3.org/Graphics/SVG/1.1/DTD/svg11.dtd">
<svg width="100%" height="100%" viewBox="0 0 570 628" version="1.1" xmlns="http://www.w3.org/2000/svg" xmlns:xlink="http://www.w3.org/1999/xlink" xml:space="preserve" xmlns:serif="http://www.serif.com/" style="fill-rule:evenodd;clip-rule:evenodd;stroke-linecap:round;stroke-linejoin:round;stroke-miterlimit:1.5;">
    <g transform="matrix(1,0,0,1,-2215.16,0)">
        <g id="Events-Hero" serif:id="Events Hero" transform="matrix(0.814286,0,0,1.2543,2215.16,0)">
            <rect x="0" y="0" width="700" height="500" style="fill:none;"/>
            <g transform="matrix(1.46889,0,0,1.0435,-6978.36,-194.975)">
                <rect x="4757.64" y="462.945" width="469.687" height="97.145" style="fill:white;fill-opacity:0.12;"/>
            </g>
            <g transform="matrix(0.065863,0,0,3.13311,-32.3828,-261.175)">
                <rect x="491.669" y="175.315" width="153.08" height="32.354" style="fill:rgb(247,77,103);"/>
            </g>
            <g id="MC.-Selling-point-" serif:id="MC. Selling point?" transform="matrix(1.56369,0,0,1.01514,-835.433,127.24)">
                <g transform="matrix(0.933381,0,0,0.933381,220.463,5.73587)">
                    <g transform="matrix(1,0,0,1,12.252,-1.37075)">
                        <path d="M493.748,219.926C493.748,218.788 492.824,217.864 491.686,217.864L371.683,217.864C370.545,217.864 369.621,218.788 369.621,219.926L369.621,245.253C369.621,246.39 370.545,247.314 371.683,247.314L491.686,247.314C492.824,247.314 493.748,246.39 493.748,245.253L493.748,219.926Z" style="fill:white;fill-opacity:0;stroke:rgb(194,194,194);stroke-width:0.35px;"/>
                    </g>
                    <g transform="matrix(0.84142,0,0,0.84142,-5259.85,180.929)">
                        <path d="M6742.43,42.268L6707.45,42.268C6706.1,42.268 6705,43.366 6705,44.718L6705,74.818C6705,76.17 6706.1,77.268 6707.45,77.268L6742.43,77.268L6742.43,42.268ZM6714.93,68.716L6721.8,50.82L6724.35,50.82L6731.68,68.716L6728.98,68.716L6726.89,63.296L6719.41,63.296L6717.44,68.716L6714.93,68.716ZM6720.09,61.367L6726.16,61.367L6724.29,56.411C6723.72,54.905 6723.3,53.668 6723.02,52.7C6722.79,53.847 6722.47,54.987 6722.06,56.118L6720.09,61.367Z" style="fill:rgb(238,238,238);fill-opacity:0.5;"/>
                    </g>
                    <g transform="matrix(1,0,0,1,30.1406,-1.18006)">
                        <text x="392.582px" y="236.814px" style="font-family:'ArialMT', 'Arial', sans-serif;font-size:11.92px;fill:white;">Y<tspan x="399.438px 406.068px " y="236.814px 236.814px ">es</tspan></text>
                    </g>
                </g>
                <g transform="matrix(0.933381,0,0,0.933381,352.481,5.73587)">
                    <g transform="matrix(1,0,0,1,12.252,-1.37075)">
                        <path d="M493.748,219.926C493.748,218.788 492.824,217.864 491.686,217.864L371.683,217.864C370.545,217.864 369.621,218.788 369.621,219.926L369.621,245.253C369.621,246.39 370.545,247.314 371.683,247.314L491.686,247.314C492.824,247.314 493.748,246.39 493.748,245.253L493.748,219.926Z" style="fill:white;fill-opacity:0;stroke:rgb(194,194,194);stroke-width:0.35px;"/>
                    </g>
                    <g transform="matrix(1,0,0,1,30.1406,-1.18006)">
                        <text x="392.582px" y="236.814px" style="font-family:'ArialMT', 'Arial', sans-serif;font-size:11.92px;fill:white;">No</text>
                    </g>
                    <g transform="matrix(0.84142,0,0,0.84142,-5401.29,180.929)">
                        <path d="M6910.52,42.268L6875.55,42.268C6874.19,42.268 6873.1,43.366 6873.1,44.718L6873.1,74.818C6873.1,76.17 6874.19,77.268 6875.55,77.268L6910.52,77.268L6910.52,42.268ZM6885.05,68.716L6885.05,50.82L6891.77,50.82C6893.13,50.82 6894.23,51.001 6895.06,51.363C6895.88,51.725 6896.53,52.283 6897,53.036C6897.47,53.788 6897.7,54.576 6897.7,55.398C6897.7,56.163 6897.49,56.883 6897.08,57.558C6896.66,58.234 6896.03,58.779 6895.2,59.194C6896.28,59.511 6897.11,60.053 6897.69,60.818C6898.28,61.583 6898.57,62.486 6898.57,63.528C6898.57,64.366 6898.39,65.145 6898.03,65.865C6897.68,66.585 6897.24,67.141 6896.72,67.531C6896.2,67.922 6895.55,68.217 6894.76,68.416C6893.98,68.616 6893.02,68.716 6891.88,68.716L6885.05,68.716ZM6887.42,66.604L6891.88,66.604C6892.64,66.604 6893.18,66.575 6893.49,66.518C6894.03,66.421 6894.49,66.258 6894.86,66.03C6895.22,65.802 6895.52,65.471 6895.76,65.035C6895.99,64.6 6896.11,64.097 6896.11,63.528C6896.11,62.86 6895.94,62.28 6895.6,61.788C6895.26,61.296 6894.78,60.95 6894.18,60.75C6893.57,60.551 6892.7,60.451 6891.56,60.451L6887.42,60.451L6887.42,66.604ZM6887.42,58.34L6891.29,58.34C6892.34,58.34 6893.09,58.27 6893.55,58.132C6894.15,57.953 6894.61,57.656 6894.91,57.241C6895.22,56.826 6895.37,56.305 6895.37,55.678C6895.37,55.084 6895.23,54.561 6894.94,54.11C6894.66,53.658 6894.25,53.349 6893.72,53.182C6893.19,53.015 6892.28,52.932 6891,52.932L6887.42,52.932L6887.42,58.34Z" style="fill:rgb(238,238,238);fill-opacity:0.5;"/>
                    </g>
                </g>
                <g transform="matrix(0.933381,0,0,0.933381,484.439,5.73587)">
                    <g transform="matrix(1.06034,0,0,1,-10.0509,-1.37075)">
                        <path d="M493.748,219.926C493.748,218.788 492.877,217.864 491.804,217.864L371.566,217.864C370.493,217.864 369.621,218.788 369.621,219.926L369.621,245.253C369.621,246.39 370.493,247.314 371.566,247.314L491.804,247.314C492.877,247.314 493.748,246.39 493.748,245.253L493.748,219.926Z" style="fill:white;fill-opacity:0;stroke:rgb(194,194,194);stroke-width:0.34px;"/>
                    </g>
                    <g transform="matrix(1,0,0,1,30.1406,-1.18006)">
                        <text x="392.582px" y="236.814px" style="font-family:'ArialMT', 'Arial', sans-serif;font-size:11.92px;fill:white;">Maybe</text>
                    </g>
                    <g transform="matrix(0.84142,0,0,0.84142,-5542.66,180.929)">
                        <path d="M7078.54,42.268L7043.57,42.268C7042.21,42.268 7041.11,43.366 7041.11,44.718L7041.11,74.818C7041.11,76.17 7042.21,77.268 7043.57,77.268L7078.54,77.268L7078.54,42.268ZM7065.57,62.441L7067.94,63.039C7067.45,64.984 7066.55,66.467 7065.26,67.489C7063.97,68.51 7062.4,69.021 7060.53,69.021C7058.61,69.021 7057.04,68.628 7055.83,67.843C7054.62,67.057 7053.7,65.92 7053.07,64.431C7052.44,62.942 7052.12,61.342 7052.12,59.634C7052.12,57.77 7052.48,56.144 7053.19,54.757C7053.9,53.369 7054.92,52.315 7056.23,51.595C7057.55,50.875 7058.99,50.515 7060.57,50.515C7062.36,50.515 7063.87,50.971 7065.09,51.882C7066.31,52.793 7067.16,54.075 7067.64,55.727L7065.31,56.277C7064.89,54.974 7064.29,54.026 7063.5,53.432C7062.71,52.838 7061.72,52.541 7060.52,52.541C7059.15,52.541 7058,52.871 7057.07,53.53C7056.15,54.189 7055.5,55.074 7055.13,56.185C7054.75,57.296 7054.56,58.441 7054.56,59.621C7054.56,61.143 7054.79,62.472 7055.23,63.607C7055.67,64.742 7056.36,65.591 7057.3,66.152C7058.24,66.714 7059.25,66.994 7060.34,66.994C7061.66,66.994 7062.79,66.612 7063.71,65.847C7064.63,65.082 7065.25,63.947 7065.57,62.441Z" style="fill:rgb(238,238,238);fill-opacity:0.5;"/>
                    </g>
                </g>
                <g id="Question-text" serif:id="Question text" transform="matrix(1,0,0,1,0.661371,0.661371)">
                    <g transform="matrix(3.07709,0,0,3.07709,-937.137,-277.817)">
                        <text x="491.717px" y="152.79px" style="font-family:'ArialMT', 'Arial', sans-serif;font-size:4.235px;fill:white;">Would you attend this event again in the future?</text>
                    </g>
                    <g transform="matrix(0.68295,0,0,0.670796,-2941.3,-115.386)">
                        <circle cx="5127.18" cy="451.68" r="12.423" style="fill:none;stroke:white;stroke-width:1.16px;"/>
                    </g>
                    <g transform="matrix(0.661371,0,0,0.661371,-2827.84,-106.844)">
                        <text x="5117.71px" y="452.421px" style="font-family:'SegoeUI-Semibold', 'Segoe UI', sans-serif;font-weight:600;font-size:20px;fill:white;">2</text>
                    </g>
                </g>
            </g>
            <g transform="matrix(1,0,0,0.956708,17.9944,244.052)">
                <g transform="matrix(1.08945,0,0,1.08945,-4.35902,8.7924)">
                    <g transform="matrix(4.29504,0,0,2.91449,-2063.07,-212.938)">
                        <text x="491.717px" y="152.79px" style="font-family:'ArialMT', 'Arial', sans-serif;font-size:2.584px;fill:white;">Not at all satisﬁed</text>
                    </g>
                    <g transform="matrix(4.29504,0,0,2.91449,-1675.91,-212.938)">
                        <text x="491.717px" y="152.79px" style="font-family:'ArialMT', 'Arial', sans-serif;font-size:2.584px;fill:white;">Extremely satisﬁed</text>
                    </g>
                    <g id="colourscale" transform="matrix(1.41192,0,0,0.454127,-701.395,-46.1663)">
                        <path d="M871.984,495.773C871.984,494.056 871.323,492.663 870.51,492.663L532.756,492.663C531.942,492.663 531.282,494.056 531.282,495.773C531.282,497.489 531.942,498.883 532.756,498.883L870.51,498.883C871.323,498.883 871.984,497.489 871.984,495.773Z" style="fill:url(#_Linear1);"/>
                    </g>
                    <g transform="matrix(1.03609,0,0,0.703061,-6915.91,-141.47)">
                        <path d="M6804.95,468.042C6804.95,466.683 6803.84,465.579 6802.48,465.579L6724.5,465.579C6723.14,465.579 6722.04,466.683 6722.04,468.042L6722.04,512.364C6722.04,513.723 6723.14,514.827 6724.5,514.827L6802.48,514.827C6803.84,514.827 6804.95,513.723 6804.95,512.364L6804.95,468.042ZM6765.95,497.441L6763.11,497.441L6763.11,487.189C6762.07,488.119 6760.84,488.806 6759.43,489.251L6759.43,486.783C6760.18,486.55 6760.98,486.11 6761.85,485.461C6762.72,484.813 6763.32,484.056 6763.64,483.191L6765.95,483.191L6765.95,497.441Z" style="fill:rgb(250,250,250);"/>
                    </g>
                    <g transform="matrix(1.03609,0,0,0.703061,-6915.91,-141.47)">
                        <path d="M6900.29,467.892C6900.29,466.533 6899.19,465.429 6897.83,465.429L6819.85,465.429C6818.49,465.429 6817.38,466.533 6817.38,467.892L6817.38,512.214C6817.38,513.573 6818.49,514.676 6819.85,514.676L6897.83,514.676C6899.19,514.676 6900.29,513.573 6900.29,512.214L6900.29,467.892ZM6863.62,494.793L6863.62,497.32L6853.65,497.32C6853.76,496.365 6854.09,495.46 6854.63,494.604C6855.17,493.749 6856.23,492.615 6857.82,491.202C6859.11,490.06 6859.89,489.285 6860.18,488.879C6860.57,488.317 6860.77,487.762 6860.77,487.214C6860.77,486.607 6860.6,486.141 6860.26,485.815C6859.92,485.489 6859.45,485.326 6858.85,485.326C6858.25,485.326 6857.78,485.497 6857.43,485.839C6857.08,486.181 6856.88,486.749 6856.82,487.543L6853.99,487.272C6854.16,485.774 6854.69,484.7 6855.58,484.048C6856.47,483.396 6857.58,483.07 6858.92,483.07C6860.38,483.07 6861.53,483.448 6862.37,484.203C6863.2,484.958 6863.62,485.897 6863.62,487.02C6863.62,487.659 6863.5,488.267 6863.26,488.845C6863.03,489.422 6862.65,490.027 6862.13,490.66C6861.78,491.079 6861.16,491.683 6860.26,492.47C6859.37,493.257 6858.8,493.78 6858.56,494.038C6858.32,494.296 6858.12,494.548 6857.98,494.793L6863.62,494.793Z" style="fill:rgb(250,250,250);"/>
                    </g>
                    <g transform="matrix(1.03609,0,0,0.703061,-6915.91,-141.47)">
                        <path d="M6995.64,467.741C6995.64,466.382 6994.53,465.279 6993.17,465.279L6915.19,465.279C6913.83,465.279 6912.73,466.382 6912.73,467.741L6912.73,512.064C6912.73,513.423 6913.83,514.526 6915.19,514.526L6993.17,514.526C6994.53,514.526 6995.64,513.423 6995.64,512.064L6995.64,467.741ZM6949.26,493.433L6952.02,493.114C6952.1,493.785 6952.34,494.298 6952.72,494.653C6953.11,495.008 6953.57,495.185 6954.12,495.185C6954.71,495.185 6955.2,494.972 6955.6,494.546C6956.01,494.12 6956.21,493.546 6956.21,492.823C6956.21,492.139 6956.01,491.597 6955.63,491.197C6955.24,490.797 6954.78,490.597 6954.22,490.597C6953.86,490.597 6953.42,490.665 6952.92,490.8L6953.23,488.583C6954,488.603 6954.59,488.443 6954.99,488.104C6955.4,487.765 6955.6,487.315 6955.6,486.754C6955.6,486.276 6955.45,485.895 6955.15,485.611C6954.86,485.328 6954.46,485.186 6953.97,485.186C6953.48,485.186 6953.07,485.347 6952.72,485.67C6952.38,485.992 6952.17,486.463 6952.1,487.083L6949.48,486.657C6949.66,485.799 6949.93,485.113 6950.3,484.6C6950.67,484.087 6951.18,483.683 6951.84,483.39C6952.5,483.096 6953.23,482.949 6954.05,482.949C6955.45,482.949 6956.57,483.375 6957.41,484.227C6958.11,484.924 6958.45,485.712 6958.45,486.589C6958.45,487.835 6957.74,488.829 6956.32,489.571C6957.17,489.745 6957.85,490.135 6958.36,490.742C6958.87,491.349 6959.12,492.081 6959.12,492.939C6959.12,494.185 6958.65,495.247 6957.69,496.124C6956.74,497.002 6955.56,497.441 6954.14,497.441C6952.8,497.441 6951.69,497.071 6950.8,496.332C6949.92,495.593 6949.4,494.627 6949.26,493.433Z" style="fill:rgb(250,250,250);"/>
                    </g>
                    <g transform="matrix(1.03609,0,0,0.703061,-6915.91,-141.47)">
                        <path d="M7090.98,468.192C7090.98,466.833 7089.88,465.73 7088.52,465.73L7010.53,465.73C7009.18,465.73 7008.07,466.833 7008.07,468.192L7008.07,512.515C7008.07,513.874 7009.18,514.977 7010.53,514.977L7088.52,514.977C7089.88,514.977 7090.98,513.874 7090.98,512.515L7090.98,468.192ZM7050.28,497.562L7050.28,494.706L7044.21,494.706L7044.21,492.325L7050.65,483.312L7053.04,483.312L7053.04,492.315L7054.88,492.315L7054.88,494.706L7053.04,494.706L7053.04,497.562L7050.28,497.562ZM7050.28,492.315L7050.28,487.465L7046.88,492.315L7050.28,492.315Z" style="fill:rgb(250,250,250);"/>
                    </g>
                    <g transform="matrix(1.03609,0,0,0.703061,-6915.91,-141.47)">
                        <path d="M7186.32,468.192C7186.32,466.833 7185.22,465.73 7183.86,465.73L7105.88,465.73C7104.52,465.73 7103.42,466.833 7103.42,468.192L7103.42,512.515C7103.42,513.874 7104.52,514.977 7105.88,514.977L7183.86,514.977C7185.22,514.977 7186.32,513.874 7186.32,512.515L7186.32,468.192ZM7140.09,493.912L7142.93,493.632C7143.01,494.245 7143.25,494.73 7143.65,495.089C7144.05,495.447 7144.5,495.626 7145.02,495.626C7145.62,495.626 7146.12,495.395 7146.53,494.934C7146.94,494.472 7147.15,493.777 7147.15,492.848C7147.15,491.976 7146.94,491.323 7146.54,490.887C7146.13,490.452 7145.6,490.234 7144.94,490.234C7144.12,490.234 7143.39,490.579 7142.75,491.27L7140.44,490.95L7141.9,483.564L7149.41,483.564L7149.41,486.11L7144.05,486.11L7143.61,488.52C7144.24,488.217 7144.89,488.065 7145.55,488.065C7146.81,488.065 7147.88,488.504 7148.76,489.382C7149.63,490.26 7150.07,491.399 7150.07,492.799C7150.07,493.967 7149.72,495.009 7149.01,495.926C7148.05,497.178 7146.71,497.804 7144.99,497.804C7143.62,497.804 7142.51,497.452 7141.64,496.749C7140.78,496.045 7140.26,495.1 7140.09,493.912Z" style="fill:rgb(250,250,250);"/>
                    </g>
                </g>
                <g transform="matrix(4.8205,0,0,3.27105,-2321.84,-313.215)">
                    <text x="491.717px" y="152.79px" style="font-family:'ArialMT', 'Arial', sans-serif;font-size:4.235px;fill:white;">Overall, how satisﬁed were you with the event?</text>
                </g>
                <g transform="matrix(1.06989,0,0,0.713079,-5461.77,-140.546)">
                    <circle cx="5127.18" cy="451.68" r="12.423" style="fill:none;stroke:white;stroke-width:1.16px;"/>
                </g>
                <g transform="matrix(1.03609,0,0,0.703061,-5284.13,-131.464)">
                    <text x="5117.71px" y="452.421px" style="font-family:'SegoeUI-Semibold', 'Segoe UI', sans-serif;font-weight:600;font-size:20px;fill:white;">3</text>
                </g>
            </g>
            <g transform="matrix(0.846747,0,0,0.81009,-0.223776,-253.835)">
                <g transform="matrix(5.7137,0,0,3.87715,-2730.59,-260.617)">
                    <text x="491.717px" y="152.79px" style="font-family:'ArialMT', 'Arial', sans-serif;font-size:4.235px;fill:white;">What day did you attend the event?</text>
                </g>
                <g transform="matrix(1.26814,0,0,0.845208,-6452.32,-55.9537)">
                    <circle cx="5127.18" cy="451.68" r="12.423" style="fill:none;stroke:white;stroke-width:1.15px;"/>
                </g>
                <g transform="matrix(1.22807,0,0,0.833333,-6240.29,-45.3758)">
                    <text x="5117.71px" y="452.421px" style="font-family:'SegoeUI-Semibold', 'Segoe UI', sans-serif;font-weight:600;font-size:20px;fill:white;">1</text>
                </g>
            </g>
            <g transform="matrix(2.40585,0,0,1.82661,-237.227,-57.2619)">
                <g transform="matrix(2.63506,0,0,2.25315,-1081.09,-287.24)">
                    <text x="491.717px" y="152.79px" style="font-family:'ArialMT', 'Arial', sans-serif;font-size:2.825px;fill:white;">April 2023</text>
                </g>
                <g transform="matrix(2.63506,0,0,2.25315,-1163.82,-269.694)">
                    <text x="491.717px" y="152.79px" style="font-family:'ArialMT', 'Arial', sans-serif;font-size:2.825px;fill:white;">Sun</text>
                </g>
                <g transform="matrix(2.63506,0,0,2.25315,-1134.29,-269.694)">
                    <text x="491.717px" y="152.79px" style="font-family:'ArialMT', 'Arial', sans-serif;font-size:2.825px;fill:white;">Mon</text>
                </g>
                <g transform="matrix(2.63506,0,0,2.25315,-1101.58,-269.694)">
                    <text x="491.717px" y="152.79px" style="font-family:'ArialMT', 'Arial', sans-serif;font-size:2.825px;fill:white;">T<tspan x="493.338px 494.909px " y="152.79px 152.79px ">ue</tspan></text>
                </g>
                <g transform="matrix(2.63506,0,0,2.25315,-1071.02,-269.589)">
                    <text x="491.717px" y="152.79px" style="font-family:'ArialMT', 'Arial', sans-serif;font-size:2.825px;fill:white;">Wed</text>
                </g>
                <g transform="matrix(2.63506,0,0,2.25315,-1040.99,-269.283)">
                    <text x="491.717px" y="152.79px" style="font-family:'ArialMT', 'Arial', sans-serif;font-size:2.825px;fill:white;">Thur</text>
                </g>
                <g transform="matrix(2.63506,0,0,2.25315,-1007.13,-269.283)">
                    <text x="491.717px" y="152.79px" style="font-family:'ArialMT', 'Arial', sans-serif;font-size:2.825px;fill:white;">Fri</text>
                </g>
                <g transform="matrix(2.63506,0,0,2.25315,-984.73,-269.283)">
                    <text x="491.717px" y="152.79px" style="font-family:'ArialMT', 'Arial', sans-serif;font-size:2.825px;fill:white;">Sat</text>
                </g>
                <g transform="matrix(7.51976e-17,-1.05008,1.22807,6.42989e-17,-166.747,278.431)">
                    <path d="M212.189,239.544L214.619,243.819L209.76,243.819L212.189,239.544Z" style="fill:white;"/>
                </g>
                <g transform="matrix(-2.25593e-16,1.05008,-1.22807,-1.92897e-16,624.327,-167.2)">
                    <path d="M212.189,239.544L214.619,243.819L209.76,243.819L212.189,239.544Z" style="fill:white;"/>
                </g>
                <g transform="matrix(1.22979,0,0,1.05008,-135.171,-200.414)">
                    <rect x="337.494" y="265.79" width="39.387" height="13.267" style="fill:white;fill-opacity:0.1;"/>
                </g>
                <g transform="matrix(5.13356,0,0,1.05008,-1606.43,-184.791)">
                    <rect x="337.494" y="265.79" width="39.387" height="13.267" style="fill:white;fill-opacity:0.1;"/>
                </g>
                <g transform="matrix(5.13356,0,0,1.05008,-1606.43,-169.149)">
                    <rect x="337.494" y="265.79" width="39.387" height="13.267" style="fill:white;fill-opacity:0.1;"/>
                </g>
                <g transform="matrix(5.13356,0,0,1.05008,-1606.43,-153.546)">
                    <rect x="337.494" y="265.79" width="39.387" height="13.267" style="fill:white;fill-opacity:0.1;"/>
                </g>
                <g transform="matrix(5.13356,0,0,1.05008,-1606.43,-137.917)">
                    <rect x="337.494" y="265.79" width="39.387" height="13.267" style="fill:white;fill-opacity:0.1;"/>
                </g>
                <g transform="matrix(1.22807,0,0,1.05008,-132.088,-202.957)">
                    <text x="344.593px" y="277.049px" style="font-family:'ArialMT', 'Arial', sans-serif;font-size:5.542px;fill:white;">1</text>
                </g>
                <g transform="matrix(1.22807,0,0,1.05008,-108.568,-202.957)">
                    <text x="344.593px" y="277.049px" style="font-family:'ArialMT', 'Arial', sans-serif;font-size:5.542px;fill:white;">2</text>
                </g>
                <g transform="matrix(1.22807,0,0,1.05008,-131.577,-187.206)">
                    <text x="344.593px" y="277.049px" style="font-family:'ArialMT', 'Arial', sans-serif;font-size:5.542px;fill:white;">8</text>
                </g>
                <g transform="matrix(1.22807,0,0,1.05008,-133.619,-171.455)">
                    <text x="344.593px" y="277.049px" style="font-family:'ArialMT', 'Arial', sans-serif;font-size:5.542px;fill:white;">15</text>
                </g>
                <g transform="matrix(1.22807,0,0,1.05008,-108.568,-171.455)">
                    <text x="344.593px" y="277.049px" style="font-family:'ArialMT', 'Arial', sans-serif;font-size:5.542px;fill:white;">16</text>
                </g>
                <g transform="matrix(1.22807,0,0,1.05008,-133.109,-155.704)">
                    <text x="344.593px" y="277.049px" style="font-family:'ArialMT', 'Arial', sans-serif;font-size:5.542px;fill:white;">22</text>
                </g>
                <g transform="matrix(1.22807,0,0,1.05008,-107.14,-187.206)">
                    <text x="344.593px" y="277.049px" style="font-family:'ArialMT', 'Arial', sans-serif;font-size:5.542px;fill:white;">9</text>
                </g>
                <g transform="matrix(1.22807,0,0,1.05008,-108.568,-155.704)">
                    <text x="344.593px" y="277.049px" style="font-family:'ArialMT', 'Arial', sans-serif;font-size:5.542px;fill:white;">23</text>
                </g>
                <g transform="matrix(1.22807,0,0,1.05008,-133.109,-141.003)">
                    <text x="344.593px" y="277.049px" style="font-family:'ArialMT', 'Arial', sans-serif;font-size:5.542px;fill:white;">29</text>
                </g>
                <g transform="matrix(1.22807,0,0,1.05008,-108.568,-141.003)">
                    <text x="344.593px" y="277.049px" style="font-family:'ArialMT', 'Arial', sans-serif;font-size:5.542px;fill:white;">30</text>
                </g>
                <g transform="matrix(1.22807,0,0,1.05008,-192.263,-187.206)">
                    <text x="344.593px" y="277.049px" style="font-family:'ArialMT', 'Arial', sans-serif;font-size:5.542px;fill:white;">6</text>
                </g>
                <g transform="matrix(1.22807,0,0,1.05008,-194.305,-171.455)">
                    <text x="344.593px" y="277.049px" style="font-family:'ArialMT', 'Arial', sans-serif;font-size:5.542px;fill:white;">13</text>
                </g>
                <g transform="matrix(1.22807,0,0,1.05008,-193.795,-155.704)">
                    <text x="344.593px" y="277.049px" style="font-family:'ArialMT', 'Arial', sans-serif;font-size:5.542px;fill:white;">20</text>
                </g>
                <g transform="matrix(1.22807,0,0,1.05008,-162.603,-187.206)">
                    <text x="344.593px" y="277.049px" style="font-family:'ArialMT', 'Arial', sans-serif;font-size:5.542px;fill:white;">7</text>
                </g>
                <g transform="matrix(1.22807,0,0,1.05008,-164.645,-171.455)">
                    <text x="344.593px" y="277.049px" style="font-family:'ArialMT', 'Arial', sans-serif;font-size:5.542px;fill:white;">14</text>
                </g>
                <g transform="matrix(1.22807,0,0,1.05008,-163.624,-155.704)">
                    <text x="344.593px" y="277.049px" style="font-family:'ArialMT', 'Arial', sans-serif;font-size:5.542px;fill:white;">21</text>
                </g>
                <g transform="matrix(1.22807,0,0,1.05008,-193.477,-140.683)">
                    <text x="344.593px" y="277.049px" style="font-family:'ArialMT', 'Arial', sans-serif;font-size:5.542px;fill:white;">27</text>
                </g>
                <g transform="matrix(1.22807,0,0,1.05008,-163.624,-141.003)">
                    <text x="344.593px" y="277.049px" style="font-family:'ArialMT', 'Arial', sans-serif;font-size:5.542px;fill:white;">28</text>
                </g>
                <g transform="matrix(1.22807,0,0,1.05008,-225.421,-187.206)">
                    <text x="344.593px" y="277.049px" style="font-family:'ArialMT', 'Arial', sans-serif;font-size:5.542px;fill:white;">5</text>
                </g>
                <g transform="matrix(1.22807,0,0,1.05008,-227.463,-171.455)">
                    <text x="344.593px" y="277.049px" style="font-family:'ArialMT', 'Arial', sans-serif;font-size:5.542px;fill:white;">12</text>
                </g>
                <g transform="matrix(1.22807,0,0,1.05008,-226.952,-155.704)">
                    <text x="344.593px" y="277.049px" style="font-family:'ArialMT', 'Arial', sans-serif;font-size:5.542px;fill:white;">19</text>
                </g>
                <g transform="matrix(1.22807,0,0,1.05008,-226.442,-141.003)">
                    <text x="344.593px" y="277.049px" style="font-family:'ArialMT', 'Arial', sans-serif;font-size:5.542px;fill:white;">26</text>
                </g>
                <g transform="matrix(1.22807,0,0,1.05008,-285.804,-187.206)">
                    <text x="344.593px" y="277.049px" style="font-family:'ArialMT', 'Arial', sans-serif;font-size:5.542px;fill:white;">3</text>
                </g>
                <g transform="matrix(1.22807,0,0,1.05008,-287.638,-171.455)">
                    <text x="344.593px" y="277.049px" style="font-family:'ArialMT', 'Arial', sans-serif;font-size:5.542px;fill:white;">10</text>
                </g>
                <g transform="matrix(1.22807,0,0,1.05008,-287.128,-155.704)">
                    <text x="344.593px" y="277.049px" style="font-family:'ArialMT', 'Arial', sans-serif;font-size:5.542px;fill:white;">17</text>
                </g>
                <g transform="matrix(1.22807,0,0,1.05008,-257.164,-187.206)">
                    <text x="344.593px" y="277.049px" style="font-family:'ArialMT', 'Arial', sans-serif;font-size:5.542px;fill:white;">4</text>
                </g>
                <g transform="matrix(1.22807,0,0,1.05008,-258.489,-171.455)">
                    <text x="344.593px" y="277.049px" style="font-family:'ArialMT', 'Arial', sans-serif;font-size:5.542px;fill:white;">1<tspan x="347.264px " y="277.049px ">1</tspan></text>
                </g>
                <g transform="matrix(1.22807,0,0,1.05008,-258.999,-155.704)">
                    <text x="344.593px" y="277.049px" style="font-family:'ArialMT', 'Arial', sans-serif;font-size:5.542px;fill:white;">18</text>
                </g>
                <g transform="matrix(1.22807,0,0,1.05008,-286.617,-141.003)">
                    <text x="344.593px" y="277.049px" style="font-family:'ArialMT', 'Arial', sans-serif;font-size:5.542px;fill:white;">24</text>
                </g>
                <g transform="matrix(1.22807,0,0,1.05008,-258.489,-141.003)">
                    <text x="344.593px" y="277.049px" style="font-family:'ArialMT', 'Arial', sans-serif;font-size:5.542px;fill:white;">25</text>
                </g>
            </g>
            <g id="Currency-textbox" serif:id="Currency textbox" transform="matrix(1.64047,0,0,0.621904,-7563.29,-297.848)">
                <path d="M4946.83,870.973C4946.83,870.124 4946.42,869.435 4945.93,869.435L4651.7,869.435C4651.2,869.435 4650.8,870.124 4650.8,870.973L4650.8,906.355C4650.8,907.204 4651.2,907.894 4651.7,907.894L4945.93,907.894C4946.42,907.894 4946.83,907.204 4946.83,906.355L4946.83,870.973Z" style="fill:white;"/>
                <clipPath id="_clip2">
                    <path d="M4946.83,870.973C4946.83,870.124 4946.42,869.435 4945.93,869.435L4651.7,869.435C4651.2,869.435 4650.8,870.124 4650.8,870.973L4650.8,906.355C4650.8,907.204 4651.2,907.894 4651.7,907.894L4945.93,907.894C4946.42,907.894 4946.83,907.204 4946.83,906.355L4946.83,870.973Z"/>
                </clipPath>
                <g clip-path="url(#_clip2)">
                    <g transform="matrix(4.27611,0,0,3.72817,2562.05,324.807)">
                        <text x="491.717px" y="152.79px" style="font-family:'Arial-BoldMT', 'Arial', sans-serif;font-weight:700;font-size:4.235px;fill:white;">£</text>
                    </g>
                    <g transform="matrix(4.27611,0,0,3.72817,2815.23,324.746)">
                        <text x="491.717px" y="152.79px" style="font-family:'Arial-BoldMT', 'Arial', sans-serif;font-weight:700;font-size:4.235px;fill:white;">00</text>
                    </g>
                </g>
            </g>
            <g id="Number" transform="matrix(3.57144,0,0,2.31856,-1673.07,-95.8463)">
                <text x="491.717px" y="152.79px" style="font-family:'SegoeUI', 'Segoe UI', sans-serif;font-size:4.298px;fill:rgb(134,134,134);">Date</text>
            </g>
        </g>
    </g>
    <defs>
        <linearGradient id="_Linear1" x1="0" y1="0" x2="1" y2="0" gradientUnits="userSpaceOnUse" gradientTransform="matrix(340.702,0,0,6.21991,531.282,495.773)"><stop offset="0" style="stop-color:rgb(247,126,130);stop-opacity:1"/><stop offset="1" style="stop-color:rgb(155,247,126);stop-opacity:1"/></linearGradient>
    </defs>
</svg>
