<?xml version="1.0" encoding="UTF-8" standalone="no"?>
<!DOCTYPE svg PUBLIC "-//W3C//DTD SVG 1.1//EN" "http://www.w3.org/Graphics/SVG/1.1/DTD/svg11.dtd">
<svg width="100%" height="100%" viewBox="0 0 570 289" version="1.1" xmlns="http://www.w3.org/2000/svg" xmlns:xlink="http://www.w3.org/1999/xlink" xml:space="preserve" xmlns:serif="http://www.serif.com/" style="fill-rule:evenodd;clip-rule:evenodd;stroke-linecap:round;stroke-linejoin:round;stroke-miterlimit:1.5;">
    <g transform="matrix(1,0,0,1,-0.796933,-338.45)">
        <g id="NPS-Hero" serif:id="NPS Hero" transform="matrix(0.814286,0,0,0.5774,0.796933,338.45)">
            <rect x="0" y="0" width="700" height="500" style="fill:none;"/>
            <clipPath id="_clip1">
                <rect x="0" y="0" width="700" height="500"/>
            </clipPath>
            <g clip-path="url(#_clip1)">
                <g transform="matrix(1.46889,0,0,2.69387,-6979.34,-1223.8)">
                    <rect x="4757.64" y="462.945" width="469.687" height="97.145" style="fill:white;fill-opacity:0.12;"/>
                </g>
                <g transform="matrix(0.065863,0,0,8.08837,-33.3615,-1394.71)">
                    <rect x="491.669" y="175.315" width="153.08" height="32.354" style="fill:rgb(247,77,103);"/>
                </g>
                <g transform="matrix(1,0,0,2.07828,17.0157,-300.45)">
                    <g transform="matrix(1.08945,0,0,1.08945,-4.35902,8.7924)">
                        <g transform="matrix(4.29504,0,0,2.91449,-2063.07,-212.938)">
                            <text x="491.717px" y="152.79px" style="font-family:'ArialMT', 'Arial', sans-serif;font-size:2.584px;fill:white;">Not at all likely</text>
                        </g>
                        <g transform="matrix(4.29504,0,0,2.91449,-1587.99,-212.938)">
                            <text x="491.717px" y="152.79px" style="font-family:'ArialMT', 'Arial', sans-serif;font-size:2.584px;fill:white;">Extremely likely</text>
                        </g>
                        <g id="colourscale" transform="matrix(1.62135,0,0,0.454127,-812.661,-46.1663)">
                            <path d="M871.984,495.773C871.984,494.056 871.409,492.663 870.7,492.663L532.565,492.663C531.857,492.663 531.282,494.056 531.282,495.773C531.282,497.489 531.857,498.883 532.565,498.883L870.7,498.883C871.409,498.883 871.984,497.489 871.984,495.773Z" style="fill:url(#_Linear2);"/>
                        </g>
                        <g transform="matrix(1.12724,0,0,0.764912,-13.4142,-29.4208)">
                            <path d="M95.131,283.308C95.131,282.204 94.599,281.308 93.943,281.308L56.319,281.308C55.663,281.308 55.131,282.204 55.131,283.308L55.131,319.308C55.131,320.412 55.663,321.308 56.319,321.308L93.943,321.308C94.599,321.308 95.131,320.412 95.131,319.308L95.131,283.308ZM74.968,308.968C73.449,308.968 72.264,308.348 71.413,307.107C70.562,305.865 70.136,304.072 70.136,301.725C70.136,299.148 70.58,297.198 71.469,295.876C72.357,294.554 73.639,293.892 75.314,293.892C78.522,293.892 80.126,296.385 80.126,301.369C80.126,303.838 79.673,305.721 78.768,307.02C77.862,308.319 76.596,308.968 74.968,308.968ZM75.202,295.774C73.432,295.774 72.547,297.724 72.547,301.624C72.547,305.272 73.415,307.096 75.151,307.096C76.86,307.096 77.715,305.242 77.715,301.532C77.715,297.694 76.877,295.774 75.202,295.774Z" style="fill:rgb(250,250,250);"/>
                        </g>
                        <g transform="matrix(1.12724,0,0,0.764912,-13.4142,-29.4208)">
                            <path d="M140.155,283.308C140.155,282.204 139.623,281.308 138.967,281.308L101.343,281.308C100.687,281.308 100.155,282.204 100.155,283.308L100.155,319.308C100.155,320.412 100.687,321.308 101.343,321.308L138.967,321.308C139.623,321.308 140.155,320.412 140.155,319.308L140.155,283.308ZM122.866,293.526L122.866,308.438L120.506,308.438L120.506,296.415C120.079,296.72 119.619,296.979 119.128,297.193C118.636,297.406 118.075,297.595 117.444,297.757L117.444,295.743C117.837,295.614 118.217,295.479 118.583,295.336C118.949,295.194 119.311,295.034 119.667,294.858C120.023,294.682 120.382,294.485 120.745,294.268C121.108,294.051 121.482,293.804 121.869,293.526L122.866,293.526Z" style="fill:rgb(250,250,250);"/>
                        </g>
                        <g transform="matrix(1.12724,0,0,0.764912,-13.4142,-29.4208)">
                            <path d="M185.158,283.308C185.158,282.204 184.625,281.308 183.97,281.308L146.346,281.308C145.69,281.308 145.158,282.204 145.158,283.308L145.158,319.308C145.158,320.412 145.69,321.308 146.346,321.308L183.97,321.308C184.625,321.308 185.158,320.412 185.158,319.308L185.158,283.308ZM169.735,308.724L160.58,308.724L160.58,307.595C160.58,307.134 160.645,306.701 160.773,306.298C160.902,305.894 161.075,305.515 161.292,305.158C161.509,304.802 161.764,304.467 162.055,304.151C162.347,303.836 162.659,303.531 162.991,303.236C163.323,302.941 163.662,302.656 164.008,302.381C164.354,302.107 164.693,301.83 165.026,301.552C165.338,301.288 165.622,301.028 165.88,300.774C166.138,300.52 166.358,300.257 166.541,299.986C166.724,299.714 166.867,299.428 166.969,299.126C167.07,298.824 167.121,298.497 167.121,298.145C167.121,297.758 167.062,297.421 166.943,297.132C166.824,296.844 166.658,296.603 166.445,296.41C166.231,296.217 165.978,296.071 165.687,295.973C165.395,295.874 165.076,295.825 164.731,295.825C164.134,295.825 163.527,295.964 162.91,296.242C162.293,296.52 161.699,296.937 161.129,297.493L161.129,295.225C161.428,295.001 161.73,294.806 162.035,294.64C162.34,294.474 162.655,294.335 162.981,294.223C163.306,294.111 163.649,294.028 164.008,293.974C164.368,293.92 164.751,293.892 165.158,293.892C165.816,293.892 166.412,293.979 166.948,294.152C167.484,294.325 167.942,294.579 168.321,294.915C168.701,295.25 168.995,295.669 169.201,296.171C169.408,296.673 169.512,297.249 169.512,297.9C169.512,298.49 169.439,299.021 169.293,299.492C169.147,299.964 168.94,300.403 168.672,300.81C168.405,301.217 168.081,301.603 167.701,301.969C167.321,302.336 166.897,302.712 166.429,303.099C166.036,303.417 165.644,303.728 165.254,304.029C164.865,304.331 164.514,304.626 164.202,304.914C163.89,305.203 163.637,305.491 163.444,305.779C163.25,306.067 163.154,306.357 163.154,306.649L163.154,306.7L169.735,306.7L169.735,308.724Z" style="fill:rgb(250,250,250);"/>
                        </g>
                        <g transform="matrix(1.12724,0,0,0.764912,-13.4142,-29.4208)">
                            <path d="M230.152,283.308C230.152,282.204 229.62,281.308 228.964,281.308L191.34,281.308C190.685,281.308 190.152,282.204 190.152,283.308L190.152,319.308C190.152,320.412 190.685,321.308 191.34,321.308L228.964,321.308C229.62,321.308 230.152,320.412 230.152,319.308L230.152,283.308ZM205.931,308.058L205.931,305.84C206.88,306.593 207.952,306.969 209.145,306.969C210.115,306.969 210.89,306.749 211.47,306.308C212.049,305.867 212.339,305.27 212.339,304.518C212.339,302.863 211.075,302.036 208.545,302.036L207.416,302.036L207.416,300.143L208.494,300.143C210.739,300.143 211.861,299.364 211.861,297.804C211.861,296.366 210.986,295.647 209.237,295.647C208.26,295.647 207.341,295.996 206.48,296.695L206.48,294.599C207.47,294.043 208.64,293.765 209.99,293.765C211.285,293.765 212.322,294.091 213.102,294.742C213.882,295.393 214.272,296.227 214.272,297.244C214.272,299.163 213.296,300.398 211.343,300.947L211.343,300.988C212.394,301.089 213.224,301.457 213.835,302.091C214.445,302.726 214.75,303.517 214.75,304.467C214.75,305.776 214.259,306.832 213.275,307.635C212.292,308.439 210.997,308.841 209.389,308.841C207.945,308.841 206.792,308.58 205.931,308.058Z" style="fill:rgb(250,250,250);"/>
                        </g>
                        <g transform="matrix(1.12724,0,0,0.764912,-13.4142,-29.4208)">
                            <path d="M275.15,283.308C275.15,282.204 274.618,281.308 273.962,281.308L236.338,281.308C235.682,281.308 235.15,282.204 235.15,283.308L235.15,319.308C235.15,320.412 235.682,321.308 236.338,321.308L273.962,321.308C274.618,321.308 275.15,320.412 275.15,319.308L275.15,283.308ZM258.512,294.137L258.512,303.556L260.679,303.556L260.679,305.52L258.512,305.52L258.512,308.724L256.223,308.724L256.223,305.52L249.621,305.52L249.621,303.536C250.218,302.865 250.83,302.137 251.458,301.354C252.085,300.571 252.688,299.77 253.268,298.953C253.848,298.136 254.386,297.317 254.881,296.497C255.376,295.676 255.793,294.889 256.132,294.137L258.512,294.137ZM256.223,303.556L256.223,297.432C255.484,298.762 254.753,299.921 254.031,300.911C253.309,301.902 252.632,302.783 252.002,303.556L256.223,303.556Z" style="fill:rgb(250,250,250);"/>
                        </g>
                        <g transform="matrix(1.12724,0,0,0.764912,-13.4142,-29.4208)">
                            <path d="M320.107,283.308C320.107,282.204 319.575,281.308 318.919,281.308L281.295,281.308C280.64,281.308 280.107,282.204 280.107,283.308L280.107,319.308C280.107,320.412 280.64,321.308 281.295,321.308L318.919,321.308C319.575,321.308 320.107,320.412 320.107,319.308L320.107,283.308ZM295.799,308.388L295.799,306.12C296.756,306.764 297.725,307.086 298.709,307.086C299.699,307.086 300.496,306.834 301.099,306.328C301.703,305.823 302.005,305.15 302.005,304.309C302.005,303.482 301.698,302.837 301.084,302.376C300.47,301.915 299.59,301.685 298.444,301.685C298.051,301.685 297.254,301.725 296.054,301.807L296.572,294.137L303.754,294.137L303.754,296.151L298.536,296.151L298.292,299.803C298.76,299.776 299.183,299.762 299.563,299.762C301.109,299.762 302.305,300.159 303.149,300.952C303.993,301.746 304.415,302.831 304.415,304.207C304.415,305.652 303.932,306.81 302.966,307.681C301.999,308.553 300.672,308.988 298.983,308.988C297.559,308.988 296.498,308.788 295.799,308.388Z" style="fill:rgb(250,250,250);"/>
                        </g>
                        <g transform="matrix(1.12724,0,0,0.764912,-13.4142,-29.4208)">
                            <path d="M365.129,283.308C365.129,282.204 364.597,281.308 363.941,281.308L326.317,281.308C325.661,281.308 325.129,282.204 325.129,283.308L325.129,319.308C325.129,320.412 325.661,321.308 326.317,321.308L363.941,321.308C364.597,321.308 365.129,320.412 365.129,319.308L365.129,283.308ZM350.027,304.279C350.027,305.011 349.907,305.679 349.666,306.283C349.425,306.886 349.091,307.407 348.664,307.844C348.237,308.281 347.73,308.621 347.143,308.861C346.557,309.102 345.921,309.222 345.236,309.222C344.503,309.222 343.83,309.08 343.217,308.795C342.603,308.51 342.074,308.086 341.63,307.524C341.185,306.961 340.841,306.261 340.597,305.423C340.353,304.585 340.231,303.614 340.231,302.509C340.231,301.159 340.392,299.962 340.714,298.918C341.036,297.873 341.479,296.998 342.042,296.293C342.605,295.588 343.266,295.052 344.025,294.686C344.785,294.32 345.605,294.137 346.487,294.137C347.036,294.137 347.537,294.174 347.987,294.248C348.438,294.323 348.8,294.425 349.071,294.554L349.071,296.68C348.725,296.503 348.355,296.354 347.962,296.232C347.569,296.11 347.118,296.049 346.609,296.049C346.039,296.049 345.514,296.164 345.032,296.395C344.551,296.625 344.135,296.963 343.786,297.407C343.437,297.851 343.162,298.401 342.962,299.055C342.762,299.709 342.659,300.464 342.652,301.318L342.713,301.318C343.025,300.837 343.447,300.457 343.98,300.179C344.512,299.901 345.137,299.762 345.856,299.762C346.494,299.762 347.069,299.865 347.581,300.072C348.093,300.279 348.53,300.577 348.893,300.967C349.256,301.357 349.535,301.832 349.732,302.392C349.929,302.951 350.027,303.58 350.027,304.279ZM347.647,304.472C347.647,304.051 347.598,303.668 347.499,303.322C347.401,302.976 347.252,302.68 347.052,302.432C346.852,302.185 346.601,301.993 346.299,301.857C345.997,301.722 345.643,301.654 345.236,301.654C344.829,301.654 344.471,301.727 344.163,301.873C343.854,302.019 343.595,302.21 343.384,302.448C343.174,302.685 343.017,302.956 342.911,303.261C342.806,303.566 342.754,303.878 342.754,304.197C342.754,304.543 342.803,304.897 342.901,305.26C343,305.623 343.15,305.954 343.354,306.252C343.557,306.55 343.817,306.796 344.132,306.99C344.447,307.183 344.822,307.279 345.256,307.279C345.643,307.279 345.985,307.208 346.284,307.066C346.582,306.923 346.831,306.727 347.031,306.476C347.231,306.225 347.384,305.928 347.489,305.586C347.594,305.243 347.647,304.872 347.647,304.472Z" style="fill:rgb(250,250,250);"/>
                        </g>
                        <g transform="matrix(1.12724,0,0,0.764912,-13.4142,-29.4208)">
                            <path d="M410.151,283.308C410.151,282.204 409.618,281.308 408.963,281.308L371.339,281.308C370.683,281.308 370.151,282.204 370.151,283.308L370.151,319.308C370.151,320.412 370.683,321.308 371.339,321.308L408.963,321.308C409.618,321.308 410.151,320.412 410.151,319.308L410.151,283.308ZM395.023,295.561C394.413,296.68 393.836,297.787 393.294,298.882C392.751,299.977 392.26,301.078 391.819,302.183C391.378,303.288 390.995,304.402 390.669,305.525C390.344,306.647 390.093,307.795 389.917,308.968L387.445,308.968C387.607,307.924 387.84,306.881 388.142,305.84C388.443,304.799 388.798,303.758 389.205,302.717C389.611,301.676 390.068,300.63 390.573,299.579C391.078,298.528 391.615,297.466 392.185,296.395L385.278,296.395L385.278,294.381L395.023,294.381L395.023,295.561Z" style="fill:rgb(250,250,250);"/>
                        </g>
                        <g transform="matrix(1.12724,0,0,0.764912,-13.4142,-29.4208)">
                            <path d="M455.107,283.308C455.107,282.204 454.575,281.308 453.919,281.308L416.295,281.308C415.64,281.308 415.107,282.204 415.107,283.308L415.107,319.308C415.107,320.412 415.64,321.308 416.295,321.308L453.919,321.308C454.575,321.308 455.107,320.412 455.107,319.308L455.107,283.308ZM430.245,304.655C430.245,304.234 430.297,303.828 430.402,303.434C430.508,303.041 430.665,302.678 430.876,302.346C431.086,302.013 431.35,301.715 431.669,301.451C431.988,301.186 432.361,300.972 432.788,300.81C432.157,300.457 431.655,300.004 431.282,299.452C430.909,298.899 430.723,298.287 430.723,297.616C430.723,297.08 430.833,296.585 431.054,296.13C431.274,295.676 431.579,295.283 431.969,294.95C432.359,294.618 432.818,294.359 433.347,294.172C433.876,293.986 434.453,293.892 435.077,293.892C435.707,293.892 436.289,293.987 436.821,294.177C437.354,294.367 437.815,294.628 438.205,294.961C438.595,295.293 438.898,295.686 439.115,296.141C439.332,296.595 439.441,297.087 439.441,297.616C439.441,298.287 439.254,298.899 438.881,299.452C438.508,300.004 438.013,300.457 437.396,300.81C437.817,300.972 438.188,301.184 438.51,301.446C438.832,301.707 439.102,302.003 439.319,302.336C439.536,302.668 439.698,303.031 439.807,303.424C439.915,303.817 439.97,304.228 439.97,304.655C439.97,305.292 439.851,305.876 439.614,306.405C439.376,306.934 439.044,307.386 438.617,307.763C438.19,308.139 437.678,308.432 437.081,308.643C436.484,308.853 435.826,308.958 435.107,308.958C434.395,308.958 433.742,308.853 433.149,308.643C432.556,308.432 432.044,308.139 431.613,307.763C431.182,307.386 430.847,306.934 430.606,306.405C430.365,305.876 430.245,305.292 430.245,304.655ZM432.544,304.451C432.544,304.865 432.605,305.238 432.727,305.57C432.849,305.903 433.022,306.184 433.246,306.415C433.47,306.645 433.739,306.822 434.054,306.944C434.37,307.066 434.721,307.127 435.107,307.127C435.48,307.127 435.823,307.064 436.135,306.939C436.447,306.813 436.716,306.633 436.943,306.4C437.171,306.166 437.349,305.884 437.477,305.555C437.606,305.226 437.671,304.858 437.671,304.451C437.671,304.079 437.61,303.728 437.488,303.399C437.366,303.07 437.193,302.783 436.969,302.539C436.745,302.295 436.475,302.102 436.16,301.959C435.845,301.817 435.494,301.746 435.107,301.746C434.741,301.746 434.4,301.812 434.085,301.944C433.77,302.076 433.498,302.263 433.271,302.503C433.044,302.744 432.866,303.031 432.737,303.363C432.608,303.695 432.544,304.058 432.544,304.451ZM433.042,297.86C433.042,298.165 433.097,298.448 433.205,298.709C433.314,298.97 433.459,299.197 433.642,299.391C433.826,299.584 434.041,299.735 434.288,299.843C434.536,299.952 434.802,300.006 435.087,300.006C435.372,300.006 435.638,299.95 435.885,299.838C436.133,299.726 436.35,299.574 436.537,299.38C436.723,299.187 436.871,298.96 436.979,298.699C437.088,298.438 437.142,298.158 437.142,297.86C437.142,297.555 437.089,297.27 436.984,297.005C436.879,296.741 436.735,296.514 436.552,296.324C436.369,296.134 436.152,295.985 435.901,295.876C435.65,295.768 435.379,295.713 435.087,295.713C434.782,295.713 434.504,295.769 434.253,295.881C434.002,295.993 433.787,296.147 433.607,296.344C433.427,296.541 433.288,296.77 433.19,297.031C433.091,297.292 433.042,297.568 433.042,297.86Z" style="fill:rgb(250,250,250);"/>
                        </g>
                        <g transform="matrix(1.12724,0,0,0.764912,-13.4142,-29.4208)">
                            <path d="M500.144,283.308C500.144,282.204 499.612,281.308 498.956,281.308L461.332,281.308C460.677,281.308 460.144,282.204 460.144,283.308L460.144,319.308C460.144,320.412 460.677,321.308 461.332,321.308L498.956,321.308C499.612,321.308 500.144,320.412 500.144,319.308L500.144,283.308ZM485.032,301.125C485.032,302.583 484.875,303.838 484.559,304.889C484.244,305.94 483.81,306.805 483.257,307.483C482.704,308.161 482.057,308.661 481.314,308.983C480.572,309.305 479.773,309.467 478.919,309.467C478.641,309.467 478.361,309.45 478.079,309.416C477.798,309.382 477.53,309.338 477.276,309.283C477.021,309.229 476.791,309.17 476.584,309.105C476.377,309.041 476.206,308.978 476.07,308.917L476.07,306.791C476.213,306.879 476.389,306.969 476.599,307.061C476.81,307.152 477.038,307.234 477.286,307.305C477.533,307.376 477.791,307.434 478.059,307.478C478.327,307.522 478.586,307.544 478.837,307.544C479.414,307.544 479.938,307.432 480.409,307.208C480.88,306.984 481.282,306.652 481.614,306.211C481.947,305.771 482.203,305.223 482.382,304.568C482.562,303.914 482.652,303.156 482.652,302.295L482.611,302.295C482.489,302.512 482.328,302.717 482.128,302.91C481.928,303.104 481.699,303.273 481.441,303.419C481.184,303.565 480.897,303.682 480.582,303.77C480.266,303.858 479.929,303.902 479.57,303.902C478.959,303.902 478.391,303.795 477.866,303.582C477.34,303.368 476.884,303.065 476.498,302.671C476.111,302.278 475.808,301.8 475.587,301.237C475.367,300.674 475.257,300.047 475.257,299.355C475.257,298.596 475.382,297.909 475.633,297.295C475.884,296.681 476.23,296.159 476.67,295.729C477.111,295.298 477.63,294.966 478.227,294.732C478.824,294.498 479.471,294.381 480.17,294.381C480.828,294.381 481.45,294.504 482.036,294.752C482.623,295 483.139,295.393 483.583,295.932C484.027,296.471 484.38,297.168 484.641,298.022C484.902,298.877 485.032,299.911 485.032,301.125ZM482.571,299.569C482.571,299.08 482.508,298.636 482.382,298.236C482.257,297.836 482.082,297.493 481.858,297.209C481.635,296.924 481.369,296.703 481.06,296.547C480.751,296.391 480.414,296.313 480.048,296.313C479.722,296.313 479.412,296.38 479.117,296.512C478.822,296.644 478.564,296.832 478.344,297.076C478.123,297.321 477.949,297.616 477.82,297.961C477.691,298.307 477.627,298.69 477.627,299.111C477.627,299.572 477.689,299.979 477.815,300.332C477.94,300.684 478.115,300.981 478.339,301.222C478.563,301.462 478.832,301.646 479.148,301.771C479.463,301.896 479.81,301.959 480.19,301.959C480.529,301.959 480.843,301.896 481.131,301.771C481.419,301.646 481.67,301.476 481.884,301.262C482.098,301.049 482.265,300.796 482.387,300.505C482.51,300.213 482.571,299.901 482.571,299.569Z" style="fill:rgb(250,250,250);"/>
                        </g>
                        <g transform="matrix(1.12724,0,0,0.764912,-13.4142,-29.4208)">
                            <path d="M545.175,283.308C545.175,282.204 544.643,281.308 543.987,281.308L506.363,281.308C505.708,281.308 505.175,282.204 505.175,283.308L505.175,319.308C505.175,320.412 505.708,321.308 506.363,321.308L543.987,321.308C544.643,321.308 545.175,320.412 545.175,319.308L545.175,283.308ZM529.183,309.492C527.664,309.492 526.479,308.871 525.628,307.63C524.777,306.389 524.351,304.596 524.351,302.249C524.351,299.672 524.796,297.722 525.684,296.4C526.572,295.078 527.854,294.416 529.529,294.416C532.737,294.416 534.341,296.909 534.341,301.893C534.341,304.362 533.888,306.245 532.983,307.544C532.077,308.843 530.811,309.492 529.183,309.492ZM521.432,294.335L521.432,309.248L519.072,309.248L519.072,297.224C518.645,297.529 518.185,297.788 517.693,298.002C517.202,298.216 516.641,298.404 516.01,298.567L516.01,296.553C516.403,296.424 516.783,296.288 517.149,296.146C517.515,296.003 517.876,295.844 518.233,295.668C518.589,295.491 518.948,295.295 519.311,295.078C519.674,294.86 520.048,294.613 520.435,294.335L521.432,294.335ZM529.417,296.298C527.647,296.298 526.762,298.248 526.762,302.147C526.762,305.796 527.63,307.62 529.366,307.62C531.075,307.62 531.93,305.765 531.93,302.056C531.93,298.217 531.092,296.298 529.417,296.298Z" style="fill:rgb(250,250,250);"/>
                        </g>
                    </g>
                    <g transform="matrix(4.8205,0,0,3.27105,-2321.84,-313.215)">
                        <text x="491.717px" y="152.79px" style="font-family:'ArialMT', 'Arial', sans-serif;font-size:4.235px;fill:white;">How likely are you to recommend us to a friend or colleague?</text>
                    </g>
                    <g transform="matrix(1.06989,0,0,0.713079,-5461.77,-140.546)">
                        <circle cx="5127.18" cy="451.68" r="12.423" style="fill:none;stroke:white;stroke-width:1.16px;"/>
                    </g>
                    <g transform="matrix(1.03609,0,0,0.703061,-5283.28,-131.478)">
                        <text x="5117.71px" y="452.421px" style="font-family:'SegoeUI-Semibold', 'Segoe UI', sans-serif;font-weight:600;font-size:20px;fill:white;">1</text>
                    </g>
                </g>
                <g id="Currency-textbox" serif:id="Currency textbox" transform="matrix(1.16159,0,0,1.87891,-5331.99,-1229.16)">
                    <path d="M4946.83,870.973C4946.83,870.124 4946.03,869.435 4945.06,869.435L4652.57,869.435C4651.59,869.435 4650.8,870.124 4650.8,870.973L4650.8,906.355C4650.8,907.204 4651.59,907.894 4652.57,907.894L4945.06,907.894C4946.03,907.894 4946.83,907.204 4946.83,906.355L4946.83,870.973Z" style="fill:white;"/>
                    <clipPath id="_clip3">
                        <path d="M4946.83,870.973C4946.83,870.124 4946.03,869.435 4945.06,869.435L4652.57,869.435C4651.59,869.435 4650.8,870.124 4650.8,870.973L4650.8,906.355C4650.8,907.204 4651.59,907.894 4652.57,907.894L4945.06,907.894C4946.03,907.894 4946.83,907.204 4946.83,906.355L4946.83,870.973Z"/>
                    </clipPath>
                    <g clip-path="url(#_clip3)">
                        <g transform="matrix(0.938497,0,0,0.482999,322.885,454.516)">
                            <rect x="4650.8" y="858.917" width="234.095" height="79.625" style="fill:white;"/>
                        </g>
                        <g transform="matrix(4.27611,0,0,3.72817,2562.05,324.807)">
                            <text x="491.717px" y="152.79px" style="font-family:'Arial-BoldMT', 'Arial', sans-serif;font-weight:700;font-size:4.235px;fill:white;">£</text>
                        </g>
                        <g transform="matrix(4.27611,0,0,3.72817,2815.23,324.746)">
                            <text x="491.717px" y="152.79px" style="font-family:'Arial-BoldMT', 'Arial', sans-serif;font-weight:700;font-size:4.235px;fill:white;">00</text>
                        </g>
                        <g id="Number" transform="matrix(4.27611,0,0,3.72817,2560.76,324.103)">
                            <text x="491.717px" y="152.79px" style="font-family:'SegoeUI', 'Segoe UI', sans-serif;font-size:3.606px;fill:rgb(29,34,51);">Please specify.<tspan x="514.461px " y="152.79px ">.</tspan>.</text>
                        </g>
                    </g>
                    <path d="M4946.83,870.973C4946.83,870.124 4946.03,869.435 4945.06,869.435L4652.57,869.435C4651.59,869.435 4650.8,870.124 4650.8,870.973L4650.8,906.355C4650.8,907.204 4651.59,907.894 4652.57,907.894L4945.06,907.894C4946.03,907.894 4946.83,907.204 4946.83,906.355L4946.83,870.973Z" style="fill:none;stroke:rgb(238,238,238);stroke-width:0.98px;"/>
                </g>
                <g id="Estimated-spend" serif:id="Estimated spend" transform="matrix(1.85685,0,0,2.61865,-999.644,-138.295)">
                    <g transform="matrix(3.07709,0,0,3.07709,-936.979,-277.817)">
                        <text x="491.717px" y="152.79px" style="font-family:'ArialMT', 'Arial', sans-serif;font-size:3.582px;fill:white;">T<tspan x="493.508px 495.5px " y="152.79px 152.79px ">el</tspan>l us a bit more about why you chose 10</text>
                    </g>
                    <g transform="matrix(0.574962,0,0,0.564315,-2387.63,-66.0264)">
                        <circle cx="5127.18" cy="451.68" r="12.423" style="fill:none;stroke:white;stroke-width:1.16px;"/>
                    </g>
                    <g transform="matrix(0.661371,0,0,0.661371,-2827.32,-106.547)">
                        <text x="5117.71px" y="452.421px" style="font-family:'SegoeUI-Semibold', 'Segoe UI', sans-serif;font-weight:600;font-size:16.667px;fill:white;">2</text>
                    </g>
                </g>
            </g>
        </g>
    </g>
    <defs>
        <linearGradient id="_Linear2" x1="0" y1="0" x2="1" y2="0" gradientUnits="userSpaceOnUse" gradientTransform="matrix(340.702,0,0,6.21991,531.282,495.773)"><stop offset="0" style="stop-color:rgb(247,126,130);stop-opacity:1"/><stop offset="1" style="stop-color:rgb(155,247,126);stop-opacity:1"/></linearGradient>
    </defs>
</svg>
