<?xml version="1.0" encoding="UTF-8" standalone="no"?>
<!DOCTYPE svg PUBLIC "-//W3C//DTD SVG 1.1//EN" "http://www.w3.org/Graphics/SVG/1.1/DTD/svg11.dtd">
<svg width="100%" height="100%" viewBox="0 0 121 44" version="1.1" xmlns="http://www.w3.org/2000/svg" xmlns:xlink="http://www.w3.org/1999/xlink" xml:space="preserve" xmlns:serif="http://www.serif.com/" style="fill-rule:evenodd;clip-rule:evenodd;stroke-linejoin:round;stroke-miterlimit:2;">
    <g id="Artboard1" transform="matrix(0.0945066,0,0,0.0544003,0,0)">
        <rect x="0" y="0" width="1280" height="800" style="fill:none;"/>
        <g transform="matrix(0.0259568,0,0,0.0498774,94.0304,66.3925)">
            <g transform="matrix(44.0886,0,0,39.8597,0,0)">
                <path d="M61.627,329.073C69.592,329.073 75.85,327.564 80.4,324.544C84.95,321.529 87.227,317 87.227,310.964L87.227,310.585C87.227,304.927 84.981,300.557 80.496,297.476C76.006,294.394 69.148,292.854 59.921,292.854L26.104,292.854C24.358,292.854 22.944,294.268 22.944,296.013L22.944,325.914C22.944,327.659 24.358,329.073 26.104,329.073L61.627,329.073ZM54.8,273.134C62.385,273.134 68.455,271.658 73.004,268.701C77.555,265.747 79.832,261.253 79.832,255.218L79.832,254.837C79.832,249.558 77.84,245.442 73.858,242.484C69.877,239.531 64.092,238.052 56.507,238.052L26.104,238.052C24.358,238.052 22.944,239.466 22.944,241.212L22.944,269.975C22.944,271.719 24.358,273.134 26.104,273.134L54.8,273.134ZM0,220.353C0,218.609 1.414,217.194 3.158,217.194L59.542,217.194C74.836,217.194 86.402,221.115 94.243,228.952C100.184,234.894 103.156,242.225 103.156,250.947L103.156,251.327C103.156,255.247 102.617,258.788 101.544,261.945C100.469,265.106 99.079,267.856 97.372,270.195C95.666,272.536 93.673,274.586 91.398,276.358C90.793,276.83 90.176,277.284 89.551,277.72C87.533,279.127 87.737,282.168 89.974,283.196C95.215,285.6 99.641,288.63 103.251,292.285C108.116,297.216 110.551,304.169 110.551,313.144L110.551,313.523C110.551,319.468 109.38,324.711 107.043,329.262C104.703,333.814 101.384,337.606 97.087,340.639C92.788,343.674 87.636,345.982 81.632,347.561C75.627,349.143 68.896,349.932 61.438,349.932L3.158,349.932C1.414,349.932 0,348.517 0,346.773L0,220.353Z" style="fill:rgb(33,41,69);fill-rule:nonzero;"/>
            </g>
            <g transform="matrix(44.0886,0,0,39.8597,0,0)">
                <path d="M229.427,216.013L246.06,216.013C248.009,216.013 249.59,217.593 249.59,219.543L249.59,346.402C249.59,348.351 248.009,349.931 246.06,349.931L229.427,349.931C227.477,349.931 225.896,348.351 225.896,346.402L225.896,219.543C225.896,217.593 227.477,216.013 229.427,216.013Z" style="fill:rgb(33,41,69);fill-rule:nonzero;"/>
            </g>
            <g transform="matrix(44.0886,0,0,39.8597,0,0)">
                <path d="M270.876,216.013L287.509,216.013C289.458,216.013 291.039,217.593 291.039,219.543L291.039,346.402C291.039,348.351 289.458,349.931 287.509,349.931L270.876,349.931C268.927,349.931 267.346,348.351 267.346,346.402L267.346,219.543C267.346,217.593 268.927,216.013 270.876,216.013Z" style="fill:rgb(33,41,69);fill-rule:nonzero;"/>
            </g>
            <g transform="matrix(44.0886,0,0,39.8597,0,0)">
                <path d="M308.797,216.013L320.219,216.013C326.774,216.013 332.087,221.328 332.087,227.881L332.087,265.406C334.497,262.729 338.011,260.12 342.628,257.576C347.246,255.034 353.169,253.759 360.397,253.759C366.151,253.759 371.304,254.699 375.857,256.57C380.406,258.448 384.189,261.089 387.201,264.501C390.212,267.915 392.521,272.031 394.127,276.848C395.734,281.667 396.537,286.957 396.537,292.71L396.537,346.679C396.537,348.475 395.081,349.931 393.284,349.931L376.098,349.931C374.302,349.931 372.845,348.475 372.845,346.679L372.845,292.911C372.845,286.887 371.204,282.238 367.926,278.958C364.645,275.679 360.397,274.039 355.177,274.039C351.964,274.039 348.952,274.675 346.142,275.947C343.331,277.218 340.921,278.992 338.913,281.265C336.906,283.544 335.331,286.185 334.196,289.197C333.057,292.208 332.489,295.456 332.489,298.933L332.489,346.679C332.489,348.475 331.033,349.931 329.237,349.931L312.049,349.931C310.253,349.931 308.797,348.475 308.797,346.679L308.797,216.013Z" style="fill:rgb(33,41,69);fill-rule:nonzero;"/>
            </g>
            <g transform="matrix(44.0886,0,0,39.8597,0,0)">
                <path d="M593.657,255.767L608.593,255.767C610.707,255.767 612.454,257.417 612.573,259.527L612.961,266.41C614.167,265.073 615.604,263.666 617.279,262.193C618.951,260.721 620.958,259.352 623.301,258.077C625.643,256.805 628.287,255.767 631.233,254.964C634.175,254.161 637.523,253.758 641.272,253.758C653.048,253.758 662.018,257.273 668.175,264.299C674.331,271.327 677.412,280.798 677.412,292.71L677.412,345.718C677.412,348.045 675.525,349.931 673.198,349.931L657.934,349.931C655.607,349.931 653.719,348.045 653.719,345.718L653.719,292.911C653.719,286.886 652.079,282.238 648.8,278.957C645.52,275.679 641.272,274.039 636.05,274.039C632.838,274.039 629.827,274.675 627.015,275.947C624.206,277.218 621.795,278.992 619.788,281.265C617.781,283.543 616.206,286.185 615.071,289.197C613.931,292.208 613.364,295.456 613.364,298.934L613.364,345.718C613.364,348.045 611.478,349.931 609.151,349.931L593.884,349.931C591.557,349.931 589.671,348.045 589.671,345.718L589.671,259.751C589.671,257.551 591.456,255.767 593.657,255.767Z" style="fill:rgb(33,41,69);fill-rule:nonzero;"/>
            </g>
            <g transform="matrix(44.0886,0,0,39.8597,0,0)">
                <path d="M693.342,260.953L693.342,263.735L695.676,263.735C696.379,263.735 696.857,263.654 697.109,263.495C697.479,263.268 697.669,262.879 697.669,262.332C697.669,261.857 697.534,261.504 697.268,261.286C697.001,261.064 696.496,260.953 695.765,260.953L693.342,260.953ZM691.86,259.592L695.794,259.592C696.716,259.592 697.373,259.682 697.776,259.867C698.182,260.051 698.515,260.348 698.768,260.763C699.021,261.18 699.153,261.664 699.153,262.214C699.153,262.693 699.06,263.102 698.886,263.45C698.748,263.704 698.45,263.984 697.985,264.287C698.407,264.495 698.689,264.735 698.842,265.009C698.984,265.282 699.058,265.749 699.058,266.415L699.058,267.472C699.058,267.968 699.167,268.383 699.387,268.711L699.543,268.963L697.879,268.963C697.766,268.58 697.693,268.121 697.653,267.587L697.577,266.441C697.55,266.022 697.476,265.724 697.371,265.549C697.265,265.376 697.107,265.255 696.913,265.176C696.714,265.1 696.313,265.064 695.717,265.064L693.342,265.064L693.342,268.963L691.86,268.963L691.86,259.592ZM702.325,264.336C702.325,263.09 702.011,261.921 701.375,260.826C700.747,259.732 699.886,258.866 698.802,258.237C697.719,257.608 696.551,257.292 695.303,257.292C694.046,257.292 692.864,257.608 691.765,258.237C690.667,258.866 689.801,259.732 689.176,260.826C688.543,261.921 688.235,263.102 688.235,264.358C688.235,265.609 688.543,266.779 689.176,267.866C689.801,268.954 690.668,269.809 691.776,270.439C692.876,271.068 694.054,271.382 695.303,271.382C696.545,271.382 697.708,271.068 698.802,270.434C699.894,269.8 700.753,268.945 701.378,267.861C702.011,266.776 702.325,265.604 702.325,264.336ZM703.442,264.323C703.442,265.79 703.079,267.156 702.351,268.413C701.622,269.669 700.622,270.667 699.358,271.402C698.087,272.135 696.73,272.503 695.286,272.503C693.832,272.503 692.474,272.136 691.212,271.406C689.941,270.676 688.942,269.679 688.209,268.419C687.479,267.156 687.115,265.804 687.115,264.365C687.115,262.91 687.479,261.543 688.209,260.27C688.942,258.995 689.941,257.993 691.202,257.266C692.467,256.538 693.831,256.173 695.286,256.173C696.74,256.173 698.09,256.538 699.353,257.262C700.608,257.984 701.605,258.986 702.338,260.259C703.077,261.533 703.442,262.888 703.442,264.323Z" style="fill:rgb(33,41,69);fill-rule:nonzero;"/>
            </g>
            <g transform="matrix(44.0886,0,0,39.8597,0,0)">
                <path d="M520.383,255.485L535.192,255.485C537.343,255.485 539.117,257.171 539.225,259.319L539.633,267.332C540.705,265.994 542.074,264.52 543.75,262.915C545.421,261.309 547.395,259.836 549.672,258.499C551.947,257.16 554.591,256.022 557.602,255.084C560.615,254.148 564.059,253.678 567.944,253.678C570.217,253.678 572.259,253.813 574.067,254.08C574.839,254.195 575.618,254.347 576.403,254.534C578.187,254.962 579.321,256.723 578.932,258.518L575.551,274.155C575.151,276.01 573.297,277.131 571.453,276.687C570.921,276.56 570.387,276.452 569.85,276.366C568.176,276.099 566.203,275.964 563.927,275.964C560.714,275.964 557.634,276.5 554.692,277.57C551.747,278.643 549.202,280.181 547.061,282.188C544.919,284.196 543.213,286.605 541.944,289.416C540.669,292.227 540.035,295.373 540.035,298.852L540.035,345.676C540.035,347.87 538.256,349.649 536.061,349.649L520.317,349.649C518.123,349.649 516.344,347.87 516.344,345.676L516.344,259.525C516.344,257.293 518.153,255.485 520.383,255.485Z" style="fill:rgb(33,41,69);fill-rule:nonzero;"/>
            </g>
            <g transform="matrix(44.0886,0,0,39.8597,0,0)">
                <path d="M189.98,257.227C187.96,257.227 186.322,258.866 186.322,260.885L186.322,306.65C186.322,319.183 177.37,327.599 166.445,327.599C164.363,327.597 162.936,327.596 162.092,327.598C151.167,327.598 142.215,319.182 142.215,306.649L142.215,260.887C142.215,258.866 140.578,257.228 138.558,257.228L124.027,257.228C122.007,257.228 120.369,258.866 120.369,260.887L120.369,311.663C120.369,333.725 140.561,349.063 161.901,349.256L161.901,349.26L162.052,349.26C162.137,349.26 162.222,349.265 162.307,349.265L162.307,349.26L166.23,349.26L166.23,349.266C166.33,349.266 166.43,349.26 166.53,349.26L166.994,349.26L166.994,349.249C188.2,348.889 208.169,333.602 208.169,311.664L208.169,260.885C208.169,258.866 206.531,257.227 204.511,257.227L189.98,257.227Z" style="fill:rgb(33,41,69);fill-rule:nonzero;"/>
            </g>
            <g transform="matrix(44.0886,0,0,39.8597,0,0)">
                <path d="M456.757,333.063C461.306,333.063 465.256,332.16 468.603,330.351C471.948,328.546 474.727,326.169 476.936,323.224C479.144,320.282 480.782,317.071 481.853,313.587C482.925,310.107 483.46,306.629 483.46,303.147C483.46,299.802 482.925,296.355 481.853,292.806C480.782,289.261 479.144,286.049 476.936,283.169C474.727,280.293 471.948,277.95 468.603,276.142C465.256,274.336 461.306,273.432 456.757,273.432C452.205,273.432 448.255,274.336 444.911,276.142C441.563,277.95 438.788,280.293 436.579,283.169C434.371,286.049 432.731,289.261 431.66,292.806C430.586,296.355 430.054,299.802 430.054,303.147C430.054,306.629 430.586,310.107 431.66,313.587C432.731,317.071 434.371,320.282 436.579,323.224C438.788,326.169 441.563,328.546 444.911,330.351C448.255,332.16 452.205,333.063 456.757,333.063ZM406.162,303.147C406.162,296.32 407.398,289.866 409.876,283.771C412.351,277.683 415.799,272.362 420.216,267.811C424.633,263.262 429.954,259.646 436.177,256.969C442.402,254.292 449.259,252.953 456.757,252.953C464.251,252.953 471.113,254.292 477.336,256.969C483.561,259.646 488.881,263.262 493.299,267.811C497.715,272.362 501.16,277.683 503.637,283.771C506.114,289.866 507.353,296.32 507.353,303.147C507.353,309.974 506.114,316.432 503.637,322.522C501.16,328.615 497.715,333.965 493.299,338.584C488.881,343.203 483.561,346.851 477.336,349.525C471.113,352.202 464.251,353.541 456.757,353.541C449.259,353.541 442.402,352.202 436.177,349.525C429.954,346.851 424.633,343.203 420.216,338.584C415.799,333.965 412.351,328.615 409.876,322.522C407.398,316.432 406.162,309.974 406.162,303.147Z" style="fill:rgb(33,41,69);fill-rule:nonzero;"/>
            </g>
            <g transform="matrix(44.0886,0,0,39.8597,0,0)">
                <path d="M972.577,213.619C972.308,213.257 971.505,212.804 971.572,211.888C971.792,208.833 970.248,209.773 969.104,210.535C965.158,213.163 959.998,214.108 958.748,220.681C958.469,222.142 957.089,222.671 956.006,223.314C945.755,229.397 934.457,222.157 931.694,207.386C930.26,199.73 928.366,192.244 925.315,185.266C923.668,181.498 918.849,176.494 916.493,172.557C916.101,171.904 915.874,171.168 915.852,170.407C915.734,166.349 914.01,157.03 902.979,150.61C902.899,150.557 902.818,150.505 902.737,150.452C889.215,140.621 860.122,130.479 844.509,125.751C838.552,124.105 836.956,127.938 836.81,130.358C836.783,130.821 836.845,131.276 836.971,131.723C837.278,132.811 837.927,135.037 837.936,135.104C841.631,149.215 846.388,168.761 843.659,168.001C840.743,167.189 833.52,126.37 816.465,114.625C816.357,114.537 816.25,114.453 816.14,114.365C805.014,104.073 781.907,99.239 774.116,97.606C773.1,97.395 772.185,96.834 771.564,96.006C766.981,89.911 759.819,88.051 748.691,86.238C744.072,85.486 740.112,84.916 736.726,84.504C733.942,84.165 732.161,81.379 733.024,78.708L733.039,78.662C733.395,77.549 733.403,75.302 732.678,75.013C731.846,74.682 729.243,75.842 727.039,76.087C725.575,76.25 723.882,75.304 723.799,75.256C723.261,74.942 724.563,76.053 723.998,75.518C717.575,69.429 733.595,63.812 730.066,63.567C728.826,63.481 727.625,63.451 726.43,63.426C721.561,63.324 717.078,63.668 713.284,64.207C712.285,64.348 711.651,63.408 711.738,62.561C711.78,62.155 711.973,61.769 712.4,61.537C733.47,50.093 741.383,37.013 741.383,37.013C741.383,37.013 747.795,26.599 732.913,19.712C730.074,18.399 726.462,17.207 721.868,16.233C708.991,13.503 697.426,9.271 688.506,5.386C685.367,4.019 682.55,2.694 680.133,1.497C680.04,1.45 679.445,1.155 678.956,1.013C677.563,0.482 676.343,0.903 675.626,2.643C674.442,5.518 678.409,6.993 680.487,8.603C689.33,15.456 699.36,19.838 708.51,25.773C714.285,29.519 714.449,31.174 709.16,34.811C701.481,40.089 692.795,43.384 684.055,46.671C683.583,46.849 683.129,46.925 682.682,46.937C678.074,43.891 673.44,43.287 669.177,44.077C661.514,44.39 654.342,48.67 650.439,55.863C649.625,57.361 647.988,58.229 646.289,58.094C645.974,58.069 645.659,58.051 645.343,58.062C644.765,57.959 644.122,57.951 643.645,57.988C624.794,59.444 621.039,67.182 620.304,70.493C620.089,71.463 619.471,72.285 618.581,72.661C578.024,89.766 549.461,76.946 539.893,71.313C539.827,71.273 539.75,71.23 539.683,71.191C538.455,70.46 537.009,71.625 537.532,72.952C546.542,95.882 593.029,97.668 606.009,97.706C606.561,97.708 607.076,97.707 607.502,97.704C608.476,97.697 609.261,98.691 608.938,99.622C605.608,109.194 601.627,115.459 599.118,118.907C597.875,120.614 596.913,122.499 596.27,124.511L596.003,125.344C594.875,128.875 594.919,132.676 596.129,136.18C596.424,137.034 596.445,137.959 596.205,138.831C596.069,139.324 595.993,139.673 595.958,140.019C595.958,140.019 595.848,140.911 596.014,141.926C598.442,156.774 606.539,159.968 606.539,159.968C606.539,159.968 607.902,160.8 613.229,160.545C625.891,159.943 647.171,156.918 652.455,156.559C653.02,156.52 653.578,156.576 654.125,156.719L654.468,156.808C654.858,156.909 655.229,157.047 655.584,157.231C673.884,166.717 701.153,196.286 710.921,213.382C711.473,214.417 712.039,215.439 712.616,216.45C717.206,225.186 722.039,231.722 729.878,237.518C730.752,238.164 733.237,240.013 737.264,242.306C742.317,245.183 746.415,246.854 749.717,248.186C758.596,251.766 765.93,253.623 771.298,254.982C773.599,255.565 775.109,255.903 776.069,256.105C780.204,256.977 783.956,257.492 788.657,258.108C806.364,260.43 814.572,259.5 817.805,265.134C818.025,265.404 818.654,267.556 818.857,268.307C818.882,268.394 818.909,268.477 818.934,268.563C823.282,281.248 826.035,282.735 828.004,288.555C828.931,291.29 830.375,292.816 832.867,293.559C836.781,294.725 840.27,296.895 841.861,301.144C845.528,310.931 852.588,318.497 861.729,321.041C871.811,323.85 876.429,322.961 882.483,314.569C884.748,311.428 884.88,308.506 883.035,305.237C879.426,298.845 874.059,295.784 867.477,294.976C864.329,294.589 861.331,292.998 860.903,289.767C860.188,284.384 857.395,281.228 854.164,277.906C850.974,274.627 851.74,270.027 855.321,267.913C856.26,267.359 867.026,258.822 871.397,256.626C872.956,255.823 882.245,252.572 882.54,246.052C881.197,230.474 883.729,219.366 884.908,219.468C885.584,219.529 884.369,224.644 886.456,234.365C886.559,234.847 886.7,235.315 886.863,235.774C886.863,235.778 886.862,235.781 886.863,235.786C888.787,246.996 902.13,264.599 908.704,272.075C909.032,272.449 909.282,272.873 909.458,273.337C910.786,276.813 912.529,280.015 914.7,283.039C915.567,284.247 916.51,286.427 916.757,287.893C918.87,300.422 924.835,311.45 926.043,324.199C926.503,329.046 927.595,334.944 926.943,337.123C926.794,337.618 926.681,338.12 926.729,338.634C927.038,342.067 928.133,349.708 929.445,350.369C930.835,351.068 937.364,352.391 940.319,349.097C940.554,348.833 940.676,348.461 940.715,348.093C941.292,342.601 943.52,344.976 944.655,346.464C945.002,346.92 945.56,347.075 946.08,346.878C948.811,345.851 950.048,344.741 951.708,342.776C951.91,342.539 952.055,342.231 952.116,341.91C953.002,337.211 953.216,332.587 951.026,328.227C949.065,324.325 946.7,320.836 944.134,317.482C937.987,309.439 934.567,300.347 936.992,288.957C938.047,283.998 937.011,279.437 934.263,275.638C932.356,273.001 932.129,270.55 932.821,266.997C934.914,256.221 935.606,245.277 934.473,234.314C934.299,232.63 933.368,230.761 934.85,229.433C936.272,228.162 937.762,229.359 939.095,230.011C945.718,233.251 952.07,232.292 958.235,228.369C959.664,227.46 961.025,226.544 962.741,226.544C969.838,226.55 973.155,221.884 973.645,218.811C973.833,217.628 973.692,215.128 972.577,213.619ZM842.513,322.285C846.042,326.545 850.786,329.685 854.334,334.079C859.058,339.928 866.613,357.01 866.667,358.58C866.659,362.477 863.528,362.26 860.456,364.027C858.991,364.567 858.132,366.099 856.708,363.715C856.002,363.2 855.151,362.971 854.17,363.395C853.292,363.776 853.37,365.116 853.476,366.441C853.543,367.278 853.035,368.079 852.298,368.308C849.743,369.105 847.063,369.297 844.173,368.437C841.901,367.76 840.27,367.684 839.597,364.126C839.571,364.028 839.54,363.918 839.511,363.82C835.427,352.825 843.808,359.204 827.649,330.43C827.454,329.941 827.255,329.447 827.06,328.958C825.705,323.909 822.845,319.364 818.264,316.594C815.506,314.926 813.29,312.4 811.991,309.214C809.098,302.12 804.063,297.691 797.558,295.093C793.299,293.393 788.956,291.879 784.699,290.093C775.03,286.038 763.584,278.697 755.221,266.026C754.862,265.48 754.427,264.937 754.1,264.292C753.401,262.915 747.364,255.661 748.746,256.156C761.431,261.456 790.823,266.636 807.604,268.463C810.103,268.736 812.371,270.289 813.284,272.632C813.415,272.967 814.675,275.106 814.909,275.472C820.034,283.515 820.334,284.77 822.427,287.636C825.761,292.203 830.322,296.421 831.1,302.173C832.315,311.153 837.772,316.559 842.513,322.285Z" style="fill:rgb(243,109,33);fill-rule:nonzero;"/>
            </g>
        </g>
    </g>
</svg>
