<?xml version="1.0" encoding="UTF-8" standalone="no"?>
<!DOCTYPE svg PUBLIC "-//W3C//DTD SVG 1.1//EN" "http://www.w3.org/Graphics/SVG/1.1/DTD/svg11.dtd">
<svg width="100%" height="100%" viewBox="0 0 128 36" version="1.1" xmlns="http://www.w3.org/2000/svg" xmlns:xlink="http://www.w3.org/1999/xlink" xml:space="preserve" xmlns:serif="http://www.serif.com/" style="fill-rule:evenodd;clip-rule:evenodd;stroke-linejoin:round;stroke-miterlimit:2;">
    <g transform="matrix(1,0,0,1,-20.3767,-78.3947)">
        <g id="Artboard1" transform="matrix(0.0993015,0,0,0.0443556,20.3767,78.3947)">
            <rect x="0" y="0" width="1280" height="800" style="fill:none;"/>
            <g transform="matrix(1.56972,0,0,3.51423,14.463,17.7913)">
                <path d="M113.839,68.421C113.839,83.252 101.814,95.285 86.991,95.285C72.17,95.285 60.162,83.252 60.162,68.421C60.162,53.59 72.17,41.558 86.991,41.558C101.814,41.558 113.839,53.574 113.839,68.421ZM70.038,5.684C92.654,-2.252 118.409,-1.825 137.752,14.456C141.35,17.733 145.46,21.863 147.098,26.727C149.059,32.871 140.258,26.079 139.048,25.243C132.737,21.215 126.443,17.836 119.382,15.515C81.346,4.097 45.358,24.731 22.98,56.782C13.633,70.947 7.544,85.864 2.547,102.264C2.001,104.056 1.574,106.394 0.585,107.965C-0.403,109.773 0.159,103.118 0.159,102.895C0.909,96.12 2.325,89.567 4.082,83.014C14.401,48.095 37.222,19.013 70.038,5.684ZM159.941,99.312L159.941,103.339C165.91,95.711 172.324,90.216 179.283,86.615C186.344,83.133 194.395,81.324 203.52,81.324C212.337,81.324 220.269,83.235 227.211,86.939C234.17,90.625 239.269,95.933 242.749,102.81C245.033,106.821 246.45,111.173 247.098,115.832C247.746,120.372 248.071,126.294 248.071,133.496L248.071,194.134C248.071,200.687 246.433,205.654 243.396,208.931C240.361,212.31 236.335,214 231.44,214C226.443,214 222.418,212.31 219.262,208.829C216.107,205.433 214.589,200.483 214.589,194.134L214.589,139.811C214.589,129.025 213.054,120.782 210.018,115.064C206.981,109.364 200.773,106.496 191.665,106.496C185.679,106.496 180.255,108.289 175.36,111.685C170.465,115.183 166.781,119.929 164.495,126.072C162.858,130.936 162.108,139.931 162.108,153.379L162.108,194.117C162.108,200.773 160.487,205.638 157.331,209.033C154.176,212.31 150.168,214 145.153,214C140.258,214 136.335,212.31 133.197,208.829C130.042,205.433 128.524,200.483 128.524,194.134L128.524,99.841C128.524,93.612 129.938,88.952 132.771,85.983C135.483,82.928 139.286,81.324 144.181,81.324C147.115,81.324 149.725,81.955 152.112,83.338C154.5,84.703 156.445,86.717 157.877,89.465C159.276,92.212 159.941,95.506 159.941,99.312ZM351.873,170.616C348.94,176.743 345.017,181.3 340.139,184.269C335.346,187.239 329.905,188.707 324.158,188.707L324.055,188.707C318.188,188.707 312.849,187.12 307.971,184.065C302.974,180.891 299.17,176.231 296.339,170.104C293.524,163.858 292.109,156.349 292.109,147.457C292.109,139.095 293.422,131.704 296.015,125.458C298.726,119.109 302.428,114.245 307.323,110.866C312.099,107.367 317.642,105.78 323.731,105.78L324.158,105.78C329.922,105.78 335.244,107.47 340.036,110.746C345.033,114.023 348.94,118.802 351.873,125.031C354.688,131.277 356.223,138.787 356.223,147.457C356.223,156.758 354.688,164.489 351.873,170.616ZM385.576,37.531C382.746,34.356 378.84,32.752 373.945,32.752C368.828,32.752 364.922,34.442 362.193,37.94C359.378,41.32 358.065,46.405 358.065,53.061L358.065,101.308C351.772,94.534 345.256,89.669 338.604,86.392C334.374,84.396 329.581,82.911 324.158,82.16C321.019,81.733 317.744,81.512 314.162,81.512C297.533,81.512 283.939,87.229 273.723,98.663C263.506,110.098 258.389,125.97 258.389,146.364C258.389,156.008 259.702,165.002 262.192,173.245C264.802,181.488 268.606,188.69 273.62,194.817C278.617,200.961 284.588,205.603 291.445,208.999C298.301,212.276 305.668,213.966 313.719,213.966C317.302,213.966 320.781,213.658 324.141,213.027C326.323,212.703 328.387,212.174 330.451,211.525C335.551,209.836 340.344,207.412 344.694,204.34C349.145,201.166 353.511,197.035 358.048,192.069L358.048,195.243C358.048,201.268 359.583,205.825 362.516,209.101C365.451,212.276 369.373,213.966 373.927,213.966C378.379,213.966 382.302,212.379 385.235,209.323C388.169,206.149 389.568,201.49 389.568,195.261L389.568,51.389C389.585,45.347 388.288,40.688 385.576,37.531ZM69.833,192.308L69.833,114.433C72.102,114.638 74.285,114.74 76.571,114.74C87.435,114.74 97.669,111.89 106.351,106.804L106.351,192.291C106.351,199.596 104.611,204.988 101.234,208.59C97.873,212.174 93.405,213.966 87.981,213.966C82.642,213.966 78.412,212.174 74.933,208.471C71.573,204.887 69.833,199.493 69.833,192.308ZM443.789,112.214C449.111,106.599 455.967,103.851 464.341,103.851L464.461,103.851C473.143,103.851 480.221,106.599 485.542,112.095C490.966,117.607 494.019,125.97 494.89,137.166L434.016,137.166C435.209,126.175 438.485,117.812 443.789,112.214ZM513.787,169.234C510.53,169.234 508.142,169.985 506.403,171.35C502.275,175.156 498.795,178.228 496.186,180.447C493.575,182.563 490.744,184.68 487.589,186.676C484.451,188.588 481.278,190.072 477.918,190.926C474.66,191.864 470.959,192.291 466.935,192.291C466.081,192.291 465.212,192.291 464.444,192.188C459.429,191.882 454.774,190.499 450.526,187.956C445.648,185.106 441.622,180.891 438.689,175.378C435.636,169.661 434.118,163.107 433.999,155.7L499.648,155.7C508.347,155.7 515.185,154.42 520.081,152.099C524.857,149.556 527.262,144.266 527.262,136.125C527.262,127.233 524.976,118.563 520.302,109.996C515.63,101.513 508.569,94.534 499.221,89.158C489.857,83.765 478.567,81.119 465.536,81.119L464.444,81.119C454.774,81.222 445.972,82.826 437.922,85.778C429.649,88.952 422.69,93.509 417.045,99.312C411.4,105.234 407.05,112.316 404.116,120.577C401.166,128.837 399.648,137.831 399.648,147.439C399.648,167.971 405.737,184.048 417.693,195.994C429.001,207.327 444.539,213.249 464.427,213.881C465.621,213.982 466.696,213.982 467.906,213.982C477.356,213.982 485.628,212.822 492.894,210.398C500.177,207.958 506.163,204.988 510.939,201.404C515.833,197.701 519.313,193.895 521.701,189.987C524.09,186.079 525.3,182.58 525.3,179.713C525.3,176.436 524.209,173.791 522.145,171.999C519.995,170.189 517.148,169.234 513.787,169.234ZM578.259,112.214C583.598,106.599 590.438,103.851 598.812,103.851L598.931,103.851C607.613,103.851 614.692,106.599 620.013,112.095C625.352,117.607 628.49,125.97 629.258,137.166L568.487,137.166C569.561,126.175 572.835,117.812 578.259,112.214ZM656.513,171.999C654.449,170.207 651.618,169.251 648.139,169.251C644.984,169.251 642.595,170.002 640.856,171.367C636.608,175.173 633.248,178.245 630.622,180.464C628.029,182.58 625.078,184.696 621.941,186.693C618.905,188.604 615.63,190.09 612.388,190.942C609.011,191.882 605.429,192.308 601.405,192.308C600.534,192.308 599.665,192.308 598.897,192.206C593.883,191.898 589.227,190.516 584.996,187.974C579.982,185.123 576.075,180.907 573.023,175.395C570.09,169.678 568.572,163.124 568.469,155.717L634.016,155.717C642.817,155.717 649.656,154.437 654.449,152.116C659.344,149.573 661.733,144.282 661.733,136.141C661.733,127.25 659.344,118.58 654.671,110.013C649.998,101.53 643.039,94.551 633.589,89.174C624.226,83.782 613.037,81.136 599.887,81.136L598.914,81.136C589.243,81.239 580.323,82.843 572.393,85.795C564.137,88.97 557.16,93.526 551.397,99.329C545.87,105.251 541.52,112.334 538.587,120.594C535.654,128.854 534.118,137.849 534.118,147.457C534.118,167.988 540.105,184.065 552.061,196.012C563.353,207.344 579.01,213.266 598.897,213.897C599.99,214 601.166,214 602.376,214C611.724,214 620.081,212.839 627.365,210.416C634.648,207.975 640.634,205.006 645.426,201.422C650.185,197.719 653.783,193.912 656.172,190.004C658.56,186.096 659.771,182.598 659.771,179.73C659.771,176.436 658.697,173.791 656.513,171.999ZM762.073,170.616C759.139,176.743 755.217,181.3 750.441,184.269C745.545,187.239 740.207,188.707 734.34,188.707L734.238,188.707C728.353,188.707 723.031,187.12 718.137,184.065C713.241,180.891 709.335,176.231 706.522,170.104C703.706,163.858 702.291,156.349 702.291,147.457C702.291,139.095 703.587,131.704 706.317,125.458C708.926,119.109 712.73,114.245 717.522,110.866C722.418,107.367 727.859,105.78 734.033,105.78L734.358,105.78C740.121,105.78 745.444,107.47 750.338,110.746C755.235,114.023 759.139,118.802 762.073,125.031C765.007,131.277 766.422,138.787 766.422,147.457C766.422,156.758 765.007,164.489 762.073,170.616ZM795.878,37.531C793.047,34.356 789.261,32.752 784.144,32.752C779.028,32.752 775.121,34.442 772.393,37.94C769.68,41.32 768.265,46.405 768.265,53.061L768.265,101.308C761.971,94.534 755.438,89.669 748.803,86.392C744.659,84.396 739.781,82.911 734.34,82.16C731.185,81.733 727.926,81.512 724.346,81.512C707.715,81.512 694.241,87.229 683.906,98.663C673.689,110.098 668.572,125.97 668.572,146.364C668.572,156.008 669.885,165.002 672.478,173.245C675.104,181.488 678.772,188.69 683.785,194.817C688.783,200.961 694.77,205.603 701.61,208.999C708.449,212.276 715.851,213.966 723.885,213.966C727.569,213.966 731.049,213.658 734.306,213.027C736.489,212.703 738.535,212.174 740.616,211.525C745.716,209.836 750.509,207.412 754.859,204.34C759.31,201.166 763.78,197.035 768.231,192.069L768.231,195.243C768.231,201.268 769.748,205.825 772.682,209.101C775.736,212.276 779.538,213.966 784.093,213.966C788.766,213.966 792.57,212.379 795.503,209.323C798.42,206.149 799.955,201.49 799.955,195.261L799.955,51.389C800.006,45.347 798.59,40.688 795.878,37.531Z" style="fill:rgb(0,58,155);"/>
            </g>
        </g>
    </g>
</svg>
