<?xml version="1.0" encoding="UTF-8" standalone="no"?>
<!DOCTYPE svg PUBLIC "-//W3C//DTD SVG 1.1//EN" "http://www.w3.org/Graphics/SVG/1.1/DTD/svg11.dtd">
<svg width="100%" height="100%" viewBox="0 0 93 38" version="1.1" xmlns="http://www.w3.org/2000/svg" xmlns:xlink="http://www.w3.org/1999/xlink" xml:space="preserve" xmlns:serif="http://www.serif.com/" style="fill-rule:evenodd;clip-rule:evenodd;stroke-linejoin:round;stroke-miterlimit:2;">
    <g transform="matrix(1,0,0,1,-338.356,-8.14706)">
        <g id="Artboard1" transform="matrix(0.0725967,0,0,0.0471843,338.356,8.14706)">
            <rect x="0" y="0" width="1280" height="800" style="fill:none;"/>
            <g transform="matrix(13.2903,0,0,19.0506,-4387.08,-434.459)">
                <rect x="333.006" y="25.902" width="91.143" height="36.996" style="fill:white;"/>
            </g>
            <g transform="matrix(17.8348,0,0,27.4403,-629.787,-1497.51)">
                <path d="M106.394,83.324L106.394,54.977L36,54.977L36,83.324L106.394,83.324ZM64.302,57.712L59.443,80.529L51.817,80.529L47.022,64.741L46.957,64.741L43.768,80.529L37.985,80.529L42.883,57.712L50.535,57.712L55.235,73.534L55.299,73.534L58.519,57.712L64.302,57.712ZM86.114,57.712L81.349,80.529L75.208,80.529L77.245,70.756L69.981,70.756L67.944,80.529L61.803,80.529L66.568,57.712L72.709,57.712L70.905,66.441L78.164,66.441L79.972,57.712L86.114,57.712ZM103.757,58.335L102.276,62.878C101.094,62.324 99.484,61.834 97.218,61.834C94.788,61.834 92.816,62.19 92.816,64.024C92.816,67.257 101.72,66.05 101.72,72.98C101.72,79.288 95.837,80.924 90.516,80.924C88.151,80.924 85.423,80.365 83.421,79.743L84.866,75.101C86.079,75.887 88.513,76.411 90.516,76.411C92.423,76.411 95.41,76.05 95.41,73.698C95.41,70.035 86.506,71.409 86.506,64.973C86.506,59.086 91.698,57.321 96.726,57.321C99.553,57.321 102.212,57.618 103.757,58.335Z" style="fill:rgb(0,114,188);fill-rule:nonzero;"/>
            </g>
        </g>
    </g>
</svg>
