<?xml version="1.0" encoding="UTF-8" standalone="no"?>
<!DOCTYPE svg PUBLIC "-//W3C//DTD SVG 1.1//EN" "http://www.w3.org/Graphics/SVG/1.1/DTD/svg11.dtd">
<svg width="100%" height="100%" viewBox="0 0 134 32" version="1.1" xmlns="http://www.w3.org/2000/svg" xmlns:xlink="http://www.w3.org/1999/xlink" xml:space="preserve" xmlns:serif="http://www.serif.com/" style="fill-rule:evenodd;clip-rule:evenodd;stroke-linejoin:round;stroke-miterlimit:2;">
    <g transform="matrix(1,0,0,1,-450.601,-86.0388)">
        <g id="Artboard1" transform="matrix(0.104054,0,0,0.0398025,450.601,86.0388)">
            <rect x="0" y="0" width="1280" height="800" style="fill:none;"/>
            <g transform="matrix(0.169845,0,0,0.19653,-40.6013,321.388)">
                <g transform="matrix(41.5785,0,0,93.9377,0,-8676.5)">
                    <path d="M53.612,102.729L57.679,102.729C59.266,102.729 59.87,103.277 59.87,104.618C59.87,105.91 59.266,106.456 57.679,106.456L53.612,106.456L53.612,102.729ZM47.31,116.295L53.612,116.295L53.612,110.779L60.361,110.779C64.83,110.779 66.439,108.146 66.439,104.743C66.439,100.791 64.785,98.556 60.316,98.556L47.31,98.556L47.31,116.295Z" style="fill:rgb(0,83,156);"/>
                </g>
                <g transform="matrix(41.5785,0,0,93.9377,0,-8676.5)">
                    <path d="M68.517,98.556L85.478,98.556L85.478,102.878L74.819,102.878L74.819,105.263L84.719,105.263L84.719,109.587L74.819,109.587L74.819,111.972L85.478,111.972L85.478,116.295L68.517,116.295L68.517,98.556Z" style="fill:rgb(0,83,156);"/>
                </g>
                <g transform="matrix(41.5785,0,0,93.9377,0,-8676.5)">
                    <path d="M94.417,102.729L98.484,102.729C100.071,102.729 100.674,103.277 100.674,104.618C100.674,105.91 100.071,106.456 98.484,106.456L94.417,106.456L94.417,102.729ZM88.115,116.295L94.417,116.295L94.417,110.779L101.166,110.779C105.635,110.779 107.244,108.146 107.244,104.743C107.244,100.791 105.59,98.556 101.121,98.556L88.115,98.556L88.115,116.295Z" style="fill:rgb(0,83,156);"/>
                </g>
                <g transform="matrix(41.5785,0,0,93.9377,0,-8676.5)">
                    <path d="M113.344,108.767C110.261,108.245 108.987,106.257 108.987,103.773C108.987,99.177 113.033,97.935 118.216,97.935C125.322,97.935 128.25,99.997 128.474,103.749L121.143,103.749C121.143,103.028 120.763,102.58 120.183,102.332C119.624,102.059 118.909,101.959 118.216,101.959C116.339,101.959 115.692,102.481 115.692,103.227C115.692,103.723 115.892,104.047 116.518,104.146L124.048,105.388C127.222,105.91 129.189,107.55 129.189,110.556C129.189,114.879 126.015,116.916 118.931,116.916C114.083,116.916 108.786,116.171 108.764,110.954L116.361,110.954C116.383,111.55 116.585,111.947 117.032,112.22C117.501,112.469 118.194,112.593 119.177,112.593C121.143,112.593 121.68,111.997 121.68,111.152C121.68,110.63 121.389,110.109 120.541,109.96L113.344,108.767Z" style="fill:rgb(0,83,156);"/>
                </g>
                <g transform="matrix(41.5785,0,0,93.9377,0,-8676.5)">
                    <rect x="131.244" y="98.556" width="6.302" height="17.739" style="fill:rgb(0,83,156);"/>
                </g>
                <g transform="matrix(41.5785,0,0,93.9377,0,-8676.5)">
                    <path d="M160.899,109.388C160.496,111.724 159.781,113.612 158.216,114.904C156.675,116.196 154.261,116.916 150.418,116.916C146.597,116.916 139.513,116.618 139.513,107.426C139.513,98.233 146.597,97.935 150.418,97.935C154.216,97.935 160.072,98.481 160.899,105.513L153.792,105.513C153.614,104.245 152.853,102.406 150.418,102.406C147.847,102.406 146.216,103.823 146.216,107.426C146.216,111.028 147.803,112.444 150.105,112.444C152.094,112.444 153.279,111.525 153.792,109.388L160.899,109.388Z" style="fill:rgb(0,83,156);"/>
                </g>
                <g transform="matrix(41.5785,0,0,93.9377,0,-8676.5)">
                    <path d="M169.144,107.426C169.144,103.823 170.776,102.406 173.346,102.406C175.915,102.406 177.548,103.823 177.548,107.426C177.548,111.028 175.915,112.444 173.346,112.444C170.776,112.444 169.144,111.028 169.144,107.426ZM162.44,107.426C162.44,116.618 169.524,116.916 173.346,116.916C177.167,116.916 184.251,116.618 184.251,107.426C184.251,98.233 177.167,97.935 173.346,97.935C169.524,97.935 162.44,98.233 162.44,107.426Z" style="fill:rgb(0,83,156);"/>
                </g>
                <g transform="matrix(41.5785,0,0,93.9377,0,-8676.5)">
                    <path d="M37.788,98.732C38.195,90.221 30.855,80.637 20.849,79.452L20.867,79.336C30.731,79.336 38.293,88.468 38.293,95.672C38.283,97.172 38.165,98.101 37.953,98.776L37.788,98.732ZM37.19,99.814C36.534,100.615 35.709,101.424 34.742,102.19C32.963,91.958 25.444,83.011 20.128,80.399L20.015,80.479C25.361,84.866 31.737,93.387 34.216,102.591C33.03,103.465 31.659,104.27 30.144,104.924C25.099,99.17 20.396,88.075 18.88,81.035L18.726,81.082C18.76,87.915 23.612,99.518 29.529,105.178C28.216,105.696 26.804,106.1 25.321,106.34C19.649,104.094 15.612,96.897 15.612,89.525C15.612,84.712 17.08,81.736 17.363,81.126L17.242,81.078C16.899,81.598 14.75,84.573 14.75,89.768C14.75,98.102 18.86,104.471 24.315,106.477C22.449,106.68 20.484,106.619 18.469,106.202L18.429,106.329C19.012,106.544 20.993,107.376 24.013,107.376C30.846,107.376 35.464,103.13 37.324,99.904L37.19,99.814Z" style="fill:rgb(0,83,156);"/>
                </g>
                <g transform="matrix(41.5785,0,0,93.9377,0,-8676.5)">
                    <path d="M23.33,76.329C18.15,76.329 12.077,80.067 12.077,83.484C12.077,84.805 13.286,85.923 15.788,85.923C21.598,85.923 26.995,81.931 26.995,78.827C26.995,77.194 25.427,76.329 23.33,76.329ZM25.397,78.731C25.397,81.347 20.374,84.545 16.175,84.545C14.319,84.545 13.317,83.815 13.317,82.61C13.317,79.956 18.397,76.813 22.336,76.813C24.905,76.813 25.397,78.12 25.397,78.731Z" style="fill:rgb(0,154,217);"/>
                </g>
                <g transform="matrix(41.5785,0,0,93.9377,0,-8676.5)">
                    <path d="M10.014,85.066C9.868,85.318 9.285,86.459 9.285,87.629C9.285,89.799 11.477,91.813 15.509,91.813C23.265,91.813 32.226,86.103 32.226,80.804C32.226,78.425 29.974,77.132 28.411,76.864L28.381,76.957C28.868,77.111 30.649,77.939 30.649,80.058C30.649,84.281 22.737,90.034 14.856,90.034C11.839,90.034 9.938,88.545 9.938,86.375C9.938,85.689 10.081,85.237 10.119,85.106L10.014,85.066Z" style="fill:rgb(244,122,56);"/>
                </g>
                <g transform="matrix(41.5785,0,0,93.9377,0,-8676.5)">
                    <path d="M35.424,81.2C35.637,81.362 36.914,82.426 36.914,84.44C36.914,91.305 26.158,98.056 16.648,98.056C10.977,98.056 8.391,95.256 8.506,92.77L8.608,92.77C8.83,94.061 10.671,96.371 15.635,96.371C25.156,96.371 35.787,89.386 35.787,83.266C35.787,82.216 35.502,81.562 35.341,81.271L35.424,81.2Z" style="fill:rgb(0,157,87);"/>
                </g>
                <g transform="matrix(41.5785,0,0,93.9377,0,-8676.5)">
                    <path d="M39.019,87.61C39.063,87.755 39.296,88.413 39.296,89.442C39.296,97.079 28.409,103.617 18.943,103.617C14.07,103.617 11.525,101.25 10.988,100.289L11.075,100.224C12.423,101.404 15.078,102.299 18.178,102.299C26.539,102.299 39.016,95.938 38.904,87.637L39.019,87.61Z" style="fill:rgb(237,27,45);"/>
                </g>
            </g>
        </g>
    </g>
</svg>
