<?xml version="1.0" encoding="UTF-8" standalone="no"?>
<!DOCTYPE svg PUBLIC "-//W3C//DTD SVG 1.1//EN" "http://www.w3.org/Graphics/SVG/1.1/DTD/svg11.dtd">
<svg width="100%" height="100%" viewBox="0 0 129 36" version="1.1" xmlns="http://www.w3.org/2000/svg" xmlns:xlink="http://www.w3.org/1999/xlink" xml:space="preserve" xmlns:serif="http://www.serif.com/" style="fill-rule:evenodd;clip-rule:evenodd;stroke-linejoin:round;stroke-miterlimit:2;">
    <g transform="matrix(1,0,0,1,-301.646,-82.5542)">
        <g id="Artboard1" transform="matrix(0.100212,0,0,0.0443556,301.646,82.5542)">
            <rect x="0" y="0" width="1280" height="800" style="fill:none;"/>
            <g transform="matrix(0.198783,0,0,1.26609,-61.6467,-63.2199)">
                <g transform="matrix(10.2984,0,0,3.65305,339.376,78.6504)">
                    <path d="M142.259,55.502C148.982,55.502 155.432,49.905 156.554,42.999C157.881,36.278 153.323,30.682 146.605,30.682C139.885,30.682 133.434,36.278 132.296,42.999C130.985,49.905 135.355,55.502 142.259,55.502Z" style="fill:rgb(203,32,38);fill-rule:nonzero;"/>
                </g>
                <g transform="matrix(10.2984,0,0,3.65305,339.376,78.6504)">
                    <path d="M323.783,74.799C330.344,74.799 332.623,78.787 332.623,83.54C332.623,91.579 326.389,96.482 316.638,96.482C313.147,96.482 308.268,95.655 305.388,94.695C306.594,87.301 311.34,74.799 323.783,74.799ZM464.808,74.799C470.803,74.799 473.651,78.787 473.651,83.54C473.651,91.579 467.416,96.482 457.664,96.482C454.172,96.482 449.293,95.655 446.414,94.695C447.625,87.301 452.976,74.799 464.808,74.799ZM598.482,75.478L613.521,75.478C615.582,75.478 616.789,74.641 617.254,72.718C617.918,69.95 619.128,65.119 619.474,63.797C619.919,62.065 618.912,60.754 616.992,60.754L602.152,60.754C603.221,56.501 607.383,42.693 607.383,33.69C607.383,15.712 592.119,0.42 570.458,0.42C545.995,0.42 530.08,16.837 530.08,39.938C530.08,46.676 532.592,54.531 535.709,59.403C534.408,59.328 533.066,59.289 531.681,59.289C513.093,59.289 501.385,69.372 501.385,84.045C501.385,97.814 512.242,103.165 522.461,106.725C531.54,109.888 539.898,111.36 539.898,118.453C539.898,123.234 535.298,126.039 526.297,126.039C515.617,126.039 509.747,121.01 508.253,119.103C509.265,118.307 510.77,116.414 510.77,113.26C510.77,108.848 507.672,105.248 501.915,105.248C497.043,105.248 492.926,109.22 491.894,114.445C484.072,120.846 475.535,124.992 463.427,124.992C451.506,124.992 445.317,118.79 445.317,105.596C448.112,106.446 455.39,107.469 460.2,107.469C480.385,107.469 494.145,98.297 494.145,79.93C494.145,70.052 485.474,59.679 468.32,59.679L468.281,59.679C445.718,59.679 433.081,73.971 427.563,89.692C426.018,89.32 424.467,88.954 422.917,88.608C424.152,85.119 425.038,81.079 425.038,76.599C425.038,68.835 420.23,59.679 407.364,59.679C398.402,59.679 389.901,65.549 384.008,74.348C385.473,68.609 386.445,64.787 386.509,64.53C386.892,63.029 386.267,61.357 383.927,61.357L370.721,61.357C368.84,61.357 367.512,62.022 366.976,64.165C366.617,65.594 362.081,83.397 357.663,100.729C354.88,111.537 340.489,124.992 322.4,124.992C310.476,124.992 304.292,118.382 304.292,105.184C307.413,106.426 314.365,107.469 319.173,107.469C340.179,107.469 353.118,98.297 353.118,79.93C353.118,70.052 344.448,59.679 327.292,59.679L327.254,59.679C301.848,59.679 286.286,79.412 283.647,101.786C282.55,111.087 274.7,123.859 266.19,123.859C262.045,123.859 259.732,121.255 259.732,116.834C259.732,113.015 262.421,103.679 265.366,91.98C266.354,88.066 267.852,82.097 269.511,75.478L283.324,75.478C285.38,75.478 286.586,74.641 287.054,72.718C287.715,69.95 288.927,65.119 289.271,63.797C289.717,62.065 288.715,60.754 286.789,60.754L273.207,60.754C273.207,60.754 279.46,35.804 279.609,35.162C280.21,32.625 278.089,31.162 275.867,31.628C275.867,31.628 265.369,33.683 263.421,34.09C261.463,34.485 259.946,35.56 259.238,38.382C259.148,38.743 253.678,60.754 253.678,60.754L242.772,60.754C240.717,60.754 239.509,61.593 239.048,63.512C238.384,66.277 237.166,71.114 236.83,72.435C236.378,74.167 237.386,75.478 239.309,75.478L250.005,75.478C249.929,75.784 246.142,90.192 243.08,103.091C241.637,109.295 236.808,123.81 228.9,123.81C224.177,123.81 222.181,121.428 222.181,116.316C222.181,108.267 230.104,88.118 230.104,78.976C230.104,66.763 223.552,59.687 210.129,59.687C201.668,59.687 192.895,65.15 189.178,69.946C189.178,69.946 190.305,66.021 190.691,64.512C191.103,62.917 190.248,61.352 188.155,61.352L175.031,61.352C172.238,61.352 171.466,62.845 171.056,64.487C170.893,65.146 166.165,83.718 161.624,101.542C158.518,113.75 150.973,123.95 142.907,123.95C138.758,123.95 136.912,121.348 136.912,116.925C136.912,113.105 139.38,103.679 142.325,91.98C145.908,77.737 149.069,66.009 149.407,64.638C149.848,62.882 149.063,61.352 146.8,61.352L133.596,61.352C131.206,61.352 130.35,62.607 129.847,64.35C129.847,64.35 126.131,78.418 122.195,94.078C119.337,105.443 116.181,117.02 116.181,122.456C116.181,132.163 120.541,139.479 132.521,139.479C141.768,139.479 149.086,134.79 154.674,128.818C153.852,132.051 153.33,134.098 153.275,134.306C152.793,136.155 153.377,137.79 155.556,137.79L169.066,137.79C171.418,137.79 172.323,136.843 172.813,134.793C173.286,132.836 183.378,93.145 183.378,93.145C186.045,82.482 192.641,75.423 201.923,75.423C206.324,75.423 210.133,78.337 209.69,84C209.201,90.231 201.687,112.61 201.687,122.433C201.687,129.867 204.444,139.485 218.44,139.485C227.98,139.485 235.004,134.912 240.111,129.01C241.98,135.274 246.935,139.485 256.021,139.485C271.124,139.485 280.226,130.529 285.574,121.531C290.011,131.984 300.406,139.481 315.648,139.481C331.183,139.481 343.205,132.933 351.725,124.028C350.194,130.033 349.156,134.108 349.068,134.45C348.584,136.328 349.402,137.803 351.606,137.803L364.978,137.803C366.809,137.803 368.112,136.872 368.588,134.947C368.824,134.003 370.755,126.536 373.484,115.928C378.703,95.626 387.092,74.561 399.695,74.561C404.14,74.561 405.962,77.046 405.962,80.961C405.962,82.807 405.426,84.402 404.963,85.257C398.853,84.043 393.938,87.059 393.938,93.583C393.938,97.833 398.41,101.695 404.446,101.695C409.058,101.695 412.871,100.566 415.912,98.517C418.752,99.102 421.802,99.766 424.871,100.467C424.402,103.519 424.168,106.519 424.168,109.365C424.168,125.662 435.804,139.481 456.663,139.481C473.005,139.481 484.221,133.504 493.905,125.839C498.559,133.454 510.31,139.607 525.727,139.607C546.857,139.607 558.841,128.619 558.841,114.097C558.841,100.954 548.05,96.114 536.922,92.088C527.877,88.819 520.331,87.042 520.331,80.649C520.331,75.409 524.458,73.012 531.528,73.012C536.115,73.012 539.559,73.999 541.398,74.516C543.222,79.081 546.996,84.135 553.439,84.135C558.891,84.135 561.339,79.824 561.339,75.852C561.339,64.548 542.509,63.363 542.509,39.12C542.509,24.045 551.04,11.609 568.707,11.609C580.982,11.609 588.998,19.393 588.998,31.956C588.998,42.314 582.714,60.754 582.714,60.754L572.038,60.754C569.986,60.754 568.775,61.593 568.311,63.512C567.647,66.277 566.431,71.114 566.089,72.435C565.64,74.167 566.647,75.478 568.573,75.478L578.999,75.478C578.999,75.478 568.219,115.227 568.219,122.456C568.219,132.163 573.689,139.476 585.675,139.476C602.629,139.476 613.222,128.46 617.83,112.439C618.188,111.2 617.486,110.19 616.231,110.19L609.763,110.19C608.472,110.19 607.723,110.928 607.397,112.189C605.936,117.875 602.315,123.859 595.185,123.859C591.041,123.859 588.728,121.255 588.728,116.834C588.728,113.015 591.256,104.075 594.366,91.98C595.843,86.222 598.482,75.478 598.482,75.478Z" style="fill:rgb(203,32,38);fill-rule:nonzero;"/>
                </g>
                <g transform="matrix(10.2984,0,0,3.65305,339.376,78.6504)">
                    <path d="M64.347,0.247C21.569,0.247 0,30.918 0,56.494C0,71.979 5.862,85.756 18.438,90.891C20.499,91.734 22.347,90.92 22.945,88.638C23.361,87.057 24.345,83.071 24.784,81.412C25.387,79.154 25.153,78.362 23.489,76.393C19.863,72.116 17.546,66.579 17.546,58.737C17.546,35.982 34.57,15.613 61.876,15.613C86.055,15.613 99.339,30.387 99.339,50.118C99.339,76.079 87.85,97.989 70.793,97.989C61.374,97.989 54.323,90.2 56.584,80.646C59.29,69.24 64.532,56.93 64.532,48.697C64.532,41.327 60.576,35.18 52.389,35.18C42.76,35.18 35.025,45.141 35.025,58.485C35.025,66.983 37.897,72.732 37.897,72.732C37.897,72.732 28.043,114.482 26.315,121.793C22.875,136.355 25.798,154.206 26.045,156.01C26.19,157.079 27.564,157.332 28.185,156.524C29.073,155.365 40.542,141.206 44.44,127.06C45.543,123.055 50.774,102.311 50.774,102.311C53.902,108.279 63.045,113.534 72.768,113.534C101.712,113.534 121.349,87.147 121.349,51.828C121.349,25.12 98.727,0.247 64.347,0.247Z" style="fill:rgb(203,32,38);fill-rule:nonzero;"/>
                </g>
            </g>
        </g>
    </g>
</svg>
