<svg xmlns="http://www.w3.org/2000/svg" viewBox="0 0 413 550" style="enable-background:new 0 0 413 550" xml:space="preserve"><path d="M410.1 1067.4c-.3 0-.6-.2-.8-.4-.3-.4-.1-1 .3-1.3l32.2-19.3c6.9-4.2 13.9-8.3 20.9-12.5 6.9-4.1 13.8-8.2 20.8-12.3 6.9-4.1 13.8-8.2 20.7-12.2 6.9-4.1 13.8-8.1 20.7-12.1 5.8-3.4 11.7-6.8 17.5-10.3l8.5-5c5.1-3 10.2-6 15.3-8.9l41.4-24 20.7-12 13.2-7.6 28.2-16.3 20.7-12 82.8-47.8c4.7-2.7 9.5-5.5 14.2-8.2l89.3-51.5 12.8-7.4 28.6-16.5c4.7-2.7 9.4-5.4 14.2-8.2l23.5-13.5c.4-.3 1-.1 1.3.3.3.4.1 1-.3 1.3l-23.5 13.5c-4.7 2.7-9.4 5.4-14.2 8.2l-28.6 16.5c-4.3 2.5-8.6 4.9-12.8 7.4l-89.3 51.5c-4.7 2.7-9.5 5.5-14.2 8.2l-82.8 47.8-20.7 12-28.2 16.2-13.2 7.6-20.7 12-41.4 24c-5.1 3-10.2 5.9-15.3 8.9l-8.5 5c-5.8 3.4-11.7 6.8-17.5 10.2-6.9 4-13.8 8.1-20.7 12.1-6.9 4.1-13.8 8.1-20.7 12.2-6.9 4.1-13.8 8.2-20.8 12.3-6.9 4.1-13.9 8.3-20.8 12.5l-32.2 19.3c-.2.3-.4.3-.6.3zm-734.4-897.9c4.6-2.7 9.2-5.3 13.7-7.9l66.4-38.3c6.9-4 13.8-7.9 20.7-11.9 6.9-4 13.8-7.9 20.7-11.8 5.7-3.2 13.1-7.4 20.7-11.5 8-4.3 14.5-7.7 20.7-10.6 6.7-3.3 13.6-6.2 20.6-8.8 6.6-2.5 13.5-4.4 20.5-5.7 6.7-1.2 13.6-1.7 20.4-1.6 6.9.3 13.8.9 20.7 1.9l1.1.1c6.6 1 13.2 1.6 19.9 1.8 7.2.1 14.3-1.2 21-3.6 7.6-3 14.6-7.3 20.7-12.6C-9 42.5-2.1 35.4 4.2 27.8c6.1-7.2 12.2-15 18.2-22.7L25 1.7c6.6-8.4 13.6-17.3 20.8-25.5 6.9-8 13.8-15.2 20.6-21.6 6.5-6.1 13.2-11.9 20.5-17.6 6.1-4.8 12.9-9.7 20.7-14.8 6.2-4.1 12.8-8.3 20.7-13.2 7.5-4.6 15-9.1 20.7-12.4 6.9-4.1 13.8-8.1 20.7-12.1l5.4-3.1c5.1-3 10.2-5.9 15.4-8.9l5.9-3.4c4.9-2.8 9.8-5.7 14.8-8.5L315.7-200c6.8-3.9 13.6-7.9 20.5-11.8l.9-.5c.8-.5 1.6-.9 2.4-1.4.4-.2.6-.8.4-1.3-.3-.4-.8-.6-1.3-.4-.8.5-1.6.9-2.4 1.4l-.9.5c-6.8 3.9-13.7 7.9-20.5 11.8l-104.6 60.4c-4.9 2.8-9.9 5.7-14.8 8.5l-5.9 3.4c-5.1 3-10.2 5.9-15.4 8.9l-5.4 3.1c-6.9 4-13.8 8-20.7 12.1-5.7 3.4-13.2 7.8-20.7 12.4-8 4.9-14.6 9.1-20.8 13.3-7.7 5.3-14.5 10.2-20.7 15-7.4 5.8-14.1 11.6-20.6 17.8-6.8 6.4-13.7 13.7-20.7 21.8C37.3-16.8 30.2-7.9 23.6.5l-2.7 3.4C15 11.5 8.8 19.4 2.8 26.5c-7.7 9-14.3 15.9-20.5 21-6 5.2-12.8 9.3-20.2 12.3-6.5 2.4-13.4 3.6-20.4 3.5h-.1c-6.5-.1-13-.7-19.5-1.7l-1.1-.1c-6.9-1-13.9-1.7-20.9-2-7-.2-13.9.4-20.8 1.6-7.1 1.3-14 3.3-20.8 5.8-6.3 2.3-13.1 5.2-20.8 8.9-6.2 3-12.8 6.3-20.8 10.7-7.6 4.1-15.1 8.3-20.7 11.5-6.9 3.9-13.8 7.8-20.7 11.8s-13.8 7.9-20.7 11.9l-66.4 38.3c-4.6 2.6-9.2 5.3-13.7 7.9-.4.3-.6.8-.3 1.3.2.3.5.5.8.5.2-.1.4-.1.5-.2zm.3-371.6 1.1-1.4c2.8-3.5 5.5-7 8.3-10.5.3-.4.3-1-.1-1.3-.4-.3-1-.3-1.3.1-2.8 3.5-5.6 7-8.3 10.5l-1.1 1.4c-.3.4-.2 1 .2 1.3.2.1.4.2.6.2.1.1.4-.1.6-.3zm-.1 52.2c2.9-3.1 6-6.6 9.3-10.4 6-7.1 12.1-14.9 18-22.4l2.9-3.6c6.6-8.4 13.7-17.3 20.8-25.5.6-.7 1.2-1.3 1.7-2 .4-.4.3-1 0-1.3-.4-.4-1-.3-1.3 0-.6.7-1.2 1.3-1.8 2.1-7.1 8.2-14.2 17.1-20.8 25.5l-2.9 3.6c-5.9 7.5-12 15.3-18 22.4-3.2 3.8-6.3 7.3-9.2 10.3-.4.4-.3 1 0 1.3.2.2.4.3.6.3.3 0 .5-.1.7-.3zm-.3 39.3c6.4-3 12.5-6.8 17.9-11.4 7.5-6.5 14.4-13.6 20.7-21.2 6-7 12-14.7 17.8-22.2l3-3.9c6.6-8.4 13.6-17.2 20.8-25.5 6.1-7 12.1-13.4 18-19.1.4-.4.4-.9 0-1.3s-.9-.4-1.3 0c-5.9 5.7-12 12.2-18.1 19.2-7.2 8.3-14.3 17.2-20.8 25.6l-3 3.9c-5.8 7.4-11.8 15.1-17.8 22.1-6.2 7.6-13.1 14.6-20.5 21-5.3 4.5-11.1 8.3-17.4 11.1-.5.2-.7.7-.5 1.2.1.3.5.6.9.6.1.1.2 0 .3-.1zm26.1 18.3c7.6-3 14.6-7.3 20.7-12.6 6.2-5.2 13-12.1 20.7-21.2 5.9-7 12-14.7 17.8-22.1l3.1-4c6.6-8.4 13.7-17.3 20.8-25.5 6.9-7.9 13.8-15.2 20.6-21.6 5.2-4.9 10.8-9.8 16.6-14.5.4-.3.5-.9.1-1.3-.3-.4-.9-.5-1.3-.2-5.9 4.7-11.5 9.6-16.7 14.6-6.9 6.5-13.8 13.8-20.7 21.8-7.1 8.2-14.2 17.1-20.8 25.6l-3.1 4c-5.8 7.4-11.8 15.1-17.7 22-6.2 7.6-13.1 14.6-20.5 21-6 5.2-12.8 9.3-20.2 12.3-6.5 2.4-13.4 3.6-20.4 3.5-1.8 0-3.6-.1-5.4-.2-.5 0-.9.3-1 .8v.1c0 .5.3 1 .9 1 1.8.1 3.7.2 5.5.2 7.2 0 14.3-1.2 21-3.7zm29 17.1c7.6-3 14.6-7.3 20.7-12.6 7.5-6.5 14.4-13.6 20.7-21.2 5.8-6.9 11.7-14.4 17.4-21.7l3.4-4.4c7.7-9.8 14.1-17.8 20.8-25.5 6.9-7.9 13.8-15.2 20.6-21.6 6.5-6.1 13.2-11.9 20.5-17.6 5.9-4.6 12.3-9.2 19.3-13.9.4-.3.5-.8.3-1.3-.3-.4-.8-.5-1.3-.3-7.1 4.8-13.4 9.4-19.4 14-7.2 5.6-14.1 11.5-20.7 17.7-6.8 6.5-13.8 13.8-20.7 21.8-6.7 7.7-13.2 15.8-20.8 25.6l-3.4 4.4c-5.7 7.3-11.6 14.8-17.4 21.6-7.7 9-14.4 15.9-20.5 21-6 5.2-12.8 9.3-20.2 12.3-6.5 2.4-13.4 3.6-20.4 3.5-6.6-.2-13.1-.7-19.6-1.8l-1.1-.1c-4.8-.6-9.2-1.2-13.7-1.6-.5 0-1 .3-1 .9 0 .5.3 1 .8 1 4.5.4 8.8.9 13.6 1.6l1.1.1c6.6 1 13.2 1.6 19.9 1.8 7.3.1 14.4-1.2 21.1-3.7zm8 20.8c7.2.1 14.3-1.2 21-3.6 7.6-3 14.6-7.3 20.7-12.6 7.5-6.5 14.4-13.6 20.7-21.2 6.1-7.2 12.3-15.1 18.3-22.7l2.6-3.3c6.6-8.4 13.7-17.3 20.8-25.5 6.9-7.9 13.8-15.2 20.6-21.6 6.4-6.1 13.1-11.8 20.5-17.6 6.1-4.8 12.9-9.7 20.7-14.8 6.2-4.2 12.8-8.4 20.7-13.2l4.8-3c.4-.3.6-.8.3-1.3-.3-.4-.8-.6-1.3-.3l-4.8 3c-7.9 4.9-14.5 9.1-20.8 13.3-7.8 5.2-14.6 10.1-20.8 14.9-7.5 5.8-14.2 11.6-20.7 17.7-6.8 6.5-13.8 13.8-20.7 21.8-7.1 8.2-14.2 17.1-20.8 25.6l-2.6 3.3c-6 7.6-12.1 15.5-18.2 22.7-7.7 9-14.4 15.9-20.5 21-6 5.2-12.8 9.3-20.2 12.3-6.5 2.4-13.4 3.6-20.4 3.5-6.6-.1-13.2-.7-19.7-1.7l-1-.1c-6.9-1-13.9-1.7-20.9-2-7-.2-13.9.4-20.8 1.6l-1.3.2c-.5.1-.8.6-.7 1.1.1.5.6.8 1.1.7l1.3-.2c6.7-1.2 13.6-1.7 20.4-1.6 6.9.3 13.8.9 20.7 1.9l1 .1c6.6 1 13.2 1.6 19.8 1.8l.2-.2zm-63.1 24.3c3.5-1.5 6.6-2.7 9.6-3.8 6.6-2.5 13.5-4.4 20.5-5.7 6.7-1.2 13.6-1.7 20.4-1.6 6.9.3 13.8.9 20.7 1.9l1.1.1c6.6 1 13.2 1.6 19.9 1.8 7.2.1 14.3-1.2 21-3.6 7.6-3 14.6-7.3 20.7-12.6 7.5-6.5 14.4-13.6 20.7-21.3 5.9-7 12-14.7 17.8-22.1l3.1-3.9c6.6-8.4 13.6-17.3 20.8-25.5 6.9-7.9 13.8-15.2 20.6-21.6 6.5-6.1 13.2-11.9 20.5-17.6 6.3-4.9 13.1-9.8 20.7-14.8 6-4.1 12.4-8.1 20.7-13.2 6.3-3.9 13.1-7.9 20.7-12.4 4.3-2.6 8.7-5.1 13-7.6.4-.3.6-.8.3-1.3-.3-.4-.8-.6-1.3-.3-4.3 2.5-8.7 5.1-13 7.6-7.6 4.5-14.4 8.6-20.7 12.4-8.3 5.1-14.7 9.2-20.8 13.3-7.6 5.1-14.4 10-20.7 14.9-7.2 5.6-14.1 11.5-20.7 17.7-6.8 6.5-13.8 13.8-20.7 21.8-7.2 8.3-14.3 17.2-20.8 25.6l-3.1 3.9c-5.8 7.4-11.8 15.1-17.8 22.1-6.2 7.6-13.1 14.6-20.5 21-6 5.2-12.8 9.3-20.2 12.3-6.5 2.4-13.4 3.6-20.4 3.5-6.6-.1-13.1-.7-19.6-1.7l-1.1-.1c-6.9-1-13.9-1.7-20.9-2-7-.2-13.9.4-20.8 1.6-7.1 1.3-14 3.3-20.8 5.8-3 1.1-6.2 2.4-9.7 3.8-.5.2-.7.8-.5 1.2.1.3.5.6.9.6.2-.1.4-.1.4-.2zm.1 31.3c6.6-3.5 12.5-6.5 17.9-9.1 7.6-3.7 14.4-6.6 20.6-8.8 6.7-2.5 13.5-4.4 20.5-5.7 6.7-1.2 13.6-1.7 20.4-1.6 6.9.3 13.8.9 20.7 1.9l.9.1c6.6 1 13.3 1.6 20.1 1.8 7.2.1 14.3-1.2 21-3.6 7.6-3 14.6-7.3 20.7-12.6 6.3-5.2 12.8-12 20.7-21.2 6.1-7.2 12.3-15.1 18.3-22.8l2.6-3.3c6.6-8.4 13.7-17.3 20.8-25.5 6.9-8 13.8-15.2 20.6-21.6 6.5-6.2 13.4-12.1 20.5-17.6 6.3-4.9 13.1-9.8 20.7-14.8 6.2-4.1 12.8-8.3 20.7-13.2 7.5-4.6 15-9.1 20.7-12.4 6.9-4.1 13.8-8.1 20.7-12.1l5.8-3.3 15-8.7.3-.2c.2-.1.5-.3.7-.4.4-.3.6-.8.4-1.3-.3-.4-.8-.6-1.3-.4l-.8.4-.3.2-15 8.7-5.8 3.3c-6.9 4-13.8 8-20.7 12.1-5.7 3.4-13.2 7.8-20.7 12.4-8 4.9-14.6 9.1-20.8 13.3-7.6 5.1-14.4 10-20.8 14.9-7.4 5.8-14.2 11.6-20.7 17.7-6.8 6.4-13.7 13.7-20.7 21.8-7.2 8.3-14.2 17.2-20.8 25.6l-2.6 3.3c-6 7.6-12.2 15.5-18.2 22.7-6.2 7.6-13.1 14.6-20.5 21-6 5.2-12.8 9.3-20.2 12.3-6.5 2.4-13.4 3.6-20.4 3.5-6.6-.2-13.3-.7-19.8-1.8l-.9-.1c-6.9-1-13.9-1.7-20.9-2-7-.2-13.9.4-20.8 1.6-7.1 1.3-14 3.3-20.8 5.8-6.3 2.3-13.1 5.2-20.8 8.9-5.4 2.6-11.3 5.6-18 9.2-.5.2-.6.8-.4 1.3.2.3.5.5.8.5.4-.1.5-.1.6-.2zm0 33.1c1.8-1 3.7-2.1 5.5-3.1 5.7-3.2 13.2-7.4 20.7-11.5 8-4.3 14.6-7.7 20.7-10.6 7.6-3.6 14.3-6.5 20.6-8.8 6.7-2.5 13.5-4.4 20.5-5.7 6.7-1.2 13.6-1.7 20.4-1.6 6.9.3 13.8.9 20.7 1.9l1.1.1c6.5 1 13.1 1.6 19.7 1.8h.1c7.2.1 14.3-1.1 21-3.6 7.6-3 14.6-7.3 20.7-12.6 7.5-6.5 14.4-13.6 20.7-21.2 5.9-6.9 11.8-14.5 17.6-21.9l3.3-4.2c6.6-8.4 13.7-17.3 20.8-25.5 6.8-7.9 13.8-15.2 20.6-21.6 6.5-6.2 13.2-11.9 20.5-17.6 6.3-4.9 13.1-9.8 20.7-14.8 6.1-4.1 12.7-8.3 20.7-13.2 7.5-4.6 15-9.1 20.7-12.4 6.9-4.1 13.8-8.1 20.7-12.1l20.7-12 20.7-12 9.9-5.7c.4-.3.6-.8.3-1.3-.3-.4-.8-.6-1.3-.3-3.3 1.9-6.6 3.8-10 5.7l-20.7 11.9-20.7 12c-6.9 4-13.8 8-20.7 12.1-5.7 3.3-13.2 7.8-20.7 12.4-8 4.9-14.6 9.1-20.8 13.3-7.6 5.1-14.4 10-20.8 14.9-7.3 5.7-14.1 11.5-20.7 17.7-6.9 6.5-13.8 13.8-20.7 21.8-7.1 8.2-14.2 17.1-20.8 25.6l-3.3 4.2c-5.8 7.3-11.7 14.9-17.6 21.8-7.7 9-14.4 15.9-20.5 21-6 5.2-12.8 9.3-20.2 12.3-6.5 2.4-13.4 3.6-20.4 3.5h-.1c-6.5-.1-13-.7-19.5-1.7l-1.1-.1c-6.9-1-13.9-1.7-20.9-2-7-.2-13.9.4-20.8 1.6-7.1 1.3-14 3.3-20.8 5.8-6.3 2.3-13.1 5.2-20.8 8.9-6.1 3-12.7 6.3-20.7 10.7-7.6 4.1-15.1 8.3-20.8 11.5-1.8 1-3.7 2.1-5.5 3.1-.4.3-.6.8-.3 1.3.2.3.5.5.8.5.5-.2.6-.2.8-.3zm0 33.7c4.6-2.7 9.2-5.3 13.8-7.9 6.9-4 13.8-7.9 20.7-11.8 7.7-4.4 14.5-8.1 20.7-11.5 7.8-4.2 14.5-7.7 20.7-10.6 7.7-3.7 14.5-6.6 20.6-8.8 6.7-2.5 13.5-4.4 20.5-5.7 6.7-1.2 13.6-1.7 20.4-1.6 6.9.3 13.8.9 20.7 1.9l.6.1c6.7 1.1 13.5 1.7 20.3 1.8 7.2.1 14.3-1.2 21-3.6 7.6-3 14.6-7.3 20.7-12.6 7.5-6.5 14.4-13.6 20.7-21.2 5.8-6.9 11.7-14.4 17.4-21.7l3.4-4.4c6.6-8.4 13.7-17.3 20.8-25.5 6.9-8 13.8-15.2 20.6-21.6 6.4-6.1 13.1-11.9 20.5-17.6 6.3-4.9 13.1-9.8 20.7-14.8 6.2-4.2 12.8-8.4 20.7-13.2 6-3.7 12.3-7.5 20.7-12.4 6.9-4.1 13.8-8.1 20.7-12.1l17.1-9.9 24.3-14 20.7-12 18.8-10.9c.4-.3.6-.8.3-1.3-.3-.4-.8-.6-1.3-.3l-18.8 10.9-20.7 12-24.3 14-17.1 9.9c-6.9 4-13.8 8-20.7 12.1-8.4 4.9-14.8 8.8-20.7 12.4-7.9 4.9-14.5 9.1-20.8 13.3-7.6 5.1-14.4 10-20.8 14.9-7.4 5.8-14.2 11.6-20.7 17.7-6.8 6.4-13.7 13.7-20.7 21.8C-50-67.9-57-59-63.6-50.6l-3.4 4.4c-5.7 7.3-11.6 14.8-17.4 21.6-6.2 7.6-13.1 14.6-20.5 21-6 5.2-12.8 9.3-20.2 12.3-6.5 2.4-13.4 3.6-20.4 3.5-6.7-.2-13.4-.8-20.1-1.8l-.6-.1c-6.9-1-13.9-1.7-20.9-2-7-.2-13.9.4-20.8 1.6-7.1 1.3-14 3.3-20.8 5.8-6.2 2.3-13 5.2-20.8 8.9-6.2 3-13 6.5-20.8 10.7-6.2 3.3-13 7.1-20.7 11.5-6.9 3.9-13.8 7.8-20.7 11.8-4.6 2.6-9.2 5.3-13.8 7.9-.4.3-.6.8-.3 1.3.2.3.5.5.8.5.4-.1.6-.2.7-.3zm0 33.9 1.4-.8c6.9-4 13.8-8 20.7-11.9l1.2-.7c6.5-3.8 13-7.5 19.5-11.2 6.9-4 13.8-7.9 20.7-11.8 7.9-4.5 14.5-8.1 20.7-11.5 8-4.3 14.5-7.7 20.7-10.6 7.6-3.6 14.3-6.5 20.6-8.8 6.7-2.5 13.5-4.4 20.5-5.7 6.7-1.2 13.6-1.7 20.4-1.6 6.9.3 13.8.9 20.7 1.9l1 .1c6.6 1 13.2 1.6 19.8 1.8h.1c7.2.1 14.3-1.1 21-3.6 7.6-3 14.6-7.3 20.7-12.6 7.5-6.5 14.4-13.6 20.7-21.2C-48-13.3-42-21-36.2-28.4l3.1-4c6.6-8.4 13.6-17.2 20.8-25.5C-5.5-65.8 1.4-73 8.3-79.5c6.4-6.1 13.1-11.8 20.5-17.6 6.2-4.9 13-9.7 20.7-14.9 6.2-4.2 12.8-8.4 20.7-13.2 7.6-4.7 15.1-9.1 20.7-12.4 6.9-4.1 13.8-8.1 20.7-12.1l103.7-59.9c2.3-1.3 4.6-2.6 6.9-4 .4-.3.6-.8.3-1.3-.3-.4-.8-.6-1.3-.3-2.3 1.3-4.6 2.6-6.9 4l-103.7 59.9c-6.9 4-13.8 8-20.7 12.1-5.7 3.3-13.1 7.8-20.7 12.4-7.9 4.9-14.5 9.1-20.8 13.3-7.7 5.2-14.5 10-20.8 14.9C20.3-92.9 13.5-87.1 7.1-81 .2-74.5-6.7-67.1-13.6-59.2c-7.2 8.3-14.3 17.2-20.8 25.6l-3.1 4c-5.8 7.4-11.8 15.1-17.7 22-7.7 9-14.4 15.9-20.5 21-6 5.2-12.8 9.3-20.2 12.3-6.5 2.4-13.4 3.6-20.4 3.5-6.6-.2-13.2-.7-19.7-1.7l-1-.1c-6.9-1-13.9-1.7-20.9-2-7-.2-13.9.3-20.8 1.6-7.1 1.3-14 3.3-20.8 5.8-6.3 2.3-13.1 5.2-20.8 8.9-6.2 3-12.8 6.4-20.8 10.7-6.2 3.4-12.8 7-20.7 11.5-6.9 3.9-13.8 7.8-20.7 11.8-6.5 3.7-13 7.5-19.6 11.2l-1.2.7c-6.9 4-13.8 8-20.7 11.9l-1.4.8c-.4.3-.6.8-.3 1.3.2.3.5.5.8.5.2-.1.4-.2.6-.2zm0 33.8 30.4-17.6c6.9-4 13.8-8 20.7-11.9 6.9-4 13.8-8 20.7-11.9 6.9-4 13.8-7.9 20.7-11.8 8.1-4.6 14.7-8.2 20.7-11.5 8-4.3 14.6-7.7 20.7-10.6 7.6-3.6 14.3-6.5 20.6-8.8 6.6-2.5 13.5-4.4 20.5-5.7 6.7-1.2 13.6-1.7 20.4-1.6 6.9.3 13.8.9 20.7 1.9l1 .1c6.6 1 13.3 1.6 19.9 1.8 7.2.1 14.3-1.2 21-3.6 7.6-3 14.6-7.3 20.7-12.6 6.2-5.2 13-12.2 20.7-21.3 6-7 12-14.8 17.9-22.3l3-3.8C2.6-23.9 9.6-32.7 16.8-41c6.9-7.9 13.8-15.2 20.6-21.6 6.5-6.1 13.2-11.9 20.5-17.6C64.2-85 71-89.9 78.6-95c6-4.1 12.4-8.1 20.7-13.2 6.4-3.9 13.2-8 20.7-12.4 6.9-4.1 13.8-8.1 20.7-12.1l20.7-12 41.4-23.9 20.7-12 57.3-33.1c.4-.3.6-.8.3-1.3-.3-.4-.8-.6-1.3-.3l-57.3 33.1-20.7 12-41.4 23.9-20.7 12c-6.9 4-13.8 8-20.7 12.1-7.5 4.4-14.3 8.5-20.7 12.4-8.3 5.1-14.7 9.2-20.8 13.3-7.6 5.1-14.4 10-20.7 14.9-7.4 5.8-14.2 11.6-20.7 17.7-6.8 6.5-13.8 13.8-20.7 21.8C8.2-33.8 1.1-24.9-5.5-16.6l-3 3.8C-14.3-5.3-20.3 2.4-26.3 9.4c-7.7 9-14.3 15.9-20.5 21-6 5.2-12.8 9.3-20.2 12.3-6.5 2.4-13.4 3.6-20.4 3.5-6.6-.2-13.2-.7-19.7-1.8l-1-.1c-6.9-1-13.9-1.7-20.9-2-7-.2-13.9.4-20.8 1.6-7.1 1.3-14 3.3-20.8 5.8-6.4 2.3-13.2 5.2-20.8 8.9-6.1 2.9-12.7 6.3-20.8 10.7-6.1 3.3-12.6 6.9-20.7 11.5-6.9 3.9-13.8 7.8-20.7 11.8-6.9 4-13.8 7.9-20.7 11.9-6.9 4-13.8 7.9-20.7 11.9l-30.4 17.6c-.4.3-.6.8-.3 1.3.2.3.5.5.8.5.3 0 .4 0 .6-.1zm-.4 371.3.7.7c5-2.9 10.1-5.8 15.1-8.7l67.6-39 20.7-12 15-8.7L-55 352.4l20.7-12 103.5-59.7c6.9-4 13.8-7.9 20.7-11.8 7.6-4.3 14.4-8.1 20.7-11.6 7.6-4.2 14.4-7.7 20.7-10.9 7.7-3.8 14.5-6.9 20.6-9.3 6.7-2.7 13.5-4.8 20.5-6.5 6.7-1.6 13.5-2.5 20.4-2.9 6.9-.3 13.8-.1 20.7.5 2.1.2 4.2.3 6.3.5 4.8.4 9.7.8 14.6 1 7 .4 14.1-.2 20.9-1.6 7.3-1.7 14.3-4.5 20.7-8.4 7.5-4.8 14.5-10.4 20.8-16.7 7.4-7.4 14.4-15.2 21-23.4 3.6-4.4 7.3-8.9 11-13.5 3.3-4.1 6.6-8.1 9.9-12.2 7.8-9.5 14.4-17.1 20.6-23.8 6.8-7.3 13.7-14.1 20.5-20.2 6.6-5.9 13.3-11.3 20.6-16.8 6.2-4.6 13-9.3 20.7-14.3 6.1-4 12.7-8.1 20.7-12.9 6.2-3.8 13-7.8 20.7-12.3 6.9-4.1 13.8-8 20.7-12.1l20.7-12 13.5-7.8 13.8-7.9c4.8-2.7 9.5-5.5 14.3-8.2l83.6-48.2 17.1-9.9 279.6-161.4c.4-.3.6-.8.3-1.3-.3-.4-.8-.6-1.3-.3L645.2-54.1l-17.1 9.9-83.7 48.4c-4.8 2.7-9.5 5.5-14.3 8.2l-13.8 7.9-13.5 7.8-20.7 12c-6.9 4-13.8 8-20.7 12.1-7.7 4.5-14.5 8.5-20.7 12.3-8 4.8-14.6 8.9-20.7 12.9-7.7 5-14.5 9.7-20.8 14.4-7.4 5.5-14.2 11-20.8 16.9-6.9 6.2-13.8 13-20.6 20.3-6.2 6.7-12.8 14.3-20.7 23.9-3.3 4-6.6 8.1-9.9 12.2-3.7 4.6-7.3 9.1-11 13.5-6.5 8.1-13.5 15.8-20.8 23.2-6.1 6.2-13 11.8-20.4 16.4-6.2 3.8-13 6.6-20.1 8.2-6.7 1.4-13.6 1.9-20.5 1.6-4.8-.1-9.8-.6-14.5-1-2.1-.2-4.2-.4-6.3-.5-7-.6-13.9-.8-20.9-.5-7 .3-13.9 1.3-20.7 2.9-7.1 1.7-14 3.9-20.7 6.6-6.2 2.4-13 5.5-20.8 9.3-6.3 3.1-13.1 6.7-20.8 10.9-6.3 3.5-13.1 7.2-20.7 11.6-6.9 3.9-13.8 7.9-20.7 11.8l-103.5 59.7-20.7 12-150.6 86.9-15 8.7-20.7 12-67.6 39c-5.1 2.9-10.1 5.8-15.1 8.7-.1 0-.2.1-.3.2l.4.9.6.7-.5-.9zm200.9 560.3c72.6-39.3 145.5-80 213.5-118.1l9.5-5.3c11-6.2 22.4-12.3 33.9-18.2l3.7-1.9c8.3-4.2 15-7.7 21.2-10.8 7.3-3.6 14.3-7.1 21-10.3 7.6-3.6 14.4-6.8 20.9-9.8 6.9-3.2 13.9-6.3 20.7-9.3 7.3-3.2 14.1-6 20.7-8.7 7.2-2.9 14.1-5.7 20.7-8.2 7.2-2.8 14-5.3 20.7-7.7 6.7-2.4 13.7-4.9 20.7-7.3 6.7-2.3 13.7-4.7 20.7-6.9 6.9-2.3 13.8-4.5 20.7-6.7l3-1c5.9-1.9 11.8-3.8 17.6-5.7 7.6-2.5 14.4-4.7 20.7-6.9 7.6-2.6 14.4-5.1 20.7-7.5 7.1-2.7 14.1-5.6 20.7-8.6 7.2-3.2 14.2-6.6 20.7-10 7-3.7 14-7.6 20.7-11.8 6.7-4.1 13.7-8.8 20.7-13.7 6.9-4.9 13.8-10.1 20.7-15.7 6.5-5.2 13.3-10.8 20.7-17.3 6.4-5.6 13.2-11.6 20.7-18.5 7.1-6.4 14.1-13 20.7-19.1l5.2-4.9c5.2-4.8 10.3-9.6 15.5-14.4 8.3-7.6 14.6-13.4 20.7-18.8 6.9-6.2 13.9-12.3 20.7-18 7-5.9 14-11.7 20.7-17 6.8-5.3 13.7-10.6 20.7-15.7 6.8-5 13.7-9.9 20.7-14.6 6.8-4.6 13.8-9.2 20.7-13.7 6.2-3.9 12.7-8 20.7-12.9 6.3-3.8 13-7.9 20.6-12.4 6.9-4.1 13.8-8.2 20.5-12.1 7-4.1 13.9-8.1 20.8-12.1 7-4.1 13.9-8.1 20.9-12.1l2.2-1.3c6.1-3.5 12.3-7.1 18.5-10.7 6.8-3.9 13.6-7.9 20.4-11.8 6.9-4 13.7-7.9 20.6-11.9l41.7-24.1c6.8-3.9 13.7-7.9 20.6-11.9l11.6-6.7c.4-.3.6-.8.3-1.3-.3-.4-.8-.6-1.3-.3l-11.6 6.7c-7 4-13.8 8-20.6 11.9l-41.7 24.1c-6.8 4-13.7 7.9-20.6 11.9-6.8 3.9-13.6 7.9-20.4 11.8-6.2 3.6-12.4 7.1-18.5 10.7l-2.2 1.3c-7 4-13.9 8-20.9 12.1-6.9 4-13.8 8-20.8 12.1-6.8 4-13.6 8-20.6 12.1-7.6 4.5-14.3 8.6-20.6 12.4-8 4.9-14.5 9-20.7 12.9-6.9 4.4-13.9 9-20.7 13.7-7 4.7-13.9 9.7-20.7 14.7-7 5.1-14 10.4-20.7 15.8-6.7 5.3-13.7 11-20.7 17-6.8 5.7-13.7 11.8-20.7 18.1-6.1 5.4-12.5 11.2-20.7 18.9-5.2 4.8-10.3 9.5-15.5 14.4l-5.2 4.9c-6.6 6.1-13.6 12.7-20.7 19.1-7.5 6.8-14.2 12.9-20.7 18.5-7.4 6.4-14.2 12.1-20.7 17.2-6.9 5.5-13.8 10.7-20.7 15.6-7 5-14 9.6-20.7 13.7-6.7 4.2-13.7 8.1-20.6 11.8-6.6 3.4-13.5 6.8-20.6 10-6.6 2.9-13.5 5.8-20.7 8.5-6.3 2.4-13 4.9-20.7 7.5-6.3 2.2-13.1 4.4-20.7 6.9-5.9 1.9-11.8 3.8-17.6 5.7l-3 1c-6.9 2.2-13.8 4.5-20.7 6.7-7 2.3-14 4.6-20.7 6.9-7 2.4-14 4.9-20.7 7.3-6.7 2.4-13.5 4.9-20.7 7.8-6.6 2.5-13.6 5.3-20.7 8.3-6.6 2.7-13.4 5.6-20.7 8.8-6.8 3-13.8 6.1-20.8 9.3-6.5 3-13.3 6.2-20.9 9.8-6.7 3.2-13.8 6.7-21.1 10.3-6.2 3.1-13 6.5-21.3 10.8l-3.7 1.9c-11.5 5.9-22.9 12.1-34 18.3l-9.5 5.3c-68 38.1-140.8 78.8-213.4 118.1-.4.3-.6.8-.4 1.3.2.3.5.5.8.5.5-.5.6-.5.8-.7zm73.2 0c40.4-22.2 83.8-46.3 140.7-78.2 47.7-26.7 97.3-49.8 148.4-69.2 3.8-1.4 7.5-2.8 11.3-4.2 6-2.2 12.3-4.5 20.7-7.5 6.9-2.4 13.8-4.9 20.7-7.3l8.4-2.9c4.1-1.4 8.2-2.9 12.3-4.3 6.9-2.4 13.8-4.9 20.7-7.4 7.4-2.7 14.2-5.2 20.7-7.7 7-2.7 14-5.5 20.7-8.3 7.2-3 14.2-6.1 20.7-9.1 7.1-3.3 14.1-6.7 20.7-10.2 7-3.7 14-7.5 20.7-11.6 6.9-4.1 13.9-8.5 20.7-13.1 6.8-4.6 13.8-9.6 20.7-14.8 6.7-5 13.7-10.5 20.7-16.3 6.6-5.4 13.5-11.3 20.7-17.6 6.1-5.3 12.5-11 20.7-18.5 6.9-6.2 13.8-12.5 20.7-18.8 7-6.4 13.8-12.6 20.7-18.8 7.1-6.4 14.1-12.5 20.7-18.2 7.3-6.3 14-12 20.7-17.4 6.6-5.4 13.6-10.9 20.7-16.4 7-5.4 13.9-10.5 20.7-15.4 7-5 13.9-9.9 20.7-14.4 6.8-4.6 13.8-9.2 20.7-13.6 6.2-4 13-8.3 20.7-13 6.5-4 13.3-8.1 20.7-12.5l20.7-12.3c6.9-4.1 13.8-8.1 20.6-12 6.9-4 13.8-8 20.6-11.9 7-4.1 13.9-8.1 20.8-12l20.9-12.1c6.9-4 13.8-7.9 20.7-12l85.6-49.4c.4-.3.6-.8.4-1.3-.3-.4-.8-.6-1.3-.4L870 526.7l-20.7 12-20.9 12.1c-6.9 4-13.8 8-20.8 12-6.8 3.9-13.6 7.9-20.6 11.9-6.8 4-13.7 8-20.6 12-6.9 4.1-13.8 8.1-20.7 12.3-7.4 4.4-14.2 8.6-20.7 12.6-7.7 4.8-14.5 9-20.7 13-6.9 4.4-13.9 9-20.7 13.7-6.8 4.6-13.8 9.5-20.7 14.5-6.7 4.9-13.7 10-20.7 15.4-7.1 5.5-14.1 11-20.7 16.4-6.6 5.4-13.4 11.1-20.7 17.4-6.6 5.7-13.6 11.9-20.7 18.2-6.9 6.2-13.7 12.4-20.7 18.8-6.9 6.3-13.8 12.6-20.7 18.8-8.3 7.5-14.6 13.1-20.7 18.4-7.2 6.3-14.1 12.2-20.7 17.5-7 5.8-14 11.2-20.7 16.2-6.9 5.2-13.8 10.1-20.7 14.7-6.8 4.6-13.7 9-20.7 13.1-6.7 4-13.7 7.9-20.7 11.5-6.6 3.4-13.5 6.9-20.7 10.2-6.5 3-13.5 6.1-20.7 9.1-6.7 2.8-13.7 5.6-20.7 8.3-6.5 2.5-13.3 5-20.7 7.7-6.9 2.5-13.8 4.9-20.7 7.4-4.1 1.4-8.2 2.9-12.3 4.3l-8.4 2.9c-6.9 2.4-13.8 4.8-20.7 7.3-8.4 3-14.8 5.3-20.7 7.5l-11.4 4.2c-51.2 19.4-100.9 42.5-148.6 69.3-56.9 31.9-100.3 56-140.7 78.1-.4.3-.6.8-.4 1.3.2.3.5.5.8.5.5.1.6.1.8 0zm84.8 0c20-11.1 40-22.2 60-33.4 46.9-26.2 95.7-49 146-68.1 6.1-2.3 12.1-4.6 18.2-6.9 6.9-2.6 13.9-5.3 20.8-7.9 7.6-2.9 14.4-5.6 20.7-8.1 7.5-3 14.2-5.8 20.7-8.6 7.3-3.1 14.1-6.1 20.7-9.2 7.1-3.3 14.1-6.6 20.7-10 6.9-3.5 13.9-7.2 20.7-10.9 6.9-3.8 13.9-7.8 20.7-12 7.1-4.3 14.1-8.8 20.7-13.2 6.7-4.5 13.7-9.3 20.7-14.5 6.8-4.9 13.8-10.2 20.7-15.7 6.6-5.2 13.4-10.7 20.7-16.8 6.4-5.3 13.1-11.1 20.7-17.7 7.3-6.3 14.5-12.8 20.7-18.2l8.2-7.3c4.2-3.7 8.3-7.4 12.5-11.1 7.4-6.5 14.2-12.5 20.7-18.1 7.4-6.4 14.2-12.2 20.7-17.6 6.9-5.7 13.8-11.3 20.7-16.8 6.9-5.5 13.9-10.8 20.7-15.8 6.7-5 13.7-10 20.7-14.9 6.7-4.7 13.4-9.3 20.7-14.1 6.6-4.4 13.5-8.9 20.7-13.4 6.6-4.2 13.5-8.5 20.7-12.9 6.9-4.2 13.8-8.4 20.7-12.5l20.7-12.3c6.9-4.1 13.8-8.1 20.7-12.1 6-3.5 11.9-6.9 17.8-10.4l23.5-13.6c4.6-2.7 9.3-5.4 13.8-8l6.7-3.9c5.4-3.1 10.7-6.2 16-9.2l87.3-50.4 15.4-8.9c.4-.3.6-.8.4-1.3-.3-.4-.8-.6-1.3-.4-5.1 3-10.2 5.9-15.4 8.9l-87.3 50.4c-5.3 3.1-10.6 6.1-16 9.2l-6.7 3.9c-4.6 2.6-9.2 5.3-13.8 8L793 605.1c-5.9 3.4-11.9 6.9-17.8 10.4-6.9 4-13.8 8.1-20.7 12.1-6.9 4.1-13.8 8.1-20.7 12.3-6.9 4.1-13.8 8.3-20.7 12.5-7.2 4.4-14.1 8.7-20.7 12.9-7.2 4.6-14.1 9.1-20.7 13.4-7.2 4.8-14 9.4-20.7 14.1-7 4.9-14 10-20.7 14.9-6.8 5.1-13.8 10.4-20.7 15.9-6.9 5.4-13.8 11.1-20.7 16.8-6.5 5.4-13.3 11.1-20.7 17.6-6.5 5.7-13.3 11.6-20.7 18.1-4.2 3.7-8.3 7.4-12.5 11.1l-8.2 7.3c-6.1 5.5-13.4 11.9-20.7 18.2-7.6 6.6-14.3 12.4-20.7 17.7-7.3 6.1-14.1 11.6-20.7 16.8-6.9 5.5-13.9 10.7-20.7 15.7-7 5.1-14 9.9-20.7 14.4-6.6 4.4-13.6 8.9-20.7 13.2-6.8 4.1-13.8 8.2-20.7 12-6.8 3.8-13.8 7.4-20.7 10.9-6.6 3.3-13.6 6.7-20.7 10-6.6 3.1-13.4 6.1-20.7 9.2-6.5 2.8-13.2 5.5-20.7 8.5-6.4 2.6-13.1 5.2-20.7 8.1-6.9 2.7-13.8 5.3-20.7 7.9-6.1 2.3-12.1 4.6-18.2 6.9-50.3 19.2-99.2 42-146.2 68.2-20 11.2-40 22.3-60 33.4-.5.2-.6.8-.4 1.3.3.4.8.6 1.3.4zm95.3 0 10.7-6c31.6-17.7 64.5-34 97.8-48.6 2.6-1.1 5.2-2.3 7.8-3.4 7.9-3.5 14.8-6.6 21-9.4 6.9-3.1 13.9-6.4 20.9-9.8 7.5-3.6 14.3-7 20.8-10.3 6.9-3.5 13.8-7.2 20.7-11.1 7-3.9 14-7.9 20.7-11.9 6.7-4 13.7-8.4 20.7-12.9 6.9-4.4 13.8-9.1 20.7-13.8 7-4.8 14-9.8 20.7-14.7 6.6-4.8 13.4-9.9 20.7-15.6 6.7-5.2 13.7-10.7 20.7-16.3 6.8-5.5 13.8-11.2 20.7-17 6-5 12.6-10.6 20.7-17.4 5-4.2 9.9-8.5 14.9-12.7l5.8-4.9c6.9-5.9 13.8-11.8 20.7-17.6 5.7-4.8 13.2-11.1 20.7-17.2 6.8-5.6 13.7-11.2 20.7-16.7 7.2-5.7 14-10.9 20.7-15.9 6.8-5.1 13.8-10.2 20.7-15.2 6.9-4.9 13.9-9.8 20.7-14.4 6.6-4.5 13.5-9.1 20.7-13.7 6.8-4.4 13.8-8.9 20.7-13.2 6.6-4.1 13.4-8.3 20.7-12.7 6.9-4.2 13.8-8.3 20.7-12.4 6.9-4.1 13.8-8.2 20.7-12.2 6.9-4.1 13.8-8.1 20.7-12.1 6.3-3.7 12.6-7.3 18.9-11l1.8-1.1c6.4-3.7 12.9-7.5 19.3-11.2l1.4-.8c6-3.5 12-6.9 17.9-10.4l2.8-1.6c6.9-4 13.8-8 20.6-11.9l62.2-36c5.1-3 10.3-5.9 15.4-8.9l25.7-14.8c2.2-1.3 4.4-2.6 6.6-3.8.4-.3.6-.8.3-1.3-.3-.4-.8-.6-1.3-.3-2.2 1.3-4.4 2.6-6.6 3.8l-25.7 14.8c-5.2 3-10.3 6-15.4 8.9l-62.2 36c-6.8 3.9-13.7 7.9-20.6 11.9l-2.8 1.6c-6 3.5-12 6.9-17.9 10.4l-1.4.8c-6.4 3.7-12.9 7.4-19.3 11.2l-1.8 1.1c-6.3 3.6-12.6 7.3-18.9 11-6.9 4-13.8 8-20.7 12.1-6.9 4.1-13.8 8.1-20.7 12.2-6.9 4.1-13.8 8.2-20.7 12.4-7.3 4.4-14.1 8.6-20.7 12.7-6.9 4.3-13.9 8.8-20.7 13.2-7.1 4.6-14.1 9.2-20.7 13.7-6.8 4.7-13.8 9.5-20.7 14.4-6.9 4.9-13.9 10.1-20.7 15.2-6.7 5-13.5 10.3-20.7 16-6.9 5.5-13.9 11.1-20.7 16.7-7.5 6.2-15 12.5-20.7 17.3-6.9 5.8-13.8 11.7-20.7 17.6l-5.8 4.9c-5 4.3-9.9 8.5-14.9 12.7-8.1 6.9-14.7 12.4-20.7 17.4-6.9 5.8-13.9 11.4-20.7 16.9-7 5.6-14 11.1-20.7 16.3-7.3 5.6-14.1 10.7-20.7 15.5-6.7 4.9-13.7 9.9-20.7 14.7-6.9 4.7-13.9 9.4-20.7 13.8-7 4.5-13.9 8.8-20.7 12.8-6.7 4-13.7 8-20.7 11.9-6.9 3.8-13.8 7.5-20.7 11-6.4 3.3-13.2 6.7-20.7 10.3-7 3.4-14 6.6-20.8 9.8-6.3 2.9-13.2 6-21 9.4-2.6 1.2-5.2 2.3-7.8 3.4-33.4 14.6-66.3 30.9-98 48.7l-10.7 6c-.4.2-.6.8-.4 1.3.2.3.5.5.8.5.3.1.5 0 .6-.1zm-320 0c87.6-46.7 176.9-96.5 260.4-143.4l17.1-9.6 66.7-37.2c44.2-24.7 90.1-46.3 137.2-64.6 1.3-.5 2.5-1 3.8-1.5 6.9-2.7 13.9-5.2 20.7-7.6 6.7-2.3 13.7-4.7 20.7-6.9 6.4-2 13.2-4.1 20.7-6.2 6.9-2 13.8-3.9 20.7-5.9l.8-.2c6.6-1.8 13.2-3.7 19.9-5.6 7.9-2.3 14.5-4.3 20.7-6.3 7.5-2.4 14.3-4.8 20.7-7.3 7.1-2.7 14.1-5.7 20.7-8.8 7-3.3 14-6.9 20.8-10.7 6.9-3.9 13.9-8.2 20.7-12.8 6.7-4.5 13.7-9.5 20.7-15 6.6-5.1 13.6-10.8 20.7-17 6.4-5.5 13.1-11.6 20.7-18.6 6.1-5.6 12.6-11.9 20.7-19.6l9.5-9.2 11.1-10.8c8.1-7.8 14.7-14 20.7-19.6 7.5-6.9 14.3-13 20.7-18.5 6.8-5.9 13.8-11.7 20.7-17.1 6.5-5.2 13.5-10.5 20.7-15.7 6.7-4.8 13.7-9.7 20.7-14.4 6.3-4.2 13-8.6 20.6-13.4 6.2-3.9 12.7-7.9 20.5-12.7 7.1-4.3 14.1-8.5 20.8-12.4 7-4.1 13.9-8.2 20.9-12.2 6.9-4 13.7-8 20.7-12 6.1-3.5 12.1-7 18.2-10.6l2.1-1.3c6.4-3.7 12.9-7.5 19.3-11.2l22.2-12.8c6.9-4 13.8-8 20.9-12l41.2-23.8c6.8-3.9 13.5-7.8 20.4-11.7.4-.3.6-.8.3-1.3-.3-.4-.8-.6-1.3-.3l-20.4 11.7-41.2 23.8c-7 4.1-14 8.1-20.9 12l-21.8 13c-6.4 3.7-12.9 7.4-19.3 11.2l-2.1 1.3c-6.1 3.5-12.2 7-18.2 10.6l-20.7 12c-7 4.1-13.9 8.1-20.9 12.3-6.7 3.9-13.7 8.1-20.8 12.4-7.8 4.8-14.4 8.8-20.6 12.7-7.6 4.8-14.3 9.2-20.6 13.4-7.1 4.7-14 9.6-20.7 14.4-7.2 5.2-14.2 10.5-20.7 15.7-6.9 5.5-13.9 11.3-20.7 17.2-6.4 5.5-13.2 11.6-20.7 18.6-6 5.6-12.6 11.8-20.7 19.6l-11.1 10.8c-3.2 3.1-6.4 6.2-9.5 9.2-8.1 7.8-14.6 14-20.7 19.6-7.5 7-14.3 13.1-20.7 18.6-7.1 6.2-14.1 11.9-20.7 17-7.1 5.5-14 10.5-20.7 14.9-6.8 4.6-13.8 8.9-20.6 12.7-6.7 3.8-13.7 7.4-20.6 10.6-6.6 3.1-13.6 6-20.6 8.7-6.4 2.4-13.1 4.8-20.6 7.2-6.2 2-12.8 4-20.7 6.3-6.6 1.9-13.2 3.8-19.9 5.6l-.8.2c-6.9 1.9-13.8 3.9-20.7 5.9-7.5 2.2-14.3 4.2-20.7 6.3-7 2.2-14 4.5-20.7 6.9-6.8 2.4-13.8 4.9-20.7 7.6-1.3.5-2.6 1-3.8 1.5-47.2 18.4-93.2 40-137.5 64.7l-66.7 37.2-17.1 9.6c-83.5 46.9-172.8 96.7-260.4 143.3-.5.2-.6.8-.4 1.3.2.3.5.5.8.5-.2-.2-.1-.2.1-.3zm1124.5 0 2.3-1.3c6.8-3.9 13.6-7.9 20.4-11.8.4-.3.6-.8.3-1.3-.3-.4-.8-.6-1.3-.3l-20.4 11.8-2.3 1.3c-.4.3-.6.8-.3 1.3.2.3.5.5.8.5.2-.1.3-.1.5-.2zm-58.6 0 19.5-11.3 20.7-12 20.7-12c6.8-3.9 13.6-7.9 20.4-11.8.4-.3.6-.8.4-1.3s-.8-.6-1.3-.4l-20.4 11.8-20.7 12-20.7 12-19.5 11.3c-.4.3-.6.8-.3 1.3.2.3.5.5.8.5.1 0 .2 0 .4-.1zm-58.6 0 16.1-9.3 20.7-12 22.2-12.8 19.2-11.1 61.8-35.7c.4-.3.6-.8.4-1.3s-.8-.6-1.3-.4l-61.8 35.7-19.2 11.1-22.2 12.8-20.7 12-16.1 9.3c-.4.3-.6.8-.3 1.3.2.3.5.5.8.5.1 0 .2 0 .4-.1zM-324.3 237.2c4.7-2.7 9.5-5.5 14.2-8.2l82.8-47.8c5-2.9 10.1-5.8 15.1-8.7l5.5-3.2c6.9-4 13.8-8 20.7-11.9 6.9-4 13.8-8 20.7-11.9 6.9-4 13.8-7.9 20.7-11.8 8-4.5 14.6-8.2 20.7-11.4 7.7-4.1 14.5-7.6 20.7-10.5 6.7-3.2 13.6-6.1 20.6-8.6 6.7-2.4 13.5-4.2 20.5-5.5 6.7-1.2 13.6-1.8 20.4-1.8 7 0 14 .6 20.7 1.1 7 .7 14 1 21 .8 7.2-.2 14.2-1.6 21-4 7.5-2.9 14.4-6.9 20.7-11.8 7.5-6 14.4-12.6 20.7-19.7 6.8-7.5 13.5-15.6 20.9-24.8l1.2-1.4c6.4-7.9 13-16 19.6-23.7 7.2-8.3 14-15.6 20.6-22 6.5-6.4 13.4-12.6 20.5-18.3 6.4-5.2 13.1-10.2 20.7-15.4 6.1-4.2 12.6-8.5 20.7-13.5 6.1-3.8 12.7-7.8 20.7-12.6 6.9-4.1 13.8-8.1 20.7-12.1l20.7-12L298-122c4.3-2.5 8.6-4.9 12.8-7.4l25.8-14.9c5.4-3.1 10.7-6.2 16.1-9.3 5.3-3 10.5-6.1 15.8-9.1l25.9-14.9c5.7-3.3 11.5-6.6 17.2-9.9 10.7-6.2 21.5-12.4 32.2-18.6l11.9-6.9c.4-.3.6-.8.3-1.3-.3-.4-.8-.6-1.3-.3l-11.9 6.9c-10.7 6.2-21.4 12.4-32.2 18.6-5.7 3.3-11.4 6.6-17.2 9.9l-25.9 14.9c-5.2 3-10.5 6.1-15.8 9.1l-16.1 9.3-25.8 14.9c-4.3 2.5-8.6 4.9-12.8 7.4l-49.3 28.5-20.7 12c-6.9 4-13.8 8.1-20.7 12.2-8 4.8-14.6 8.7-20.7 12.6-8.1 5-14.7 9.3-20.8 13.5-7.5 5.2-14.3 10.2-20.8 15.4-7.1 5.7-14 11.9-20.6 18.4-6.7 6.5-13.4 13.8-20.7 22.1-6.6 7.6-13.3 15.8-19.7 23.7l-1.2 1.4c-7.3 9.1-14 17.3-20.8 24.7-6.2 7.1-13.1 13.6-20.5 19.5-6.1 4.8-12.9 8.7-20.2 11.5-6.5 2.4-13.4 3.8-20.3 4-7 .1-13.9-.2-20.8-.8-6.8-.6-13.8-1.1-20.9-1.1-6.9 0-13.9.6-20.7 1.8-7.1 1.3-14 3.2-20.8 5.6-7.1 2.6-14 5.5-20.8 8.7-6.2 3-13 6.4-20.8 10.5-6.1 3.3-12.7 6.9-20.7 11.4-6.9 3.9-13.8 7.8-20.7 11.8-6.9 4-13.8 7.9-20.7 11.9-6.9 4-13.8 7.9-20.7 11.9l-5.5 3.2c-5.1 2.9-10.1 5.8-15.1 8.8l-82.8 47.8c-4.7 2.7-9.5 5.5-14.2 8.2-.4.3-.6.8-.3 1.3.2.3.5.5.8.5l.4-.2zm790.1 830.1 6.4-3.7c6.9-4.1 13.9-8.1 20.8-12.1l5.2-3c5.2-3 10.4-6 15.6-9.1l41.4-24 20.7-12c4.9-2.8 9.8-5.7 14.7-8.5l32.4-18.7 15-8.7 20.7-12 20.7-12 20.7-12 20.7-12 20.7-12 124.2-71.7 20.7-12 62.1-35.9c2.8-1.6 5.5-3.2 8.3-4.8.4-.3.6-.8.3-1.3-.3-.4-.8-.6-1.3-.3-2.8 1.6-5.5 3.2-8.3 4.8l-62.1 35.9-20.7 12-124.2 71.7-20.7 12-20.7 12-20.7 12-20.7 12-20.7 12-15 8.7-32.4 18.7c-4.9 2.8-9.8 5.7-14.7 8.5l-20.7 12-41.4 24c-5.2 3-10.4 6-15.6 9.1l-5.2 3c-6.9 4-13.9 8.1-20.8 12.1l-6.4 3.7c-.4.3-.6.8-.3 1.3.2.3.5.5.8.5.2-.1.4-.1.5-.2zm-247.4 0 6.6-4.2c2.9-1.7 5.7-3.4 8.6-5.1 6.5-3.8 13.1-7.5 19.4-11.1l2.2-1.3c6.7-3.8 13.3-7.6 20-11.5 7.5-4.4 14.4-8.5 21.1-12.6 7.4-4.5 14.2-8.8 20.9-13.1 7.2-4.6 14.1-9.3 20.8-13.8 6.9-4.7 13.9-9.6 20.7-14.5s13.8-10 20.7-15.2c6.4-4.8 13.2-10 20.7-15.9 6.8-5.3 13.7-10.8 20.7-16.3 6.9-5.5 13.8-11 20.7-16.6 6.2-5 12.3-10 18.5-15l8.2-6.7c4.9-4 9.7-7.9 14.6-11.9 6.9-5.6 13.8-11.2 20.7-16.7l20.7-16.5c7.4-5.8 14.2-11.1 20.7-16.1 6.9-5.3 13.9-10.6 20.7-15.7 7.3-5.4 14.1-10.3 20.7-15 7.1-5 14-9.9 20.7-14.4 6.5-4.4 13.2-8.9 20.7-13.8 6.9-4.6 13.9-9 20.7-13.3s13.7-8.6 20.7-12.9l20.7-12.6c6.9-4.1 13.8-8.3 20.7-12.3 6.9-4.1 13.8-8.1 20.7-12.2 6.9-4.1 13.8-8.1 20.7-12.1 5.4-3.1 10.8-6.3 16.1-9.4l46-26.6 20.7-12 122-70.4c.4-.3.6-.8.3-1.3-.3-.4-.8-.6-1.3-.3l-122 70.4-20.7 12-46 26.6c-5.4 3.1-10.7 6.2-16.1 9.4-6.9 4-13.8 8-20.7 12.1-6.9 4-13.8 8.1-20.7 12.2l-20.7 12.3c-6.9 4.1-13.8 8.3-20.7 12.6-7 4.3-13.9 8.6-20.7 12.9-6.8 4.3-13.7 8.8-20.7 13.3-7.5 4.9-14.2 9.4-20.7 13.9-6.7 4.5-13.6 9.4-20.7 14.5-6.6 4.7-13.4 9.6-20.7 15.1-6.8 5.1-13.8 10.3-20.7 15.7-6.5 5-13.3 10.3-20.7 16.2l-20.7 16.5c-6.9 5.5-13.8 11.1-20.7 16.7-4.9 4-9.8 7.9-14.6 11.9l-8.2 6.7c-6.2 5-12.3 10-18.5 15-6.9 5.6-13.8 11.1-20.7 16.6-7 5.6-13.9 11.1-20.7 16.3-7.5 5.9-14.3 11-20.7 15.8-6.9 5.2-13.8 10.3-20.7 15.2-6.9 4.9-13.8 9.8-20.7 14.5-6.6 4.5-13.6 9.2-20.7 13.8-6.7 4.3-13.5 8.6-20.9 13.1-6.6 4.1-13.5 8.2-21 12.6-6.6 3.9-13.3 7.7-20 11.5l-2.2 1.3c-6.4 3.6-13 7.4-19.5 11.2-2.9 1.7-5.7 3.4-8.6 5.1-2.2 1.4-4.4 2.8-6.7 4.2-.4.3-.5.9-.3 1.3.2.3.5.4.8.4.2-.3.3-.4.5-.5zm53.2 0c3.3-2.4 6.7-4.8 9.9-7.1l4.4-3.1c6.2-4.4 12.5-8.9 18.7-13.3 7.6-5.5 14.5-10.5 21-15.3 6.8-5 13.9-10.3 20.9-15.6 6.6-5 13.4-10.2 20.8-15.9l20.7-16.2c5.6-4.4 11.3-8.9 16.9-13.4l3.8-3c6.9-5.5 13.8-11 20.7-16.4s13.8-10.9 20.7-16.3c6.9-5.4 13.8-10.8 20.7-16.1 7-5.4 14-10.7 20.7-15.7 6.8-5.1 13.7-10.3 20.7-15.4s13.9-10.1 20.7-14.9c6.9-4.9 13.9-9.8 20.7-14.5 6.6-4.6 13.6-9.3 20.7-14.1 7.5-5 14.2-9.5 20.7-13.7 6.8-4.4 13.7-8.9 20.7-13.3 6.3-4 13.1-8.2 20.7-12.9l20.7-12.6c6.9-4.2 13.8-8.3 20.7-12.4 6.9-4.1 13.8-8.2 20.7-12.2 6.9-4.1 13.8-8.1 20.7-12.1l20.7-12 20.7-12 46.9-27.2c5-2.9 10.1-5.8 15.1-8.7l22.1-12.8c6.4-3.7 12.9-7.5 19.3-11.2l20.7-12c6.9-4 13.8-8 20.6-11.9l51.4-29.6c.4-.3.6-.8.4-1.3-.3-.4-.8-.6-1.3-.4l-51.4 29.6c-6.8 3.9-13.7 7.9-20.6 11.9l-20.7 12c-6.4 3.7-12.9 7.4-19.3 11.2l-22.1 12.8c-5.1 2.9-10.1 5.8-15.1 8.8l-47.1 27-20.7 12-20.7 12c-6.9 4-13.8 8.1-20.7 12.1-6.9 4.1-13.8 8.1-20.7 12.2-6.9 4.1-13.8 8.2-20.7 12.4l-20.7 12.6c-7.6 4.7-14.3 8.9-20.7 12.9-7 4.4-13.9 8.9-20.7 13.3-6.4 4.2-13.2 8.7-20.7 13.7-7.1 4.8-14.1 9.5-20.7 14.1-6.8 4.7-13.8 9.6-20.7 14.5-6.8 4.8-13.7 9.8-20.7 14.9s-13.9 10.3-20.7 15.4c-6.7 5.1-13.7 10.3-20.7 15.7-6.9 5.3-13.8 10.7-20.7 16.1s-13.8 10.9-20.7 16.3c-6.9 5.5-13.8 10.9-20.7 16.4l-3.8 3c-5.6 4.5-11.2 8.9-16.9 13.4l-20.7 16.2c-7.3 5.7-14.1 10.9-20.8 15.9-7 5.3-14 10.6-20.9 15.6-6.6 4.8-13.4 9.8-21 15.3-6.2 4.5-12.5 8.9-18.7 13.3l-4.4 3.1c-3.2 2.3-6.6 4.7-9.9 7.1-.4.3-.5.9-.2 1.3.2.2.5.4.8.4.2.2.4.1.5.1zm30.6 0c3.2-2.5 6.5-5 9.8-7.4l9.1-6.9c4.3-3.2 8.5-6.5 12.8-9.7 7-5.3 14-10.7 21-16 4.3-3.3 8.6-6.5 12.9-9.8l8.6-6.5c6.7-5.1 13.5-10.3 20.2-15.4l20.7-15.6c6.9-5.2 13.8-10.3 20.7-15.4 6.9-5.1 13.8-10.1 20.7-15.1 7.5-5.4 14.3-10.2 20.7-14.8 7.4-5.2 14.2-9.9 20.7-14.4 6.4-4.4 13.1-8.9 20.7-14 6.5-4.4 13.3-8.8 20.7-13.6 7.2-4.7 14-9.1 20.7-13.3 6.9-4.4 13.8-8.7 20.7-13 6.9-4.3 13.8-8.5 20.7-12.7 6.9-4.2 13.8-8.4 20.7-12.5 6.9-4.1 13.8-8.3 20.7-12.4s13.8-8.2 20.7-12.2c6.9-4.1 13.8-8.1 20.7-12.1 6.2-3.6 12.3-7.2 18.5-10.8l2.2-1.3 20.7-12 229-132.3c.4-.3.6-.8.4-1.3-.3-.4-.8-.6-1.3-.4l-229 132.3-20.7 12-2.2 1.3c-6.1 3.6-12.3 7.2-18.5 10.8-6.9 4-13.8 8.1-20.7 12.1-6.9 4.1-13.8 8.1-20.7 12.2s-13.8 8.2-20.7 12.4c-6.9 4.1-13.8 8.3-20.7 12.6-6.9 4.2-13.8 8.4-20.7 12.7-6.9 4.3-13.8 8.6-20.7 13-6.7 4.2-13.4 8.6-20.7 13.3-7.4 4.8-14.2 9.2-20.7 13.6-7.6 5-14.3 9.6-20.7 14-6.5 4.5-13.3 9.2-20.7 14.4-6.4 4.5-13.2 9.3-20.7 14.8-6.9 5-13.8 10-20.7 15.1-6.9 5.1-13.8 10.2-20.7 15.4L395.7 994c-6.7 5.1-13.5 10.2-20.2 15.4l-8.6 6.5c-4.3 3.3-8.6 6.6-12.9 9.8-7 5.3-14 10.7-21 16-4.3 3.2-8.5 6.5-12.8 9.7l-9.1 6.9c-3.2 2.5-6.5 4.9-9.8 7.4-.4.3-.5.9-.2 1.3.2.2.5.4.7.4.1.1.3 0 .4-.1zm61.3 0 7.7-4.9c4.3-2.7 8.6-5.5 12.8-8.3l8.4-5.4 21-13.5c6.9-4.4 13.9-8.9 20.9-13.3 6.9-4.4 13.8-8.7 20.7-13 6.9-4.3 13.8-8.6 20.7-12.8 6.9-4.2 13.8-8.5 20.7-12.6 6.9-4.2 13.8-8.3 20.7-12.5 6.9-4.1 13.8-8.3 20.7-12.4l20.7-12.3c5.8-3.5 11.7-6.9 17.5-10.3l3.2-1.9c6.9-4.1 13.8-8.1 20.7-12.1l3.6-2.1 17.1-9.9 20.7-12 20.7-12 20.7-12 227.7-131.5 20.7-12 25.5-14.7c.4-.3.6-.8.3-1.3-.3-.4-.8-.6-1.3-.3l-25.5 14.7-20.7 12-227.6 131.5-20.7 12-20.7 12-20.7 12-17.1 9.9-3.6 2.1c-6.9 4-13.8 8.1-20.7 12.1l-3.2 1.9c-5.8 3.4-11.7 6.9-17.5 10.3L536.9 957c-6.9 4.1-13.8 8.2-20.7 12.4-6.9 4.1-13.8 8.3-20.7 12.5l-20.7 12.6c-6.9 4.2-13.8 8.5-20.7 12.8-6.9 4.3-13.8 8.7-20.8 13-7 4.4-13.9 8.8-20.9 13.3l-21 13.5-8.4 5.4c-4.3 2.8-8.6 5.5-12.8 8.3l-7.7 4.9c-.4.3-.6.9-.3 1.3.2.3.5.4.8.4.2 0 .3 0 .5-.1zm160.2 0 66.1-38.1c5.1-3 10.3-5.9 15.4-8.9l5.7-3.3 15-8.7 20.7-12c5.1-3 10.2-5.9 15.4-8.9l67.4-38.9 20.7-12c5.3-3.1 10.6-6.2 16-9.2l66.8-38.6 20.7-12 20.7-12 62.1-35.9 20.4-11.8c.4-.3.6-.8.3-1.3-.3-.4-.8-.6-1.3-.3-6.8 3.9-13.6 7.9-20.4 11.8l-62.1 35.9-20.7 12-20.7 12-66.8 38.6c-5.3 3.1-10.7 6.2-16 9.2l-20.7 12-67.4 39c-5.1 3-10.3 5.9-15.4 8.9l-20.7 12-15 8.7-5.7 3.3c-5.1 3-10.2 5.9-15.4 8.9l-66.1 38.1c-.4.3-.6.8-.3 1.3.2.3.5.5.8.5.2-.2.3-.2.5-.3zm-195 0c4.4-3.1 8.8-6.2 13.3-9.4l13.4-9.5 7.9-5.6c7-5 14-10 21-14.9 6.9-4.9 13.9-9.8 20.9-14.6 6.9-4.8 13.8-9.6 20.8-14.3 6.9-4.7 13.8-9.4 20.7-14 6.2-4.2 13-8.7 20.7-13.8l20.7-13.5c6.9-4.4 13.9-8.9 20.7-13.2 6.9-4.4 13.8-8.7 20.7-13 6.9-4.3 13.8-8.5 20.7-12.7 6.9-4.2 13.8-8.4 20.7-12.5 6.9-4.2 13.8-8.3 20.7-12.4l20.7-12.3c5.7-3.4 11.4-6.7 17.1-10l3.6-2.1c6.9-4.1 13.8-8.1 20.7-12.1l20.7-12 15.1-8.8 215-124.2c6.1-3.5 12.2-7.1 18.3-10.6l34.1-19.7c.4-.3.6-.8.4-1.3-.3-.4-.8-.6-1.3-.4L921.7 700c-6.1 3.5-12.2 7-18.3 10.6l-215 124.2c-5 2.9-10.1 5.9-15.1 8.8l-20.7 12c-6.9 4-13.8 8-20.7 12.1l-3.6 2.1c-5.7 3.3-11.4 6.7-17.1 10l-20.7 12.3c-6.9 4.1-13.8 8.2-20.7 12.4-6.9 4.1-13.8 8.3-20.7 12.5s-13.8 8.4-20.7 12.7c-6.9 4.3-13.8 8.6-20.7 13-6.9 4.3-13.8 8.8-20.7 13.2-6.9 4.4-13.8 8.9-20.7 13.5-7.7 5.1-14.5 9.6-20.7 13.8-6.9 4.7-13.8 9.3-20.7 14.1-6.9 4.7-13.9 9.5-20.8 14.4s-13.9 9.7-20.9 14.6c-7 5-14 9.9-21 14.9l-7.9 5.6-13.4 9.5c-4.4 3.1-8.8 6.3-13.3 9.4-.4.3-.5.9-.2 1.3.2.3.5.4.8.4.1.1.3 0 .5-.1zm-653-254.8c33.7-19.5 67.5-39 101.2-58.4 5.6-3.3 11.3-6.5 16.9-9.8l.2-.1c6.8-3.9 13.6-7.9 20.4-11.8l63.2-36.5c6.9-4 13.8-8 20.8-12l1.4-.8c6.4-3.7 12.9-7.4 19.3-11.2l41.4-23.9c5-2.9 10.1-5.8 15.1-8.7l34.1-19.7 12.8-7.4 62.1-35.9c4.5-2.6 8.9-5.2 13.4-7.7l28-16.2c5.2-3 10.5-6.1 15.8-9.1l4.9-2.8 20.7-12 20.7-12c6.9-4 13.8-8 20.7-11.9l41.4-23.8c6.9-4 13.8-7.9 20.7-11.8 8.3-4.7 14.7-8.2 20.7-11.5 8.1-4.4 14.7-7.9 20.7-11 7.7-3.9 14.4-7.2 20.7-10 7.4-3.3 14.1-6 20.6-8.2 6.8-2.3 13.6-4.2 20.6-5.7 6.8-1.4 13.7-2.3 20.6-2.8 7.1-.5 14.1-.6 20.6-.6h4.1c5.5 0 11.1 0 16.6-.2 7-.2 13.9-1.1 20.7-2.5 7.3-1.7 14.4-4.3 21-7.8 7.5-4.1 14.6-9 21.1-14.7 7.3-6.4 14.3-13.3 20.8-20.6 6.7-7.3 13.5-15.4 20.4-23.7l2.6-3.1c5.9-7 12-14.3 18-21 7.4-8.4 14.2-15.7 20.8-22.2 6.8-6.7 13.7-13.1 20.8-18.9 6.4-5.3 13.1-10.5 20.6-15.8 6.3-4.5 13-8.9 20.5-13.7 6.1-3.9 12.7-8 20.7-12.7 6.2-3.7 12.8-7.6 20.7-12.3 6.9-4 13.8-8.1 20.7-12.1l103.6-59.8c7-4 13.9-8 20.9-12 7-4.1 14-8.1 21.1-12.2l21.2-12.3 81.6-47.1c.4-.3.6-.8.3-1.3-.3-.4-.8-.6-1.3-.3L871.3 120l-21.2 12.3-21.1 12.2c-6.9 4-13.9 8-20.9 12l-103.6 59.9c-6.9 4-13.8 8-20.7 12.1-7.9 4.6-14.5 8.5-20.7 12.3-8 4.8-14.6 8.9-20.7 12.8-7.6 4.8-14.3 9.3-20.6 13.8-7.5 5.3-14.2 10.5-20.7 15.9-7.1 5.9-14.1 12.3-20.9 19-6.6 6.6-13.5 13.9-20.9 22.3-6 6.8-12.1 14.1-18 21.1l-2.6 3.1c-6.9 8.3-13.7 16.3-20.4 23.6-6.5 7.2-13.3 14-20.6 20.4-6.3 5.6-13.3 10.4-20.7 14.4-6.5 3.5-13.4 6-20.6 7.7-6.7 1.5-13.5 2.3-20.4 2.5-5.5.2-11.1.2-16.5.2h-4.1c-6.5 0-13.6.1-20.8.6-7 .5-14 1.5-20.8 2.9-7.1 1.5-14 3.4-20.8 5.7-6.6 2.2-13.4 4.9-20.8 8.2-6.2 2.8-13 6.1-20.7 10-6.1 3.1-12.6 6.6-20.7 11-6 3.3-12.4 6.9-20.7 11.6-6.9 3.9-13.8 7.8-20.7 11.8L208 503.2c-6.9 4-13.8 8-20.7 11.9l-20.7 12-20.7 12-4.9 2.8c-5.2 3-10.5 6.1-15.8 9.1l-28 16.2c-4.5 2.6-8.9 5.2-13.4 7.7l-62.1 35.9-13 7.2-34.1 19.7c-5.1 2.9-10.1 5.8-15.1 8.8l-41.4 23.9c-6.4 3.7-12.9 7.4-19.3 11.2l-1.4.8c-6.9 4-13.8 8-20.8 12l-63.2 36.5c-6.8 3.9-13.6 7.9-20.4 11.8l-.2.1c-5.6 3.2-11.3 6.5-16.9 9.8-33.7 19.5-67.5 39-101.2 58.4-.4.3-.6.8-.3 1.3.2.3.5.5.8.5.2-.2.3-.2.5-.3zm0 33.8c43.5-25.1 87-50.2 130.5-75.4l22.8-13.1 14.7-8.5 13.5-7.8L-10.3 665l20.7-12 62.1-35.9c5-2.9 10.1-5.8 15.1-8.7l26.2-15.1 20.7-12 41.4-23.9 15-8.7 13.4-7.7c4.3-2.5 8.7-5 13-7.5 6.9-4 13.8-7.9 20.7-11.9 6.9-4 13.8-7.9 20.7-11.9 6.9-3.9 13.8-7.9 20.7-11.8 7.6-4.3 14.4-8 20.7-11.5 8-4.4 14.6-7.9 20.7-11 7.7-3.9 14.4-7.2 20.7-10 7.4-3.3 14.2-6.1 20.6-8.3 6.7-2.4 13.6-4.4 20.6-6.1 6.8-1.6 13.7-2.7 20.6-3.4 5.9-.6 12.3-1 20.7-1.2 2.4-.1 4.7-.1 7.1-.1 4.5-.1 9.1-.1 13.7-.4 7-.2 13.9-1 20.7-2.2 7.2-1.3 14.1-3.5 20.8-6.6 7.5-3.5 14.5-7.8 21-12.8 7.5-5.8 14.5-12.2 21-19 7.5-7.7 15-16.3 20.7-23 2.9-3.4 5.9-6.9 8.8-10.3 3.8-4.5 7.7-9.1 11.6-13.5 7.6-8.8 14.3-16.2 20.6-22.7 6.9-7.2 14-14 20.8-20.1 6.7-5.9 13.5-11.5 20.8-17 6.3-4.8 13.1-9.5 20.6-14.4 6.1-4 12.8-8.3 20.5-13 6.1-3.7 12.7-7.7 20.7-12.4 6.9-4.1 13.8-8.1 20.7-12.1l20.7-12 20.7-12 5.9-3.4c4.9-2.8 9.8-5.7 14.8-8.5l83-48c7-4.1 14-8.1 21-12.2l15.6-9 43.2-25 17.7-10.2c.4-.3.6-.8.3-1.3-.3-.4-.8-.6-1.3-.3L938 115.1l-43.2 25-15.6 9c-7 4.1-14 8.1-21 12.2l-83 48c-4.9 2.8-9.9 5.7-14.8 8.5l-5.9 3.4-20.7 12-20.7 12c-6.9 4-13.8 8.1-20.7 12.1-8 4.7-14.6 8.7-20.7 12.4-7.7 4.7-14.5 9-20.6 13.1-7.5 5-14.3 9.7-20.7 14.5-7.3 5.5-14.2 11.1-20.9 17.1-6.9 6.1-14 12.9-20.9 20.2-6.2 6.5-13 14-20.6 22.8-3.9 4.5-7.7 9-11.6 13.5-3 3.5-5.9 6.9-8.8 10.3-5.7 6.6-13.2 15.2-20.7 22.9-6.5 6.8-13.4 13.1-20.8 18.8-6.4 5-13.3 9.2-20.6 12.6-6.5 2.9-13.3 5.1-20.3 6.4-6.8 1.2-13.6 2-20.5 2.2-4.5.2-9.2.3-13.6.4-2.4 0-4.7.1-7.1.1-8.4.2-14.8.6-20.8 1.2-7 .7-14 1.9-20.8 3.5-7 1.6-14 3.7-20.8 6.1-6.5 2.3-13.3 5-20.8 8.4-6.2 2.8-13 6.1-20.7 10-6.1 3.1-12.7 6.6-20.7 11-6.3 3.5-13.1 7.2-20.7 11.5-6.9 3.9-13.8 7.8-20.7 11.8-6.9 3.9-13.8 7.9-20.7 11.9s-13.8 7.9-20.7 11.9c-4.3 2.5-8.7 5-13 7.5l-13.4 7.7-15 8.7-41.4 23.9-20.7 12-26.2 15.1c-5.1 2.9-10.1 5.8-15.1 8.8L9.6 651.5l-20.7 12-132.5 76.5-13.5 7.8-14.7 8.5-22.8 13.1c-43.5 25.1-87 50.2-130.5 75.4-.4.3-.6.8-.3 1.3.2.3.5.5.8.5l.3-.3zm0 33.8 7.6-4.4c50.7-29.3 101.5-58.6 152.2-87.9l37.5-21.6 21.2-12.3c7-4.1 14-8.1 21-12.2 7-4 13.9-8 20.9-12l22.1-12.8c6.4-3.7 12.9-7.4 19.3-11.2L19 681.9c5.1-3 10.2-5.9 15.4-8.9l129.5-74.8 20.7-12 20.7-11.9c6.9-4 13.8-8 20.7-11.9l23.9-13.7c5.8-3.3 11.7-6.7 17.5-10l20.7-11.7c7.6-4.3 14.4-8 20.7-11.4 7.7-4.1 14.5-7.7 20.7-10.8 7.5-3.8 14.3-7 20.7-9.8 7.4-3.2 14.1-5.9 20.6-8.2 6.8-2.4 13.6-4.4 20.6-6.1 6.8-1.6 13.7-2.9 20.6-3.7 6-.8 12.6-1.3 20.7-1.7 2.8-.1 5.6-.3 8.4-.4 4.1-.2 8.2-.3 12.3-.6 7-.4 13.9-1.1 20.8-2.4 7.1-1.3 14.1-3.4 20.8-6.2 7.3-3.1 14.3-7.1 20.8-11.7 7.4-5.4 14.4-11.3 20.9-17.7 6.1-6 12.8-13 20.9-22.2 4.6-5.2 9.3-10.7 13.9-15.9 2.3-2.6 4.6-5.3 6.8-7.9 8-9.3 14.5-16.5 20.4-22.8 7.1-7.5 14-14.4 20.5-20.5 6.7-6.2 13.7-12.2 20.8-17.8 6.5-5.1 13.3-10.1 20.8-15.2 6.1-4.2 12.8-8.6 20.6-13.4 6.2-3.9 13-8 20.5-12.5 6.9-4.1 13.8-8.1 20.7-12.2l20.7-12c6.6-3.8 13.1-7.6 19.6-11.4L873 188.8c5.2-3 10.3-6 15.5-8.9 7-4.1 14-8.1 21.1-12.2l21.2-12.3 25.9-14.9c.4-.3.6-.8.3-1.3-.3-.4-.8-.6-1.3-.3l-25.9 14.9-21.2 12.3-21.1 12.2c-5.2 3-10.3 6-15.5 8.9l-110 63.6c-6.5 3.8-13.1 7.6-19.6 11.4l-20.7 12c-6.9 4-13.8 8.1-20.7 12.2-7.6 4.5-14.3 8.6-20.6 12.5-7.8 4.8-14.5 9.2-20.6 13.5-7.5 5.1-14.3 10.1-20.9 15.3-7.1 5.6-14.2 11.6-20.9 17.9-6.6 6.1-13.5 13-20.6 20.6-5.9 6.3-12.4 13.5-20.4 22.8-2.3 2.6-4.6 5.3-6.9 7.9-4.5 5.3-9.2 10.7-13.8 15.9-8.1 9.2-14.8 16.2-20.8 22.1-6.4 6.4-13.3 12.2-20.7 17.5-6.4 4.6-13.2 8.4-20.4 11.5-6.6 2.8-13.4 4.8-20.4 6.1-6.8 1.2-13.7 2-20.6 2.4l-12.3.6c-2.8.1-5.6.2-8.4.4-8.1.4-14.7 1-20.8 1.7-7 .9-13.9 2.1-20.8 3.8-7 1.7-14 3.8-20.8 6.2-6.6 2.3-13.4 5-20.8 8.3-6.4 2.8-13.2 6.1-20.7 9.8-6.2 3.1-13 6.7-20.7 10.8-6.3 3.4-13.1 7.1-20.7 11.4-6.9 3.8-13.8 7.7-20.7 11.7-5.8 3.3-11.7 6.7-17.5 10L225 560.8c-6.9 4-13.8 8-20.7 11.9l-20.7 11.9-20.7 12-129.4 74.8c-5.1 3-10.3 5.9-15.4 8.9l-41.4 23.9c-6.4 3.7-12.9 7.4-19.3 11.2l-22.1 12.8c-7 4-13.9 8-20.9 12-7 4.1-14 8.1-21 12.2l-21.2 12.3-37.5 21.6c-50.7 29.3-101.5 58.6-152.2 87.9l-7.6 4.4c-.4.3-.6.8-.3 1.3.2.3.5.5.8.5-.1-.1.1-.1.3-.3zm0 33.9 247.9-143.1 21.1-12.2c5-2.9 9.9-5.8 14.9-8.6l26.7-15.4 20.7-12 41.4-23.9 20.7-12 26.6-15.4c4.9-2.8 9.9-5.7 14.8-8.6l82.8-47.8c6.9-4 13.8-7.9 20.7-11.9 6.9-4 13.8-7.9 20.7-11.9s13.8-7.9 20.7-11.9c6.9-3.9 13.8-7.9 20.7-11.7 8-4.5 14.5-8.2 20.7-11.6 7.5-4.2 14.3-7.8 20.7-11.1 7.9-4.1 14.4-7.5 20.7-10.5 7.4-3.6 14.1-6.6 20.7-9.4 7.1-3 14.1-5.6 20.6-7.8 7-2.3 13.9-4.3 20.6-5.9 6.6-1.5 13.5-2.8 20.6-3.8 6-.8 12.3-1.4 20.7-2.1l6.9-.5c4.5-.3 9.2-.7 13.8-1.1 7-.6 14-1.6 20.8-3 7.2-1.5 14.1-3.7 20.9-6.5 7.3-3.2 14.2-7 20.8-11.6 7.3-5.1 14.2-10.8 20.7-16.9 6.1-5.8 12.8-12.6 20.9-21.5 6-6.6 12-13.5 17.9-20.2l3-3.4c6.6-7.5 13.6-15.5 20.7-23.1 7-7.5 13.9-14.5 20.4-20.6 6.7-6.3 13.6-12.4 20.5-18 6.6-5.3 13.4-10.5 20.8-15.8 6.3-4.4 13.1-9 20.8-13.9 6.2-4 13-8.1 20.6-12.7 6.1-3.7 12.6-7.5 20.5-12.2 6.9-4 13.8-8.1 20.7-12.1l20.7-12L897 208.8c7-4 13.9-8 20.9-12 7-4.1 14-8.1 21-12.2 5.5-3.1 10.9-6.3 16.3-9.4l1.5-.8c.4-.3.6-.8.4-1.3-.3-.4-.8-.6-1.3-.4l-1.5.8c-5.5 3.2-10.9 6.3-16.3 9.4-7 4.1-14 8.1-21 12.2-7 4-13.9 8-20.9 12L771.7 279 751 291c-6.9 4-13.8 8-20.7 12.1-7.9 4.6-14.4 8.5-20.6 12.2-7.6 4.6-14.4 8.8-20.6 12.7-7.8 4.9-14.6 9.5-20.9 14-7.5 5.3-14.3 10.5-20.9 15.8-7 5.7-13.9 11.8-20.6 18.1-6.5 6.2-13.4 13.2-20.4 20.7-7.1 7.6-14.1 15.6-20.7 23.1l-3 3.4c-5.9 6.7-11.9 13.7-17.9 20.2-8 8.9-14.6 15.6-20.7 21.4-6.4 6.1-13.2 11.7-20.4 16.7-6.4 4.5-13.3 8.3-20.4 11.4-6.6 2.8-13.5 4.9-20.5 6.4-6.8 1.4-13.7 2.4-20.6 3-4.6.4-9.3.8-13.8 1.1-2.3.2-4.6.3-6.9.5-8.3.6-14.8 1.3-20.8 2.1-7.2 1-14.2 2.3-20.8 3.8-6.7 1.6-13.7 3.5-20.8 5.9-6.6 2.2-13.6 4.8-20.8 7.9-6.6 2.8-13.3 5.8-20.7 9.4-6.3 3-12.8 6.3-20.7 10.5-6.4 3.3-13.1 7-20.7 11.2-6.2 3.4-12.7 7.1-20.7 11.6l-20.7 11.7c-6.9 3.9-13.8 7.9-20.7 11.9-6.9 4-13.8 7.9-20.7 11.9-6.9 4-13.8 7.9-20.7 11.9l-82.8 47.8c-4.9 2.9-9.9 5.7-14.8 8.6l-26.6 15.4-20.7 12L6 721.1l-20.7 12-26.7 15.4c-5 2.9-9.9 5.8-14.9 8.6-7 4.1-14 8.1-21.1 12.2l-247.9 143.1c-.4.3-.6.8-.3 1.3.2.3.5.5.8.5.2-.1.3-.2.5-.2zm0 33.8c72-41.6 143.9-83.1 215.9-124.7l40.1-23.1 21.2-12.3c7-4.1 14-8.1 21-12.2 7-4 13.9-8 20.9-12l82.9-47.8c4.8-2.8 9.7-5.6 14.5-8.4l26.9-15.5 20.7-12c5.1-3 10.2-5.9 15.4-8.9l67.4-38.8c6.9-4 13.8-7.9 20.7-11.9 6.9-3.9 13.8-7.9 20.7-11.8 6.9-3.9 13.8-7.8 20.7-11.6 7.5-4.1 14.2-7.8 20.7-11.3 7.4-4 14.2-7.5 20.7-10.8 7.3-3.7 14.1-6.9 20.7-10 7.3-3.3 14-6.2 20.6-8.7 7-2.7 14-5.1 20.6-7.2 6.7-2 13.7-3.8 20.6-5.3 6.6-1.4 13.3-2.6 20.6-3.6 6.6-.9 13.3-1.6 20.7-2.4l1.7-.2c6.2-.7 12.7-1.3 19-2.2 7-.9 14-2.3 20.8-4 7.2-1.9 14.2-4.4 20.9-7.5 7.3-3.4 14.3-7.4 20.8-12.1 7.3-5.2 14.2-10.8 20.7-16.9 6.3-5.8 13-12.6 20.6-20.8 6.3-6.8 12.7-14 18.8-20.9l2-2.2c6.7-7.5 13.8-15.5 20.9-23 7.4-7.9 14.2-14.8 20.7-20.9 6.5-6.2 13.4-12.3 20.3-18.1 6.6-5.4 13.3-10.6 20.5-15.8 6.4-4.6 13.2-9.2 20.8-14.2 6.5-4.2 13.3-8.5 20.8-13 7.2-4.4 14.5-8.7 20.6-12.3 6.8-4 13.7-8 20.6-12l20.7-12 20.7-12 20.7-12 109.3-63.1c5.1-2.9 10.2-5.9 15.2-8.8 3-1.7 6.1-3.5 9.1-5.2l.5-.3c.4-.3.6-.8.3-1.3-.3-.4-.8-.6-1.3-.3l-.5.3c-3 1.8-6 3.5-9.1 5.2-5.1 2.9-10.1 5.9-15.2 8.8l-109.2 63.1-20.7 12-20.7 12-20.7 12c-6.9 4-13.8 8-20.6 12-6.1 3.6-13.4 7.9-20.6 12.3-7.5 4.6-14.3 8.8-20.9 13-7.6 4.9-14.5 9.6-20.9 14.2-7.3 5.2-14 10.4-20.6 15.9-7 5.8-13.9 11.9-20.5 18.2-6.5 6.2-13.3 13.1-20.7 21-7.1 7.5-14.2 15.5-20.9 23.1l-2 2.2c-6.1 6.9-12.5 14-18.8 20.9-7.6 8.2-14.3 14.9-20.5 20.7-6.5 6-13.3 11.7-20.5 16.8-6.5 4.6-13.4 8.6-20.6 11.9-6.6 3.1-13.5 5.5-20.6 7.3-6.8 1.7-13.7 3.1-20.6 4-6.3.9-12.7 1.5-19 2.2l-1.7.2c-7.4.8-14.1 1.5-20.7 2.4-7.4 1-14.1 2.2-20.8 3.6-7 1.5-14 3.3-20.8 5.4-6.7 2-13.7 4.5-20.8 7.2-6.6 2.6-13.4 5.5-20.7 8.8-6.6 3-13.4 6.3-20.7 10-6.5 3.3-13.3 6.9-20.7 10.8-6.5 3.5-13.2 7.2-20.7 11.3-6.9 3.8-13.8 7.7-20.7 11.6-6.9 3.9-13.8 7.8-20.7 11.8-6.9 3.9-13.8 7.9-20.7 11.9l-67.4 38.8c-5.1 3-10.3 5.9-15.4 8.9l-20.7 12-26.9 15.5c-4.8 2.8-9.7 5.6-14.5 8.4L-6.2 762c-7 4-13.9 8-20.9 12-7 4.1-14 8.1-21 12.2l-21.3 12.3-40.1 23.1c-72 41.6-143.9 83.1-215.9 124.7-.4.3-.6.8-.3 1.3.2.3.5.5.8.5l.6-.3zm0 33.9 157.9-91.2L-39.1 817l21.2-12.3 21.1-12.2c4.9-2.8 9.7-5.6 14.6-8.4L91 741.9c5.3-3.1 10.7-6.2 16-9.2l20.7-12L174 694c5.2-3 10.5-6.1 15.8-9.1l25.7-14.7c5.2-3 10.5-6 15.7-9l2.5-1.4c6.1-3.5 12.2-6.9 18.2-10.3 6.9-3.9 13.8-7.8 20.7-11.6 7.5-4.1 14.2-7.8 20.7-11.3 7-3.8 13.9-7.5 20.7-10.9 7.6-3.9 14.3-7.2 20.7-10.2 7.3-3.5 14-6.5 20.7-9.3 7.2-3 14.1-5.7 20.6-7.9 6.9-2.4 13.9-4.5 20.6-6.3 6.6-1.8 13.5-3.3 20.6-4.7 6-1.1 12.4-2.2 20.7-3.3 3.6-.5 7.3-1 10.9-1.5 3.3-.4 6.5-.9 9.8-1.3 6.1-.9 13.4-1.9 20.7-3.4 7.1-1.4 14-3.2 20.8-5.5 7.2-2.4 14.2-5.4 20.9-9 7.3-3.9 14.2-8.3 20.8-13.3 7.3-5.5 14.2-11.3 20.8-17.5 6.1-5.8 12.7-12.3 20.7-20.7 6-6.3 12-12.9 17.7-19.3l2.8-3.1c6.7-7.3 13.8-15.1 20.8-22.4 7.3-7.7 14.1-14.5 20.8-20.8 6.8-6.4 13.8-12.5 20.6-18.2 6.5-5.4 13.4-10.6 20.4-15.7 6.3-4.5 13-9.1 20.5-14 6.3-4.1 13.1-8.4 20.9-13.1 6.6-4 13.4-8.1 20.8-12.5 6.8-4 13.7-8 20.6-12.1 5.9-3.4 11.9-6.9 17.9-10.4l2.7-1.5c6.8-3.9 13.7-7.9 20.5-11.8l21-12.1 20.7-12L955.6 243c.4-.2.8-.4 1.1-.7.5-.3.6-.8.4-1.3-.3-.5-.8-.6-1.3-.4-.4.2-.7.4-1.1.6L851 300.9l-20.7 12-21 12.1c-6.9 4-13.7 7.9-20.5 11.8l-2.7 1.5c-6 3.5-12 6.9-17.9 10.4-7 4.1-13.9 8.1-20.6 12.1-7.5 4.4-14.3 8.5-20.9 12.5-7.8 4.7-14.6 9.1-20.9 13.1-7.6 4.9-14.3 9.6-20.6 14.1-7 5.1-13.9 10.3-20.4 15.7-6.9 5.7-13.9 11.8-20.7 18.3-6.7 6.4-13.6 13.2-20.9 20.9-7 7.3-14.1 15.1-20.8 22.5l-2.8 3.1c-5.8 6.3-11.7 12.9-17.7 19.2-7.9 8.4-14.5 15-20.6 20.7-6.6 6.2-13.4 12-20.6 17.4-6.5 4.9-13.4 9.3-20.6 13.1-6.6 3.5-13.5 6.5-20.6 8.9-6.7 2.3-13.6 4.1-20.6 5.5-7.3 1.5-14.5 2.6-20.6 3.4-3.3.4-6.5.9-9.8 1.3-3.6.5-7.3 1-10.9 1.5-8.3 1.2-14.7 2.2-20.7 3.4-7.2 1.3-14.1 2.9-20.7 4.7-6.8 1.8-13.8 3.9-20.8 6.3-6.6 2.3-13.5 4.9-20.7 8-6.6 2.8-13.4 5.8-20.7 9.3-6.3 3-13.1 6.4-20.7 10.3-6.8 3.5-13.7 7.2-20.7 10.9-6.5 3.5-13.2 7.2-20.7 11.4-6.9 3.8-13.8 7.7-20.7 11.6-6.1 3.4-12.2 6.9-18.2 10.3l-2.5 1.4c-5.2 3-10.5 6-15.7 9l-25.7 14.7c-5.3 3-10.5 6.1-15.8 9.1L127 719.1l-20.7 12c-5.3 3.1-10.7 6.2-16 9.2l-73.2 42.2c-4.9 2.8-9.7 5.6-14.6 8.4-7 4.1-14 8.1-21.1 12.2L-40 815.4l-127.4 73.5-157.9 91.1c-.4.3-.6.8-.3 1.3.2.3.5.5.8.5.1 0 .3-.1.5-.1zm0 33.8c85.4-49.3 170.8-98.6 256.1-147.9l38-21.9c6.8-3.9 13.6-7.8 20.4-11.8l6.4-3.7c5-2.9 9.9-5.7 14.9-8.6 7-4.1 14-8.1 21-12.2l41.6-24 20.7-12 20.7-12c6.9-4 13.8-8 20.7-11.9 6.9-4 13.8-8 20.7-11.9l20.7-11.9c6.9-4 13.8-7.9 20.7-11.9 6.9-3.9 13.8-7.9 20.7-11.8l20.7-11.7c6.9-3.9 13.8-7.7 20.7-11.5 7.1-3.9 14-7.7 20.7-11.3 7.3-3.9 14-7.5 20.7-10.8 7.4-3.8 14.1-7.1 20.7-10.3 7.5-3.6 14.3-6.7 20.7-9.4 7.2-3.1 14.1-5.9 20.7-8.3 7-2.6 13.9-4.9 20.6-7 6.8-2.1 13.8-3.9 20.7-5.5 6.4-1.5 13.1-2.9 20.6-4.2 6.5-1.2 13.1-2.2 19.4-3.2l1.4-.2c6.7-1.1 13.7-2.2 20.6-3.5 7.7-1.5 14.5-3 20.8-4.8 7.1-2 14.1-4.5 20.8-7.4 7.2-3.1 14.2-6.8 20.8-11 7.2-4.5 14.2-9.5 20.8-14.9 6.6-5.3 13.4-11.4 20.8-18.5 6.1-5.9 12.7-12.5 20.7-21 5.1-5.3 10.1-10.7 15.1-16.1l5.5-5.9c5.7-6.1 13.1-14 20.5-21.4 7.3-7.4 14-13.9 20.8-20.1 7-6.4 13.8-12.2 20.8-17.9 6.6-5.3 13.4-10.5 20.6-15.7 6.3-4.5 13-9.1 20.4-13.8 6.4-4.1 13.1-8.3 20.6-12.9 6.4-3.9 13.2-8 20.9-12.5 6.9-4.1 13.8-8.1 20.8-12.2 6.8-3.9 13.6-7.9 20.6-12l4.5-2.6c5.3-3.1 10.7-6.2 16-9.3l20.7-12 20.7-12 96.1-55.5c.4-.3.6-.8.4-1.3-.3-.4-.8-.6-1.3-.4l-96.1 55.5-20.7 12-20.7 12c-5.4 3.1-10.7 6.2-16.1 9.3l-4.5 2.6c-7 4-13.8 8-20.6 12-7 4.1-14 8.2-20.9 12.2-7.6 4.5-14.5 8.6-20.9 12.5-7.5 4.6-14.2 8.8-20.6 12.9-7.4 4.8-14.1 9.3-20.4 13.9-7.3 5.2-14.1 10.4-20.7 15.7-7.1 5.7-13.9 11.6-20.9 18-6.7 6.2-13.5 12.8-20.8 20.1-7.4 7.5-14.9 15.4-20.6 21.5l-5.5 5.9c-5 5.3-10 10.7-15.1 16-8 8.4-14.6 15-20.7 20.9-7.4 7.1-14.1 13.1-20.7 18.4-6.6 5.3-13.5 10.3-20.6 14.8-6.6 4.1-13.5 7.7-20.6 10.8-6.7 2.9-13.6 5.4-20.6 7.3-6.2 1.8-13 3.3-20.6 4.8-6.8 1.3-13.8 2.4-20.7 3.5l-1.3.2c-6.4 1-13 2-19.5 3.2-7.6 1.3-14.3 2.7-20.7 4.2-6.9 1.6-13.9 3.5-20.8 5.5-6.7 2.1-13.7 4.4-20.7 7-6.6 2.4-13.6 5.3-20.7 8.4-6.4 2.8-13.2 5.8-20.7 9.5-6.5 3.1-13.3 6.5-20.7 10.3-6.7 3.4-13.4 7-20.7 10.9-6.6 3.5-13.6 7.3-20.7 11.3-6.9 3.8-13.8 7.7-20.7 11.5l-20.7 11.7c-6.9 3.9-13.8 7.9-20.7 11.8-6.9 4-13.8 7.9-20.7 11.9L155.9 736c-6.9 4-13.8 8-20.7 11.9-6.9 4-13.8 8-20.7 11.9l-20.7 12-20.7 12-41.6 24c-7 4.1-14 8.1-21 12.2-5 2.9-9.9 5.7-14.9 8.6l-6.4 3.7c-6.8 3.9-13.6 7.8-20.4 11.8l-38 22c-85.4 49.3-170.8 98.6-256.1 147.9-.4.3-.6.8-.3 1.3.2.3.5.5.8.5.1-.2.3-.3.5-.3zm0 33.8c85.7-49.5 171.5-98.9 257.2-148.4l54-31.2c4.1-2.4 8.2-4.7 12.3-7.1l41.6-24L60 827.5l112.8-64.9c4.5-2.6 9-5.1 13.5-7.7 6.9-3.9 13.8-7.9 20.7-11.7 6.9-3.9 13.8-7.8 20.7-11.6s13.8-7.7 20.7-11.4c7.1-3.8 14-7.6 20.7-11.1 6.9-3.6 13.8-7.2 20.7-10.7 7.5-3.7 14.2-7 20.7-10.1 7-3.3 14-6.4 20.7-9.3 7.4-3.1 14.1-5.8 20.7-8.3 6.8-2.6 13.8-5 20.7-7.2 6.7-2.1 13.6-4.2 20.6-6 6.6-1.7 13.4-3.3 20.7-4.9 7.2-1.6 14.5-3 20.7-4.2l4.4-.8c5.5-1 10.9-2.1 16.3-3.2 8.1-1.7 14.7-3.2 20.7-4.9 7-1.9 14-4.2 20.8-6.8 7.1-2.8 14.1-6 20.8-9.7 7.2-4 14.1-8.4 20.8-13.2 6.7-4.8 13.7-10.4 20.8-16.6 6.4-5.6 13.2-12 20.8-19.5 7.3-7.2 14.6-14.7 20.7-21.1l6.9-7.2c4.6-4.8 9.2-9.6 13.8-14.3 7.6-7.8 14.3-14.5 20.6-20.5 7.2-7 14-13.1 20.5-18.9 6.8-6 13.8-11.7 20.8-17.1 6.6-5.1 13.4-10.1 20.8-15.4 6.4-4.5 13.2-9 20.7-13.8 6.2-4 12.8-8.1 20.4-12.7 6.1-3.7 12.6-7.6 20.6-12.3 7-4.1 13.9-8.2 20.9-12.2 6.9-4 13.8-8 20.8-12.1l63.4-36.6 19.2-11.1 20.7-12 20.7-12 20.7-12c1.6-.9 3.1-1.8 4.7-2.7.4-.3.6-.8.3-1.3-.3-.4-.8-.6-1.3-.4-1.6.9-3.1 1.8-4.7 2.7l-20.7 12-20.7 12-20.7 12-19.2 11.1-63.4 36.6c-7 4.1-13.9 8.1-20.8 12.1-7 4.1-13.9 8.1-20.9 12.2-8 4.7-14.5 8.6-20.6 12.3-7.6 4.6-14.2 8.8-20.4 12.7-7.5 4.8-14.3 9.4-20.7 13.8-7.5 5.2-14.3 10.3-20.9 15.4-7 5.4-14 11.2-20.8 17.2-6.6 5.8-13.3 11.9-20.6 18.9-6.3 6.1-13.1 12.8-20.6 20.6-4.6 4.7-9.2 9.5-13.8 14.3l-6.9 7.2c-6.2 6.4-13.4 13.9-20.7 21.1-7.5 7.5-14.3 13.8-20.7 19.4-7.1 6.2-14 11.7-20.6 16.5-6.6 4.8-13.5 9.1-20.6 13.1-6.6 3.6-13.5 6.8-20.6 9.6-6.8 2.6-13.6 4.8-20.6 6.7-6 1.6-12.6 3.2-20.6 4.8-5.4 1.1-10.9 2.1-16.3 3.2l-4.4.8c-6.2 1.2-13.5 2.6-20.7 4.2-7.3 1.6-14.1 3.2-20.7 4.9-7.1 1.9-14 3.9-20.7 6-6.9 2.2-13.9 4.6-20.7 7.2-6.6 2.5-13.3 5.2-20.7 8.3-6.7 2.9-13.7 6-20.7 9.3-6.5 3-13.2 6.3-20.7 10.1-6.9 3.5-13.8 7.1-20.7 10.7-6.7 3.5-13.6 7.3-20.7 11.1l-20.7 11.4c-6.9 3.8-13.8 7.7-20.7 11.6L186 752.8c-4.5 2.6-9 5.1-13.5 7.7L59.1 825.9 39.9 837l-41.6 24c-4.1 2.4-8.2 4.7-12.3 7.1l-54 31.2c-85.7 49.5-171.5 99-257.2 148.5-.4.3-.6.8-.3 1.3.2.3.5.5.8.5.1-.2.3-.2.4-.3zm26.8 18c86.6-49.7 174.7-100.5 259.8-149.6l49-28.3 100.7-58c5.2-3 10.4-6 15.6-8.9l5.2-3c6.9-3.9 13.8-7.9 20.7-11.8l3.9-2.2c5.6-3.2 11.2-6.3 16.8-9.5 6.9-3.9 13.8-7.8 20.7-11.6 6.9-3.8 13.8-7.7 20.7-11.5 6.9-3.8 13.8-7.5 20.7-11.2 8-4.3 14.6-7.8 20.7-10.9 7-3.6 14-7.1 20.7-10.4 7-3.4 14-6.7 20.7-9.8 6.9-3.2 13.9-6.2 20.7-9 6.9-2.8 13.8-5.6 20.7-8.1 6.8-2.5 13.7-4.9 20.7-7.1 6.6-2.1 13.6-4.1 20.7-6.1 6.7-1.8 13.6-3.6 20.7-5.3 6.8-1.6 13.5-3.2 20.3-4.7l.4-.1c7-1.6 13.8-3.1 20.7-4.8 7.9-1.9 14.5-3.6 20.7-5.5 7.5-2.2 14.3-4.5 20.8-7 14.6-5.6 28.6-12.8 41.6-21.5 6.7-4.5 13.7-9.7 20.8-15.4 6.4-5.2 13.2-11.2 20.8-18.2 7.6-7.1 15.1-14.6 20.7-20.2 4.9-4.9 9.7-9.9 14.6-14.8l6.1-6.3c6.1-6.2 13.3-13.6 20.7-20.8 7.3-7.2 14-13.6 20.7-19.6 6.9-6.2 13.8-12.2 20.6-17.8 6.6-5.4 13.5-10.8 20.5-16 6.6-4.9 13.4-9.7 20.8-14.7 6.5-4.4 13.4-8.9 20.9-13.6 6.1-3.8 12.7-7.9 20.7-12.7 6.8-4.1 13.6-8.1 20.4-12.1 6.9-4 13.8-8 20.6-12 7-4.1 13.9-8.1 20.9-12.1 6.9-4 13.8-8 20.9-12 6.8-3.9 13.6-7.9 20.6-11.9l41.3-23.8 20.7-12 37.5-21.6c.4-.3.6-.8.3-1.3-.3-.4-.8-.6-1.3-.3l-37.5 21.6-20.7 12-41.3 23.8c-7 4-13.8 8-20.6 11.9-7 4.1-14 8.1-20.9 12-7 4-13.9 8.1-20.9 12.1-6.9 4-13.7 8-20.6 12-6.8 4-13.6 8-20.4 12.1-8 4.8-14.6 8.9-20.7 12.7-7.5 4.7-14.4 9.2-20.9 13.6-7.4 5-14.2 9.8-20.8 14.7-7 5.2-14 10.6-20.6 16.1-6.8 5.6-13.8 11.6-20.7 17.9-6.6 6-13.4 12.5-20.7 19.6-7.4 7.3-14.6 14.6-20.7 20.8l-6.1 6.3c-4.9 5-9.7 9.9-14.6 14.8-5.6 5.7-13.1 13.1-20.7 20.2-7.5 7-14.2 13-20.7 18.2-7 5.7-13.9 10.9-20.6 15.3-6.6 4.4-13.5 8.5-20.6 12.1-6.7 3.4-13.6 6.5-20.6 9.2-6.4 2.5-13.2 4.7-20.6 6.9-6.3 1.8-12.8 3.6-20.7 5.5-6.9 1.7-13.7 3.2-20.7 4.8l-.4.1c-6.8 1.5-13.5 3.1-20.3 4.7-7 1.7-14 3.5-20.7 5.3-7.1 1.9-14.1 4-20.7 6.1-7 2.2-14 4.6-20.7 7.1-6.9 2.5-13.8 5.2-20.7 8.1-6.8 2.8-13.8 5.9-20.7 9-6.7 3.1-13.7 6.4-20.7 9.8-6.7 3.3-13.7 6.8-20.7 10.4-6.1 3.1-12.7 6.6-20.7 10.9-6.9 3.7-13.8 7.4-20.7 11.2s-13.8 7.6-20.7 11.5c-6.9 3.8-13.8 7.7-20.7 11.6-5.6 3.2-11.2 6.3-16.8 9.5l-3.9 2.2c-6.9 3.9-13.8 7.9-20.7 11.8l-5.2 3c-5.2 3-10.4 5.9-15.6 8.9L-38.6 916c-85.2 49.1-173.2 99.9-259.8 149.6-.4.3-.6.8-.3 1.3.2.3.5.5.8.5.1 0 .3 0 .4-.1zm56.4 0c84.5-47.6 170.4-96.9 253.5-144.7l45.4-26c4.7-2.7 9.5-5.5 14.3-8.2l6.1-3.5c7.1-4.1 14.2-8.1 21.2-12.1 6.8-3.8 13.5-7.7 20.3-11.5l.8-.4c6.9-3.9 13.9-7.8 20.9-11.8 6.9-3.9 13.8-7.8 20.7-11.6l20.7-11.4c6.9-3.8 13.8-7.5 20.7-11.2 7.1-3.8 14-7.5 20.7-10.9 7.4-3.8 14.1-7.2 20.7-10.5 7.6-3.8 14.3-7 20.7-10 7-3.3 13.9-6.5 20.7-9.4 7.3-3.2 14.1-6 20.7-8.7 7-2.8 14-5.4 20.7-7.8s13.7-4.7 20.7-6.9c6.6-2.1 13.3-4.1 20.7-6.1 6-1.7 12.5-3.4 20.7-5.5 3.3-.9 6.7-1.7 10-2.5 3.5-.9 7.1-1.8 10.7-2.7 8.1-2.1 14.7-3.8 20.7-5.5 7.8-2.2 14.5-4.2 20.7-6.3 7.4-2.5 14.2-5 20.8-7.8 7-2.9 14-6.2 20.8-9.7 6.9-3.6 14-7.8 20.8-12.2 6.8-4.4 13.8-9.4 20.7-14.8 6.7-5.2 13.5-10.9 20.7-17.3 6.4-5.7 13.2-12 20.7-19.3 6.7-6.5 13.3-13.1 20.7-20.5l1.7-1.7 19-19c7.9-7.8 14.5-14.1 20.7-19.9 7.1-6.6 14.1-12.8 20.7-18.5 6.7-5.7 13.7-11.4 20.7-16.8 6.6-5.1 13.6-10.2 20.6-15.2 6.5-4.6 13.2-9.2 20.5-13.9 6.3-4.1 13.1-8.4 20.8-13.1 6.1-3.8 12.8-7.8 20.9-12.6 6.9-4.1 13.7-8.1 20.7-12.2 6.8-4 13.6-7.9 20.4-11.9 6.9-4 13.7-8 20.6-11.9 6-3.5 12-6.9 18-10.4l2.9-1.7c6.9-4 13.8-8 20.8-12 6.8-3.9 13.7-7.9 20.6-11.9 4.5-2.6 9-5.2 13.6-7.8l29.3-16.9 19.2-11.1 8.2-4.7c.4-.3.6-.8.3-1.3-.3-.4-.8-.6-1.3-.3l-8.2 4.7-19.2 11.1-29.3 16.9c-4.5 2.6-9.1 5.2-13.6 7.8-7 4-13.8 8-20.6 11.9-7 4.1-13.9 8.1-20.8 12l-2.9 1.7c-6 3.5-12 6.9-18 10.4-6.8 4-13.7 7.9-20.6 11.9-6.8 3.9-13.6 7.9-20.4 11.9-6.9 4.1-13.8 8.1-20.7 12.2-8.1 4.8-14.7 8.9-20.9 12.6-7.7 4.7-14.5 9-20.8 13.2-7.3 4.8-14 9.3-20.6 13.9-7 4.9-14 10.1-20.7 15.2-7 5.4-14 11.1-20.7 16.8-6.6 5.7-13.6 11.9-20.7 18.5-6.2 5.8-12.8 12.1-20.7 19.9-6.3 6.2-12.7 12.6-19 19l-1.7 1.7c-7.4 7.4-14 14-20.7 20.5-7.5 7.3-14.3 13.6-20.7 19.3-7.2 6.4-14 12.1-20.7 17.2-6.9 5.3-13.8 10.3-20.6 14.7-6.8 4.4-13.7 8.5-20.6 12.1-6.7 3.5-13.6 6.8-20.6 9.7-6.5 2.7-13.3 5.2-20.6 7.7-6.2 2.1-12.9 4.1-20.6 6.3-6 1.7-12.6 3.4-20.7 5.5-3.5.9-7.1 1.8-10.7 2.7-3.3.8-6.7 1.7-10 2.5-8.1 2.1-14.7 3.8-20.7 5.5-7.4 2-14.1 4-20.7 6.1-7 2.2-14 4.5-20.7 6.9-6.7 2.4-13.7 5-20.7 7.8-6.6 2.6-13.4 5.5-20.7 8.7-6.8 3-13.7 6.1-20.7 9.5-6.3 3-13.1 6.3-20.7 10.1-6.6 3.3-13.4 6.7-20.7 10.5-6.7 3.5-13.7 7.1-20.7 10.9-6.9 3.7-13.8 7.4-20.7 11.2l-20.7 11.4c-6.9 3.8-13.8 7.7-20.8 11.6-7 3.9-13.9 7.8-20.9 11.8l-.8.4c-6.8 3.8-13.5 7.7-20.3 11.5-7.1 4-14.2 8.1-21.2 12.1l-6.1 3.5c-4.8 2.7-9.5 5.5-14.3 8.2l-45.4 26c-83.1 47.7-169 97-253.5 144.6-.4.2-.6.8-.4 1.3.2.3.5.5.8.5-.2.1 0 0 .1 0zM-324.3 271l22.8-13.2 12.8-7.4 7.9-4.5 20.7-12 82.8-47.8c6.9-4 13.8-8 20.7-11.9 6.9-4 13.8-8 20.7-11.9 6.9-4 13.8-7.9 20.7-11.8 8.1-4.6 14.7-8.2 20.7-11.4 7.9-4.2 14.5-7.6 20.7-10.5 7.6-3.6 14.3-6.4 20.6-8.7 6.7-2.4 13.5-4.3 20.5-5.6 6.7-1.2 13.6-1.9 20.4-1.9 7.2-.1 14.4.5 20.7.9h.4c6.9.7 13.7.9 20.6.8 7.1-.2 14.2-1.5 21-3.8 7.4-2.7 14.4-6.5 20.7-11.3 7.5-5.7 14.4-12.1 20.7-19.1 7.1-7.7 14.2-16.3 20.9-24.5l3.3-4.1c5.7-7 11.6-14.2 17.5-21.1 7.3-8.5 14.1-15.8 20.6-22.3 6.6-6.5 13.4-12.8 20.5-18.6 6.4-5.3 13.2-10.4 20.6-15.6 6.2-4.3 12.8-8.6 20.7-13.6 6-3.8 12.6-7.8 20.7-12.6 6.9-4.1 13.8-8.1 20.7-12.2l20.7-12 20.7-12 20.7-12c4.3-2.5 8.6-4.9 12.8-7.4l7.9-4.6c7-4 13.9-8 20.9-12l67.5-39c4.1-2.4 8.2-4.7 12.3-7.1l74.5-43c.4-.3.6-.8.3-1.3-.3-.4-.8-.6-1.3-.3l-74.4 43c-4.1 2.4-8.2 4.8-12.3 7.1l-67.5 39c-7 4-13.9 8-20.9 12l-7.9 4.6c-4.3 2.5-8.6 4.9-12.8 7.4l-20.7 12-20.7 12-20.7 12c-6.9 4-13.8 8.1-20.7 12.2-8.1 4.8-14.7 8.9-20.7 12.6-8 5-14.6 9.4-20.8 13.7-7.5 5.2-14.3 10.4-20.8 15.7-7.1 5.9-14 12.2-20.6 18.7-6.5 6.5-13.3 13.9-20.7 22.4-5.9 6.9-11.8 14.1-17.5 21.1l-3.3 4.1c-6.7 8.2-13.8 16.8-20.8 24.4-6.2 6.9-13.1 13.2-20.5 18.9-6.1 4.7-12.9 8.4-20.2 11-6.6 2.2-13.5 3.5-20.4 3.7-6.8.1-13.6-.1-20.4-.7h-.5c-6.4-.5-13.6-1-20.9-1-6.9.1-13.9.7-20.7 2-7.1 1.4-14 3.3-20.7 5.7-7.1 2.6-14 5.5-20.8 8.7-6.3 3-12.8 6.3-20.8 10.6-6 3.2-12.6 6.9-20.7 11.4-6.9 3.9-13.8 7.8-20.7 11.8-6.9 4-13.8 7.9-20.7 11.9-6.9 4-13.8 7.9-20.7 11.9l-82.8 47.8-20.7 12-7.9 4.5-12.8 7.4-22.8 13.2c-.4.3-.6.8-.3 1.3.2.3.5.5.8.5.1 0 .2-.1.4-.2zm0 33.9 31.4-18.2 20.7-12 103.5-59.7c5.1-3 10.2-5.9 15.4-8.9l5.3-3.1 20.7-12c6.9-4 13.8-7.9 20.7-11.9 6.9-4 13.8-7.9 20.7-11.8 7.7-4.3 14.5-8.1 20.7-11.4 7.9-4.3 14.5-7.6 20.7-10.6 7.5-3.6 14.3-6.4 20.6-8.7 6.7-2.4 13.5-4.4 20.5-5.7 6.7-1.3 13.6-2 20.4-2.1 6.9-.1 13.4.3 20.7.9l1 .1c6.5.5 13.2 1 19.9.8 7.1-.1 14.2-1.3 21-3.4 7.4-2.5 14.4-6.2 20.7-10.9 7.5-5.6 14.4-11.9 20.7-18.8 6.6-7 13.1-14.8 20.9-24.3l5.1-6.3c5.1-6.3 10.4-12.8 15.7-19 7.3-8.6 14-16 20.6-22.6 6.6-6.6 13.5-13 20.5-18.9 6.4-5.3 13.1-10.5 20.6-15.8 6.2-4.4 13-8.9 20.7-13.7 6-3.8 12.6-7.8 20.7-12.7 6.9-4.1 13.8-8.2 20.7-12.2 5.6-3.2 11.2-6.5 16.7-9.7l53.3-30.8c4.3-2.5 8.6-4.9 12.8-7.4 5.2-3 10.3-6 15.5-8.9l53.3-30.8 14.7-8.5 17.1-9.9c34.6-20 69.2-39.9 103.8-59.9.4-.3.6-.8.3-1.3-.3-.4-.8-.6-1.3-.3-34.6 20-69.2 39.9-103.8 59.9l-17.1 9.9-14.7 8.5-53.3 30.8c-5.2 3-10.3 6-15.5 8.9-4.3 2.5-8.6 4.9-12.8 7.4l-53.3 30.8c-5.6 3.2-11.1 6.5-16.7 9.7-6.9 4-13.8 8.1-20.7 12.2-8.1 4.8-14.7 8.9-20.7 12.7-7.8 4.9-14.5 9.4-20.8 13.8C215.7-5.6 209-.4 202.6 5c-7.1 5.9-14 12.3-20.6 19-6.6 6.6-13.3 14-20.7 22.7-5.3 6.2-10.6 12.7-15.7 19l-5.1 6.3c-7.8 9.5-14.3 17.2-20.8 24.2-6.2 6.8-13.1 13-20.4 18.5-6.1 4.5-12.9 8.1-20.2 10.6-6.6 2.1-13.5 3.2-20.4 3.3-6.6.1-13.2-.2-19.7-.8l-1-.1c-7.1-.5-14-1-20.9-.9-7 .1-13.9.8-20.7 2.1-7.1 1.4-14 3.3-20.7 5.8-6.4 2.3-13.2 5.2-20.8 8.8-6.2 3-12.8 6.3-20.8 10.6-6.3 3.4-13.1 7.1-20.7 11.5-6.9 3.9-13.8 7.8-20.7 11.8-6.9 4-13.8 7.9-20.7 11.9-6.9 4-13.8 8-20.7 11.9l-5.3 3.1c-5.1 3-10.3 5.9-15.4 8.9l-103.5 59.7-20.7 12-31.4 18.2c-.4.3-.6.8-.3 1.3.2.3.5.5.8.5-.1.1.1.1.2 0zm0 33.8 19.4-11.2 15-8.7 32.6-18.8c4.8-2.8 9.7-5.6 14.5-8.4l20.7-12 20.7-12 62.1-35.9 20.7-12c5-2.9 10-5.8 15.1-8.7l26.3-15.2c6.9-4 13.8-7.9 20.7-11.8 5.7-3.2 13.2-7.4 20.7-11.5 8-4.3 14.5-7.7 20.7-10.6 7.6-3.7 14.4-6.5 20.6-8.8 6.7-2.5 13.5-4.4 20.5-5.9 6.7-1.3 13.5-2 20.4-2.2 7-.1 14.1.3 20.7.8l1.7.1c6.3.5 12.8 1 19.3.9 15 .1 29.6-4.7 41.6-13.6 7.5-5.5 14.4-11.6 20.7-18.5 7.2-7.5 14.3-16.1 20.9-24.2 2-2.4 4-4.9 6-7.4 4.8-5.9 9.8-12.1 14.8-18 7.4-8.7 14.1-16.2 20.6-22.8 6.7-6.8 13.6-13.3 20.5-19.1 6.4-5.4 13.2-10.7 20.6-15.9 6.2-4.4 13-8.9 20.7-13.8 5.9-3.8 12.3-7.7 20.7-12.7 6.9-4.1 13.8-8.2 20.7-12.2l20.7-12 22.1-12.8c6.4-3.7 12.9-7.4 19.3-11.2l20.8-12c7-4 13.9-8 20.9-12l42.3-24.4c6.8-3.9 13.6-7.9 20.4-11.8l150.2-86.6c.4-.3.6-.8.3-1.3-.3-.4-.8-.6-1.3-.3l-150.2 86.7c-6.8 3.9-13.6 7.9-20.4 11.8l-42.3 24.4c-7 4-13.9 8-20.9 12l-20.8 12c-6.4 3.7-12.9 7.4-19.3 11.2l-22.1 12.8-20.7 12c-6.9 4-13.8 8.1-20.7 12.2-8.4 5-14.8 8.9-20.7 12.7-7.7 4.9-14.5 9.4-20.8 13.9-7.5 5.3-14.3 10.6-20.8 16.1-6.9 5.9-13.9 12.3-20.6 19.2-6.5 6.6-13.2 14.1-20.7 22.9-5 5.9-10 12.1-14.8 18-2 2.5-4 4.9-6 7.4-6.6 8.1-13.7 16.6-20.9 24.1-6.2 6.7-13 12.8-20.4 18.2-11.7 8.7-26 13.3-40.6 13.2-6.4.1-12.8-.4-19.1-.9l-1.7-.1c-6.7-.5-13.8-1-20.9-.8-7 .1-13.9.9-20.7 2.2-7.1 1.4-14 3.4-20.7 5.9-6.3 2.3-13.1 5.2-20.8 8.9-6.2 3-12.8 6.4-20.8 10.6-7.5 4-15 8.3-20.7 11.5-6.9 3.9-13.8 7.8-20.7 11.8l-26.3 15.2c-5 2.9-10 5.8-15.1 8.7l-20.7 12-62.1 35.9-20.7 12-20.7 12c-4.8 2.8-9.7 5.6-14.5 8.4l-32.6 18.8-15 8.7-19.4 11.2c-.4.3-.6.8-.3 1.3.2.3.5.5.8.5.1.1.3 0 .5-.1zm0 33.9 48.7-28.1 20.7-12 20.7-12 20.7-12 20.7-12 15-8.7 67.8-39.1c4.8-2.8 9.6-5.6 14.4-8.3l6.3-3.6 20.7-12 4.1-2.4c5.5-3.2 11.1-6.4 16.6-9.5l.4-.2c6.8-3.9 13.6-7.8 20.3-11.6 8.4-4.7 14.8-8.3 20.7-11.5 7.9-4.3 14.5-7.7 20.7-10.7 7.6-3.7 14.4-6.6 20.6-8.9 6.7-2.5 13.5-4.5 20.5-6 6.7-1.4 13.5-2.2 20.4-2.4 6.9-.1 13.8.1 20.7.7l2.7.2c6 .5 12.2 1 18.3.9 7.1.1 14.1-.8 20.9-2.7 7.4-2.2 14.4-5.6 20.7-10 7.5-5.3 14.5-11.3 20.7-18 7.4-7.7 14.7-16.4 20.9-24 2.4-2.9 4.8-5.8 7.2-8.8 4.5-5.5 9.1-11.2 13.7-16.7 7.5-8.9 14.2-16.4 20.6-23 6.7-6.9 13.6-13.4 20.5-19.3 6.4-5.5 13.1-10.7 20.6-16.1 6.2-4.5 12.8-8.9 20.7-13.9 6-3.8 12.4-7.8 20.7-12.7 6.9-4.1 13.8-8.2 20.7-12.2L366-26l21.6-12.5 19.8-11.4c6.9-4 13.8-8 20.8-12l68.8-39.7 14.7-8.5 17.1-9.9c40.2-23.2 80.3-46.4 120.5-69.6l41.9-24.2c.4-.3.6-.8.3-1.3-.3-.4-.8-.6-1.3-.3l-41.9 24.2c-40.2 23.2-80.3 46.4-120.5 69.6l-17.1 9.9-14.7 8.5-68.8 39.7c-6.9 4-13.9 8-20.8 12l-19.8 11.4L365-27.6l-20.7 12c-6.9 4-13.8 8.1-20.7 12.2-8.3 5-14.7 8.9-20.7 12.8-7.9 5-14.5 9.5-20.8 14-7.5 5.4-14.3 10.7-20.7 16.2-7 6-13.9 12.5-20.6 19.5-6.4 6.6-13.2 14.2-20.7 23.1-4.6 5.5-9.2 11.2-13.7 16.7-2.4 3-4.8 5.9-7.2 8.8-6.2 7.5-13.5 16.3-20.8 23.9-6.2 6.6-13 12.6-20.5 17.8-6.2 4.3-12.9 7.6-20.1 9.7-6.6 1.9-13.5 2.8-20.4 2.7h-.4c-5.9 0-12-.5-17.8-.9l-2.7-.2c-6.6-.5-13.7-.9-20.9-.8-7 .2-13.9 1-20.7 2.4-7.1 1.5-14 3.5-20.7 6.1-6.3 2.3-13.1 5.3-20.8 9-6.2 3-12.8 6.4-20.8 10.7-6 3.2-12.3 6.8-20.7 11.5-6.8 3.8-13.6 7.7-20.3 11.6l-.4.2c-5.5 3.2-11.1 6.4-16.6 9.5l-4.1 2.4-20.7 12-6.3 3.6c-4.8 2.8-9.6 5.6-14.4 8.3l-67.8 39.1-15 8.7-20.7 12-20.7 12-20.7 12-20.7 12-48.7 28.1c-.4.3-.6.8-.3 1.3.2.3.5.5.8.5 0-.2.2-.3.4-.3zm0 33.8 42.1-24.3c5.1-2.9 10.1-5.8 15.1-8.8l20.7-12 15-8.7 26.4-15.2c6.9-4 13.8-8 20.7-11.9l20.7-12 20.7-12 62.1-35.9 20.7-12c5-2.9 10.1-5.8 15.1-8.7l6.7-3.9c6.5-3.8 13-7.5 19.6-11.2 6.9-4 13.8-7.9 20.7-11.8 8.3-4.7 14.7-8.3 20.7-11.5 8.1-4.4 14.7-7.8 20.7-10.7 7.5-3.7 14.3-6.6 20.6-9.1 6.7-2.6 13.5-4.7 20.5-6.2 6.7-1.4 13.5-2.3 20.4-2.5 6.9-.2 13.8.1 20.7.7l3.9.3c5.6.4 11.4.9 17.1 1 7.1.2 14.1-.6 20.9-2.4 7.4-2 14.3-5.2 20.7-9.4 7.5-5.1 14.5-11 20.7-17.6 7.6-7.7 15.2-16.8 21-23.8 2.9-3.5 5.8-7.1 8.7-10.7 4-4.9 8-9.9 12.1-14.8 7.6-9.1 14.3-16.7 20.6-23.3 6.8-7.1 13.7-13.7 20.5-19.6 6.4-5.6 13.2-10.9 20.6-16.3 6.3-4.5 13-9.1 20.7-14 6-3.9 12.6-7.9 20.7-12.8 7.3-4.4 14.6-8.7 20.7-12.2 6.7-3.9 13.5-7.9 20.3-11.8l.4-.3 20.7-12 20.7-12c6.9-4 13.8-8 20.8-12l63.2-36.5c6.8-3.9 13.6-7.8 20.4-11.8l17.1-9.9 191.7-110.7c.4-.3.6-.8.3-1.3-.3-.4-.8-.6-1.3-.3L557.1-104.8l-17.1 10c-6.8 3.9-13.6 7.9-20.4 11.8l-63.2 36.5c-6.9 4-13.8 8-20.8 12l-20.7 12-20.7 12-.4.3c-6.8 3.9-13.5 7.8-20.3 11.8-6.1 3.6-13.4 7.8-20.7 12.3-8.1 4.9-14.7 8.9-20.7 12.8-7.7 4.9-14.5 9.5-20.8 14.1C303.8 46 297 51.4 290.5 57c-6.9 5.9-13.8 12.6-20.6 19.7-6.3 6.6-13 14.2-20.7 23.4-4.1 4.9-8.1 9.9-12.1 14.8-2.9 3.6-5.8 7.2-8.7 10.7-5.8 7-13.3 16-20.8 23.7-6.2 6.5-13 12.3-20.4 17.3-6.2 4.1-13 7.2-20.1 9.2-6.7 1.7-13.6 2.5-20.4 2.3-5.6 0-11.4-.5-16.9-1l-3.9-.3c-6.9-.6-13.9-.8-20.9-.7-7 .2-13.9 1.1-20.7 2.6a151 151 0 0 0-20.8 6.3c-6.4 2.4-13.2 5.4-20.8 9.1-6.1 2.9-12.6 6.4-20.8 10.8-6 3.3-12.4 6.8-20.7 11.5-6.9 3.9-13.8 7.9-20.7 11.8-6.5 3.7-13 7.5-19.6 11.2l-6.7 3.9c-5.1 2.9-10.1 5.8-15.1 8.8l-20.7 12-62.1 35.9-20.7 12-20.7 12-20.7 12-26.4 15.2-15 8.7-20.7 11.9c-5 2.9-10.1 5.8-15.1 8.7l-42.1 24.3c-.4.3-.6.8-.3 1.3.2.3.5.5.8.5-.1-.1 0-.1.3-.2zm0 33.8 24.5-14.1c5-2.9 10-5.8 15.1-8.7l67.7-39.1 20.7-12 20.7-12 20.7-12 20.7-12c4.9-2.9 9.9-5.7 14.8-8.6l32.8-18.9c4.8-2.8 9.7-5.6 14.5-8.4L-3.5 255l14.1-8.1c6.9-4 13.8-7.9 20.7-11.8 8.1-4.6 14.7-8.3 20.7-11.5 8.1-4.4 14.7-7.8 20.7-10.8 7.7-3.8 14.5-6.8 20.6-9.2 6.7-2.6 13.5-4.7 20.5-6.4 6.7-1.5 13.5-2.4 20.4-2.7 6.9-.2 13.8 0 20.7.6 1.7.1 3.4.3 5.1.4 5.2.4 10.5.9 15.8 1 7 .3 14.1-.4 20.9-2 7.3-1.9 14.3-4.9 20.7-9 7.5-4.9 14.5-10.7 20.7-17.2 7.6-7.6 15.2-16.6 20.9-23.6 3.2-3.9 6.4-7.8 9.6-11.8 3.7-4.6 7.5-9.2 11.2-13.8 7.6-9.2 14.3-16.9 20.6-23.5 6.7-7.1 13.6-13.8 20.5-19.9 6.5-5.7 13.3-11.1 20.6-16.5 6.2-4.6 13-9.2 20.7-14.2 6-3.9 12.6-8 20.7-12.8 6.1-3.7 12.7-7.6 20.7-12.3 6.9-4.1 13.8-8 20.7-12l20.7-12 20.7-12c6.9-4 13.8-8 20.8-12l67.9-39.2 15.6-9 238.2-137.5c.4-.3.6-.8.3-1.3-.3-.4-.8-.6-1.3-.3l-221 127.6-17.1 9.9-15.6 9-67.9 39.2c-6.9 4-13.9 8-20.8 12l-20.7 12-20.7 12-20.7 12c-8 4.7-14.6 8.6-20.7 12.3-8.1 4.9-14.7 9-20.7 12.9-7.8 5-14.5 9.7-20.8 14.2-7.4 5.4-14.2 10.9-20.7 16.6-6.9 6.1-13.9 12.8-20.6 20-6.3 6.6-13 14.4-20.7 23.6-3.8 4.6-7.5 9.2-11.3 13.8-3.2 4-6.4 7.9-9.6 11.8-5.7 6.9-13.3 15.9-20.8 23.5-6.2 6.4-13 12.1-20.4 16.9-6.2 4-13 6.9-20.1 8.8-6.7 1.6-13.6 2.2-20.4 1.9-5.2-.1-10.6-.5-15.7-1-1.7-.1-3.4-.3-5.1-.4-6.9-.6-13.9-.8-20.9-.6-7 .3-13.9 1.2-20.7 2.7-7.1 1.6-14 3.8-20.7 6.5-6.2 2.4-13 5.4-20.8 9.2-6 3-12.6 6.4-20.8 10.8-6 3.3-12.6 7-20.7 11.6-6.9 3.9-13.8 7.9-20.7 11.8l-14.1 8.1-68.9 39.7c-4.8 2.8-9.7 5.6-14.5 8.4l-32.8 18.9c-4.9 2.8-9.9 5.7-14.8 8.6l-20.7 12-20.7 12-20.7 12-20.7 12-67.7 39.1c-5 2.9-10 5.8-15.1 8.7l-24.5 14.1c-.4.3-.6.8-.3 1.3.2.3.5.5.8.5.2-.2.4-.3.6-.4zm0 33.9 100.7-58.2c5.1-2.9 10.1-5.8 15.1-8.8l20.7-12c5.3-3.1 10.7-6.2 16-9.2l25.4-14.7 20.7-12 20.7-12 20.7-12c5.1-3 10.2-5.9 15.4-8.9l46.7-27 20.7-12c5-2.9 10.1-5.8 15.1-8.7l26.2-15.1c6.9-4 13.8-7.9 20.7-11.8 6.3-3.5 13.6-7.7 20.7-11.6 8.1-4.4 14.7-7.9 20.7-10.8 7.7-3.8 14.4-6.8 20.6-9.2 6.7-2.7 13.5-4.8 20.5-6.5 6.7-1.5 13.5-2.5 20.4-2.8 6.9-.3 13.8-.1 20.7.5 2 .1 4 .3 6 .5 4.9.4 10 .8 15 1 7 .3 14-.3 20.9-1.8 7.3-1.7 14.3-4.6 20.7-8.6 7.5-4.8 14.5-10.5 20.7-16.9 6.1-6 12.5-13.2 21-23.4 3.5-4.3 7.1-8.7 10.7-13.2 3.4-4.2 6.7-8.3 10.1-12.5 7.8-9.5 14.4-17.1 20.6-23.7 6.7-7.2 13.6-14 20.5-20.1 6.5-5.7 13.2-11.2 20.6-16.7 6.3-4.6 13.1-9.3 20.7-14.2 5.9-3.8 12.3-7.8 20.7-12.9 7.3-4.4 14.6-8.7 20.7-12.3l20.7-12 20.7-12 20.7-12c6.9-4 13.8-8 20.8-12L579.1-48l20.4-11.8 17.1-9.9 230.1-132.8 20.2-11.7c.4-.3.6-.8.3-1.3-.3-.4-.8-.6-1.3-.3l-20.2 11.7L615.8-70.9 598.6-61l-20.4 11.8L515-12.7c-6.9 4-13.8 8-20.8 12l-20.7 12-20.7 12-20.7 12c-6.1 3.6-13.4 7.9-20.7 12.3-8.4 5.1-14.8 9.1-20.8 12.9-7.7 4.9-14.5 9.6-20.8 14.3-7.5 5.5-14.2 11-20.8 16.8-6.9 6.1-13.9 12.9-20.6 20.2-6.2 6.6-12.8 14.2-20.7 23.8-3.4 4.1-6.8 8.3-10.1 12.5-3.6 4.4-7.2 8.9-10.7 13.1-8.4 10.2-14.8 17.3-20.8 23.3-6.2 6.3-13 11.9-20.4 16.6-6.2 3.9-13 6.7-20.1 8.4-6.7 1.4-13.6 2-20.5 1.7-4.9-.1-10-.6-14.8-1-2-.2-4-.3-6-.5-7-.6-13.9-.8-20.9-.5-7 .3-13.9 1.3-20.7 2.9-7.1 1.7-14 3.9-20.7 6.6-6.3 2.5-13.1 5.5-20.8 9.3-6 3-12.6 6.4-20.8 10.9-7.2 3.9-14.5 8-20.7 11.6-6.9 3.9-13.8 7.9-20.7 11.8l-26.2 15.1c-5.1 2.9-10.1 5.8-15.1 8.8l-20.7 12-46.7 27c-5.1 3-10.3 5.9-15.4 8.9l-20.7 12-20.7 11.9-20.7 12-25.4 14.7c-5.3 3.1-10.7 6.2-16 9.2l-20.7 12c-5 2.9-10.1 5.8-15.1 8.7l-100.7 58.2c-.4.3-.6.8-.3 1.3.2.3.5.5.8.5 0-.4.1-.5.3-.5zm0 67.7 8.9-5.2 20.7-12 20.7-12 20.7-12 20.7-12 41.4-23.9 20.7-12 41.4-23.9c5-2.9 10-5.8 15.1-8.7l150.5-86.9 20.7-12c5-2.9 10.1-5.8 15.1-8.7l26.2-15.1c6.9-4 13.8-7.9 20.7-11.8 8.1-4.6 14.7-8.3 20.7-11.6 8-4.4 14.6-7.8 20.7-10.8 7.6-3.8 14.4-6.8 20.6-9.2 6.7-2.7 13.5-4.8 20.5-6.5 6.7-1.5 13.5-2.5 20.4-2.8 6.9-.2 13.8-.1 20.7.5 2 .2 4.1.3 6.1.5 4.9.4 9.9.9 14.8 1 7 .3 14-.2 20.9-1.6 7.3-1.7 14.3-4.5 20.7-8.5 7.5-4.8 14.5-10.4 20.8-16.8 7.4-7.4 14.4-15.3 21-23.4 3.7-4.5 7.4-9.1 11.2-13.8 3.2-4 6.4-8 9.7-11.9 7.9-9.6 14.4-17.2 20.6-23.8 6.7-7.3 13.6-14 20.5-20.2 6.5-5.8 13.2-11.3 20.6-16.8 6.2-4.6 12.9-9.3 20.7-14.3 6-3.9 12.6-8 20.7-12.9 6.5-3.9 13-7.8 20.7-12.3 6.9-4.1 13.8-8 20.7-12l20.7-12 13.5-7.8 410.1-236.7c.4-.3.6-.8.4-1.3-.3-.4-.8-.6-1.3-.4L545.7 37.3l-13.5 7.8-20.7 12-20.7 12c-7.7 4.5-14.2 8.3-20.7 12.3-8.2 4.9-14.8 9-20.8 12.9-7.8 5.1-14.6 9.8-20.8 14.4-7.5 5.5-14.2 11.1-20.8 16.9-6.9 6.2-13.9 13-20.6 20.3-6.2 6.7-12.8 14.3-20.7 23.9-3.2 4-6.5 8-9.7 11.9-3.7 4.6-7.5 9.3-11.2 13.7-6.5 8.1-13.5 15.9-20.8 23.3-6.1 6.3-13 11.8-20.4 16.5-6.2 3.8-13 6.6-20.1 8.3-6.7 1.4-13.6 1.9-20.4 1.6-4.9-.2-9.9-.6-14.8-1-2-.2-4.1-.4-6.1-.5-7-.6-13.9-.8-20.9-.5-7 .3-13.9 1.3-20.7 2.9-7.1 1.7-14 3.9-20.7 6.6-6.3 2.5-13.1 5.5-20.8 9.3-6.1 3-12.7 6.5-20.8 10.9-6 3.3-12.6 6.9-20.7 11.6-6.9 3.9-13.8 7.9-20.7 11.8l-26.2 15.1c-5.1 2.9-10.1 5.8-15.1 8.8l-20.7 12-150.6 86.6c-5 2.9-10 5.8-15.1 8.7l-41.4 23.9-20.7 12-41.4 23.9-20.7 12-20.7 12-20.7 12-20.7 12-8.9 5.2c-.4.3-.6.8-.3 1.3.2.3.5.5.8.5.2-.3.3-.4.5-.4zm0 33.8 58.9-34c5.1-3 10.2-5.9 15.4-8.9l30.7-17.7c5.3-3.1 10.7-6.2 16-9.2l41.4-23.9 15-8.7 67.7-39.1 20.7-12 62.1-35.9 20.7-12 89.4-51.6 14.1-8.1c6.9-4 13.8-7.9 20.7-11.8 7.6-4.3 14.4-8.1 20.7-11.5 7.6-4.1 14.4-7.6 20.7-10.7 7.7-3.7 14.4-6.7 20.6-9.1 6.7-2.6 13.5-4.7 20.5-6.3 6.7-1.5 13.5-2.3 20.4-2.6 6.9-.2 13.8 0 20.7.7 1.7.1 3.4.3 5.1.4 5.2.4 10.5.9 15.8 1 7 .3 14.1-.4 20.9-2 7.3-1.8 14.3-4.9 20.7-8.9 7.5-4.9 14.5-10.7 20.7-17.1 6-6 12.5-13.3 21-23.6 3.4-4.1 6.7-8.3 10.1-12.5 3.5-4.4 7.1-8.8 10.7-13.2 7.8-9.5 14.4-17 20.6-23.7 6.7-7.2 13.6-14 20.5-20 6.5-5.7 13.2-11.2 20.6-16.7 6.3-4.7 13.1-9.3 20.7-14.2 6.1-4 12.7-8 20.7-12.9 7.2-4.3 14.2-8.5 20.7-12.3l20.7-12 20.7-12 13.5-7.8L687.5-8.6l17.1-9.9L956.7-164c.4-.3.6-.8.4-1.3-.3-.4-.8-.6-1.3-.4L703.7-20l-17.1 9.9L575 54.2 561.5 62l-20.7 12-20.7 12c-6.5 3.8-13.6 8-20.7 12.3-8 4.8-14.6 8.9-20.7 12.9-7.6 4.9-14.4 9.6-20.8 14.3-7.5 5.5-14.2 11-20.8 16.8-6.9 6.1-13.8 12.9-20.6 20.2-6.2 6.7-12.8 14.2-20.7 23.8-3.6 4.4-7.2 8.8-10.7 13.2-3.4 4.2-6.8 8.4-10.1 12.5-8.4 10.2-14.8 17.5-20.8 23.5-6.2 6.4-13 12-20.4 16.9-6.2 4-13 6.9-20.1 8.7-6.7 1.5-13.6 2.2-20.4 1.9-5.2-.1-10.6-.6-15.7-1-1.7-.1-3.4-.3-5.1-.4-6.9-.6-13.9-.9-20.9-.7-7 .3-13.9 1.1-20.7 2.6-7.1 1.6-14 3.7-20.7 6.3-6.2 2.4-13.1 5.4-20.8 9.1-6.4 3.1-13.1 6.6-20.8 10.8-6.3 3.4-13.1 7.2-20.7 11.5-6.9 3.9-13.8 7.8-20.7 11.8l-14.1 8.1-89.4 51.6-20.7 12-62.1 35.9-20.7 12-67.7 39.1-15 8.7-41.4 23.9c-5.3 3.1-10.7 6.2-16 9.2l-30.7 17.7c-5.1 3-10.3 5.9-15.4 8.9l-58.9 34c-.4.3-.6.8-.3 1.3.2.3.5.5.8.5-.2-.2-.1-.2.1-.3zm0 33.8 5.1-3c7-4 13.9-8 20.9-12l20.8-12 20.7-12 62.1-35.9 20.7-12 41.4-23.9 20.7-12 207-119.5 12.8-7.4 28.6-16.5c6.9-4 13.8-7.9 20.7-11.9 6.9-4 13.8-7.9 20.7-11.8 6.1-3.4 13.4-7.5 20.7-11.4 8-4.3 14.5-7.6 20.7-10.5 7.5-3.5 14.2-6.4 20.6-8.7 6.7-2.4 13.5-4.3 20.5-5.7 6.7-1.3 13.5-2 20.4-2.1 7.2-.1 14.5.4 20.7.9l2.6.2c6 .5 12.3 1 18.4 1 7.1.1 14.1-.9 21-2.8 7.4-2.2 14.3-5.6 20.7-9.9 7.5-5.3 14.4-11.3 20.7-18 7.6-7.8 15.2-17 21-24 2.7-3.3 5.5-6.7 8.2-10.2 4.1-5.1 8.4-10.4 12.6-15.4 7.5-9 14.2-16.7 20.6-23.3 6.7-7.1 13.6-13.7 20.5-19.7 6.5-5.6 13.2-11 20.6-16.4 6.2-4.5 12.8-9 20.7-14.1 6-3.9 12.4-7.8 20.7-12.8 6-3.6 12.4-7.4 20.7-12.3 5.9-3.5 11.9-6.9 17.8-10.4l2.9-1.7 20.7-12 20.7-12 83.9-48.5c6.8-3.9 13.6-7.8 20.4-11.8l239.9-138.5c.4-.3.6-.8.4-1.3-.3-.4-.8-.6-1.3-.4L715.9 6.8c-6.8 3.9-13.6 7.8-20.4 11.8L611.6 67l-20.7 12-20.7 12-2.9 1.7c-5.9 3.5-11.9 6.9-17.8 10.4-8.3 4.9-14.7 8.7-20.7 12.3-8.3 5-14.7 9-20.8 12.8-7.9 5.1-14.5 9.6-20.8 14.1-7.5 5.4-14.2 10.8-20.8 16.5-6.9 6-13.9 12.7-20.6 19.8-6.4 6.7-13.1 14.4-20.7 23.4-4.2 5.1-8.5 10.4-12.6 15.5-2.7 3.4-5.5 6.8-8.2 10.1-5.8 7-13.3 16.1-20.8 23.9-6.2 6.6-13 12.5-20.4 17.7-6.2 4.3-13 7.5-20.1 9.7-6.6 1.9-13.5 2.8-20.4 2.7-6 0-12.2-.5-18.2-1l-2.6-.2c-6.3-.5-13.6-1-20.9-.9-7 .1-13.9.8-20.7 2.1-7.1 1.4-14 3.3-20.8 5.8-6.5 2.3-13.3 5.2-20.8 8.8-6.2 2.9-12.8 6.3-20.8 10.6-7.3 3.9-14.6 8-20.7 11.4-6.9 3.9-13.8 7.8-20.7 11.8-6.9 3.9-13.8 7.9-20.7 11.9L107 358.3l-12.8 7.4-207 119.5c-6.9 4-13.8 8-20.7 11.9l-41.4 23.9-20.7 12-62.1 35.9c-6.9 4-13.8 8-20.7 11.9l-20.8 12c-7 4-13.9 8-20.9 12l-5.1 3h-.1c-.4.2-.6.8-.3 1.2.2.3.5.5.8.4.2.1.4.1.5 0zm0 33.9c4.5-2.6 9-5.2 13.4-7.8l27.3-15.8c4.9-2.8 9.7-5.6 14.6-8.4l20.8-12 20.7-12 20.7-12 47.3-27.3c4.9-2.8 9.9-5.7 14.8-8.6l41.4-23.9c5-2.9 10-5.8 15.1-8.7l67.7-39.1 20.7-12 165.6-95.6c6.9-4 13.8-7.9 20.7-11.9 8.3-4.7 14.7-8.3 20.7-11.7 7.6-4.3 14.4-7.9 20.7-11.2 7.7-4 14.4-7.3 20.7-10.1 6.7-3.1 13.6-5.7 20.6-8 6.7-2.2 13.5-3.8 20.5-4.9 6.8-1 13.6-1.4 20.4-1.3 6.1.1 12.3.5 18.2 1l2.5.2c7 .6 14 .8 21 .5 7.2-.4 14.2-1.8 21-4.3 7.4-2.9 14.4-6.8 20.6-11.7 7.5-5.8 14.4-12.3 20.7-19.3 7.3-7.9 14.6-16.8 20.9-24.6l4.1-5c5.5-6.7 11.1-13.7 16.8-20.4 7.4-8.7 14.2-16.2 20.6-22.7 6.6-6.7 13.5-13.1 20.5-19 6.3-5.4 13.1-10.6 20.6-15.9 6.2-4.4 12.8-8.8 20.7-13.8 6-3.8 12.6-7.8 20.7-12.7 7.5-4.5 15-8.9 20.7-12.2l20.7-12 20.7-12 125-72.2 17.1-9.9L956.7-96.3c.4-.3.6-.8.3-1.3-.3-.4-.8-.6-1.3-.3L762.2 13.8l-17.1 9.9-125 72.2-20.7 12-20.7 12c-5.7 3.3-13.2 7.7-20.7 12.2-8.1 4.8-14.7 8.9-20.7 12.7-7.9 5-14.5 9.4-20.8 13.9-7.6 5.4-14.4 10.6-20.8 16-7 5.9-14 12.4-20.6 19.1-6.5 6.6-13.2 14-20.7 22.8-5.7 6.7-11.3 13.7-16.8 20.4l-4.1 5c-6.3 7.7-13.6 16.6-20.8 24.5-6.3 6.9-13.1 13.3-20.5 19.1-6.1 4.8-12.9 8.6-20.2 11.4-6.6 2.4-13.4 3.8-20.4 4.2-6.9.3-13.9.1-20.7-.5l-2.5-.2c-6-.4-12.2-.9-18.3-1-6.9-.1-13.9.3-20.7 1.3-7 1.1-14 2.7-20.7 4.9-7.1 2.3-14 5-20.8 8.1-6.3 2.8-13.1 6.1-20.8 10.2-6.3 3.3-13.1 7-20.7 11.2-6 3.3-12.4 6.9-20.7 11.7-6.9 3.9-13.8 7.9-20.7 11.9L-.8 454.3l-20.7 12-67.7 39.1c-5 2.9-10 5.8-15.1 8.7l-41.4 23.9c-4.9 2.9-9.9 5.7-14.8 8.6l-47.3 27.3-20.7 12-20.7 12-20.8 12c-4.9 2.8-9.7 5.6-14.6 8.4l-27.3 15.8c-4.5 2.6-9 5.2-13.4 7.8-.4.3-.6.8-.3 1.3.2.3.5.5.8.5.2-.3.3-.4.5-.4zm0 33.8 21.5-12.4 21.2-12.3c7-4.1 14-8.1 21-12.2 7-4 13.9-8 20.9-12l20.8-12 20.7-12 62.1-35.9 20.7-12 41.4-23.9 20.7-12 62.1-35.9c4.7-2.7 9.5-5.5 14.2-8.2l110-63.5 20.7-12c6.9-4 13.8-8 20.7-11.9 6.9-4 13.8-7.9 20.7-11.9 6.9-4 13.8-7.9 20.7-11.8 7.9-4.5 14.5-8.1 20.7-11.5 7.8-4.2 14.5-7.8 20.7-10.8 7.6-3.8 14.4-6.9 20.7-9.4 6.7-2.8 13.6-5.1 20.6-6.9 6.7-1.8 13.6-3 20.5-3.6 6.8-.6 13.6-.7 20.4-.4 3.5.1 6.9.4 10.4.6 3.5.2 7 .4 10.4.6 7 .4 14.1.1 21.1-.8 7.3-1.1 14.4-3.3 21-6.6 7.4-3.8 14.4-8.6 20.6-14.1 7.3-6.5 14.3-13.6 20.7-21 6.6-7.5 13.3-15.7 19.7-23.6l1.2-1.4c6.7-8.2 13.8-16.8 20.8-24.8 7-7.9 13.9-15.2 20.6-21.7 6.5-6.3 13.4-12.4 20.5-18.1 6.3-5.1 13.1-10.1 20.7-15.3 6-4.1 12.6-8.4 20.7-13.4 6.3-3.9 13.1-8 20.7-12.5 6.9-4.1 13.8-8.1 20.7-12.1l20.7-12 20.7-12L956.7-62.5c.4-.3.6-.8.4-1.3-.3-.4-.8-.6-1.3-.4l-306.4 177-20.7 12-20.7 12c-6.9 4-13.8 8.1-20.7 12.1-7.6 4.5-14.4 8.6-20.7 12.6-8.1 5.1-14.7 9.4-20.8 13.5-7.6 5.2-14.4 10.3-20.8 15.4-7.2 5.7-14.1 11.8-20.6 18.2-6.7 6.5-13.7 13.8-20.7 21.8-7.1 8-14.2 16.7-20.9 24.9l-1.2 1.4c-6.5 7.9-13.1 16.1-19.7 23.6-6.4 7.4-13.2 14.4-20.5 20.8-6.1 5.4-12.9 10.1-20.2 13.8-6.4 3.2-13.3 5.4-20.4 6.4-6.9.9-13.8 1.2-20.7.8-3.4-.1-6.9-.4-10.4-.6s-6.9-.4-10.4-.6c-6.9-.3-13.8-.2-20.7.4-7 .6-14 1.9-20.8 3.7-7.1 1.9-14 4.2-20.8 7-6.3 2.6-13.1 5.7-20.8 9.5-6.2 3.1-13 6.6-20.7 10.9-6.2 3.4-12.8 7.1-20.7 11.5-6.9 3.9-13.8 7.9-20.7 11.8-6.9 4-13.8 7.9-20.7 11.9-6.9 4-13.8 8-20.7 11.9l-20.7 12L22.1 475c-4.7 2.7-9.5 5.5-14.2 8.2l-62.1 35.9-20.7 12-41.4 23.9-20.7 12-62.1 35.9-20.7 12-20.8 12c-7 4-13.9 8-20.9 12-7 4.1-14 8.1-21 12.2l-21.2 12.3-20.4 11.8-1.1.6c-.4.2-.6.8-.4 1.3.2.3.5.5.8.5.2-.3.4-.4.5-.5zm0 33.9 13.3-7.7c4.1-2.4 8.2-4.7 12.3-7.1l10.7-6.2c4.8-2.8 9.7-5.6 14.5-8.4 5-2.9 9.9-5.7 14.9-8.6l53.2-30.7c5.3-3.1 10.6-6.1 15.9-9.2l20.7-12L-101 582l15-8.7c4.5-2.6 8.9-5.2 13.4-7.7l28-16.2c5.2-3 10.5-6.1 15.8-9.1l67-38.7 20.7-12L203.8 406c6.9-4 13.8-7.9 20.7-11.9l20.7-11.7c8-4.5 14.6-8 20.7-11.2 7.7-4 14.5-7.4 20.7-10.2 7.4-3.4 14.2-6.1 20.6-8.3 6.7-2.3 13.6-4.2 20.6-5.5 6.8-1.3 13.6-2 20.5-2.1 7.1-.2 14 .1 20.5.4l2.3.1c6.1.3 12.4.6 18.6.5 7.1-.1 14.2-1.1 21.1-3 7.4-2.2 14.5-5.4 20.9-9.7 7.4-5 14.3-10.6 20.6-16.9 6-5.9 12.5-13.1 20.7-22.7 4.1-4.9 8.3-10 12.4-15 2.8-3.5 5.7-6.9 8.5-10.3 8-9.7 14.7-17.3 20.8-23.9 6.9-7.4 13.8-14.2 20.6-20.4 6.4-5.8 13.1-11.4 20.5-16.9 6.2-4.7 13-9.5 20.7-14.5 6.2-4.1 13-8.3 20.7-13.1 6-3.7 12.4-7.5 20.7-12.4 6.9-4.1 13.8-8.1 20.7-12.1l20.7-12L805 59l17.1-9.9L957-28.8c.4-.3.6-.8.3-1.3-.3-.4-.8-.6-1.3-.3l-135.1 78-17.1 9.9L658 141.7l-20.7 12c-6.9 4-13.8 8-20.7 12.1-8.3 4.9-14.7 8.7-20.7 12.4-7.8 4.7-14.6 9-20.8 13.1-7.7 5.1-14.5 9.9-20.7 14.6-7.4 5.6-14.1 11.2-20.6 17.1-6.8 6.2-13.8 13.1-20.7 20.5-6.2 6.6-12.8 14.3-20.9 24-2.8 3.4-5.7 6.9-8.5 10.3-4.1 4.9-8.3 10-12.4 14.9-8.1 9.6-14.6 16.8-20.5 22.6-6.2 6.2-13 11.8-20.3 16.7-6.3 4.1-13.2 7.3-20.4 9.5-6.7 1.8-13.7 2.8-20.6 2.9-6.1.2-12.1-.1-18.4-.5l-2.3-.1c-6.5-.3-13.5-.6-20.6-.4-7 .2-13.9.9-20.7 2.2-7.1 1.3-14 3.2-20.8 5.6-6.5 2.2-13.4 5-20.8 8.4-6.2 2.9-13 6.2-20.8 10.3-6.1 3.2-12.7 6.8-20.7 11.2-6.9 3.8-13.8 7.8-20.7 11.7-6.9 3.9-13.8 7.9-20.7 11.9L57.9 488.2l-20.7 12-67 38.7c-5.2 3-10.5 6.1-15.8 9.1l-28 16.2c-4.5 2.6-8.9 5.2-13.4 7.7l-15 8.7-67.8 39.1-20.7 12c-5.3 3-10.6 6.1-15.9 9.2l-53.1 30.7c-5 2.9-9.9 5.7-14.9 8.6-4.8 2.8-9.7 5.6-14.5 8.4l-10.7 6.2c-4.1 2.4-8.2 4.7-12.3 7.1l-13.3 7.7c-.4.3-.6.8-.3 1.3.2.3.5.5.8.5.1-.3.3-.4.4-.4zm-1.5 34.7 44.1-25.5 17.1-9.9 20.4-11.8 21.2-12.3c7-4.1 14-8.1 21-12.2l20.9-12c6.9-4 13.8-8 20.8-12l20.7-12 62.1-35.9 20.7-12 41.4-23.9 20.7-12 62.1-35.9c5-2.9 10-5.8 15.1-8.7l31.9-18.4c5.1-2.9 10.1-5.8 15.1-8.8l62.1-35.8c6.9-4 13.8-8 20.7-11.9l7.1-4.1c4.5-2.6 9.1-5.2 13.6-7.8 6.9-3.9 13.8-7.9 20.7-11.8 7.7-4.3 14.5-8.1 20.7-11.4 7.6-4.1 14.4-7.6 20.7-10.7 7.6-3.7 14.4-6.7 20.7-9.2 6.7-2.7 13.6-5 20.6-6.9 6.7-1.8 13.6-3 20.6-3.8 6.8-.7 13.7-.9 20.5-.8 3.7.1 7.5.2 11.1.4 3.2.1 6.3.2 9.5.3 7 .3 14-.1 21-.9 7.3-1 14.4-3.1 21.1-6.1 7.5-3.5 14.5-8 20.9-13.3 7.3-6.1 14.2-12.7 20.5-19.8 6.9-7.5 13.7-15.6 20.6-24l3.2-3.9c5.8-7 11.7-14.2 17.6-21 7.4-8.6 14.2-16 20.8-22.6 6.6-6.6 13.5-13 20.5-18.9 6.4-5.3 13.1-10.5 20.5-15.8 6.2-4.4 12.9-8.9 20.7-13.8 7.5-4.8 15-9.3 20.7-12.8 6.5-3.9 13.3-7.9 20.7-12.2 5.9-3.5 11.9-6.9 17.8-10.4l292-168.6c.4-.3.6-.8.4-1.3-.3-.4-.8-.6-1.3-.4l-105.6 61-186.4 108.1c-5.9 3.5-11.9 6.9-17.8 10.4-7.5 4.4-14.2 8.3-20.7 12.3-5.7 3.5-13.3 8-20.7 12.8-7.8 4.9-14.5 9.5-20.7 13.9-7.5 5.3-14.2 10.5-20.6 15.9-7.1 5.9-14 12.3-20.7 19-6.6 6.6-13.4 14-20.9 22.7-5.9 6.8-11.9 14.1-17.7 21.1l-3.2 3.9c-6.9 8.4-13.7 16.5-20.5 24-6.3 7-13.1 13.6-20.3 19.6-6.2 5.2-13.1 9.6-20.5 13.1-6.6 3-13.5 5-20.6 6-6.8.9-13.7 1.2-20.6.9-3.1-.1-6.3-.2-9.4-.3-3.6-.1-7.4-.3-11.1-.4-6.9-.2-13.8.1-20.7.8-7 .7-14 2-20.8 3.8-7.1 1.9-14 4.2-20.8 6.9-6.3 2.5-13.1 5.5-20.8 9.3-6.3 3.1-13.1 6.6-20.7 10.7-6.2 3.4-13 7.1-20.7 11.4-6.9 3.9-13.8 7.8-20.7 11.8-4.5 2.6-9.1 5.2-13.6 7.8l-7.1 4.1c-6.9 4-13.8 8-20.7 11.9l-62.1 35.8c-5 2.9-10.1 5.8-15.1 8.7l-31.9 18.4c-5 2.9-10 5.8-15.1 8.7L4.4 552.9l-20.7 12-41.4 23.9-20.7 12-62.1 35.9-20.7 12c-6.9 4-13.8 8-20.8 12l-20.9 12c-7 4.1-14 8.1-21 12.2l-21.2 12.3-20.4 11.8-17.1 9.9-44.1 25.4c-.4.3-.6.8-.3 1.3.2.3.5.5.8.5.1-.3.2-.4.4-.4zm1.5 32.9c24-13.8 47.9-27.7 71.9-41.5 4.4-2.5 8.7-5 13-7.5l9.7-5.6 14.7-8.5 173-99.9c4.8-2.8 9.6-5.6 14.4-8.3l12.8-7.4 28.6-16.5c5.2-3 10.5-6.1 15.8-9.1l67-38.7 20.7-12 15-8.7 47.1-27.2 12.8-7.4 49.3-28.4c6.9-4 13.8-7.9 20.7-11.8 6.1-3.4 13.3-7.5 20.7-11.5 7.7-4.2 14.4-7.8 20.7-10.9 7.6-3.8 14.3-7 20.6-9.7 6.7-2.9 13.6-5.5 20.6-7.7 6.7-2.1 13.6-3.8 20.6-4.9 6.8-1.1 13.7-1.8 20.6-1.9 6.4-.2 12.8-.1 19 .1h1.6c6.4.1 13.6.3 20.6-.2 7.1-.4 14.2-1.6 21-3.7 7.5-2.4 14.6-5.8 21.1-10.1 7.5-5 14.4-10.8 20.8-17.1 6-5.8 12.5-12.8 20.5-22.2 4.6-5.4 9.2-11 13.7-16.4 2.3-2.7 4.6-5.5 6.8-8.2 8.2-9.7 14.8-17.3 20.9-23.9 7-7.6 14-14.6 20.8-20.8 6.5-6 13.4-11.8 20.6-17.3 6.2-4.8 12.9-9.6 20.5-14.7 6.1-4.1 12.7-8.3 20.7-13.2 6.2-3.8 13-7.9 20.7-12.5 6.9-4.1 13.8-8.1 20.7-12.1l20.7-12c5.4-3.1 10.8-6.2 16.2-9.4L863.2 93l17.1-9.9 76.3-44c.4-.3.6-.8.3-1.3-.3-.4-.8-.6-1.3-.3l-76.3 44-17.1 9.9-150.3 86.8c-5.4 3.1-10.8 6.2-16.2 9.4l-20.7 12c-6.9 4-13.8 8.1-20.7 12.1-7.8 4.6-14.5 8.7-20.8 12.5-8 4.9-14.6 9.2-20.7 13.3-7.6 5.1-14.4 10-20.6 14.8-7.2 5.5-14.1 11.4-20.7 17.4-6.8 6.3-13.9 13.3-20.9 21-6.1 6.6-12.7 14.2-20.9 24-2.3 2.7-4.6 5.5-6.9 8.2-4.5 5.4-9.2 11-13.7 16.4-8 9.3-14.4 16.3-20.4 22.1-6.3 6.3-13.2 11.9-20.5 16.9-6.4 4.2-13.3 7.6-20.6 9.9-6.7 2-13.6 3.3-20.6 3.6-7 .5-14.1.3-20.5.2h-1.6c-6.2-.1-12.7-.3-19.1-.1-7 .2-13.9.9-20.8 2-7.1 1.2-14 2.9-20.8 5-7.1 2.2-14 4.8-20.8 7.8-6.3 2.7-13.1 5.9-20.7 9.8-6.3 3.2-13.1 6.7-20.7 10.9-7.4 4-14.6 8.1-20.7 11.5-6.9 3.9-13.8 7.8-20.7 11.8l-49.3 28.4-12.8 7.4-47.1 27.2-15 8.7-20.7 12-67 38.7c-5.2 3-10.5 6.1-15.8 9.1l-28.6 16.5-12.8 7.4c-4.8 2.8-9.6 5.6-14.4 8.3l-173 99.9-14.7 8.5-9.7 5.6c-4.4 2.5-8.7 5-13 7.5-24 13.8-47.9 27.7-71.9 41.5-.4.3-.6.8-.3 1.3.2.3.5.5.8.5 0-.5.2-.5.4-.6zm906.6 288.7c.7-.4 1.4-.8 2.1-1.3l4.7-2.7c5.3-3.1 10.7-6.2 16-9.2l5.5-3.2c5.1-2.9 10.1-5.8 15.1-8.8l103.5-59.7 20.7-12c5.3-3.1 10.7-6.2 16-9.2l66.8-38.6 20.7-12 20.7-12 62.1-35.9 20.4-11.8c.4-.3.6-.8.4-1.3s-.8-.6-1.3-.4c-6.8 3.9-13.6 7.9-20.4 11.8l-62.1 35.9-20.7 12-20.7 12-66.8 38.6c-5.3 3.1-10.7 6.2-16 9.2l-20.7 12-103.5 59.7c-5 2.9-10.1 5.8-15.1 8.7l-5.5 3.2c-5.3 3.1-10.6 6.2-16 9.2l-4.7 2.7-2.1 1.2c-.4.3-.6.8-.4 1.3.2.3.5.5.8.5.2.2.3.2.5.1zm58.6 0 88.4-51 20.7-12 82.8-47.8 20.7-12 20.7-12 62.1-35.9 20.4-11.8c.4-.3.6-.8.4-1.3s-.8-.6-1.3-.4c-6.8 3.9-13.6 7.9-20.4 11.8L873.3 931l-20.7 12-20.7 12-82.8 47.8-20.7 12-88.4 51c-.4.3-.6.8-.3 1.3.2.3.5.5.8.5.1-.1.3-.2.4-.3zm58.6 0 133.3-76.9 20.7-12 20.7-12 20.7-12 41.4-23.9c6.8-3.9 13.6-7.9 20.4-11.8.4-.3.6-.8.3-1.3-.3-.4-.8-.6-1.3-.3-6.8 3.9-13.6 7.9-20.4 11.8l-41.4 23.9-20.7 12-20.7 12-20.7 12-133.3 76.9c-.4.3-.6.8-.3 1.3.2.3.5.5.8.5.2 0 .4-.1.5-.2zm58.6 0 3-1.7c3.2-1.8 6.4-3.7 9.6-5.5l62.1-35.9 20.7-12 20.7-12 20.7-12 41.4-23.9c6.8-3.9 13.6-7.9 20.4-11.8.4-.3.6-.8.3-1.3-.3-.4-.8-.6-1.3-.3-6.8 3.9-13.6 7.9-20.4 11.8l-41.4 23.9-20.7 12-20.7 12-20.7 12-62.1 35.9c-3.2 1.8-6.4 3.7-9.6 5.5l-3 1.7c-.4.3-.6.8-.3 1.3.2.3.5.5.8.5.2 0 .4-.1.5-.2zM-324.3 203.4c1.9-1.1 3.8-2.2 5.6-3.2l124.2-71.7c6.9-4 13.8-7.9 20.7-11.8 5.7-3.2 13.2-7.4 20.7-11.5 8-4.3 14.6-7.7 20.7-10.6 7.5-3.6 14.3-6.5 20.6-8.8 6.7-2.5 13.5-4.4 20.5-5.7 6.7-1.2 13.6-1.7 20.4-1.6 6.9.3 13.8.9 20.7 1.9l1.1.1c6.5 1 13.1 1.6 19.7 1.8 7.2.1 14.4-1.1 21.1-3.6 7.6-3 14.6-7.3 20.7-12.6 6.3-5.2 12.8-12 20.7-21.2 6.1-7.1 12.2-15 18.1-22.5l2.7-3.5c6.6-8.4 13.7-17.3 20.8-25.5 6.9-7.9 13.8-15.2 20.6-21.6 6.5-6.2 13.2-11.9 20.5-17.6 6.3-4.9 13.1-9.8 20.7-14.8 6.1-4.1 12.7-8.3 20.7-13.2 6.1-3.7 12.6-7.7 20.7-12.4 6.9-4.1 13.8-8.1 20.7-12.1 4.9-2.9 9.8-5.7 14.7-8.5l26.7-15.4 20.7-12 20.7-12 20.8-12c7-4.1 14-8.1 21-12.1l21.2-12.3 53.4-30.8c.4-.3.6-.8.3-1.3-.3-.4-.8-.6-1.3-.3l-53.4 30.9c-7.1 4.1-14.2 8.2-21.2 12.3-7 4-14 8.1-21 12.1l-20.8 12-20.7 12-20.7 12-26.7 15.4c-4.9 2.8-9.8 5.7-14.7 8.5-6.9 4-13.8 8-20.7 12.1-8.1 4.8-14.7 8.7-20.7 12.4-8 4.9-14.6 9.1-20.8 13.3-7.6 5.1-14.4 10-20.8 14.9-7.3 5.7-14.1 11.5-20.6 17.7-6.9 6.5-13.8 13.8-20.7 21.8-7 7.9-14.1 16.8-20.7 25.2l-2.7 3.5c-5.9 7.6-12 15.4-18.1 22.5-6.2 7.6-13.1 14.6-20.5 21-6 5.2-12.8 9.4-20.2 12.3-6.5 2.4-13.4 3.6-20.4 3.5h-.1c-6.5-.1-13-.7-19.5-1.7l-1.1-.1c-6.9-1-13.9-1.7-20.9-2-7-.2-13.9.4-20.8 1.6-7.1 1.3-14 3.3-20.8 5.8-7.1 2.6-14 5.6-20.8 8.9-6.1 2.9-12.7 6.3-20.8 10.7-7.5 4.1-15.1 8.3-20.7 11.5-6.9 3.9-13.8 7.8-20.7 11.8l-124.2 71.7c-1.9 1.1-3.8 2.2-5.6 3.2-.4.3-.6.8-.3 1.3.2.3.5.5.8.5.2-.1.3-.2.5-.2z" style="fill:#fff;enable-background:new"/></svg>