<svg xmlns="http://www.w3.org/2000/svg" viewBox="0 0 1700.8 1698.81"><g style="opacity:.5"><path d="M976.52 1698.41c4.96-2.99 9.89-5.96 14.85-8.94 9.3-5.58 18.59-11.15 27.88-16.71 9.21-5.52 18.43-11.02 27.64-16.5 9.17-5.46 18.35-10.9 27.52-16.32 9.15-5.41 18.3-10.8 27.46-16.18 9.14-5.38 18.29-10.74 27.44-16.09 9.14-5.36 18.29-10.7 27.43-16.03 9.15-5.33 18.29-10.67 27.44-15.99 9.14-5.3 18.29-10.62 27.43-15.93 9.15-5.3 18.29-10.61 27.43-15.9 9.15-5.3 18.29-10.59 27.44-15.88 9.14-5.3 18.29-10.58 27.43-15.87 9.15-5.29 18.29-10.58 27.44-15.87 9.14-5.27 18.29-10.56 27.43-15.85 9.15-5.27 18.29-10.56 27.43-15.84 9.15-5.29 18.29-10.56 27.44-15.85 9.14-5.27 18.29-10.56 27.43-15.84 9.15-5.27 18.29-10.56 27.44-15.84 9.14-5.29 18.29-10.56 27.43-15.84 9.15-5.29 18.29-10.56 27.43-15.85 9.15-5.27 18.3-10.56 27.44-15.84 9.15-5.29 18.29-10.56 27.43-15.84 9.15-5.29 18.3-10.56 27.44-15.85 9.15-5.27 18.29-10.56 27.43-15.84 9.15-5.29 18.3-10.56 27.44-15.85 9.17-5.27 18.3-10.56 27.44-15.84 7.47-4.32 14.94-8.62 22.41-12.94M2.39 508.39c7.96-4.61 15.93-9.2 23.88-13.79 9.15-5.29 18.29-10.56 27.43-15.85 9.15-5.27 18.3-10.56 27.44-15.84 9.15-5.27 18.29-10.55 27.43-15.82 9.15-5.27 18.3-10.55 27.46-15.79 9.15-5.24 18.29-10.47 27.43-15.64 9.17-5.17 18.32-10.27 27.47-15.21 9.17-4.96 18.32-9.73 27.47-14.11 9.17-4.41 18.34-8.44 27.46-11.76 9.17-3.35 18.3-5.99 27.34-7.62 9.21-1.68 18.3-2.32 27.28-2.09 9.3.23 18.46 1.38 27.55 2.59 9.24 1.23 18.4 2.52 27.62 2.5 9.08 0 18.21-1.27 27.41-4.74 9-3.41 18.08-8.94 27.12-16.5 9.12-7.64 18.24-17.34 27.31-28 9.21-10.86 18.4-22.73 27.62-34.5 9.11-11.61 18.27-23.11 27.59-33.84 8.99-10.33 18.11-19.97 27.35-28.75 9-8.55 18.12-16.29 27.29-23.41 9.11-7.11 18.27-13.59 27.44-19.74 9.17-6.14 18.34-11.93 27.49-17.55 9.17-5.62 18.32-11.08 27.47-16.49 9.15-5.39 18.3-10.73 27.46-16.05 9.15-5.3 18.29-10.61 27.44-15.9 9.15-5.29 18.29-10.58 27.44-15.85l27.46-15.87c9.17-5.29 18.34-10.59 27.5-15.88l27.64-15.96c9.27-5.35 18.56-10.71 27.85-16.08 9.38-5.41 18.76-10.83 28.15-16.26 9.05-5.23 18.11-10.46 27.17-15.68 1.47-.85 2.92-1.7 4.39-2.53M2.39 16.13c.47-.61.95-1.23 1.42-1.83C7.48 9.63 11.14 4.98 14.84.4M2.39 85.15c4.08-4.29 8.17-8.89 12.24-13.7 9.21-10.85 18.4-22.73 27.62-34.5 9.11-11.59 18.27-23.09 27.59-33.82.8-.92 1.59-1.83 2.39-2.73M2.39 137.08c7.76-3.44 15.58-8.44 23.37-14.96 9.14-7.64 18.24-17.34 27.31-28 9.23-10.86 18.4-22.73 27.64-34.5 9.11-11.61 18.27-23.11 27.59-33.84 7.85-9.03 15.8-17.53 23.87-25.38M2.39 165.8c2.42.15 4.85.23 7.27.23 9.08 0 18.21-1.26 27.43-4.74 9-3.41 18.06-8.94 27.11-16.5 9.14-7.62 18.24-17.32 27.31-28 9.23-10.86 18.4-22.73 27.64-34.5 9.11-11.59 18.27-23.09 27.59-33.84 8.97-10.33 18.09-19.96 27.35-28.75 7.29-6.92 14.67-13.32 22.08-19.29" style="fill:none;stroke:#fff;stroke-linecap:round;stroke-linejoin:round;stroke-width:.8px"/><path d="M2.39 184.12c6.08.5 12.11 1.27 18.11 2.06 9.23 1.23 18.4 2.52 27.61 2.52 9.08-.02 18.21-1.27 27.43-4.76 9-3.39 18.06-8.93 27.11-16.49 9.14-7.64 18.24-17.34 27.31-28 9.23-10.86 18.4-22.74 27.64-34.5 9.11-11.61 18.26-23.11 27.59-33.84 8.97-10.33 18.09-19.97 27.34-28.75 9-8.55 18.12-16.29 27.29-23.43 8.53-6.64 17.09-12.74 25.67-18.53" style="fill:none;stroke:#fff;stroke-linecap:round;stroke-linejoin:round;stroke-width:.8px"/><path d="M2.39 208.66c.58-.11 1.15-.21 1.71-.32 9.21-1.67 18.3-2.32 27.28-2.09 9.3.23 18.47 1.38 27.56 2.59 9.23 1.23 18.4 2.52 27.61 2.5 9.08 0 18.21-1.26 27.43-4.74 8.99-3.41 18.06-8.94 27.11-16.5 9.14-7.62 18.24-17.32 27.31-28 9.21-10.86 18.4-22.73 27.62-34.5 9.11-11.59 18.27-23.09 27.59-33.84 8.99-10.33 18.11-19.96 27.35-28.75 9-8.55 18.12-16.27 27.29-23.41 9.11-7.11 18.27-13.59 27.44-19.74 9.17-6.14 18.34-11.93 27.5-17.55 2.14-1.32 4.27-2.62 6.41-3.91" style="fill:none;stroke:#fff;stroke-linecap:round;stroke-linejoin:round;stroke-width:.8px"/><path d="M2.39 243.71c4.27-1.82 8.55-3.53 12.82-5.08 9.17-3.35 18.3-5.99 27.34-7.64 9.21-1.67 18.3-2.3 27.28-2.09 9.3.23 18.46 1.38 27.55 2.59 9.24 1.23 18.4 2.52 27.62 2.52 9.08-.02 18.21-1.27 27.41-4.76 9-3.41 18.08-8.94 27.12-16.49 9.12-7.64 18.24-17.34 27.31-28.02 9.21-10.85 18.4-22.73 27.62-34.49 9.11-11.61 18.27-23.11 27.59-33.84 8.99-10.35 18.11-19.97 27.35-28.75 9-8.55 18.12-16.29 27.29-23.43 9.11-7.09 18.27-13.59 27.44-19.73 9.17-6.15 18.34-11.93 27.5-17.56 9.15-5.61 18.3-11.08 27.46-16.47 5.74-3.39 11.49-6.74 17.23-10.09" style="fill:none;stroke:#fff;stroke-linecap:round;stroke-linejoin:round;stroke-width:.8px"/><path d="M2.39 285.19c7.94-4.24 15.88-8.33 23.81-12.14 9.17-4.41 18.34-8.44 27.44-11.76 9.18-3.35 18.32-5.99 27.35-7.62 9.2-1.68 18.3-2.32 27.28-2.09 9.3.23 18.46 1.38 27.55 2.59 9.24 1.23 18.4 2.5 27.62 2.5s18.21-1.27 27.41-4.76c9-3.39 18.08-8.93 27.12-16.49 9.12-7.64 18.23-17.34 27.31-28 9.21-10.86 18.4-22.73 27.62-34.5 9.11-11.61 18.27-23.11 27.59-33.84 8.99-10.33 18.11-19.97 27.35-28.75 9-8.55 18.12-16.29 27.29-23.43 9.11-7.09 18.27-13.59 27.44-19.73 9.17-6.14 18.34-11.93 27.49-17.55 9.17-5.62 18.32-11.08 27.47-16.49 9.15-5.39 18.3-10.73 27.46-16.05 9.15-5.3 18.29-10.61 27.44-15.9.47-.27.92-.55 1.39-.8" style="fill:none;stroke:#fff;stroke-linecap:round;stroke-linejoin:round;stroke-width:.8px"/><path d="M2.39 329.18c2.42-1.39 4.86-2.77 7.3-4.15 9.17-5.17 18.32-10.27 27.47-15.21 9.17-4.94 18.32-9.71 27.46-14.11 9.18-4.41 18.34-8.43 27.46-11.76 9.18-3.33 18.32-5.97 27.35-7.62 9.2-1.67 18.3-2.32 27.28-2.09 9.29.23 18.46 1.38 27.55 2.59 9.24 1.23 18.4 2.52 27.62 2.5 9.08 0 18.2-1.26 27.41-4.74 9-3.41 18.06-8.94 27.11-16.5 9.14-7.62 18.24-17.32 27.31-28 9.23-10.85 18.4-22.73 27.64-34.5 9.11-11.59 18.27-23.09 27.59-33.84 8.97-10.33 18.09-19.96 27.35-28.75 9-8.53 18.11-16.27 27.28-23.41 9.12-7.09 18.29-13.59 27.46-19.73 9.17-6.15 18.34-11.94 27.49-17.56 9.15-5.62 18.32-11.08 27.47-16.47 9.15-5.39 18.3-10.74 27.46-16.05 9.14-5.32 18.29-10.62 27.44-15.91 9.14-5.29 18.29-10.56 27.44-15.85 4.39-2.55 8.79-5.08 13.18-7.61" style="fill:none;stroke:#fff;stroke-linecap:round;stroke-linejoin:round;stroke-width:.8px"/><path d="M2.39 373.85c6.11-3.52 12.2-7.02 18.3-10.52 9.15-5.26 18.3-10.49 27.44-15.64 9.15-5.18 18.32-10.29 27.46-15.21 9.17-4.96 18.34-9.73 27.47-14.12 9.18-4.39 18.34-8.43 27.46-11.74 9.18-3.35 18.32-5.99 27.35-7.62 9.2-1.68 18.29-2.32 27.28-2.11 9.29.23 18.46 1.39 27.55 2.59 9.23 1.24 18.4 2.52 27.61 2.52 9.08-.02 18.21-1.27 27.43-4.76 9-3.39 18.06-8.93 27.11-16.49 9.14-7.64 18.24-17.34 27.31-28 9.23-10.86 18.4-22.74 27.64-34.5 9.11-11.61 18.27-23.11 27.59-33.84 8.97-10.33 18.09-19.97 27.35-28.75 8.99-8.55 18.11-16.29 27.28-23.43 9.12-7.09 18.29-13.59 27.46-19.73 9.15-6.14 18.32-11.93 27.49-17.55 9.15-5.62 18.3-11.08 27.47-16.49 9.15-5.39 18.3-10.73 27.46-16.05 9.14-5.32 18.29-10.61 27.43-15.9 9.15-5.29 18.3-10.58 27.44-15.87 9.15-5.27 18.3-10.56 27.46-15.85 8.33-4.8 16.65-9.61 24.97-14.41" style="fill:none;stroke:#fff;stroke-linecap:round;stroke-linejoin:round;stroke-width:.8px"/><path d="m2.39 418.69 1.86-1.09c9.15-5.27 18.3-10.55 27.44-15.82 9.15-5.27 18.3-10.55 27.44-15.79 9.15-5.24 18.29-10.47 27.44-15.64 9.15-5.17 18.32-10.27 27.46-15.21 9.17-4.94 18.34-9.71 27.47-14.11 9.18-4.41 18.34-8.43 27.46-11.76 9.18-3.35 18.3-5.99 27.35-7.62 9.2-1.67 18.29-2.32 27.28-2.09 9.29.23 18.46 1.38 27.55 2.59 9.23 1.23 18.4 2.52 27.61 2.5 9.08 0 18.21-1.26 27.43-4.74 9-3.41 18.06-8.94 27.11-16.5 9.14-7.62 18.24-17.32 27.31-28 9.23-10.86 18.4-22.73 27.64-34.5 9.09-11.59 18.26-23.09 27.59-33.84 8.97-10.33 18.09-19.96 27.34-28.75 9-8.55 18.12-16.27 27.29-23.41 9.12-7.11 18.27-13.59 27.44-19.74 9.17-6.14 18.34-11.93 27.5-17.55 9.15-5.62 18.3-11.08 27.47-16.49 9.15-5.39 18.3-10.73 27.44-16.05 9.15-5.3 18.3-10.61 27.44-15.9 9.15-5.29 18.3-10.58 27.44-15.85l27.46-15.87c9.17-5.29 18.34-10.58 27.52-15.88 9.2-5.32 18.41-10.62 27.62-15.94 3.03-1.76 6.05-3.5 9.08-5.24" style="fill:none;stroke:#fff;stroke-linecap:round;stroke-linejoin:round;stroke-width:.8px"/><path d="M2.39 463.54c4.29-2.49 8.58-4.96 12.87-7.44 9.15-5.29 18.3-10.56 27.44-15.84 9.15-5.29 18.29-10.56 27.43-15.82 9.17-5.29 18.3-10.55 27.46-15.79a3668 3668 0 0 1 27.43-15.64c9.17-5.18 18.32-10.29 27.47-15.23 9.17-4.94 18.32-9.71 27.47-14.11 9.17-4.41 18.34-8.43 27.46-11.74 9.17-3.35 18.3-5.99 27.34-7.64 9.21-1.67 18.3-2.3 27.28-2.09 9.3.23 18.47 1.38 27.56 2.59 9.23 1.23 18.4 2.52 27.61 2.52 9.08-.02 18.21-1.27 27.43-4.76 8.99-3.41 18.06-8.93 27.11-16.49 9.14-7.64 18.24-17.34 27.31-28.02 9.21-10.85 18.4-22.73 27.62-34.49 9.11-11.61 18.27-23.11 27.59-33.84 8.99-10.35 18.11-19.97 27.35-28.75 9-8.55 18.12-16.29 27.29-23.43 9.11-7.09 18.27-13.59 27.44-19.73 9.17-6.15 18.34-11.93 27.5-17.56 9.15-5.61 18.3-11.08 27.47-16.47 9.14-5.39 18.29-10.73 27.44-16.05 9.15-5.32 18.29-10.61 27.44-15.9 9.15-5.29 18.29-10.58 27.44-15.87 9.15-5.29 18.3-10.56 27.46-15.85 9.17-5.3 18.34-10.59 27.5-15.88l27.64-15.96c9.27-5.36 18.56-10.71 27.85-16.08 6.82-3.94 13.65-7.88 20.47-11.82M2.39 956.93c.14-.08.27-.17.42-.24 9.14-5.29 18.29-10.56 27.43-15.84 9.15-5.29 18.29-10.56 27.44-15.85 9.14-5.27 18.29-10.56 27.43-15.84 9.15-5.27 18.29-10.56 27.44-15.84 9.14-5.29 18.27-10.56 27.43-15.84 9.14-5.29 18.29-10.56 27.43-15.84 9.15-5.29 18.29-10.56 27.44-15.85 9.14-5.27 18.29-10.56 27.43-15.84 9.15-5.29 18.29-10.56 27.43-15.84 9.15-5.29 18.3-10.56 27.44-15.84 9.14-5.29 18.29-10.56 27.43-15.85 9.15-5.27 18.29-10.56 27.44-15.84 9.14-5.27 18.29-10.56 27.43-15.84 9.15-5.29 18.29-10.56 27.44-15.84 9.14-5.29 18.29-10.56 27.43-15.85 9.15-5.27 18.29-10.56 27.43-15.84 9.15-5.29 18.3-10.56 27.44-15.84 9.15-5.29 18.29-10.56 27.43-15.84 9.17-5.27 18.3-10.55 27.46-15.8 9.15-5.26 18.29-10.5 27.44-15.68 9.15-5.2 18.32-10.33 27.46-15.33 9.17-5.02 18.34-9.86 27.47-14.4 9.18-4.55 18.34-8.76 27.46-12.33 9.17-3.61 18.3-6.59 27.32-8.71 9.2-2.15 18.29-3.39 27.26-3.83 9.29-.45 18.46-.05 27.56.65 9.24.71 18.44 1.73 27.67 2.03 9.11.3 18.24-.08 27.43-2.11 8.99-1.99 18.02-5.56 27.05-11.05 9.11-5.53 18.21-13.03 27.29-21.97 9.23-9.09 18.43-19.68 27.68-30.88 9.12-11.05 18.3-22.67 27.64-34.03 8.97-10.94 18.08-21.64 27.32-31.59 8.99-9.67 18.09-18.64 27.25-26.82 9.12-8.14 18.27-15.5 27.44-22.29 9.17-6.8 18.34-13.05 27.5-19 9.17-5.94 18.32-11.59 27.47-17.12 9.15-5.53 18.3-10.94 27.46-16.29 9.15-5.36 18.29-10.68 27.44-15.99 9.15-5.29 18.29-10.58 27.44-15.87 9.15-5.3 18.3-10.58 27.46-15.87 9.18-5.3 18.35-10.61 27.53-15.9l27.65-15.97c9.3-5.36 18.61-10.74 27.9-16.11 9.39-5.42 18.77-10.83 28.17-16.26 9-5.2 18.02-10.4 27.02-15.59 7.56-4.38 15.12-8.74 22.7-13.11C1412.08 143.04 1535.61 71.71 1659.15.4M1700.4 873.66c-5.17 2.97-10.29 5.94-15.4 8.88-9.23 5.33-18.34 10.59-27.32 15.77-9.32 5.38-18.5 10.68-27.62 15.96-9.26 5.35-18.47 10.65-27.7 15.99-9.06 5.24-18.17 10.5-27.28 15.76-9.03 5.21-18.06 10.43-27.05 15.62-9.2 5.3-18.34 10.59-27.43 15.85-9.24 5.35-18.43 10.67-27.68 16.05-9.11 5.29-18.27 10.62-27.56 16.06a4832.39 4832.39 0 0 0-27.25 16.08 2585.13 2585.13 0 0 0-27.34 16.49c-9.11 5.58-18.27 11.27-27.44 17.15-9.15 5.85-18.3 11.88-27.47 18.11-9.15 6.23-18.3 12.68-27.47 19.4-9.14 6.7-18.29 13.65-27.44 20.88-9.14 7.23-18.29 14.74-27.44 22.5-9.14 7.74-18.29 15.73-27.43 23.91-9.15 8.17-18.29 16.53-27.44 24.99-9.14 8.44-18.29 16.99-27.44 25.5-9.14 8.52-18.27 17-27.43 25.35-9.14 8.35-18.29 16.55-27.43 24.47-9.15 7.93-18.29 15.58-27.44 22.85-9.14 7.29-18.29 14.2-27.43 20.7-9.15 6.49-18.29 12.56-27.44 18.18a454.772 454.772 0 0 1-27.43 15.64c-9.14 4.79-18.29 9.18-27.43 13.26-9.15 4.06-18.29 7.8-27.44 11.3-9.14 3.5-18.29 6.77-27.43 9.91-9.15 3.14-18.29 6.15-27.44 9.11-9.14 2.97-18.27 5.88-27.43 8.8-9.14 2.94-18.29 5.89-27.43 8.89-9.15 3-18.29 6.06-27.44 9.2-9.14 3.14-18.29 6.36-27.43 9.68-9.14 3.3-18.27 6.73-27.44 10.26-9.12 3.52-18.27 7.17-27.44 10.93-9.14 3.74-18.29 7.62-27.46 11.61-9.17 3.99-18.34 8.09-27.52 12.32-9.21 4.23-18.43 8.58-27.67 13.02-9.29 4.47-18.59 9.05-27.9 13.7-9.38 4.68-18.76 9.46-28.15 14.27-1.65.85-3.29 1.7-4.94 2.55-15.14 7.8-30.14 15.87-44.99 24.2-4.18 2.35-8.36 4.7-12.53 7.03-94.33 52.95-188.64 105.57-282.92 156.58" style="fill:none;stroke:#fff;stroke-linecap:round;stroke-linejoin:round;stroke-width:.8px"/><path d="m1700.4 918.51-3.86 2.23c-9.33 5.39-18.52 10.68-27.64 15.96-9.26 5.35-18.46 10.65-27.68 15.99-9.08 5.24-18.18 10.5-27.29 15.76-9.03 5.21-18.06 10.43-27.05 15.61-9.18 5.32-18.32 10.59-27.43 15.84-9.23 5.35-18.43 10.65-27.67 16-9.11 5.26-18.27 10.56-27.56 15.96-8.97 5.2-18.06 10.47-27.26 15.82-9.02 5.24-18.15 10.58-27.32 15.97-9.12 5.36-18.27 10.77-27.46 16.27-9.14 5.47-18.3 11.02-27.47 16.65-9.14 5.64-18.3 11.38-27.46 17.27-9.15 5.86-18.29 11.88-27.44 18.08-9.15 6.18-18.29 12.56-27.46 19.15-9.14 6.58-18.27 13.38-27.43 20.4-9.14 7.03-18.29 14.27-27.44 21.76-9.14 7.47-18.27 15.17-27.43 23.05-9.14 7.89-18.29 15.97-27.43 24.17-9.15 8.18-18.29 16.5-27.44 24.85-9.14 8.33-18.29 16.68-27.43 24.96-9.15 8.27-18.29 16.46-27.44 24.44a1178.97 1178.97 0 0 1-27.43 23.28c-9.14 7.5-18.29 14.71-27.44 21.58-9.14 6.86-18.27 13.38-27.43 19.55a577.708 577.708 0 0 1-54.87 32.69c-9.14 4.77-18.29 9.26-27.43 13.5a797.13 797.13 0 0 1-27.43 12.05c-9.15 3.82-18.29 7.47-27.44 10.99-9.14 3.52-18.29 6.91-27.43 10.21-9.15 3.32-18.29 6.56-27.44 9.77-9.14 3.21-18.29 6.38-27.43 9.58-9.15 3.18-18.29 6.39-27.44 9.64-9.15 3.26-18.3 6.55-27.46 9.93-5.02 1.85-10.02 3.73-15.03 5.62a1456.25 1456.25 0 0 0-196.81 91.77c-62.17 34.84-124.35 69.49-186.52 103.59" style="fill:none;stroke:#fff;stroke-linecap:round;stroke-linejoin:round;stroke-width:.8px"/><path d="M1700.4 963.37c-6.79 3.92-13.56 7.83-20.35 11.74-9.08 5.24-18.17 10.5-27.28 15.76-9.03 5.21-18.06 10.43-27.05 15.61-9.2 5.3-18.34 10.59-27.43 15.84-9.24 5.33-18.43 10.64-27.68 15.99-9.11 5.26-18.27 10.55-27.56 15.93-8.97 5.18-18.06 10.43-27.25 15.74-9.03 5.23-18.15 10.5-27.34 15.82-9.11 5.29-18.27 10.61-27.44 15.96-9.15 5.33-18.3 10.7-27.47 16.09-9.15 5.38-18.3 10.8-27.47 16.29-9.14 5.47-18.29 11-27.44 16.61-9.14 5.61-18.29 11.3-27.44 17.11-9.14 5.8-18.29 11.73-27.43 17.79-9.15 6.08-18.29 12.29-27.44 18.7-9.14 6.41-18.29 13-27.44 19.79-9.14 6.79-18.27 13.79-27.43 21-9.14 7.21-18.29 14.62-27.44 22.21-9.14 7.59-18.27 15.37-27.43 23.28-9.14 7.91-18.29 15.94-27.43 24.03-9.15 8.08-18.29 16.23-27.44 24.34-9.14 8.11-18.27 16.18-27.43 24.14-9.14 7.96-18.29 15.8-27.43 23.44-9.15 7.64-18.29 15.08-27.44 22.28a933.919 933.919 0 0 1-27.43 20.77 811.523 811.523 0 0 1-27.44 19.12 742.791 742.791 0 0 1-27.43 17.47 774.643 774.643 0 0 1-27.43 15.9c-9.15 5.06-18.29 9.88-27.44 14.49-9.14 4.61-18.29 9-27.43 13.21-9.17 4.23-18.3 8.26-27.44 12.15-9.15 3.91-18.3 7.67-27.44 11.32-9.15 3.68-18.3 7.26-27.46 10.77-9.18 3.55-18.35 7.03-27.52 10.5-8.05 3.05-16.08 6.09-24.12 9.15a1459.847 1459.847 0 0 0-193.66 90.37c-26.52 14.83-53.02 29.62-79.54 44.34" style="fill:none;stroke:#fff;stroke-linecap:round;stroke-linejoin:round;stroke-width:.8px"/><path d="M1700.4 1008.22c-2.92 1.68-5.86 3.38-8.79 5.08-9.03 5.21-18.06 10.43-27.05 15.61-9.18 5.3-18.32 10.59-27.43 15.84-9.23 5.33-18.43 10.64-27.67 15.99-9.11 5.26-18.27 10.55-27.56 15.91-8.97 5.18-18.06 10.43-27.26 15.74-9.02 5.21-18.15 10.49-27.32 15.77-9.12 5.27-18.27 10.56-27.46 15.88-9.14 5.29-18.3 10.59-27.47 15.91-9.14 5.3-18.3 10.62-27.46 15.96-9.15 5.32-18.29 10.67-27.44 16.05-9.15 5.36-18.29 10.77-27.46 16.21-9.14 5.44-18.27 10.93-27.43 16.49-9.14 5.55-18.29 11.17-27.44 16.88a1923.79 1923.79 0 0 0-27.43 17.47c-9.14 5.92-18.29 11.99-27.43 18.2-9.15 6.21-18.29 12.58-27.44 19.11-9.14 6.53-18.29 13.24-27.43 20.12a1444.82 1444.82 0 0 0-27.44 21.17 1898.99 1898.99 0 0 0-27.43 22.12c-9.15 7.5-18.29 15.15-27.44 22.87-9.14 7.73-18.27 15.52-27.43 23.34-9.14 7.8-18.29 15.64-27.43 23.41-9.15 7.77-18.29 15.49-27.44 23.09-9.14 7.61-18.29 15.11-27.43 22.47-9.14 7.35-18.29 14.56-27.44 21.61-9.14 7.03-18.27 13.91-27.43 20.59-9.14 6.7-18.29 13.2-27.43 19.5-9.15 6.3-18.29 12.4-27.44 18.29a968.278 968.278 0 0 1-27.43 17.03c-9.15 5.46-18.3 10.71-27.44 15.79-9.17 5.06-18.32 9.94-27.46 14.64-9.18 4.73-18.37 9.27-27.53 13.7-9.23 4.44-18.44 8.76-27.65 12.96-9.3 4.26-18.61 8.41-27.9 12.5-3.45 1.53-6.89 3.03-10.35 4.53a1458.515 1458.515 0 0 0-129.73 64.45c-4.73 2.64-9.44 5.29-14.15 7.93M1700.4 828.81c-9.02 5.2-18.02 10.4-26.97 15.58-9.17 5.29-18.27 10.55-27.26 15.73-9.24 5.33-18.35 10.59-27.32 15.77-9.33 5.38-18.52 10.68-27.64 15.96-9.26 5.35-18.46 10.67-27.68 15.99-9.08 5.24-18.18 10.5-27.29 15.77-9.02 5.21-18.06 10.44-27.05 15.65a9159.37 9159.37 0 0 0-27.41 15.93c-9.24 5.38-18.44 10.76-27.68 16.23-9.11 5.36-18.27 10.83-27.56 16.44-8.97 5.44-18.06 11.02-27.26 16.8-9.02 5.7-18.15 11.59-27.32 17.73a963.373 963.373 0 0 0-27.46 19.09c-9.14 6.64-18.3 13.56-27.47 20.84a817.84 817.84 0 0 0-27.46 22.76c-9.15 7.89-18.29 16.12-27.44 24.58-9.15 8.47-18.29 17.15-27.46 25.96-9.14 8.77-18.27 17.65-27.43 26.46-9.14 8.8-18.29 17.53-27.44 26.03-9.14 8.49-18.27 16.74-27.43 24.64-9.14 7.89-18.29 15.44-27.43 22.52-9.15 7.08-18.29 13.71-27.44 19.85-9.14 6.14-18.29 11.79-27.43 16.94a392.25 392.25 0 0 1-27.44 14.11c-9.14 4.24-18.27 8.08-27.43 11.58-9.14 3.5-18.29 6.67-27.43 9.62-9.15 2.95-18.29 5.7-27.44 8.35-9.14 2.64-18.29 5.18-27.43 7.73-9.15 2.55-18.29 5.12-27.44 7.77-9.14 2.65-18.27 5.39-27.43 8.29-9.14 2.88-18.29 5.91-27.43 9.11a891.65 891.65 0 0 0-27.44 10.05c-1.68.64-3.38 1.29-5.06 1.95a1454.95 1454.95 0 0 0-182.03 85.74c-25.81 14.4-51.6 28.81-77.39 43.2l-10.99 6.14c-7.56 4.24-15.12 8.49-22.7 12.73-115.07 64.6-230.15 128.71-345.16 190.01M1670.29 1698.41c1.03-.59 2.05-1.18 3.08-1.77 9.02-5.21 18.02-10.41 27.03-15.61M1592.6 1698.41c8.64-4.99 17.26-9.97 25.88-14.96 9.15-5.27 18.3-10.55 27.44-15.84 9.15-5.29 18.3-10.56 27.44-15.84 9.02-5.21 18.02-10.41 27.03-15.61M1514.91 1698.41c7.09-4.09 14.18-8.2 21.29-12.29 9.14-5.29 18.27-10.56 27.43-15.84 9.14-5.29 18.29-10.56 27.44-15.85 9.14-5.27 18.27-10.55 27.41-15.84 9.15-5.27 18.3-10.56 27.44-15.84 9.15-5.29 18.3-10.56 27.44-15.85 9.02-5.2 18.02-10.4 27.03-15.59M2.39 598.1c6.29-3.64 12.58-7.27 18.87-10.9 9.15-5.29 18.29-10.56 27.43-15.84 9.15-5.29 18.29-10.56 27.44-15.85 9.14-5.27 18.29-10.56 27.43-15.84 9.15-5.27 18.29-10.56 27.44-15.84 9.14-5.29 18.29-10.56 27.43-15.84 9.15-5.29 18.3-10.56 27.44-15.82 9.15-5.29 18.3-10.55 27.44-15.79 9.15-5.24 18.3-10.47 27.44-15.62 9.15-5.15 18.32-10.24 27.46-15.15 9.17-4.91 18.34-9.62 27.49-13.94 9.17-4.33 18.34-8.26 27.44-11.49 9.18-3.24 18.3-5.76 27.34-7.38 9.18-1.65 18.27-2.36 27.25-2.38 9.29 0 18.46.74 27.56 1.49 9.26.74 18.44 1.45 27.67 1.08 9.09-.39 18.23-1.86 27.43-5.26 8.99-3.32 18.03-8.49 27.06-15.49 9.11-7.06 18.21-15.99 27.28-25.99 9.23-10.17 18.43-21.41 27.68-32.79 9.12-11.21 18.3-22.55 27.62-33.32 8.99-10.38 18.09-20.23 27.34-29.29 8.99-8.82 18.09-16.9 27.26-24.31 9.11-7.36 18.27-14.09 27.44-20.4 9.15-6.32 18.34-12.21 27.49-17.91 9.17-5.71 18.32-11.21 27.49-16.64 9.14-5.42 18.29-10.77 27.44-16.11 9.15-5.32 18.3-10.62 27.44-15.91 9.15-5.29 18.3-10.58 27.44-15.87 9.15-5.29 18.3-10.58 27.47-15.87 9.17-5.29 18.34-10.59 27.52-15.88 9.21-5.32 18.43-10.65 27.65-15.97 9.29-5.36 18.59-10.73 27.88-16.11 9.39-5.41 18.77-10.83 28.17-16.26 9.02-5.2 18.03-10.41 27.05-15.61 7.59-4.38 15.17-8.76 22.74-13.14 19.47-11.23 38.93-22.47 58.4-33.72M1049.75 1698.41c2.82-1.64 5.62-3.29 8.44-4.92 9.2-5.36 18.38-10.71 27.58-16.06 9.17-5.33 18.32-10.67 27.49-15.99 9.15-5.32 18.3-10.62 27.44-15.93 9.15-5.3 18.3-10.61 27.44-15.9 9.15-5.3 18.29-10.59 27.44-15.88 9.14-5.3 18.29-10.59 27.43-15.88 9.15-5.29 18.29-10.56 27.43-15.85 9.15-5.29 18.29-10.58 27.44-15.85 9.14-5.29 18.29-10.56 27.43-15.85 9.15-5.29 18.29-10.56 27.44-15.84 9.14-5.29 18.29-10.58 27.43-15.85 9.15-5.27 18.29-10.56 27.43-15.84 9.15-5.29 18.29-10.56 27.44-15.84 9.14-5.29 18.29-10.56 27.43-15.85 9.15-5.27 18.29-10.56 27.43-15.84 9.15-5.27 18.3-10.56 27.44-15.84 9.15-5.29 18.29-10.56 27.43-15.84 9.15-5.29 18.3-10.56 27.44-15.85 9.15-5.27 18.29-10.56 27.43-15.84 9.15-5.29 18.29-10.56 27.44-15.84 9.15-5.29 18.29-10.56 27.43-15.85 9.15-5.27 18.29-10.56 27.44-15.84 9.15-5.29 18.3-10.56 27.44-15.85 3.67-2.11 7.33-4.23 11-6.35M721.75 1698.41c2.94-1.92 5.83-3.76 8.8-5.59 3.79-2.32 7.58-4.58 11.36-6.79 9-5.26 18-10.36 27.02-15.49 9.38-5.35 18.77-10.7 28.15-16.17 9.3-5.42 18.61-10.96 27.9-16.64 9.23-5.64 18.46-11.41 27.67-17.35 9.18-5.94 18.35-12.02 27.52-18.27 9.17-6.24 18.32-12.65 27.46-19.23 9.17-6.58 18.32-13.3 27.44-20.17 9.17-6.88 18.3-13.9 27.44-21 9.14-7.12 18.29-14.35 27.43-21.65 9.15-7.29 18.29-14.65 27.44-22.05 9.14-7.39 18.29-14.83 27.43-22.26 9.15-7.44 18.29-14.88 27.43-22.29 9.15-7.43 18.29-14.82 27.44-22.17 9.14-7.35 18.29-14.65 27.43-21.87 9.15-7.23 18.29-14.37 27.44-21.4 9.14-7.03 18.29-13.96 27.43-20.74 9.14-6.77 18.29-13.44 27.43-19.94 9.15-6.52 18.29-12.9 27.44-19.14 9.14-6.24 18.29-12.35 27.43-18.35a2070.6 2070.6 0 0 1 27.43-17.64c9.15-5.79 18.3-11.49 27.44-17.09 9.15-5.62 18.29-11.17 27.43-16.65 9.15-5.5 18.3-10.94 27.44-16.35 9.15-5.41 18.29-10.77 27.43-16.12 9.15-5.36 18.3-10.7 27.44-16 9.15-5.33 18.3-10.64 27.44-15.94 9.15-5.3 18.3-10.59 27.44-15.88l27.47-15.88c9.17-5.3 18.32-10.59 27.47-15.87 9.17-5.3 18.34-10.59 27.44-15.85 9.18-5.3 18.3-10.58 27.34-15.79 9.18-5.3 18.27-10.55 27.25-15.73 9.29-5.36 18.46-10.65 27.56-15.91 9.26-5.35 18.44-10.65 27.68-15.99 8.09-4.68 16.23-9.36 24.41-14.09M792.17 1698.41c5.32-3.83 10.73-7.67 15.61-11.14 9.39-6.68 18.77-13.35 28.17-20.08 9.3-6.7 18.61-13.46 27.9-20.31 9.23-6.8 18.46-13.71 27.65-20.7 9.18-6.96 18.37-14 27.53-21.11 9.15-7.11 18.3-14.29 27.46-21.49 9.15-7.21 18.29-14.47 27.44-21.73 9.14-7.27 18.29-14.55 27.43-21.79 9.15-7.26 18.29-14.47 27.44-21.65 9.14-7.17 18.29-14.27 27.43-21.31 9.15-7.05 18.29-14 27.43-20.87 9.15-6.88 18.29-13.65 27.44-20.35 9.14-6.68 18.29-13.29 27.43-19.79 9.15-6.52 18.29-12.93 27.44-19.24a2337.7 2337.7 0 0 1 27.43-18.68c9.15-6.12 18.29-12.17 27.43-18.11 9.15-5.96 18.29-11.8 27.44-17.58 9.14-5.77 18.29-11.47 27.43-17.11 9.15-5.62 18.29-11.2 27.44-16.71 9.14-5.52 18.29-10.97 27.43-16.41 9.15-5.42 18.29-10.82 27.43-16.2 9.15-5.36 18.3-10.71 27.44-16.05 9.15-5.33 18.29-10.65 27.43-15.96 9.15-5.32 18.3-10.62 27.44-15.91 9.15-5.29 18.29-10.59 27.43-15.87l27.46-15.87c9.15-5.29 18.29-10.58 27.44-15.85 9.15-5.29 18.32-10.58 27.46-15.87 9.17-5.29 18.34-10.58 27.47-15.87 9.18-5.29 18.34-10.58 27.46-15.84 9.17-5.3 18.29-10.58 27.32-15.79 9.2-5.3 18.27-10.55 27.26-15.73 9.29-5.36 18.46-10.65 27.56-15.91 4.42-2.56 8.83-5.11 13.24-7.65M832.76 1698.41c4.62-3.52 9.24-7.02 13.87-10.52 9.38-7.12 18.77-14.23 28.15-21.37 9.3-7.06 18.61-14.14 27.9-21.23 9.23-7.02 18.44-14.06 27.67-21.09 9.17-6.99 18.34-13.97 27.52-20.93 9.15-6.94 18.3-13.85 27.46-20.71 9.14-6.85 18.29-13.67 27.44-20.43 9.14-6.73 18.29-13.41 27.44-20.03 9.14-6.59 18.27-13.12 27.43-19.56 9.15-6.42 18.29-12.77 27.44-19.03 9.14-6.26 18.29-12.43 27.43-18.52s18.29-12.09 27.43-18.02c9.15-5.94 18.29-11.8 27.44-17.59 9.14-5.8 18.29-11.53 27.43-17.21 9.15-5.68 18.29-11.3 27.44-16.88 9.14-5.59 18.29-11.12 27.43-16.62a5661.2 5661.2 0 0 1 27.43-16.38c9.15-5.42 18.29-10.82 27.44-16.2 9.14-5.38 18.29-10.73 27.43-16.06 9.15-5.35 18.29-10.67 27.43-15.99 9.15-5.32 18.3-10.62 27.44-15.91 9.15-5.3 18.29-10.59 27.43-15.88 9.15-5.3 18.3-10.58 27.44-15.87 9.15-5.29 18.29-10.58 27.43-15.85 9.15-5.29 18.3-10.56 27.44-15.85 9.15-5.29 18.3-10.56 27.44-15.85 9.15-5.27 18.3-10.56 27.44-15.84 9.17-5.29 18.32-10.58 27.47-15.87 9.17-5.29 18.32-10.58 27.47-15.87 9.17-5.29 18.34-10.58 27.44-15.84 9.18-5.3 18.3-10.58 27.34-15.79 9.18-5.3 18.27-10.55 27.25-15.73.65-.38 1.32-.76 1.97-1.14M914.09 1698.41l10.23-6.55c9.39-6.03 18.77-12.09 28.17-18.14 9.29-5.99 18.59-11.97 27.9-17.91 9.21-5.89 18.43-11.76 27.65-17.58a5364.676 5364.676 0 0 1 54.98-34.25c9.15-5.62 18.29-11.21 27.44-16.76 9.15-5.56 18.29-11.08 27.44-16.58 9.14-5.49 18.29-10.96 27.43-16.4 9.15-5.44 18.29-10.85 27.44-16.24 9.14-5.41 18.29-10.77 27.43-16.14 9.14-5.36 18.29-10.71 27.43-16.05 9.15-5.33 18.29-10.67 27.44-15.97 9.14-5.32 18.29-10.64 27.43-15.94 9.15-5.3 18.29-10.61 27.43-15.9 9.15-5.3 18.29-10.59 27.44-15.88 9.14-5.29 18.29-10.58 27.43-15.87 9.15-5.29 18.29-10.56 27.44-15.85 9.14-5.29 18.29-10.56 27.43-15.85 9.15-5.27 18.29-10.56 27.43-15.84 9.15-5.29 18.3-10.56 27.44-15.85 9.15-5.27 18.29-10.56 27.43-15.84 9.15-5.29 18.3-10.56 27.44-15.84 9.15-5.29 18.29-10.56 27.43-15.85 9.15-5.27 18.3-10.56 27.44-15.84 9.15-5.29 18.3-10.56 27.44-15.85 9.15-5.27 18.3-10.56 27.44-15.84 9.17-5.29 18.32-10.58 27.47-15.87 9.17-5.29 18.32-10.58 27.47-15.87 2.11-1.21 4.2-2.42 6.3-3.64M1126.46 1698.41c8.56-4.94 17.12-9.88 25.67-14.82 9.15-5.29 18.29-10.56 27.43-15.84 9.15-5.29 18.3-10.56 27.44-15.85 9.14-5.27 18.29-10.55 27.43-15.84 9.14-5.27 18.29-10.55 27.43-15.84 9.15-5.27 18.29-10.56 27.44-15.84 9.14-5.29 18.29-10.56 27.43-15.84 9.15-5.29 18.3-10.56 27.44-15.85 9.15-5.27 18.29-10.56 27.43-15.84 9.15-5.27 18.29-10.56 27.44-15.84 9.14-5.29 18.27-10.56 27.43-15.84 9.14-5.29 18.29-10.56 27.43-15.84 9.15-5.29 18.3-10.58 27.44-15.85s18.27-10.55 27.43-15.84c9.14-5.27 18.29-10.56 27.44-15.84 9.14-5.29 18.27-10.56 27.43-15.84 9.14-5.29 18.29-10.58 27.44-15.85 9.14-5.27 18.27-10.56 27.41-15.84 9.15-5.27 18.3-10.56 27.44-15.84 9.15-5.29 18.3-10.58 27.44-15.85 9.02-5.2 18.02-10.4 27.03-15.61M867.89 1698.41c5.86-4.12 11.73-8.27 17.58-12.43 9.39-6.67 18.77-13.37 28.17-20.05 9.29-6.61 18.59-13.21 27.9-19.79 9.21-6.5 18.44-12.97 27.65-19.41 9.17-6.38 18.35-12.73 27.53-19.02 9.14-6.26 18.29-12.47 27.46-18.62 9.14-6.15 18.29-12.23 27.44-18.26 9.14-6.02 18.29-11.99 27.43-17.88 9.15-5.91 18.29-11.74 27.44-17.52 9.14-5.79 18.29-11.5 27.43-17.18 9.15-5.67 18.29-11.29 27.43-16.87 9.15-5.58 18.29-11.11 27.44-16.61 9.14-5.5 18.29-10.96 27.43-16.4 9.15-5.44 18.29-10.86 27.44-16.26a13045.762 13045.762 0 0 1 54.86-32.15c9.15-5.33 18.29-10.65 27.44-15.97 9.14-5.32 18.29-10.62 27.43-15.93 9.15-5.29 18.29-10.59 27.44-15.88 9.14-5.29 18.29-10.58 27.43-15.87 9.15-5.29 18.29-10.56 27.43-15.85 9.15-5.29 18.3-10.56 27.44-15.85 9.15-5.27 18.29-10.56 27.43-15.84 9.15-5.29 18.3-10.56 27.44-15.85 9.15-5.27 18.29-10.56 27.43-15.84 9.15-5.29 18.3-10.56 27.46-15.85 9.15-5.27 18.29-10.56 27.43-15.84 9.17-5.29 18.32-10.58 27.47-15.87 9.17-5.29 18.34-10.58 27.47-15.87 9.18-5.29 18.34-10.58 27.46-15.84 5.92-3.42 11.83-6.83 17.7-10.23M2.39 1360.62c44.72-25.82 89.43-51.64 134.17-77.46 7.56-4.38 15.12-8.74 22.68-13.11 9.02-5.2 18.02-10.4 27.03-15.61 9.38-5.41 18.77-10.83 28.15-16.24 9.3-5.38 18.61-10.74 27.9-16.12 9.23-5.32 18.44-10.64 27.67-15.96 9.17-5.3 18.35-10.61 27.52-15.9 9.15-5.29 18.3-10.58 27.46-15.85 9.15-5.29 18.3-10.56 27.44-15.85 9.15-5.27 18.29-10.56 27.44-15.84 9.14-5.29 18.29-10.56 27.43-15.84 9.15-5.29 18.29-10.56 27.44-15.85 9.14-5.27 18.27-10.56 27.43-15.84 9.14-5.27 18.29-10.56 27.43-15.84 9.15-5.29 18.29-10.56 27.43-15.84 9.15-5.29 18.3-10.56 27.44-15.85 9.15-5.27 18.29-10.56 27.43-15.84 9.15-5.27 18.29-10.56 27.44-15.84 9.14-5.29 18.29-10.56 27.43-15.84 9.15-5.29 18.29-10.56 27.44-15.84 9.14-5.29 18.29-10.56 27.43-15.85 9.15-5.27 18.29-10.55 27.43-15.82 9.15-5.27 18.3-10.55 27.44-15.82 9.15-5.26 18.29-10.52 27.43-15.76 9.15-5.24 18.3-10.46 27.44-15.64 9.15-5.17 18.29-10.29 27.43-15.3 9.15-5 18.3-9.91 27.44-14.58 9.15-4.68 18.3-9.15 27.44-13.21 9.15-4.08 18.3-7.76 27.44-10.86 9.17-3.12 18.32-5.67 27.47-7.56 9.17-1.88 18.32-3.11 27.47-3.77 9.17-.68 18.34-.8 27.44-.8s18.3.12 27.34-.26c9.18-.38 18.27-1.3 27.25-3.33 9.29-2.12 18.46-5.44 27.56-10.27 9.26-4.89 18.44-11.36 27.68-19.29 9.09-7.82 18.23-17.05 27.43-27.15 8.97-9.88 18.02-20.61 27.03-31.35 9.12-10.83 18.21-21.71 27.29-32.02 9.23-10.49 18.43-20.38 27.68-29.55 9.14-9.05 18.32-17.38 27.64-25.14 8.97-7.47 18.09-14.4 27.32-20.96 8.99-6.38 18.09-12.43 27.26-18.26 9.11-5.8 18.27-11.41 27.44-16.91 9.15-5.5 18.32-10.91 27.49-16.27 9.17-5.35 18.32-10.68 27.49-15.99 9.15-5.3 18.3-10.59 27.44-15.88 9.15-5.29 18.3-10.58 27.44-15.85 9.15-5.29 18.3-10.56 27.44-15.85 9.15-5.27 18.3-10.56 27.47-15.85 9.17-5.3 18.35-10.59 27.52-15.9 9.23-5.32 18.44-10.64 27.65-15.97 9.3-5.36 18.61-10.73 27.91-16.11 9.38-5.41 18.77-10.83 28.15-16.26 9-5.2 18.02-10.4 27.02-15.59 7.58-4.38 15.14-8.74 22.7-13.11 19.49-11.24 38.97-22.5 58.46-33.75" style="fill:none;stroke:#fff;stroke-linecap:round;stroke-linejoin:round;stroke-width:.8px"/><path d="M2.39 1405.47c57.66-33.31 115.33-66.6 173-99.89 7.56-4.36 15.14-8.74 22.7-13.11 9-5.2 18.02-10.4 27.02-15.61 9.39-5.41 18.77-10.83 28.15-16.24 9.3-5.38 18.61-10.74 27.91-16.12 9.21-5.32 18.44-10.64 27.65-15.96 9.18-5.3 18.35-10.59 27.52-15.9 9.17-5.29 18.32-10.58 27.47-15.85 9.15-5.29 18.29-10.56 27.44-15.85 9.14-5.27 18.29-10.56 27.43-15.84 9.15-5.29 18.29-10.56 27.44-15.84 9.14-5.29 18.29-10.56 27.43-15.85 9.14-5.27 18.29-10.56 27.43-15.84 9.15-5.27 18.29-10.56 27.44-15.84 9.14-5.29 18.29-10.56 27.43-15.84 9.15-5.29 18.29-10.56 27.43-15.85 9.15-5.27 18.3-10.55 27.44-15.84 9.14-5.27 18.29-10.56 27.43-15.84 9.15-5.27 18.29-10.56 27.44-15.84 9.14-5.29 18.29-10.56 27.43-15.84 9.15-5.27 18.29-10.56 27.44-15.82 9.14-5.27 18.29-10.55 27.43-15.8 9.14-5.26 18.29-10.52 27.43-15.74 9.15-5.23 18.3-10.44 27.44-15.59 9.15-5.15 18.29-10.24 27.43-15.24 9.15-4.99 18.3-9.88 27.44-14.55 9.15-4.67 18.29-9.14 27.43-13.24 9.15-4.11 18.3-7.86 27.44-11.09 9.17-3.24 18.3-5.96 27.44-8.06 9.17-2.11 18.32-3.61 27.47-4.56 9.17-.95 18.34-1.36 27.47-1.59 9.18-.23 18.34-.26 27.46-.67 9.17-.39 18.29-1.18 27.32-2.91 9.2-1.77 18.27-4.53 27.25-8.61 9.3-4.21 18.47-9.85 27.58-16.82 9.24-7.09 18.44-15.58 27.67-25.09 9.09-9.36 18.23-19.71 27.43-30.41 8.99-10.46 18.02-21.23 27.05-31.65 9.11-10.52 18.21-20.67 27.29-30.12 9.23-9.61 18.43-18.49 27.68-26.7 9.12-8.09 18.3-15.55 27.62-22.55 8.99-6.74 18.09-13.08 27.34-19.18 8.99-5.94 18.09-11.67 27.25-17.27 9.11-5.58 18.27-11.05 27.44-16.46a4656.5 4656.5 0 0 1 27.5-16.08c9.15-5.33 18.32-10.64 27.47-15.93 9.15-5.3 18.3-10.59 27.46-15.87 9.15-5.29 18.29-10.58 27.44-15.85 9.14-5.29 18.29-10.56 27.44-15.85 9.15-5.29 18.3-10.56 27.46-15.85 9.18-5.3 18.35-10.59 27.53-15.9 9.21-5.32 18.43-10.64 27.65-15.97 9.3-5.36 18.59-10.73 27.9-16.11 9.39-5.41 18.77-10.83 28.17-16.26 9-5.2 18-10.4 27.02-15.59 7.56-4.36 15.12-8.74 22.68-13.11 7.8-4.5 15.61-9 23.41-13.52" style="fill:none;stroke:#fff;stroke-linecap:round;stroke-linejoin:round;stroke-width:.8px"/><path d="M2.39 1450.33c70.61-40.78 141.23-81.55 211.86-122.32 7.56-4.36 15.12-8.74 22.68-13.11 9.02-5.2 18.02-10.4 27.03-15.59 9.38-5.42 18.76-10.85 28.15-16.26 9.3-5.38 18.59-10.74 27.9-16.11 9.23-5.33 18.44-10.65 27.67-15.97 9.17-5.3 18.34-10.59 27.52-15.9 9.15-5.29 18.3-10.58 27.46-15.85 9.15-5.29 18.3-10.56 27.44-15.85 9.15-5.27 18.29-10.56 27.44-15.84 9.14-5.29 18.29-10.56 27.43-15.84 9.15-5.29 18.29-10.56 27.43-15.85 9.15-5.27 18.29-10.56 27.44-15.84 9.14-5.27 18.29-10.56 27.43-15.84 9.15-5.29 18.29-10.56 27.43-15.84 9.15-5.29 18.3-10.56 27.44-15.84 9.15-5.29 18.29-10.56 27.43-15.85 9.15-5.27 18.29-10.55 27.44-15.84 9.14-5.27 18.29-10.55 27.43-15.82 9.15-5.27 18.29-10.55 27.43-15.82 9.15-5.26 18.3-10.53 27.44-15.77 9.15-5.24 18.29-10.49 27.43-15.68 9.15-5.21 18.29-10.38 27.44-15.49 9.15-5.12 18.29-10.17 27.43-15.09 9.15-4.92 18.29-9.73 27.44-14.32 9.15-4.59 18.29-8.97 27.43-13.02 9.15-4.03 18.3-7.73 27.44-10.94 9.15-3.23 18.3-5.97 27.44-8.15 9.15-2.2 18.3-3.82 27.44-4.96 9.17-1.15 18.32-1.8 27.47-2.26 9.17-.45 18.32-.71 27.47-1.26 9.17-.56 18.34-1.42 27.44-3.14 9.18-1.74 18.3-4.33 27.32-8.15 9.2-3.88 18.29-9.02 27.26-15.4 9.29-6.59 18.46-14.5 27.56-23.37 9.26-9 18.44-18.97 27.68-29.43 9.09-10.29 18.23-21.02 27.43-31.62 8.97-10.35 18.02-20.58 27.03-30.2 9.12-9.71 18.21-18.84 27.29-27.25 9.23-8.55 18.43-16.38 27.68-23.67 9.14-7.18 18.32-13.85 27.64-20.23 8.97-6.15 18.09-12.05 27.32-17.82 8.99-5.61 18.09-11.12 27.26-16.58 9.11-5.42 18.27-10.8 27.44-16.15 9.15-5.35 18.32-10.67 27.49-15.97 9.17-5.32 18.32-10.61 27.47-15.9 9.17-5.29 18.3-10.58 27.46-15.85 9.15-5.29 18.3-10.58 27.44-15.85 9.15-5.29 18.3-10.56 27.44-15.85 9.15-5.29 18.32-10.56 27.47-15.85 9.17-5.3 18.35-10.59 27.52-15.9 9.21-5.32 18.44-10.64 27.65-15.97 9.3-5.36 18.61-10.73 27.91-16.11 9.38-5.41 18.77-10.83 28.15-16.26 9-5.2 18.02-10.4 27.02-15.59 2.42-1.39 4.83-2.8 7.26-4.2" style="fill:none;stroke:#fff;stroke-linecap:round;stroke-linejoin:round;stroke-width:.8px"/><path d="M2.39 1495.18c83.55-48.25 167.12-96.5 250.69-144.74 7.56-4.36 15.14-8.74 22.7-13.11 9-5.2 18.02-10.4 27.02-15.59 9.39-5.42 18.77-10.85 28.15-16.26 9.3-5.38 18.61-10.74 27.91-16.11 9.21-5.33 18.44-10.65 27.65-15.97 9.18-5.3 18.35-10.59 27.52-15.9 9.15-5.29 18.32-10.58 27.47-15.85 9.14-5.29 18.29-10.56 27.44-15.85 9.14-5.27 18.29-10.56 27.43-15.84 9.15-5.29 18.29-10.56 27.44-15.84 9.14-5.29 18.29-10.56 27.43-15.85 9.14-5.27 18.29-10.55 27.43-15.84 9.15-5.27 18.29-10.56 27.44-15.84 9.14-5.27 18.29-10.56 27.43-15.84 9.15-5.27 18.29-10.56 27.43-15.84 9.15-5.27 18.3-10.56 27.44-15.84 9.14-5.27 18.29-10.55 27.43-15.8 9.15-5.27 18.29-10.53 27.44-15.79 9.14-5.26 18.29-10.5 27.43-15.73 9.15-5.23 18.29-10.43 27.44-15.58 9.14-5.17 18.27-10.29 27.43-15.32 9.14-5.03 18.29-9.99 27.43-14.79 9.15-4.8 18.29-9.47 27.44-13.88 9.14-4.42 18.29-8.62 27.43-12.47 9.15-3.85 18.3-7.35 27.44-10.4 9.15-3.06 18.29-5.68 27.43-7.8 9.15-2.14 18.3-3.77 27.44-5.02 9.15-1.23 18.3-2.06 27.44-2.76 9.17-.7 18.32-1.24 27.47-2.09 9.17-.85 18.34-2 27.47-3.92 9.18-1.94 18.34-4.68 27.46-8.55 9.17-3.91 18.29-8.97 27.32-15.2 9.2-6.35 18.27-13.9 27.25-22.31 9.3-8.71 18.46-18.35 27.58-28.38 9.24-10.18 18.44-20.79 27.67-31.35 9.09-10.38 18.23-20.71 27.43-30.59 8.99-9.65 18.02-18.85 27.05-27.41 9.11-8.62 18.21-16.59 27.29-23.97 9.23-7.52 18.43-14.41 27.68-20.94 9.12-6.44 18.3-12.52 27.62-18.46 8.99-5.71 18.09-11.3 27.34-16.87 8.99-5.39 18.09-10.77 27.25-16.14 9.11-5.35 18.27-10.67 27.44-15.99 9.17-5.32 18.34-10.62 27.5-15.93 9.15-5.29 18.32-10.58 27.47-15.87l27.46-15.87c9.14-5.27 18.29-10.56 27.44-15.84 9.14-5.29 18.29-10.56 27.44-15.85 9.15-5.29 18.3-10.56 27.46-15.85 9.18-5.3 18.35-10.59 27.52-15.9 9.23-5.32 18.44-10.64 27.67-15.97 9.3-5.36 18.59-10.73 27.9-16.11 7.86-4.53 15.73-9.08 23.59-13.62" style="fill:none;stroke:#fff;stroke-linecap:round;stroke-linejoin:round;stroke-width:.8px"/><path d="M2.39 1540.03c96.51-55.73 193.02-111.45 289.53-167.17 7.58-4.36 15.14-8.74 22.7-13.11 9.02-5.2 18.02-10.4 27.03-15.59 9.38-5.42 18.76-10.85 28.15-16.26 9.3-5.38 18.59-10.74 27.9-16.11 9.23-5.33 18.44-10.65 27.67-15.97 9.17-5.3 18.34-10.59 27.52-15.9 9.15-5.29 18.3-10.56 27.46-15.85 9.15-5.29 18.29-10.56 27.44-15.85 9.15-5.27 18.29-10.56 27.44-15.84 9.14-5.29 18.29-10.56 27.43-15.84 9.15-5.29 18.29-10.56 27.43-15.84 9.15-5.29 18.29-10.56 27.44-15.84 9.14-5.29 18.29-10.56 27.43-15.84 9.15-5.29 18.29-10.56 27.43-15.84 9.15-5.27 18.3-10.55 27.44-15.8 9.15-5.27 18.29-10.53 27.43-15.79 9.15-5.26 18.29-10.5 27.44-15.73 9.14-5.23 18.29-10.43 27.43-15.61 9.15-5.17 18.29-10.32 27.43-15.4 9.15-5.08 18.3-10.09 27.44-15 9.15-4.91 18.29-9.7 27.43-14.32 9.15-4.62 18.29-9.05 27.44-13.21 9.14-4.17 18.29-8.08 27.43-11.62 9.15-3.55 18.29-6.73 27.44-9.5a341.22 341.22 0 0 1 27.43-7.08c9.15-1.94 18.3-3.49 27.44-4.74 9.15-1.26 18.3-2.23 27.44-3.18 9.15-.95 18.3-1.88 27.44-3.15 9.17-1.29 18.32-2.92 27.47-5.32 9.17-2.41 18.32-5.58 27.47-9.8 9.17-4.23 18.34-9.53 27.44-15.94 9.17-6.44 18.3-14 27.32-22.35 9.2-8.52 18.29-17.85 27.26-27.53 9.29-10 18.46-20.37 27.56-30.61 9.26-10.41 18.44-20.68 27.68-30.56 9.09-9.71 18.23-19.05 27.43-27.79a513.54 513.54 0 0 1 27.03-24.02c9.12-7.52 18.21-14.46 27.29-20.99 9.23-6.64 18.43-12.83 27.68-18.82 9.14-5.89 18.3-11.59 27.64-17.24 8.97-5.44 18.09-10.85 27.32-16.29 8.99-5.29 18.09-10.59 27.26-15.91 9.11-5.3 18.26-10.61 27.43-15.91 9.17-5.29 18.34-10.59 27.5-15.88 9.17-5.3 18.32-10.59 27.47-15.87 9.17-5.29 18.3-10.58 27.46-15.87 9.15-5.27 18.3-10.56 27.44-15.84 9.15-5.29 18.3-10.56 27.44-15.85 9.15-5.29 18.32-10.56 27.47-15.85 9.17-5.3 18.35-10.59 27.52-15.9 9.21-5.32 18.44-10.64 27.65-15.97 4.23-2.42 8.44-4.86 12.65-7.3" style="fill:none;stroke:#fff;stroke-linecap:round;stroke-linejoin:round;stroke-width:.8px"/><path d="M2.39 1584.89c109.45-63.2 218.92-126.39 328.38-189.6 7.56-4.36 15.14-8.74 22.7-13.11 9-5.2 18.02-10.4 27.02-15.59 9.38-5.42 18.77-10.85 28.15-16.26 9.3-5.38 18.61-10.74 27.91-16.11 9.21-5.33 18.44-10.65 27.65-15.97 9.17-5.3 18.35-10.59 27.52-15.9 9.15-5.29 18.3-10.56 27.47-15.85 9.14-5.29 18.29-10.56 27.44-15.85 9.14-5.27 18.29-10.55 27.43-15.84 9.15-5.27 18.29-10.55 27.44-15.84 9.14-5.27 18.27-10.55 27.43-15.82 9.14-5.27 18.29-10.55 27.43-15.82 9.15-5.27 18.29-10.55 27.44-15.8 9.14-5.26 18.29-10.52 27.43-15.77 9.15-5.24 18.29-10.49 27.43-15.7 9.15-5.21 18.29-10.43 27.44-15.58 9.14-5.18 18.29-10.3 27.43-15.4 9.15-5.08 18.29-10.09 27.44-15.03 9.14-4.94 18.29-9.77 27.43-14.47 9.15-4.7 18.29-9.26 27.43-13.59 9.15-4.35 18.29-8.47 27.44-12.3 9.14-3.82 18.29-7.36 27.43-10.53 9.15-3.17 18.29-5.97 27.44-8.39 9.14-2.44 18.29-4.49 27.43-6.21 9.15-1.74 18.3-3.15 27.44-4.44 9.15-1.27 18.29-2.41 27.43-3.67 9.15-1.27 18.3-2.67 27.44-4.53 9.15-1.85 18.3-4.17 27.44-7.27 9.17-3.09 18.32-6.97 27.47-11.82 9.17-4.86 18.34-10.7 27.47-17.5 9.18-6.82 18.34-14.62 27.46-23.15 9.17-8.58 18.29-17.9 27.32-27.46 9.2-9.76 18.27-19.79 27.25-29.64 9.29-10.2 18.46-20.21 27.58-29.76 9.24-9.7 18.44-18.93 27.67-27.64 9.09-8.56 18.23-16.62 27.43-24.18 8.99-7.38 18.02-14.3 27.05-20.82 9.11-6.58 18.21-12.74 27.28-18.65 9.24-6.02 18.44-11.76 27.7-17.41 9.12-5.56 18.3-11.05 27.62-16.53 8.99-5.3 18.09-10.62 27.34-16 8.99-5.23 18.09-10.5 27.25-15.8 9.11-5.27 18.27-10.56 27.44-15.85 9.17-5.3 18.34-10.59 27.5-15.9 9.15-5.29 18.32-10.58 27.47-15.85l27.46-15.87c9.14-5.27 18.29-10.56 27.44-15.84 9.14-5.29 18.29-10.56 27.44-15.85 9.15-5.29 18.3-10.56 27.46-15.85 9.18-5.3 18.35-10.59 27.52-15.9.5-.27.98-.56 1.47-.85" style="fill:none;stroke:#fff;stroke-linecap:round;stroke-linejoin:round;stroke-width:.8px"/><path d="M2.39 1629.73c122.41-70.66 244.81-141.33 367.22-212.01 7.58-4.36 15.14-8.74 22.7-13.11 9.02-5.2 18.02-10.4 27.02-15.59 9.39-5.42 18.77-10.85 28.17-16.26 9.3-5.38 18.59-10.74 27.9-16.11 9.23-5.32 18.44-10.65 27.67-15.97 9.17-5.29 18.34-10.59 27.52-15.88 9.15-5.29 18.3-10.58 27.46-15.85 9.15-5.29 18.29-10.56 27.44-15.84 9.15-5.27 18.29-10.55 27.43-15.82 9.15-5.27 18.3-10.55 27.44-15.82 9.14-5.26 18.29-10.52 27.43-15.77 9.15-5.26 18.29-10.5 27.44-15.74 9.14-5.23 18.29-10.46 27.43-15.65 9.15-5.2 18.29-10.38 27.43-15.52 9.15-5.15 18.3-10.24 27.44-15.3 9.14-5.05 18.29-10.03 27.43-14.93 9.15-4.91 18.29-9.71 27.44-14.4 9.14-4.68 18.29-9.24 27.43-13.61 9.15-4.36 18.29-8.56 27.43-12.5 9.15-3.94 18.3-7.65 27.44-11.06 9.15-3.41 18.29-6.52 27.43-9.29 9.15-2.77 18.29-5.21 27.44-7.33 9.14-2.14 18.29-3.95 27.43-5.58 9.15-1.64 18.29-3.06 27.44-4.5 9.14-1.44 18.29-2.88 27.43-4.62 9.15-1.74 18.29-3.77 27.44-6.36 9.15-2.61 18.3-5.8 27.44-9.77 9.15-3.99 18.3-8.77 27.44-14.44 9.15-5.68 18.32-12.26 27.47-19.64 9.17-7.41 18.32-15.62 27.47-24.4 9.17-8.8 18.34-18.18 27.44-27.75 9.17-9.62 18.3-19.44 27.32-29.05 9.2-9.79 18.29-19.35 27.26-28.43 9.29-9.41 18.46-18.29 27.56-26.62 9.26-8.47 18.44-16.37 27.68-23.82 9.09-7.33 18.23-14.23 27.41-20.79 8.99-6.41 18.03-12.52 27.05-18.38 9.12-5.91 18.21-11.59 27.29-17.14 9.23-5.64 18.43-11.14 27.68-16.61 9.14-5.38 18.3-10.76 27.64-16.18 8.97-5.23 18.08-10.5 27.32-15.85 8.99-5.2 18.09-10.47 27.26-15.76 9.11-5.26 18.26-10.55 27.43-15.85 9.17-5.29 18.34-10.58 27.5-15.88 9.17-5.29 18.32-10.58 27.47-15.85 9.17-5.29 18.3-10.58 27.46-15.87 9.15-5.27 18.3-10.56 27.44-15.84 9.15-5.29 18.29-10.56 27.44-15.85 5.86-3.38 11.74-6.77 17.61-10.15" style="fill:none;stroke:#fff;stroke-linecap:round;stroke-linejoin:round;stroke-width:.8px"/><path d="M2.39 1674.52c135.35-78.07 270.71-156.23 406.07-234.37 7.56-4.36 15.14-8.73 22.7-13.11 9-5.2 18.02-10.4 27.02-15.59 9.38-5.41 18.77-10.83 28.15-16.24 9.3-5.38 18.61-10.74 27.91-16.11 9.21-5.32 18.44-10.64 27.65-15.96 9.17-5.29 18.35-10.58 27.52-15.87l27.46-15.82c9.15-5.26 18.3-10.52 27.44-15.77 9.15-5.26 18.3-10.5 27.44-15.74 9.15-5.23 18.29-10.47 27.43-15.67 9.15-5.21 18.29-10.41 27.44-15.58 9.14-5.17 18.29-10.32 27.43-15.41 9.15-5.11 18.29-10.15 27.44-15.15 9.14-4.99 18.29-9.91 27.43-14.74s18.29-9.56 27.43-14.17c9.15-4.59 18.29-9.06 27.44-13.37 9.14-4.29 18.29-8.41 27.43-12.32 9.15-3.89 18.29-7.59 27.43-11.02 9.15-3.44 18.3-6.62 27.44-9.55a555.75 555.75 0 0 1 27.43-7.99c9.15-2.41 18.29-4.56 27.44-6.53 9.14-1.99 18.29-3.79 27.43-5.55 9.15-1.76 18.29-3.47 27.44-5.35 9.14-1.89 18.29-3.95 27.43-6.42 9.15-2.49 18.29-5.39 27.44-8.94 9.14-3.56 18.29-7.77 27.43-12.77 9.15-5.02 18.3-10.82 27.44-17.41 9.15-6.59 18.3-13.97 27.44-21.99 9.17-8.05 18.32-16.71 27.47-25.76 9.17-9.06 18.34-18.5 27.47-28 9.18-9.52 18.34-19.11 27.46-28.46 9.17-9.41 18.29-18.56 27.32-27.26 9.2-8.85 18.27-17.23 27.25-25.06 9.29-8.11 18.46-15.65 27.58-22.74 9.24-7.2 18.44-13.93 27.67-20.38 9.09-6.33 18.23-12.4 27.43-18.3 8.99-5.76 18.02-11.35 27.05-16.84 9.11-5.55 18.21-10.97 27.28-16.32 9.24-5.44 18.44-10.82 27.7-16.21 9.12-5.3 18.3-10.64 27.62-16.03 8.99-5.2 18.09-10.46 27.32-15.79 9-5.2 18.11-10.46 27.26-15.74 9.11-5.26 18.27-10.56 27.44-15.85 9.17-5.29 18.34-10.58 27.5-15.88 9.15-5.29 18.32-10.58 27.47-15.85 9.15-5.29 18.3-10.58 27.46-15.85 9.14-5.29 18.29-10.58 27.44-15.85 2.06-1.2 4.14-2.39 6.2-3.58" style="fill:none;stroke:#fff;stroke-linecap:round;stroke-linejoin:round;stroke-width:.8px"/><path d="M37.93 1698.41c136.45-78.31 272.91-157.11 409.36-235.81 7.58-4.36 15.14-8.73 22.7-13.09 9.02-5.2 18.02-10.38 27.02-15.58 9.39-5.41 18.77-10.82 28.17-16.23 9.3-5.35 18.59-10.7 27.9-16.05l27.65-15.88c9.18-5.27 18.35-10.52 27.53-15.77 9.15-5.23 18.3-10.46 27.46-15.65 9.15-5.2 18.29-10.4 27.44-15.56 9.15-5.15 18.29-10.29 27.43-15.4 9.15-5.11 18.29-10.18 27.44-15.21 9.14-5.02 18.29-9.99 27.43-14.9 9.15-4.89 18.29-9.73 27.44-14.44 9.14-4.73 18.29-9.35 27.43-13.83 9.15-4.49 18.29-8.82 27.43-12.99 9.15-4.18 18.29-8.17 27.44-11.96 9.14-3.79 18.29-7.36 27.43-10.71 9.15-3.36 18.29-6.49 27.44-9.39 9.14-2.89 18.29-5.58 27.43-8.08 9.15-2.49 18.29-4.8 27.43-6.99 9.15-2.18 18.3-4.26 27.44-6.33 9.14-2.06 18.29-4.14 27.43-6.35 9.15-2.21 18.29-4.58 27.44-7.26 9.14-2.68 18.29-5.7 27.43-9.23a279.63 279.63 0 0 0 27.44-12.26c9.14-4.71 18.29-10.08 27.43-16.17 9.15-6.09 18.29-12.91 27.43-20.37 9.17-7.46 18.3-15.58 27.46-24.14 9.15-8.58 18.29-17.61 27.44-26.81 9.15-9.23 18.32-18.65 27.46-27.97 9.17-9.35 18.34-18.62 27.49-27.59 9.17-9 18.32-17.7 27.44-25.99 9.17-8.33 18.3-16.24 27.32-23.67 9.2-7.56 18.29-14.64 27.26-21.31 9.29-6.89 18.46-13.33 27.56-19.49 9.24-6.26 18.44-12.21 27.68-18.02 9.09-5.73 18.23-11.32 27.41-16.87 8.99-5.41 18.03-10.76 27.05-16.08 9.12-5.35 18.21-10.65 27.29-15.94 9.23-5.36 18.43-10.7 27.68-16.05 9.12-5.29 18.3-10.59 27.64-15.97 8.97-5.2 18.08-10.46 27.32-15.79 8.99-5.18 18.09-10.44 27.26-15.73 9.11-5.26 18.26-10.56 27.43-15.85 9.17-5.29 18.34-10.58 27.5-15.88 9.17-5.29 18.32-10.58 27.47-15.85 7.43-4.29 14.85-8.58 22.26-12.85" style="fill:none;stroke:#fff;stroke-linecap:round;stroke-linejoin:round;stroke-width:.8px"/><path d="M112.7 1698.41c124.48-70.14 248.97-141.77 373.45-213.23 7.56-4.33 15.12-8.68 22.7-13.02 9-5.17 18.02-10.32 27.02-15.47 9.38-5.36 18.77-10.73 28.15-16.08 9.3-5.3 18.61-10.58 27.91-15.85 9.21-5.21 18.43-10.41 27.65-15.59 9.17-5.15 18.35-10.27 27.52-15.37 9.15-5.08 18.3-10.12 27.46-15.11 9.15-5 18.3-9.94 27.44-14.82 9.15-4.89 18.29-9.71 27.44-14.46 9.14-4.73 18.29-9.39 27.43-13.96 9.15-4.55 18.29-9 27.44-13.32 9.14-4.32 18.29-8.5 27.43-12.52 9.15-4 18.29-7.85 27.43-11.5 9.15-3.65 18.29-7.11 27.44-10.35 9.14-3.24 18.29-6.29 27.43-9.15 9.15-2.86 18.29-5.53 27.44-8.06 9.14-2.55 18.29-4.94 27.43-7.27 9.15-2.33 18.29-4.61 27.43-6.94 9.15-2.32 18.29-4.7 27.44-7.24 9.14-2.56 18.29-5.29 27.43-8.33 9.15-3.06 18.29-6.42 27.44-10.24 9.14-3.8 18.29-8.08 27.43-12.87 9.15-4.8 18.29-10.15 27.44-16.09 9.14-5.92 18.29-12.46 27.43-19.55 9.15-7.11 18.29-14.77 27.44-22.91 9.14-8.12 18.29-16.71 27.43-25.56 9.15-8.86 18.3-18 27.44-27.14 9.15-9.17 18.3-18.35 27.44-27.35 9.17-9.02 18.32-17.85 27.47-26.34 9.17-8.52 18.32-16.7 27.47-24.49 9.17-7.8 18.34-15.23 27.44-22.28 9.18-7.09 18.3-13.79 27.34-20.14 9.18-6.47 18.27-12.59 27.25-18.44 9.29-6.06 18.46-11.83 27.56-17.46 9.26-5.7 18.46-11.24 27.68-16.76 9.09-5.41 18.23-10.8 27.43-16.18 8.99-5.26 18.02-10.52 27.05-15.74 9.11-5.29 18.21-10.56 27.28-15.8 9.23-5.35 18.44-10.67 27.7-16.02 9.12-5.26 18.3-10.56 27.62-15.96 8.99-5.18 18.09-10.44 27.32-15.77 9-5.18 18.09-10.44 27.26-15.73 9.11-5.26 18.27-10.56 27.44-15.85 9.17-5.29 18.34-10.58 27.5-15.88 3.62-2.09 7.26-4.18 10.88-6.27M2.39 642.95c.94-.55 1.89-1.09 2.85-1.65 9.14-5.27 18.29-10.56 27.43-15.84 9.15-5.27 18.29-10.56 27.43-15.84 9.15-5.29 18.29-10.56 27.44-15.84 9.14-5.29 18.29-10.56 27.43-15.85 9.15-5.27 18.29-10.56 27.44-15.84 9.14-5.27 18.29-10.56 27.43-15.84 9.15-5.29 18.3-10.56 27.44-15.84 9.15-5.29 18.29-10.56 27.43-15.82 9.15-5.29 18.3-10.55 27.44-15.79 9.15-5.24 18.3-10.47 27.44-15.62 9.17-5.17 18.32-10.26 27.47-15.17 9.17-4.91 18.34-9.64 27.47-13.97 9.18-4.35 18.34-8.29 27.46-11.53 9.17-3.26 18.29-5.82 27.32-7.5 9.2-1.7 18.27-2.49 27.25-2.58 9.3-.08 18.46.58 27.58 1.24 9.24.68 18.44 1.38 27.67 1.03 9.09-.35 18.23-1.7 27.43-4.91 8.99-3.12 18.02-8.03 27.05-14.77 9.11-6.79 18.21-15.44 27.29-25.21 9.23-9.94 18.43-21.05 27.68-32.37 9.12-11.15 18.3-22.5 27.62-33.37 8.99-10.46 18.09-20.46 27.32-29.68 9-8.97 18.11-17.2 27.26-24.76 9.11-7.5 18.27-14.35 27.44-20.74 9.17-6.39 18.34-12.35 27.5-18.11 9.15-5.74 18.32-11.27 27.47-16.71 9.15-5.44 18.3-10.8 27.46-16.14 9.14-5.33 18.29-10.64 27.44-15.93 9.14-5.29 18.29-10.58 27.44-15.87l27.46-15.87c9.18-5.29 18.35-10.59 27.52-15.88 9.23-5.33 18.44-10.65 27.67-15.97 9.29-5.36 18.59-10.74 27.9-16.11 9.38-5.42 18.77-10.83 28.15-16.26 9.02-5.2 18.02-10.41 27.03-15.61 7.56-4.36 15.14-8.73 22.7-13.11L1115.32.36" style="fill:none;stroke:#fff;stroke-linecap:round;stroke-linejoin:round;stroke-width:.8px"/><path d="M2.39 687.81c4.74-2.74 9.5-5.49 14.26-8.23 9.14-5.29 18.29-10.56 27.43-15.85 9.15-5.27 18.29-10.55 27.43-15.84 9.15-5.27 18.3-10.56 27.44-15.84 9.15-5.29 18.29-10.56 27.43-15.84 9.15-5.29 18.29-10.56 27.44-15.85 9.14-5.27 18.29-10.56 27.43-15.84 9.15-5.27 18.29-10.56 27.44-15.84 9.14-5.29 18.29-10.56 27.43-15.84 9.15-5.29 18.29-10.56 27.44-15.84 9.15-5.27 18.3-10.53 27.44-15.77 9.15-5.26 18.3-10.49 27.44-15.64 9.15-5.17 18.32-10.26 27.47-15.18 9.17-4.92 18.32-9.67 27.47-14.03 9.17-4.36 18.34-8.33 27.44-11.62 9.17-3.32 18.3-5.92 27.32-7.65 9.2-1.76 18.29-2.61 27.26-2.74 9.29-.14 18.46.5 27.56 1.18 9.26.7 18.44 1.44 27.68 1.18 9.09-.24 18.23-1.44 27.41-4.47 8.99-2.97 18.03-7.67 27.05-14.21 9.12-6.61 18.21-15.09 27.29-24.75 9.23-9.83 18.43-20.87 27.68-32.17 9.14-11.15 18.3-22.56 27.64-33.5 8.97-10.55 18.08-20.65 27.32-30 8.99-9.08 18.09-17.43 27.26-25.09 9.11-7.61 18.26-14.52 27.43-20.99 9.17-6.46 18.34-12.46 27.5-18.23 9.17-5.79 18.32-11.33 27.47-16.79 9.15-5.46 18.3-10.82 27.46-16.15 9.15-5.33 18.3-10.64 27.44-15.94 9.15-5.29 18.3-10.58 27.44-15.87 9.15-5.29 18.3-10.58 27.47-15.87 9.17-5.29 18.34-10.59 27.52-15.88 9.21-5.33 18.44-10.65 27.65-15.97 9.3-5.36 18.61-10.74 27.91-16.11 9.38-5.42 18.76-10.83 28.15-16.26 9-5.2 18.02-10.4 27.02-15.61l22.7-13.09c45.84-26.47 91.69-52.95 137.53-79.4" style="fill:none;stroke:#fff;stroke-linecap:round;stroke-linejoin:round;stroke-width:.8px"/><path d="M2.39 732.66c8.55-4.94 17.11-9.88 25.67-14.82 9.14-5.29 18.29-10.56 27.43-15.84 9.15-5.29 18.29-10.56 27.44-15.85 9.14-5.27 18.29-10.55 27.43-15.84 9.15-5.27 18.29-10.56 27.43-15.84 9.15-5.29 18.29-10.56 27.44-15.84 9.14-5.29 18.29-10.56 27.43-15.85 9.15-5.27 18.29-10.56 27.44-15.84 9.14-5.27 18.29-10.56 27.43-15.84 9.15-5.29 18.29-10.56 27.44-15.84 9.14-5.29 18.29-10.56 27.43-15.84 9.15-5.27 18.3-10.53 27.44-15.79 9.15-5.24 18.3-10.47 27.44-15.64 9.17-5.17 18.32-10.27 27.47-15.2 9.17-4.94 18.34-9.71 27.47-14.09 9.18-4.39 18.34-8.41 27.46-11.74 9.17-3.36 18.29-6.03 27.32-7.82 9.2-1.82 18.27-2.73 27.25-2.91 9.29-.18 18.46.42 27.58 1.11 9.24.71 18.44 1.5 27.67 1.36 9.09-.15 18.23-1.21 27.43-4.06 8.99-2.8 18.02-7.3 27.05-13.68 9.11-6.42 18.21-14.74 27.28-24.29 9.24-9.71 18.44-20.68 27.7-31.99 9.12-11.14 18.3-22.59 27.62-33.62 8.99-10.62 18.09-20.84 27.32-30.29 9-9.18 18.11-17.65 27.26-25.38 9.11-7.7 18.27-14.7 27.44-21.21 9.17-6.52 18.34-12.56 27.5-18.37 9.15-5.8 18.32-11.36 27.47-16.84 9.15-5.47 18.3-10.83 27.46-16.18 9.14-5.33 18.29-10.64 27.44-15.94 9.14-5.29 18.29-10.58 27.44-15.87 9.15-5.29 18.3-10.58 27.46-15.85 9.18-5.3 18.35-10.61 27.52-15.9 9.23-5.33 18.44-10.65 27.67-15.97 9.3-5.36 18.59-10.74 27.9-16.11 9.39-5.42 18.77-10.83 28.15-16.26 9.02-5.2 18.02-10.4 27.03-15.61l22.68-13.09L1270.7.4" style="fill:none;stroke:#fff;stroke-linecap:round;stroke-linejoin:round;stroke-width:.8px"/><path d="M2.39 777.51c3.21-1.86 6.42-3.71 9.64-5.58 9.15-5.27 18.29-10.56 27.44-15.84 9.14-5.27 18.29-10.56 27.43-15.84 9.15-5.29 18.29-10.56 27.44-15.84 9.14-5.29 18.29-10.56 27.43-15.85 9.15-5.27 18.29-10.55 27.43-15.84 9.15-5.27 18.3-10.56 27.44-15.84 9.14-5.29 18.29-10.56 27.43-15.84 9.15-5.29 18.29-10.56 27.44-15.85 9.14-5.27 18.29-10.56 27.43-15.84 9.15-5.27 18.29-10.56 27.44-15.84 9.14-5.29 18.29-10.56 27.43-15.84 9.15-5.29 18.29-10.56 27.44-15.84 9.15-5.27 18.29-10.55 27.44-15.79 9.15-5.24 18.3-10.49 27.44-15.65 9.15-5.17 18.32-10.29 27.46-15.23 9.17-4.96 18.34-9.74 27.49-14.17 9.17-4.42 18.32-8.49 27.44-11.88 9.17-3.42 18.3-6.17 27.32-8.03 9.2-1.91 18.29-2.89 27.26-3.14 9.29-.24 18.46.3 27.56 1 9.24.71 18.44 1.55 27.68 1.52 9.09-.05 18.23-.94 27.41-3.59 8.99-2.61 18.03-6.88 27.05-13.05 9.12-6.21 18.21-14.35 27.29-23.74 9.23-9.58 18.43-20.46 27.68-31.75 9.12-11.12 18.3-22.62 27.64-33.73 8.97-10.71 18.08-21.05 27.32-30.61 8.99-9.3 18.09-17.88 27.26-25.73 9.11-7.8 18.26-14.87 27.43-21.46 9.17-6.58 18.34-12.65 27.5-18.49 9.17-5.85 18.32-11.43 27.47-16.91 9.15-5.47 18.3-10.85 27.46-16.2 9.15-5.35 18.3-10.65 27.44-15.94 9.15-5.3 18.3-10.59 27.44-15.88 9.15-5.29 18.3-10.58 27.47-15.85 9.17-5.3 18.34-10.61 27.52-15.9l27.65-15.97c9.3-5.36 18.61-10.74 27.91-16.11 9.38-5.42 18.76-10.83 28.15-16.26 9-5.2 18.02-10.4 27.02-15.61l22.7-13.09c71.73-41.43 143.49-82.84 215.22-124.26" style="fill:none;stroke:#fff;stroke-linecap:round;stroke-linejoin:round;stroke-width:.8px"/><path d="M2.39 822.37c7.02-4.05 14.03-8.11 21.05-12.15 9.15-5.29 18.29-10.56 27.44-15.85 9.14-5.27 18.29-10.55 27.43-15.84 9.15-5.27 18.29-10.56 27.44-15.84 9.14-5.29 18.29-10.56 27.43-15.84 9.15-5.29 18.29-10.56 27.43-15.85 9.15-5.27 18.29-10.55 27.44-15.84 9.14-5.27 18.29-10.56 27.43-15.84 9.15-5.29 18.29-10.56 27.44-15.84 9.14-5.29 18.29-10.56 27.43-15.85 9.15-5.27 18.29-10.56 27.44-15.84 9.14-5.27 18.29-10.56 27.43-15.84 9.15-5.29 18.29-10.56 27.44-15.84 9.14-5.29 18.29-10.56 27.43-15.84 9.15-5.27 18.3-10.55 27.44-15.79 9.15-5.26 18.3-10.49 27.44-15.67 9.17-5.18 18.32-10.3 27.47-15.27 9.17-4.97 18.32-9.79 27.47-14.24 9.17-4.47 18.34-8.58 27.44-12.05 9.18-3.49 18.3-6.32 27.34-8.27 9.18-1.99 18.27-3.08 27.25-3.39 9.29-.32 18.46.18 27.56.86 9.26.71 18.46 1.61 27.68 1.68 9.09.08 18.23-.64 27.43-3.09 8.99-2.39 18.02-6.42 27.05-12.35 9.11-5.99 18.21-13.9 27.28-23.15 9.23-9.39 18.44-20.18 27.7-31.44 9.12-11.09 18.3-22.64 27.62-33.84 8.99-10.77 18.09-21.23 27.32-30.93 9-9.43 18.09-18.14 27.26-26.08 9.11-7.91 18.27-15.08 27.44-21.73 9.17-6.65 18.34-12.79 27.5-18.65 9.15-5.88 18.32-11.49 27.47-16.97 9.15-5.5 18.3-10.88 27.46-16.23 9.14-5.35 18.29-10.65 27.44-15.96 9.14-5.3 18.29-10.59 27.44-15.88 9.15-5.29 18.3-10.58 27.46-15.85 9.17-5.3 18.35-10.61 27.52-15.9 9.23-5.32 18.44-10.65 27.67-15.97 9.3-5.36 18.59-10.74 27.9-16.11 9.38-5.42 18.77-10.83 28.15-16.26 9.02-5.2 18.02-10.4 27.03-15.61l22.68-13.09c84.69-48.9 169.38-97.8 254.07-146.68" style="fill:none;stroke:#fff;stroke-linecap:round;stroke-linejoin:round;stroke-width:.8px"/><path d="M2.39 867.22c1.68-.97 3.35-1.94 5.03-2.91 9.15-5.27 18.29-10.56 27.44-15.84 9.14-5.29 18.29-10.56 27.43-15.84 9.15-5.29 18.29-10.56 27.43-15.85 9.15-5.27 18.29-10.56 27.44-15.84 9.14-5.27 18.29-10.56 27.43-15.84 9.15-5.29 18.29-10.56 27.44-15.84 9.14-5.29 18.29-10.56 27.43-15.85 9.15-5.27 18.29-10.55 27.43-15.84 9.15-5.27 18.29-10.56 27.44-15.84 9.14-5.29 18.29-10.56 27.43-15.84 9.15-5.29 18.29-10.56 27.44-15.85 9.14-5.27 18.29-10.55 27.43-15.84 9.15-5.27 18.29-10.56 27.43-15.84 9.15-5.29 18.3-10.56 27.44-15.84 9.15-5.29 18.29-10.56 27.43-15.84 9.17-5.27 18.3-10.55 27.46-15.79 9.15-5.26 18.29-10.5 27.44-15.68 9.15-5.18 18.32-10.32 27.46-15.3 9.17-4.99 18.34-9.83 27.47-14.32 9.18-4.5 18.34-8.67 27.46-12.18 9.17-3.56 18.3-6.46 27.32-8.5 9.2-2.08 18.29-3.24 27.26-3.62 9.29-.39 18.46.06 27.56.76 9.24.7 18.44 1.64 27.68 1.82 9.09.18 18.23-.38 27.41-2.62 8.99-2.21 18.03-6.03 27.05-11.76 9.11-5.77 18.21-13.49 27.29-22.59 9.23-9.26 18.43-19.96 27.68-31.17 9.12-11.08 18.3-22.64 27.64-33.91 8.97-10.85 18.08-21.41 27.32-31.22 8.99-9.55 18.09-18.37 27.26-26.43 9.11-8 18.26-15.26 27.43-21.97 9.17-6.71 18.34-12.9 27.5-18.81 9.17-5.91 18.32-11.53 27.47-17.05 9.15-5.5 18.3-10.9 27.46-16.24 9.15-5.36 18.29-10.67 27.44-15.97 9.15-5.3 18.29-10.59 27.44-15.88 9.15-5.27 18.3-10.56 27.47-15.85 9.17-5.3 18.34-10.61 27.52-15.9l27.65-15.97c9.3-5.36 18.61-10.74 27.9-16.11 9.39-5.42 18.77-10.83 28.17-16.26 9-5.2 18.02-10.4 27.02-15.61l22.7-13.09C1308.49 113.14 1406.13 56.77 1503.77.4" style="fill:none;stroke:#fff;stroke-linecap:round;stroke-linejoin:round;stroke-width:.8px"/><path d="M2.39 912.07c5.49-3.17 10.96-6.33 16.44-9.5 9.15-5.27 18.29-10.56 27.44-15.84 9.14-5.27 18.29-10.56 27.43-15.84 9.15-5.29 18.29-10.56 27.43-15.84 9.15-5.29 18.29-10.56 27.44-15.85 9.14-5.27 18.29-10.55 27.43-15.84 9.15-5.27 18.29-10.56 27.44-15.84 9.14-5.29 18.29-10.56 27.43-15.84 9.15-5.29 18.29-10.56 27.43-15.85 9.15-5.27 18.29-10.55 27.44-15.84 9.14-5.27 18.29-10.56 27.43-15.84 9.15-5.29 18.29-10.56 27.44-15.84 9.14-5.29 18.29-10.56 27.43-15.84 9.15-5.29 18.29-10.56 27.44-15.85 9.14-5.27 18.29-10.56 27.43-15.84 9.15-5.29 18.29-10.56 27.44-15.84 9.14-5.29 18.29-10.56 27.43-15.84 9.15-5.27 18.3-10.55 27.44-15.8 9.15-5.26 18.3-10.49 27.44-15.68 9.17-5.18 18.32-10.33 27.47-15.32 9.17-5 18.32-9.86 27.47-14.38 9.17-4.53 18.34-8.73 27.44-12.29 9.18-3.59 18.3-6.55 27.34-8.64 9.18-2.12 18.27-3.35 27.25-3.77 9.29-.44 18.46-.02 27.56.68 9.26.7 18.44 1.68 27.68 1.94 9.09.26 18.23-.18 27.43-2.29 8.99-2.06 18.02-5.73 27.05-11.3 9.11-5.62 18.21-13.18 27.28-22.18 9.23-9.15 18.44-19.79 27.7-30.99 9.12-11.05 18.3-22.65 27.62-33.97 8.99-10.91 18.09-21.56 27.32-31.44 8.99-9.64 18.09-18.55 27.26-26.68 9.11-8.08 18.27-15.4 27.44-22.17 9.17-6.76 18.34-12.99 27.49-18.91 9.17-5.94 18.34-11.58 27.49-17.11 9.15-5.52 18.3-10.91 27.46-16.27 9.14-5.35 18.29-10.67 27.44-15.97 9.14-5.3 18.29-10.59 27.44-15.87 9.14-5.29 18.29-10.58 27.46-15.87 9.17-5.3 18.35-10.61 27.52-15.9 9.23-5.32 18.44-10.65 27.67-15.97 9.29-5.36 18.59-10.74 27.9-16.11 9.38-5.42 18.77-10.83 28.15-16.26 9.02-5.2 18.02-10.4 27.03-15.61l22.68-13.09c110.59-63.86 221.18-127.7 331.76-191.54M2.39 1001.78c3.94-2.27 7.88-4.55 11.82-6.83 9.15-5.27 18.3-10.56 27.44-15.84 9.15-5.29 18.29-10.56 27.44-15.84 9.14-5.29 18.29-10.56 27.43-15.85 9.15-5.27 18.29-10.55 27.44-15.84 9.14-5.27 18.29-10.56 27.43-15.84 9.14-5.27 18.29-10.56 27.43-15.84 9.15-5.29 18.29-10.56 27.44-15.84 9.14-5.29 18.29-10.56 27.43-15.85 9.15-5.27 18.29-10.56 27.44-15.84 9.14-5.29 18.29-10.56 27.43-15.84 9.15-5.29 18.29-10.56 27.43-15.84 9.15-5.29 18.29-10.56 27.44-15.85 9.14-5.27 18.29-10.56 27.43-15.84 9.15-5.27 18.29-10.56 27.43-15.84 9.15-5.29 18.3-10.56 27.44-15.84 9.15-5.29 18.29-10.56 27.43-15.85 9.15-5.27 18.3-10.56 27.44-15.84 9.15-5.29 18.29-10.56 27.44-15.84 9.14-5.29 18.29-10.56 27.43-15.84 9.15-5.27 18.3-10.55 27.44-15.8 9.15-5.26 18.3-10.49 27.44-15.67 9.17-5.2 18.32-10.33 27.47-15.33 9.17-5 18.32-9.85 27.47-14.37 9.17-4.53 18.34-8.73 27.44-12.29 9.18-3.59 18.3-6.55 27.34-8.64 9.18-2.12 18.27-3.35 27.25-3.77 9.29-.42 18.46.02 27.56.71 9.26.73 18.44 1.74 27.68 2.05 9.09.29 18.23-.11 27.43-2.15 8.99-2 18.02-5.59 27.05-11.09 9.11-5.56 18.2-13.06 27.28-22.02 9.23-9.12 18.44-19.73 27.7-30.94 9.12-11.05 18.3-22.68 27.62-34.05 8.99-10.96 18.09-21.67 27.32-31.62 8.99-9.68 18.09-18.65 27.26-26.85 9.11-8.14 18.27-15.5 27.44-22.31 9.17-6.8 18.34-13.05 27.49-19 9.17-5.96 18.34-11.61 27.49-17.14 9.15-5.53 18.3-10.93 27.44-16.29 9.15-5.36 18.3-10.68 27.46-15.97 9.14-5.3 18.29-10.59 27.44-15.88 9.15-5.3 18.3-10.58 27.46-15.87 9.17-5.3 18.35-10.59 27.52-15.9 9.23-5.32 18.44-10.65 27.67-15.97 9.29-5.36 18.59-10.74 27.9-16.11 9.38-5.42 18.77-10.83 28.15-16.26 9.02-5.2 18.02-10.4 27.02-15.59 7.58-4.38 15.14-8.74 22.7-13.11 124.33-71.78 248.68-143.58 373.01-215.36" style="fill:none;stroke:#fff;stroke-linecap:round;stroke-linejoin:round;stroke-width:.8px"/><path d="M2.39 1046.63c7.73-4.47 15.47-8.93 23.21-13.4l27.46-15.87c9.14-5.27 18.29-10.56 27.44-15.84 9.14-5.29 18.29-10.56 27.43-15.84 9.15-5.29 18.29-10.56 27.44-15.85 9.14-5.27 18.29-10.55 27.43-15.84 9.15-5.27 18.29-10.56 27.44-15.84 9.14-5.27 18.27-10.56 27.43-15.84 9.14-5.29 18.29-10.56 27.43-15.84 9.15-5.29 18.29-10.56 27.44-15.85 9.14-5.27 18.29-10.56 27.43-15.84 9.15-5.27 18.29-10.56 27.43-15.84 9.15-5.29 18.29-10.56 27.44-15.84 9.14-5.29 18.29-10.56 27.43-15.85 9.15-5.27 18.29-10.56 27.44-15.84 9.14-5.27 18.29-10.56 27.43-15.84 9.15-5.29 18.29-10.56 27.44-15.84 9.14-5.29 18.29-10.56 27.43-15.85 9.15-5.27 18.29-10.56 27.43-15.84 9.15-5.29 18.3-10.56 27.44-15.84 9.15-5.29 18.29-10.56 27.43-15.84 9.17-5.27 18.3-10.55 27.46-15.79 9.15-5.26 18.29-10.49 27.44-15.65 9.15-5.2 18.32-10.32 27.46-15.27 9.17-4.99 18.34-9.79 27.47-14.26 9.18-4.47 18.34-8.59 27.46-12.06 9.17-3.5 18.3-6.35 27.32-8.33 9.2-2 18.29-3.12 27.26-3.44 9.29-.35 18.46.17 27.56.89 9.24.73 18.44 1.7 27.67 1.91 9.11.2 18.24-.35 27.43-2.58 8.99-2.18 18.02-5.97 27.05-11.67 9.11-5.74 18.21-13.44 27.29-22.53 9.23-9.24 18.43-19.94 27.68-31.2 9.12-11.09 18.3-22.71 27.64-34.05 8.97-10.91 18.08-21.56 27.32-31.44 8.99-9.62 18.09-18.53 27.25-26.65 9.12-8.09 18.27-15.4 27.44-22.17 9.17-6.76 18.34-12.99 27.5-18.91 9.17-5.94 18.32-11.58 27.47-17.09 9.15-5.53 18.3-10.93 27.46-16.29 9.15-5.35 18.29-10.67 27.44-15.97 9.15-5.29 18.29-10.58 27.44-15.87 9.15-5.3 18.3-10.58 27.46-15.87 9.18-5.3 18.35-10.59 27.53-15.9l27.65-15.97c9.3-5.36 18.61-10.74 27.9-16.11 9.39-5.42 18.77-10.83 28.17-16.26 9-5.2 18.02-10.4 27.02-15.59 7.56-4.38 15.12-8.74 22.7-13.11 111.38-64.31 222.77-128.62 334.16-192.93" style="fill:none;stroke:#fff;stroke-linecap:round;stroke-linejoin:round;stroke-width:.8px"/><path d="M2.39 1091.49c2.29-1.32 4.58-2.64 6.86-3.97 9.23-5.32 18.44-10.64 27.67-15.97 9.17-5.29 18.35-10.59 27.52-15.88 9.15-5.29 18.3-10.58 27.46-15.85 9.15-5.29 18.3-10.58 27.44-15.85 9.15-5.27 18.29-10.56 27.44-15.84 9.14-5.29 18.29-10.56 27.43-15.85 9.15-5.27 18.29-10.55 27.44-15.84 9.14-5.27 18.29-10.56 27.43-15.84 9.14-5.27 18.29-10.56 27.43-15.84 9.15-5.29 18.29-10.56 27.44-15.84 9.14-5.29 18.29-10.56 27.43-15.85 9.15-5.27 18.29-10.56 27.44-15.84 9.14-5.27 18.29-10.56 27.43-15.84 9.15-5.29 18.29-10.56 27.43-15.84 9.15-5.29 18.29-10.56 27.44-15.85 9.14-5.27 18.29-10.56 27.43-15.84 9.15-5.27 18.29-10.56 27.43-15.84 9.15-5.29 18.3-10.56 27.44-15.84 9.15-5.29 18.29-10.56 27.43-15.85 9.15-5.27 18.3-10.56 27.44-15.84 9.15-5.27 18.29-10.56 27.43-15.84 9.15-5.27 18.3-10.56 27.44-15.82 9.15-5.27 18.3-10.55 27.44-15.77 9.15-5.26 18.3-10.47 27.44-15.62 9.17-5.15 18.32-10.24 27.47-15.14 9.17-4.91 18.32-9.64 27.47-13.97 9.17-4.35 18.34-8.29 27.44-11.56 9.18-3.29 18.3-5.89 27.34-7.64 9.18-1.77 18.27-2.64 27.25-2.77 9.29-.15 18.46.47 27.56 1.2 9.26.73 18.44 1.58 27.68 1.53 9.09-.06 18.23-.97 27.43-3.64 8.99-2.61 18.02-6.88 27.05-13.02 9.11-6.2 18.2-14.29 27.28-23.67 9.23-9.55 18.44-20.43 27.7-31.75 9.12-11.15 18.3-22.73 27.62-33.94 8.99-10.82 18.09-21.29 27.32-31 8.99-9.44 18.09-18.17 27.26-26.14 9.11-7.93 18.27-15.12 27.44-21.79 9.15-6.65 18.34-12.8 27.49-18.68 9.17-5.89 18.34-11.5 27.49-17 9.15-5.5 18.3-10.9 27.44-16.24 9.15-5.35 18.3-10.65 27.44-15.96 9.15-5.3 18.3-10.59 27.46-15.87 9.14-5.29 18.29-10.58 27.46-15.87 9.17-5.3 18.35-10.59 27.52-15.9 9.23-5.32 18.44-10.65 27.67-15.97 9.29-5.36 18.59-10.74 27.9-16.11 9.38-5.42 18.77-10.83 28.15-16.26 9.02-5.2 18.02-10.4 27.02-15.59 7.58-4.38 15.14-8.74 22.7-13.11 98.43-56.84 196.88-113.66 295.32-170.5" style="fill:none;stroke:#fff;stroke-linecap:round;stroke-linejoin:round;stroke-width:.8px"/><path d="M2.39 1136.34c5.94-3.42 11.88-6.85 17.82-10.29 9.29-5.36 18.59-10.73 27.9-16.11 9.21-5.32 18.44-10.64 27.65-15.97 9.18-5.29 18.35-10.59 27.53-15.88 9.15-5.29 18.3-10.58 27.46-15.85 9.14-5.29 18.29-10.58 27.44-15.85 9.14-5.27 18.29-10.56 27.43-15.84 9.15-5.29 18.29-10.56 27.44-15.85 9.14-5.27 18.29-10.55 27.43-15.84 9.15-5.27 18.29-10.56 27.43-15.84 9.15-5.27 18.29-10.56 27.44-15.84 9.14-5.29 18.29-10.56 27.43-15.84 9.15-5.29 18.29-10.56 27.44-15.85 9.14-5.27 18.29-10.56 27.43-15.84 9.15-5.27 18.29-10.56 27.43-15.84 9.15-5.29 18.29-10.56 27.44-15.84 9.14-5.29 18.29-10.56 27.43-15.85 9.15-5.27 18.29-10.56 27.44-15.84 9.14-5.27 18.29-10.56 27.43-15.84 9.15-5.29 18.29-10.56 27.43-15.84 9.15-5.29 18.3-10.56 27.44-15.85 9.15-5.27 18.29-10.56 27.43-15.84 9.15-5.27 18.3-10.56 27.44-15.84 9.15-5.27 18.29-10.55 27.43-15.8 9.15-5.27 18.3-10.53 27.46-15.74 9.15-5.23 18.29-10.41 27.44-15.5 9.15-5.11 18.32-10.11 27.46-14.88 9.17-4.79 18.34-9.33 27.47-13.43 9.18-4.11 18.34-7.76 27.46-10.67 9.17-2.92 18.3-5.12 27.32-6.47 9.2-1.36 18.27-1.83 27.26-1.73 9.29.12 18.46.86 27.56 1.52 9.24.65 18.44 1.2 27.67.64 9.11-.55 18.24-2.15 27.43-5.59 8.99-3.36 18.02-8.46 27.05-15.32 9.11-6.92 18.21-15.64 27.29-25.46 9.23-10 18.43-21.12 27.68-32.49 9.12-11.21 18.3-22.65 27.62-33.64 8.99-10.59 18.09-20.76 27.34-30.14 8.99-9.15 18.09-17.56 27.25-25.26 9.11-7.67 18.27-14.64 27.44-21.15 9.17-6.5 18.34-12.53 27.5-18.34 9.17-5.8 18.32-11.36 27.47-16.84 9.15-5.47 18.3-10.83 27.46-16.17 9.15-5.35 18.29-10.65 27.44-15.94 9.15-5.3 18.29-10.59 27.44-15.88 9.15-5.29 18.3-10.56 27.46-15.85 9.18-5.3 18.35-10.59 27.53-15.9l27.65-15.97c9.3-5.36 18.61-10.74 27.9-16.11 9.39-5.42 18.77-10.83 28.17-16.26 9-5.2 18.02-10.4 27.02-15.59 7.56-4.38 15.12-8.74 22.7-13.11 85.48-49.35 170.97-98.72 256.47-148.08" style="fill:none;stroke:#fff;stroke-linecap:round;stroke-linejoin:round;stroke-width:.8px"/><path d="M2.39 1181.19c.48-.27.98-.56 1.49-.85l27.02-15.61c9.38-5.41 18.77-10.83 28.15-16.26 9.3-5.36 18.61-10.73 27.9-16.11 9.23-5.32 18.44-10.64 27.67-15.97 9.17-5.29 18.35-10.59 27.52-15.88 9.15-5.29 18.3-10.58 27.46-15.85 9.15-5.29 18.3-10.56 27.44-15.85 9.15-5.27 18.29-10.56 27.44-15.84 9.14-5.29 18.29-10.56 27.43-15.85 9.15-5.27 18.29-10.55 27.44-15.84 9.14-5.27 18.29-10.56 27.43-15.84 9.14-5.27 18.29-10.56 27.43-15.84 9.15-5.29 18.29-10.56 27.44-15.84 9.14-5.29 18.29-10.56 27.43-15.85 9.15-5.27 18.29-10.56 27.44-15.84 9.14-5.27 18.29-10.56 27.43-15.84 9.14-5.29 18.29-10.56 27.43-15.84 9.15-5.29 18.29-10.56 27.44-15.85 9.14-5.27 18.29-10.56 27.43-15.84 9.15-5.27 18.29-10.56 27.43-15.84 9.15-5.29 18.3-10.56 27.44-15.84 9.15-5.29 18.29-10.56 27.43-15.85 9.15-5.27 18.3-10.55 27.44-15.84 9.15-5.27 18.29-10.55 27.43-15.82 9.15-5.27 18.3-10.55 27.44-15.79 9.15-5.26 18.3-10.49 27.44-15.67 9.15-5.18 18.3-10.3 27.44-15.29 9.17-5 18.32-9.85 27.47-14.41 9.17-4.56 18.32-8.8 27.47-12.5 9.17-3.73 18.34-6.88 27.44-9.26 9.18-2.39 18.3-4 27.34-4.82 9.18-.83 18.27-.86 27.25-.5 9.29.38 18.46 1.17 27.56 1.53 9.26.38 18.44.33 27.68-1.06 9.09-1.38 18.23-4.06 27.43-8.62 8.99-4.46 18.02-10.68 27.05-18.52 9.11-7.89 18.2-17.41 27.28-27.73 9.23-10.5 18.44-21.85 27.68-33.19 9.14-11.18 18.32-22.35 27.64-32.96 8.97-10.21 18.09-19.9 27.32-28.82 8.99-8.7 18.09-16.67 27.26-24.02 9.11-7.32 18.27-14 27.44-20.29 9.15-6.29 18.34-12.17 27.49-17.87 9.17-5.7 18.32-11.21 27.49-16.64 9.15-5.42 18.3-10.77 27.44-16.09 9.15-5.33 18.3-10.64 27.44-15.93 9.15-5.29 18.3-10.58 27.44-15.87 9.15-5.27 18.3-10.56 27.47-15.85 9.17-5.3 18.35-10.59 27.52-15.9 9.23-5.32 18.44-10.65 27.67-15.97 9.29-5.36 18.59-10.74 27.9-16.11 9.38-5.42 18.77-10.83 28.15-16.26 9.02-5.2 18.02-10.4 27.02-15.59 7.58-4.38 15.14-8.74 22.7-13.11 72.54-41.88 145.09-83.77 217.63-125.65" style="fill:none;stroke:#fff;stroke-linecap:round;stroke-linejoin:round;stroke-width:.8px"/><path d="M2.39 1226.05c5.86-3.38 11.74-6.77 17.62-10.17 7.56-4.38 15.14-8.74 22.7-13.11 9-5.2 18.02-10.4 27.02-15.61 9.39-5.41 18.77-10.83 28.17-16.26 9.29-5.36 18.59-10.73 27.9-16.11 9.21-5.32 18.44-10.64 27.65-15.96 9.18-5.3 18.35-10.61 27.53-15.9 9.15-5.29 18.3-10.58 27.46-15.85 9.14-5.29 18.29-10.56 27.44-15.85 9.14-5.27 18.29-10.56 27.43-15.84 9.15-5.29 18.29-10.56 27.44-15.85 9.14-5.27 18.29-10.55 27.43-15.84 9.15-5.27 18.29-10.56 27.43-15.84 9.15-5.27 18.29-10.56 27.44-15.84 9.14-5.29 18.29-10.56 27.43-15.84 9.15-5.29 18.29-10.56 27.44-15.85 9.14-5.27 18.29-10.56 27.43-15.84 9.15-5.27 18.29-10.56 27.43-15.84 9.15-5.29 18.29-10.56 27.44-15.84 9.14-5.29 18.29-10.56 27.43-15.85 9.15-5.27 18.29-10.56 27.44-15.84 9.14-5.27 18.29-10.56 27.43-15.84 9.15-5.29 18.29-10.56 27.43-15.84 9.15-5.29 18.3-10.56 27.44-15.84 9.15-5.29 18.29-10.56 27.43-15.84 9.15-5.27 18.3-10.55 27.44-15.8 9.15-5.27 18.29-10.52 27.43-15.73 9.15-5.23 18.3-10.41 27.46-15.52 9.15-5.09 18.29-10.09 27.43-14.9 9.17-4.8 18.32-9.39 27.47-13.59 9.17-4.2 18.34-7.97 27.47-11.11 9.18-3.15 18.34-5.64 27.46-7.33 9.17-1.71 18.29-2.62 27.32-2.88 9.2-.27 18.27.11 27.26.56 9.29.47 18.46 1.03 27.56.79 9.24-.23 18.44-1.26 27.67-3.88 9.09-2.58 18.23-6.7 27.43-12.67 8.99-5.82 18.02-13.4 27.05-22.29 9.11-8.97 18.21-19.27 27.29-30.03 9.23-10.94 18.43-22.35 27.68-33.49 9.12-10.97 18.3-21.68 27.62-31.73 8.99-9.68 18.09-18.74 27.34-27.11 8.99-8.14 18.09-15.59 27.25-22.53 9.11-6.89 18.27-13.26 27.44-19.32 9.17-6.05 18.34-11.79 27.5-17.38 9.17-5.58 18.32-11.02 27.47-16.41 9.15-5.38 18.3-10.71 27.46-16.03 9.15-5.3 18.29-10.59 27.44-15.88 9.15-5.29 18.29-10.58 27.44-15.87 9.15-5.29 18.3-10.56 27.46-15.85 9.18-5.3 18.35-10.59 27.53-15.9l27.65-15.97c9.3-5.36 18.61-10.74 27.9-16.11 9.39-5.42 18.77-10.83 28.17-16.26 9-5.2 18-10.4 27.02-15.59 7.56-4.38 15.12-8.74 22.7-13.11 59.58-34.41 119.18-68.81 178.78-103.22" style="fill:none;stroke:#fff;stroke-linecap:round;stroke-linejoin:round;stroke-width:.8px"/><path d="M.4 1272.05c19.49-11.24 38.97-22.5 58.46-33.75 7.56-4.38 15.12-8.74 22.7-13.11l27.02-15.61c9.38-5.41 18.77-10.83 28.15-16.26 9.3-5.36 18.61-10.73 27.9-16.11 9.23-5.32 18.44-10.64 27.67-15.96 9.17-5.3 18.35-10.61 27.52-15.9 9.15-5.29 18.3-10.58 27.46-15.85 9.15-5.29 18.3-10.56 27.44-15.85 9.15-5.27 18.29-10.56 27.44-15.84 9.14-5.29 18.29-10.56 27.43-15.85 9.15-5.27 18.29-10.55 27.44-15.84 9.14-5.27 18.29-10.56 27.43-15.84 9.14-5.27 18.29-10.56 27.43-15.84 9.15-5.29 18.29-10.56 27.44-15.84 9.14-5.29 18.29-10.56 27.43-15.85 9.15-5.27 18.29-10.56 27.43-15.84 9.15-5.27 18.29-10.56 27.44-15.84 9.14-5.29 18.29-10.56 27.43-15.84 9.15-5.29 18.29-10.56 27.44-15.85 9.14-5.27 18.29-10.55 27.43-15.84 9.15-5.27 18.29-10.56 27.43-15.84 9.15-5.27 18.3-10.56 27.44-15.84 9.15-5.29 18.29-10.56 27.43-15.84 9.15-5.27 18.3-10.55 27.44-15.82 9.15-5.26 18.29-10.53 27.43-15.76 9.15-5.23 18.3-10.44 27.44-15.59 9.15-5.15 18.3-10.23 27.44-15.15 9.15-4.94 18.3-9.71 27.44-14.18 9.17-4.47 18.32-8.64 27.47-12.26 9.17-3.64 18.32-6.76 27.47-9.14 9.17-2.39 18.34-4.06 27.44-5 9.18-.95 18.3-1.18 27.34-1.03 9.18.15 18.27.68 27.25.88 9.29.21 18.46.08 27.56-1.21 9.26-1.3 18.44-3.77 27.68-7.99 9.09-4.14 18.23-9.97 27.43-17.47 8.97-7.32 18.02-16.24 27.05-26.09 9.11-9.96 18.2-20.85 27.28-31.81 9.23-11.15 18.43-22.38 27.68-33.08 9.14-10.56 18.32-20.62 27.64-29.97a415.6 415.6 0 0 1 27.32-25.09c8.99-7.52 18.09-14.46 27.26-20.99 9.11-6.47 18.27-12.53 27.44-18.37 9.15-5.83 18.34-11.43 27.49-16.93 9.17-5.49 18.32-10.88 27.49-16.23 9.15-5.35 18.3-10.65 27.44-15.96 9.15-5.3 18.3-10.59 27.44-15.88 9.15-5.29 18.3-10.56 27.44-15.85 9.17-5.29 18.32-10.56 27.47-15.85 9.17-5.3 18.35-10.59 27.52-15.9 9.23-5.32 18.44-10.65 27.67-15.97 9.29-5.36 18.59-10.74 27.9-16.11 9.38-5.42 18.77-10.83 28.15-16.26 9.02-5.2 18.02-10.4 27.02-15.59 7.58-4.38 15.14-8.74 22.7-13.11l139.94-80.8" style="fill:none;stroke:#fff;stroke-linecap:round;stroke-linejoin:round;stroke-width:.8px"/><path d="M2.39 1315.77c31.76-18.35 63.54-36.7 95.31-55.04 7.56-4.38 15.14-8.74 22.7-13.11 9-5.2 18.02-10.4 27.02-15.61 9.39-5.41 18.77-10.83 28.17-16.24 9.29-5.38 18.59-10.74 27.9-16.12 9.21-5.32 18.44-10.64 27.65-15.96 9.18-5.3 18.35-10.61 27.52-15.9 9.17-5.29 18.32-10.58 27.47-15.85 9.14-5.29 18.29-10.56 27.44-15.85 9.14-5.27 18.29-10.56 27.43-15.84 9.15-5.29 18.29-10.56 27.44-15.85 9.14-5.27 18.29-10.55 27.43-15.84 9.15-5.27 18.29-10.56 27.43-15.84 9.15-5.27 18.29-10.56 27.44-15.84 9.14-5.29 18.29-10.56 27.43-15.84 9.15-5.29 18.29-10.56 27.44-15.85 9.14-5.27 18.29-10.56 27.43-15.84 9.15-5.27 18.29-10.56 27.43-15.84 9.15-5.29 18.29-10.56 27.44-15.84 9.14-5.29 18.29-10.56 27.43-15.84 9.15-5.29 18.29-10.56 27.44-15.85 9.14-5.27 18.29-10.56 27.43-15.84 9.15-5.27 18.29-10.56 27.43-15.84 9.15-5.27 18.3-10.55 27.44-15.82 9.15-5.26 18.29-10.52 27.43-15.76 9.15-5.24 18.3-10.47 27.44-15.64 9.15-5.17 18.29-10.29 27.43-15.27 9.15-5 18.3-9.86 27.46-14.47 9.15-4.62 18.29-8.99 27.43-12.91 9.17-3.92 18.32-7.41 27.47-10.26 9.17-2.85 18.34-5.06 27.47-6.58 9.18-1.5 18.34-2.3 27.46-2.59 9.17-.29 18.29-.06 27.32.12 9.2.2 18.27.36 27.25-.23 9.3-.62 18.47-2.03 27.58-4.88 9.24-2.88 18.44-7.23 27.67-13.27 9.09-5.97 18.23-13.59 27.43-22.55 8.99-8.76 18.02-18.81 27.05-29.34 9.11-10.62 18.21-21.74 27.29-32.58 9.23-11.02 18.43-21.71 27.68-31.76 9.12-9.89 18.3-19.14 27.62-27.7a415.29 415.29 0 0 1 27.34-22.99c8.99-6.92 18.09-13.37 27.25-19.52 9.11-6.11 18.27-11.91 27.44-17.56 9.17-5.64 18.34-11.12 27.5-16.53 9.17-5.42 18.32-10.77 27.47-16.09 9.15-5.32 18.3-10.62 27.46-15.91 9.15-5.3 18.29-10.58 27.44-15.87 9.14-5.29 18.29-10.56 27.44-15.85 9.15-5.29 18.3-10.56 27.46-15.85 9.18-5.3 18.35-10.59 27.53-15.9l27.65-15.97c9.3-5.36 18.61-10.74 27.9-16.11 9.39-5.42 18.77-10.83 28.17-16.26 9-5.2 18-10.4 27.02-15.59 7.56-4.38 15.12-8.74 22.68-13.11l101.1-58.37M1204.15 1698.41c.95-.55 1.89-1.09 2.85-1.65 9.14-5.27 18.29-10.55 27.43-15.84 9.14-5.27 18.29-10.55 27.43-15.84 9.15-5.27 18.29-10.56 27.44-15.84 9.14-5.27 18.29-10.56 27.43-15.84 9.15-5.29 18.3-10.56 27.44-15.85 9.15-5.27 18.29-10.56 27.43-15.84 9.15-5.27 18.29-10.56 27.44-15.84 9.14-5.29 18.27-10.56 27.43-15.84 9.14-5.29 18.29-10.56 27.43-15.84 9.15-5.29 18.3-10.58 27.44-15.85s18.27-10.55 27.43-15.84c9.14-5.27 18.29-10.56 27.44-15.84 9.14-5.29 18.27-10.56 27.43-15.84 9.14-5.29 18.29-10.58 27.44-15.85 9.14-5.27 18.27-10.56 27.41-15.84 9.15-5.27 18.3-10.56 27.44-15.84 9.15-5.29 18.3-10.58 27.44-15.85 9.02-5.2 18.02-10.4 27.03-15.61M1281.84 1698.41c2.49-1.44 4.97-2.86 7.46-4.3 9.14-5.27 18.29-10.56 27.43-15.84 9.15-5.29 18.3-10.56 27.44-15.85 9.15-5.27 18.29-10.56 27.43-15.84 9.15-5.27 18.29-10.56 27.44-15.84 9.14-5.29 18.27-10.56 27.43-15.84 9.14-5.27 18.29-10.56 27.43-15.84 9.15-5.29 18.3-10.58 27.44-15.85s18.27-10.55 27.43-15.84c9.14-5.27 18.29-10.56 27.44-15.84 9.14-5.29 18.27-10.56 27.43-15.84 9.14-5.29 18.29-10.58 27.44-15.85 9.14-5.27 18.27-10.56 27.41-15.84 9.15-5.27 18.3-10.56 27.44-15.84 9.15-5.29 18.3-10.58 27.44-15.85 9.02-5.2 18.02-10.4 27.03-15.61M1359.53 1698.41c4.02-2.32 8.05-4.65 12.06-6.97 9.15-5.27 18.29-10.56 27.44-15.84 9.14-5.27 18.27-10.56 27.43-15.84 9.14-5.27 18.29-10.56 27.43-15.84 9.15-5.29 18.3-10.56 27.44-15.85 9.14-5.27 18.27-10.55 27.43-15.84 9.14-5.27 18.29-10.56 27.44-15.84 9.14-5.29 18.27-10.56 27.43-15.84 9.14-5.29 18.29-10.56 27.44-15.85 9.14-5.27 18.27-10.55 27.41-15.84 9.15-5.27 18.3-10.56 27.44-15.84 9.15-5.29 18.3-10.56 27.44-15.85 9.02-5.2 18.02-10.4 27.03-15.61M1437.22 1698.41c5.56-3.21 11.11-6.42 16.67-9.62 9.15-5.29 18.3-10.56 27.44-15.85 9.14-5.27 18.27-10.55 27.43-15.84 9.14-5.27 18.29-10.56 27.44-15.84 9.14-5.29 18.27-10.56 27.43-15.84 9.14-5.29 18.29-10.56 27.44-15.85 9.14-5.27 18.27-10.55 27.41-15.84 9.15-5.27 18.3-10.56 27.44-15.84 9.15-5.29 18.3-10.56 27.44-15.85 9.02-5.2 18.02-10.4 27.03-15.61M2.39 553.25c2.49-1.44 4.97-2.88 7.46-4.3 9.14-5.29 18.29-10.56 27.43-15.85 9.15-5.27 18.29-10.56 27.44-15.84 9.14-5.27 18.29-10.56 27.43-15.84 9.15-5.29 18.3-10.56 27.44-15.84 9.15-5.29 18.29-10.56 27.43-15.84 9.15-5.27 18.3-10.53 27.44-15.79 9.15-5.24 18.3-10.47 27.44-15.64 9.17-5.17 18.32-10.27 27.47-15.21 9.17-4.94 18.32-9.71 27.47-14.11 9.17-4.41 18.34-8.43 27.44-11.76 9.18-3.33 18.32-5.97 27.35-7.62 9.2-1.67 18.3-2.32 27.28-2.09 9.29.23 18.46 1.38 27.55 2.59 9.24 1.23 18.4 2.52 27.62 2.5 9.08 0 18.21-1.26 27.41-4.74 9-3.41 18.08-8.94 27.12-16.5 9.12-7.62 18.23-17.32 27.31-28 9.21-10.85 18.4-22.73 27.62-34.5 9.11-11.59 18.27-23.09 27.59-33.82 8.99-10.35 18.11-19.97 27.35-28.76 9-8.53 18.11-16.27 27.28-23.41 9.12-7.09 18.29-13.59 27.46-19.73 9.17-6.15 18.34-11.94 27.49-17.56 9.17-5.62 18.32-11.08 27.47-16.47 9.15-5.39 18.3-10.74 27.46-16.05 9.14-5.32 18.29-10.61 27.44-15.91 9.14-5.29 18.29-10.56 27.44-15.85 9.15-5.29 18.3-10.58 27.46-15.85 9.17-5.3 18.34-10.59 27.5-15.88 9.21-5.32 18.43-10.64 27.62-15.96 9.29-5.36 18.58-10.73 27.87-16.08 9.38-5.42 18.76-10.85 28.15-16.26 9.05-5.23 18.11-10.46 27.17-15.68l22.97-13.27c6.89-3.99 13.79-7.96 20.67-11.93" style="fill:none;stroke:#fff;stroke-linecap:round;stroke-linejoin:round;stroke-width:.8px"/></g></svg>